<svg xmlns="http://www.w3.org/2000/svg" width="138" height="40" viewBox="0 0 138 40" fill="none"><g clip-path="url(#clip0_2521_11336)"><path d="M39.799 20.1C39.7595 24.0271 38.5589 27.8547 36.3484 31.1008C34.1379 34.347 31.0164 36.8664 27.3768 38.342C23.7373 39.8176 19.7425 40.1832 15.8955 39.3929C12.0486 38.6027 8.5215 36.6918 5.7584 33.9009C2.99531 31.11 1.1198 27.564 0.368022 23.7093C-0.383753 19.8547 0.0217881 15.8637 1.53367 12.2391C3.04555 8.61452 5.59617 5.51829 8.86424 3.34037C12.1323 1.16244 15.9717 0.00020145 19.899 3.1024e-06C22.5296 -0.0014661 25.1344 0.518905 27.5625 1.53099C29.9906 2.54307 32.1938 4.02675 34.0446 5.89614C35.8954 7.76554 37.357 9.98349 38.3447 12.4216C39.3325 14.8597 39.8268 17.4696 39.799 20.1ZM10.599 24.7V16.7C10.5468 16.3535 10.6176 15.9997 10.799 15.7C11.599 14.8 12.499 14.1 13.399 13.2C13.9697 13.7342 14.5707 14.235 15.199 14.7C15.573 14.918 15.87 15.2467 16.0492 15.6408C16.2283 16.0349 16.2807 16.4749 16.199 16.9C16.099 19.3 16.199 21.7 16.199 24.1C16.199 24.3 16.299 24.5 16.299 24.8C16.6685 24.8164 17.0385 24.7828 17.399 24.7V16.4C17.3901 16.012 17.4944 15.6298 17.699 15.3C18.399 14.6 19.199 13.9 19.999 13.2C20.599 13.7 21.099 14.3 21.699 14.7C22.0493 14.9418 22.3273 15.2741 22.5035 15.6616C22.6796 16.0491 22.7472 16.4771 22.699 16.9C22.599 19.4 22.699 21.8 22.699 24.3C22.691 24.6566 22.796 25.0067 22.999 25.3C24.299 26.4 25.599 27.5 26.899 28.7C28.099 27.5 29.299 26.5 30.399 25.3C30.4827 25.2058 30.5442 25.094 30.5788 24.9728C30.6134 24.8516 30.6203 24.7242 30.599 24.6V15.8C30.599 15.7 30.499 15.6 30.399 15.5H29.399V23.6C29.4065 24.0195 29.303 24.4334 29.099 24.8C28.382 25.5836 27.6137 26.3186 26.799 27C25.999 26.4 25.399 25.7 24.699 25.2C24.3971 25.0126 24.1531 24.7452 23.9942 24.4274C23.8353 24.1096 23.7678 23.7539 23.799 23.4C23.899 20.9 23.799 18.4 23.799 15.9C23.8199 15.4641 23.6773 15.0361 23.399 14.7C22.299 13.6 21.099 12.7 19.899 11.6C18.799 12.6 17.699 13.5 16.599 14.4C15.399 13.4 14.299 12.5 13.199 11.5C11.999 12.7 10.799 13.7 9.69902 14.9C9.49022 15.2347 9.35393 15.6094 9.29899 16V24.7H10.599Z" fill="black"></path><path d="M59.2993 15.3999C60.1993 12.4999 61.0993 10.0999 61.6993 7.6999C62.0993 6.0999 62.8993 5.4999 64.4993 5.6999C65.2318 5.74991 65.9668 5.74991 66.6993 5.6999C67.3993 5.6999 67.7993 5.8999 67.7993 6.6999C67.9993 11.2999 68.2993 15.7999 68.5993 20.3999C68.6993 21.3999 68.5993 22.2999 67.1993 22.0999C66.0993 21.8999 64.2993 22.8999 64.3993 20.4999C64.4993 17.6999 64.3993 14.8999 64.3993 12.0999C64.1993 12.0999 63.9993 11.9999 63.7993 11.9999C62.9993 14.5999 62.0993 17.2999 61.2993 19.8999C60.8993 21.2999 60.2993 21.6999 58.7993 21.6999C57.2993 21.6999 56.9993 20.9999 56.6993 19.8999C56.0993 17.4999 55.3993 15.1999 54.5993 12.3999C54.1525 14.9743 53.9848 17.5895 54.0993 20.1999C54.2993 22.4999 52.7993 21.8999 51.4993 21.9999C49.8993 22.0999 49.9993 21.2999 50.0993 20.1999C50.3993 15.8999 50.6993 11.5999 50.8993 7.2999C50.9993 5.9999 51.2993 5.5999 52.6993 5.5999C56.4993 5.5999 56.4993 5.4999 57.5993 8.9999C58.0993 10.9999 58.5993 12.8999 59.2993 15.3999Z" fill="black"></path><path d="M133.701 15.1002C133.701 12.1002 133.801 9.60023 133.701 7.10023C133.601 5.30023 134.801 5.70023 135.801 5.70023C136.801 5.70023 137.801 5.50023 137.701 7.10023C137.601 11.6002 137.601 16.1002 137.701 20.6002C137.701 21.8002 137.201 22.0002 136.201 22.1002C135.29 22.279 134.344 22.125 133.537 21.6663C132.73 21.2076 132.114 20.4745 131.801 19.6002C130.601 17.0002 129.001 14.5002 127.301 11.5002C127.301 14.6002 127.201 17.3002 127.301 20.0002C127.301 21.4002 127.201 22.1002 125.401 22.1002C123.601 22.1002 123.301 21.5002 123.301 19.9002C123.401 15.7002 123.401 11.5002 123.301 7.30023C123.301 5.90023 123.801 5.60023 125.101 5.50023C127.201 5.40023 128.701 5.80023 129.601 8.00023C130.801 10.4002 132.201 12.5002 133.701 15.1002Z" fill="black"></path><path d="M85.1015 22.0998C83.5015 22.4998 82.8015 21.5998 82.6015 19.9998C82.4015 17.9998 81.1016 18.0998 79.5016 17.8998C77.7016 17.7998 77.4015 18.7998 77.1015 20.0998C76.9524 20.5131 76.7211 20.892 76.4214 21.2133C76.1217 21.5347 75.7599 21.792 75.358 21.9696C74.956 22.1472 74.5223 22.2414 74.0829 22.2466C73.6435 22.2518 73.2076 22.1679 72.8016 21.9998C72.1016 21.6998 72.4016 21.2998 72.5016 20.8998C74.0016 16.0998 75.4015 11.3998 76.9015 6.5998C77.1015 5.8998 77.5016 5.6998 78.2016 5.5998C82.1016 5.0998 82.6016 5.3998 83.8016 9.1998C84.9016 12.6998 86.0015 16.1998 87.1015 19.7998C87.8015 22.0998 87.8015 22.0998 85.1015 22.0998ZM81.3016 14.7998C80.9016 13.3998 80.4016 11.8998 80.0016 10.4998C79.9473 10.4933 79.8922 10.4988 79.8403 10.5161C79.7884 10.5334 79.7411 10.562 79.7016 10.5998C79.3016 11.9998 78.9015 13.3998 78.6015 14.8998C79.498 15.065 80.4198 15.0309 81.3016 14.7998Z" fill="black"></path><path d="M108.1 13.8001V7.0001C108.1 6.0001 108.5 5.6001 109.5 5.6001C112.2 5.6001 114.9 5.7001 117.5 5.6001C119 5.6001 118.8 6.5001 118.9 7.4001C119 8.5001 118.6 9.0001 117.4 8.9001C116.2 8.8001 115.3 8.9001 114.2 8.9001C113.1 8.9001 112.4 8.9001 112.4 10.4001C112.4 11.9001 113.3 11.7001 114.2 11.7001H116.4C117.6 11.6001 118.6 11.7001 118.5 13.4001C118.4 15.1001 117.8 15.3001 116.4 15.2001C115.8 15.1001 115.2 15.3001 114.6 15.2001C112.5 14.8001 112.2 15.9001 112.3 17.7001C112.4 18.6001 112.6 18.9001 113.5 18.8001H117.9C119.1 18.8001 119.1 19.5001 119.1 20.3001C119.1 21.1001 119.2 22.0001 117.8 22.0001C114.9 21.9001 112 22.0001 109.2 22.0001C108.2 22.0001 108 21.5001 108 20.7001C108.1 18.5001 108.1 16.2001 108.1 13.8001Z" fill="black"></path><path d="M96.6986 16.7998C97.7986 13.2998 98.5986 10.3998 99.4986 7.39982C99.8986 5.89982 102.699 4.89982 103.999 5.69982C104.499 5.99982 104.299 6.29982 104.199 6.69982C102.499 11.4998 100.899 16.2998 99.2986 21.0998C98.9986 21.9998 98.4986 21.9998 97.7986 21.9998C94.2986 22.1998 94.2986 22.1998 93.1986 18.8998C91.9986 14.9998 90.6986 11.1998 89.3986 7.29982C88.8986 5.89982 89.0986 5.49982 90.6986 5.39982C92.8986 5.19982 93.8986 5.99982 94.3986 8.09982C95.0146 11.0376 95.7824 13.9414 96.6986 16.7998Z" fill="black"></path><path d="M130.099 30.7999C130.119 31.2811 130.04 31.7612 129.866 32.2104C129.692 32.6596 129.428 33.0683 129.09 33.411C128.751 33.7537 128.346 34.0231 127.899 34.2025C127.452 34.3818 126.973 34.4673 126.492 34.4535C126.01 34.4398 125.537 34.3271 125.101 34.1225C124.665 33.9179 124.276 33.6258 123.958 33.2644C123.639 32.9029 123.399 32.4798 123.251 32.0214C123.103 31.563 123.052 31.0792 123.099 30.5999C123.115 29.6234 123.509 28.6913 124.2 28.0007C124.89 27.3101 125.823 26.9154 126.799 26.8999C127.28 26.9151 127.753 27.0313 128.187 27.2408C128.62 27.4503 129.005 27.7485 129.316 28.1161C129.627 28.4838 129.858 28.9126 129.992 29.3749C130.127 29.8372 130.164 30.3227 130.099 30.7999ZM128.599 30.6999C128.499 29.4999 128.299 28.1999 126.599 28.0999C124.899 27.9999 124.599 29.5999 124.599 30.6999C124.599 31.7999 124.899 33.1999 126.499 33.1999C128.099 33.1999 128.499 32.0999 128.599 30.6999Z" fill="black"></path><path d="M105.201 33.7999C105.121 34.0095 105.021 34.2105 104.901 34.3999C104.829 34.4461 104.748 34.4776 104.664 34.4926C104.579 34.5075 104.493 34.5057 104.409 34.4871C104.326 34.4685 104.246 34.4336 104.176 34.3843C104.106 34.335 104.047 34.2723 104.001 34.1999C103.796 33.9224 103.628 33.62 103.501 33.2999C103.461 32.942 103.28 32.6148 102.999 32.3898C102.718 32.1648 102.359 32.0606 102.001 32.0999C101.101 32.0999 100.901 32.5999 100.701 33.2999C100.501 33.9999 100.301 34.5999 99.5008 34.3999C98.7008 34.1999 99.2007 33.3999 99.3007 32.8999C99.8007 31.2999 100.401 29.5999 100.901 27.9999C101.101 27.3999 101.301 26.8999 102.101 26.8999C102.901 26.8999 103.001 27.4999 103.201 28.0999C103.901 29.9999 104.601 31.8999 105.201 33.7999Z" fill="black"></path><path d="M107.901 29.3999C108.201 28.7999 107.101 27.0999 108.701 27.0999C109.801 27.0999 109.101 28.6999 109.201 29.5999C109.301 30.4999 109.101 31.2999 109.401 32.1999C109.601 32.7999 109.901 33.2999 110.601 33.2999C111.501 33.2999 111.801 32.6999 111.901 31.9999C112.001 30.7999 112.001 29.5999 112.001 28.3999C112.001 27.7999 111.801 26.8999 112.801 26.8999C113.801 26.8999 113.501 27.6999 113.501 28.2999C113.534 29.5699 113.467 30.8405 113.301 32.0999C113.261 32.4503 113.15 32.7889 112.976 33.0957C112.802 33.4025 112.568 33.6712 112.289 33.8858C112.009 34.1003 111.689 34.2564 111.347 34.3448C111.006 34.4331 110.65 34.4518 110.301 34.3999C109.626 34.3842 108.984 34.102 108.515 33.615C108.047 33.1279 107.79 32.4755 107.801 31.7999C107.801 31.0999 107.901 30.3999 107.901 29.3999Z" fill="black"></path><path d="M134.1 33.2999C134.7 33.2999 135.5 33.4999 135.7 32.5999C135.9 31.4999 135 31.2999 134.3 30.9999C133.2 30.4999 132.3 29.6999 132.9 28.3999C133.194 27.8646 133.66 27.4447 134.223 27.2086C134.786 26.9725 135.413 26.9342 136 27.0999C136.4 27.1999 136.8 27.2999 136.8 27.7999C136.8 28.2999 136.3 28.2999 135.9 28.2999C135.2 28.2999 134.4 28.0999 134.2 28.8999C134 29.6999 134.9 29.9999 135.5 30.2999C136.7 30.8999 137.7 31.6999 137.1 33.0999C136.5 34.4999 135.3 34.7999 133.9 34.5999C133.4 34.4999 132.5 34.4999 132.7 33.6999C133 32.5999 133.7 33.1999 134.1 33.2999Z" fill="black"></path><path d="M118.701 26.8998H119.901C120.501 26.8998 121.301 26.6998 121.401 27.3998C121.501 28.2998 120.601 27.9998 120.001 27.9998C119.201 27.9998 119.201 28.4998 119.201 28.9998V32.7998C119.201 33.3998 119.601 34.2998 118.501 34.2998C117.401 34.2998 117.901 33.2998 117.801 32.6998V30.0998C117.801 28.9998 118.201 27.6998 116.301 27.8998C116.178 27.8748 116.064 27.8141 115.975 27.7251C115.887 27.6362 115.826 27.5231 115.801 27.3998C115.801 26.9998 116.101 26.7998 116.501 26.7998C117.231 26.883 117.966 26.9164 118.701 26.8998Z" fill="black"></path></g><defs><clipPath id="clip0_2521_11336"><rect width="137.71" height="40" fill="white"></rect></clipPath></defs></svg>