<svg xmlns="http://www.w3.org/2000/svg" width="101" height="40" viewBox="0 0 101 40" fill="none"><g clip-path="url(#clip0_2521_11424)"><path d="M87.8005 39.9898C87.158 39.9046 86.5229 39.7709 85.9005 39.5898C78.3005 36.8898 70.6006 34.2898 63.0006 31.5898C62.3472 31.4204 61.7392 31.109 61.2199 30.6778C60.7007 30.2465 60.2829 29.7061 59.9964 29.0949C59.7099 28.4837 59.5618 27.8169 59.5625 27.1419C59.5632 26.4669 59.7128 25.8004 60.0006 25.1898C62.5006 17.8898 65.1005 10.6898 67.6005 3.38984C67.7869 2.75679 68.1027 2.16931 68.5278 1.66454C68.9529 1.15978 69.4781 0.748723 70.0703 0.457361C70.6624 0.165999 71.3085 0.000678003 71.9678 -0.0281584C72.6271 -0.0569949 73.2852 0.0512829 73.9005 0.289835L97.0006 8.38984C97.6522 8.56443 98.2587 8.87727 98.7787 9.30711C99.2987 9.73694 99.7201 10.2737 100.014 10.8809C100.308 11.4881 100.468 12.1515 100.483 12.826C100.498 13.5005 100.368 14.1703 100.101 14.7898C97.6005 22.0898 95.0006 29.2898 92.5006 36.5898C92.1679 37.5749 91.5364 38.4317 90.694 39.0411C89.8516 39.6505 88.8402 39.9821 87.8005 39.9898Z" fill="#CB2026"></path><path d="M27.5992 16.79C25.6992 16.09 23.8992 15.39 22.0992 14.69V14.59L27.3992 15.49C27.5042 15.53 27.6161 15.5488 27.7284 15.5453C27.8407 15.5417 27.9512 15.516 28.0535 15.4695C28.1558 15.423 28.2478 15.3567 28.3243 15.2744C28.4008 15.1921 28.4603 15.0954 28.4992 14.99C28.7746 14.4845 29.1104 14.0144 29.4992 13.59C29.7522 13.3208 30.0941 13.1523 30.4617 13.1155C30.8293 13.0787 31.1979 13.1762 31.4992 13.39C32.1992 13.79 32.0992 14.49 31.8992 15.19C31.7841 15.4848 31.684 15.7852 31.5992 16.09C32.4076 16.1664 33.2097 16.3 33.9992 16.49C35.1641 16.7507 36.3023 17.119 37.3992 17.59C41.1992 19.29 42.5992 22.29 41.1992 26.19C40.2692 28.8136 38.881 31.2514 37.0992 33.39C36.9992 33.59 36.7992 33.69 36.4992 33.99C36.9711 32.9175 37.372 31.8151 37.6992 30.69C38.5163 28.4877 38.7907 26.1209 38.4992 23.79C38.3574 22.6165 37.8884 21.5066 37.1457 20.587C36.403 19.6675 35.4166 18.9755 34.2992 18.59C33.3288 18.1989 32.3246 17.8976 31.2992 17.69C31.0992 17.59 30.6992 17.79 30.5992 17.89C29.9325 19.29 29.2325 20.79 28.4992 22.39H29.5992C31.102 22.3568 32.6053 22.4236 34.0992 22.59C36.3992 22.89 37.2992 24.79 36.1992 26.89C35.3288 28.4153 33.9475 29.584 32.2992 30.19C29.8372 31.0837 27.2009 31.3918 24.5992 31.09L22.3992 30.79C22.2397 30.7293 22.0949 30.6355 21.9743 30.5149C21.8537 30.3942 21.76 30.2494 21.6992 30.09C23.1992 29.99 24.6992 29.99 26.1992 29.79C27.7227 29.4837 29.2256 29.083 30.6992 28.59C31.2928 28.4126 31.8393 28.1051 32.2992 27.69C32.6891 27.2301 33.0246 26.7268 33.2992 26.19C32.7992 26.09 32.2992 25.99 31.6992 25.89C30.1992 25.79 28.7992 25.79 27.2992 25.69C26.8399 25.6639 26.3937 25.5267 25.9992 25.29C25.7047 25.1814 25.4376 25.0093 25.217 24.786C24.9964 24.5627 24.8277 24.2936 24.7227 23.9978C24.6177 23.7019 24.5792 23.3866 24.6097 23.0742C24.6402 22.7618 24.739 22.4599 24.8992 22.19C25.7992 20.39 26.6992 18.69 27.5992 16.79Z" fill="#CB2026"></path><path d="M36.1018 10.9899C35.2018 10.8899 34.6018 10.7899 33.9018 10.6899C27.8018 9.8899 21.6018 9.08991 15.4018 9.38991C13.0159 9.56891 10.6443 9.90295 8.3018 10.3899C7.4622 10.6189 6.65555 10.955 5.90177 11.3899C5.15235 11.7649 4.5326 12.3561 4.1226 13.0869C3.71259 13.8178 3.53118 14.6549 3.60178 15.4899V30.9899C3.60178 32.4899 2.8018 33.0899 1.3018 32.7899C0.990471 32.7688 0.697306 32.6357 0.476662 32.415C0.256019 32.1944 0.122843 31.9012 0.101784 31.5899C0.101784 31.1899 0.00180875 30.7899 0.00180875 30.4899V14.5899C-0.0332477 12.9893 0.442071 11.419 1.35899 10.1066C2.2759 8.79414 3.58679 7.80762 5.10178 7.28991C7.90155 6.34317 10.8986 6.13647 13.8018 6.6899C21.1018 7.9899 28.4018 9.3899 35.7018 10.6899C35.7922 10.8371 35.9352 10.9443 36.1018 10.9899Z" fill="#CB2026"></path><path d="M20.6005 30.29C20.6223 30.8457 20.4249 31.3878 20.0508 31.7993C19.6767 32.2109 19.1558 32.4589 18.6005 32.49C17.4914 32.5937 16.3727 32.492 15.3005 32.1899C12.4048 31.0677 9.56778 29.7995 6.80049 28.39C5.20049 27.59 5.00046 26.39 5.90046 24.79C6.00775 24.5194 6.17937 24.2792 6.40046 24.09C9.10046 21.39 11.7005 18.69 14.4005 16.09C14.809 15.7256 15.2436 15.3914 15.7005 15.09C17.5005 13.89 18.9005 14.39 19.5005 16.49C20.3208 19.6556 20.6911 22.921 20.6005 26.1899V30.29ZM17.8005 22.09V21.89C17.6005 20.79 17.5005 18.39 15.8005 18.89C15.3801 19.0257 15.0015 19.2666 14.7005 19.59C13.1005 21.09 11.5005 22.69 10.0005 24.29C9.3005 25.09 9.30049 26.09 10.3005 26.49C12.1898 27.3924 14.1259 28.1936 16.1005 28.89C17.2005 29.29 18.0005 28.49 18.1005 27.29C18.2502 25.5512 18.1491 23.8 17.8005 22.09Z" fill="#CB2026"></path><path d="M55.3984 17.89C55.8984 20.19 56.3985 22.49 56.7985 24.89C56.9678 25.9141 57.0348 26.9525 56.9985 27.9899C57.0357 28.3335 57.0022 28.681 56.9 29.011C56.7977 29.3411 56.629 29.6467 56.4041 29.9091C56.1792 30.1714 55.903 30.3849 55.5925 30.5364C55.2819 30.6879 54.9436 30.7742 54.5984 30.7899C53.9402 30.9205 53.2664 30.9542 52.5984 30.89C50.2984 30.49 48.0984 29.9899 45.8984 29.4899C45.1582 29.2941 44.4508 28.9909 43.7985 28.59C43.4904 28.4361 43.2215 28.2139 43.0125 27.9403C42.8034 27.6667 42.6595 27.3489 42.592 27.0112C42.5244 26.6736 42.535 26.3249 42.6227 25.9919C42.7105 25.659 42.8732 25.3505 43.0984 25.09C43.5984 24.39 44.1985 23.6899 44.6985 22.9899C46.8985 19.2899 45.8985 16.5899 41.7985 15.2899C40.1985 14.7899 38.4985 14.3899 36.7985 13.9899L35.8984 13.6899C39.3185 13.7207 42.7054 14.3642 45.8984 15.59L47.0984 16.1899C49.3984 17.4899 49.8984 19.29 48.5984 21.59C48.0792 22.6541 47.6445 23.7575 47.2985 24.89C47.2013 25.0978 47.1534 25.3253 47.1586 25.5547C47.1637 25.7841 47.2218 26.0092 47.3283 26.2124C47.4348 26.4157 47.5868 26.5916 47.7724 26.7264C47.958 26.8613 48.1722 26.9515 48.3984 26.9899C49.6639 27.4947 50.9682 27.896 52.2985 28.1899C53.8985 28.5899 54.7985 27.7899 54.5984 26.1899C54.2985 23.5899 53.8984 20.99 53.5984 18.39C53.4682 17.8332 53.4344 17.2582 53.4985 16.6899C53.4677 16.1269 53.6439 15.5721 53.9939 15.1301C54.3439 14.688 54.8434 14.3892 55.3984 14.2899C57.0984 13.9899 58.7985 13.8899 60.4985 13.6899H60.8984C59.5761 13.929 58.2727 14.2632 56.9985 14.6899C55.5985 15.0899 55.0984 16.29 55.3984 17.89Z" fill="#CB2026"></path><path d="M49.2985 36.6901C48.9288 36.7117 48.5585 36.6582 48.21 36.5328C47.8616 36.4073 47.5422 36.2125 47.2711 35.9601C47.0001 35.7078 46.783 35.4031 46.633 35.0645C46.483 34.7259 46.4032 34.3604 46.3984 33.9901C46.4142 33.3146 46.6964 32.6727 47.1834 32.2044C47.6705 31.7361 48.3229 31.4793 48.9985 31.4901C49.7433 31.5133 50.4528 31.8128 50.9888 32.3304C51.5249 32.848 51.8491 33.5466 51.8984 34.2901C51.8622 34.9497 51.5705 35.5692 51.0851 36.0173C50.5997 36.4653 49.9588 36.7067 49.2985 36.6901Z" fill="#CB2026"></path><path d="M69.0992 18.5901C68.9776 18.5206 68.8392 18.486 68.6992 18.4901C67.1992 18.3901 67.1992 18.3901 67.1992 16.8901V14.9901C67.7992 14.9901 68.3992 14.8901 69.0992 14.8901V9.99014C69.0992 9.79014 69.3992 9.39015 69.5992 9.39015C70.6992 9.29015 71.7992 9.39015 72.9992 9.39015V14.0901C72.8992 14.6901 73.1992 14.9901 73.7992 14.9901H78.8992V18.0901C78.8992 18.2901 78.4992 18.4901 78.1992 18.4901H73.0992C73.0992 20.0901 72.9992 21.6901 73.0992 23.2901C73.1992 24.3901 74.4992 25.1901 75.7992 25.1901H78.2992C78.7992 25.1901 78.9992 25.3901 78.8992 25.7901V25.9901C78.8992 26.8901 79.1992 28.0901 78.6992 28.4901C78.1992 28.8901 77.0992 28.6901 76.1992 28.6901C74.8693 28.7988 73.5391 28.4838 72.3992 27.7901C71.3851 27.2795 70.5367 26.4917 69.9526 25.5181C69.3684 24.5445 69.0725 23.4252 69.0992 22.2901V18.5901Z" fill="white"></path><path d="M79.6016 14.8901H83.7016C83.9016 14.8901 84.2016 15.2901 84.3016 15.5901C85.3016 18.0901 86.3016 20.5901 87.3016 23.3901C87.4608 23.0678 87.5946 22.7334 87.7016 22.3901C88.6016 20.1901 89.5016 17.8901 90.3016 15.6901C90.5016 15.0901 90.8016 14.8901 91.5016 14.8901H95.1016C95.0182 15.1628 94.918 15.4299 94.8016 15.6901L89.7016 27.9901C89.4016 28.5901 89.1016 28.8901 88.5016 28.7901C87.669 28.7401 86.8342 28.7401 86.0016 28.7901C85.8607 28.7875 85.7228 28.7495 85.6005 28.6796C85.4781 28.6097 85.3753 28.5102 85.3016 28.3901C83.4016 23.9901 81.5016 19.4901 79.6016 14.8901Z" fill="white"></path></g><defs><clipPath id="clip0_2521_11424"><rect width="100.45" height="39.99" fill="white"></rect></clipPath></defs></svg>