<svg xmlns="http://www.w3.org/2000/svg" width="216" height="40" viewBox="0 0 216 40" fill="none"><g clip-path="url(#clip0_2521_11490)"><path d="M18.8016 25.4899C21.6443 20.6031 24.9244 15.9842 28.6016 11.6899C29.2016 10.9899 29.5015 10.9899 30.2015 11.4899C32.5688 13.2262 35.117 14.7015 37.8016 15.8899C34.2743 18.4068 31.0229 21.2895 28.1016 24.4899C23.962 28.7889 20.8806 33.9931 19.1016 39.6899C19.1016 39.7899 19.0016 39.8899 19.0016 39.9899L18.8016 39.7899C18.7016 35.0899 18.7016 30.2899 18.8016 25.4899Z" fill="#2D2F6D"/><path d="M18.8 25.4899C18.8 30.2899 18.8 35.09 18.7 39.89C15.6 29.89 8.79995 22.7899 0.699951 16.5899C0.499951 16.3899 0.299976 16.2899 0.0999756 16.0899C0.092684 16.0132 0.0570536 15.9419 0 15.89C0.9 15.39 1.89999 14.9899 2.79999 14.4899C4.4237 13.6189 5.99324 12.6505 7.5 11.5899C8.2 11.0899 8.49998 10.9899 9.09998 11.6899C12.7358 15.9935 15.9819 20.6116 18.8 25.4899Z" fill="#29ABE2"/><path d="M18.6992 0.0897844C19.0992 -0.210216 19.0992 0.289803 19.1992 0.389803C21.0673 3.13374 23.2487 5.6507 25.6992 7.8898C26.0992 8.2898 26.2992 8.58979 25.8992 9.18979C23.5992 12.0898 21.3992 14.9898 19.0992 17.8898C18.9992 17.9898 18.8992 18.1898 18.6992 17.9898V0.0897844Z" fill="#27A9E1"/><path d="M18.7014 0.0898438V17.9898L11.5015 8.98984C11.2015 8.58984 11.3014 8.38985 11.6014 8.18985C14.2547 5.75515 16.6353 3.03918 18.7014 0.0898438Z" fill="#2E2F6D"/><path d="M63.2 9.29017C61.8 12.2902 60.5 15.3902 59.2 18.3902C59 18.7902 58.9 19.0902 58.7 19.4902C58.3 20.4902 57.9001 21.4902 56.6001 21.5902C55.3001 21.6902 54.7001 20.4902 54.3001 19.4902C53.0001 16.4902 51.8001 13.5902 50.5001 10.5902C50.2345 10.0715 50.0007 9.53719 49.8001 8.99015C48.7001 12.6902 47.6 16.0902 46.9 19.4902C46.5 21.3902 45.5001 21.4902 44.0001 21.3902C43.3001 21.2902 43.1001 21.0902 43.3001 20.3902C44.7001 14.9902 46.2001 9.59017 47.6001 4.19017C47.6476 3.7556 47.8419 3.35026 48.151 3.04115C48.4601 2.73204 48.8655 2.53765 49.3001 2.49015C49.768 2.48072 50.2243 2.63567 50.5897 2.92802C50.9552 3.22037 51.2066 3.63161 51.3001 4.09016C52.9001 7.69016 54.5001 11.2902 56.1001 14.9902C56.2791 15.4003 56.4793 15.8009 56.7 16.1902C57.6 14.2902 58.4001 12.4902 59.3001 10.6902C60.3001 8.49017 61.3001 6.29015 62.3001 3.99015C62.7001 3.19015 63.2 2.49015 64.2 2.49015C65.2 2.49015 65.6001 3.49017 65.8001 4.29017C67.2001 9.39017 68.6 14.4902 69.9 19.5902C70 20.0902 71 21.1902 69.7 21.1902C68.7 21.1902 67.1001 22.1902 66.6001 20.1902C65.8001 16.8902 64.9001 13.6902 64.0001 10.4902L63.7 9.59016C63.5 9.39016 63.4 9.29017 63.2 9.29017Z" fill="#323271"/><path d="M142.699 11.7898C142.699 9.18976 142.799 6.68975 142.699 4.08975C142.699 2.88975 142.899 2.48975 144.199 2.48975C147.399 2.58975 150.499 2.48975 153.699 2.48975C159.099 2.58975 162.599 6.78976 162.499 12.7898C162.478 13.9423 162.226 15.0788 161.76 16.133C161.294 17.1872 160.622 18.1378 159.784 18.9293C158.946 19.7208 157.958 20.3372 156.879 20.7425C155.8 21.1478 154.651 21.3338 153.499 21.2898H144.199C143.099 21.2898 142.699 20.9898 142.699 19.8898C142.799 17.2898 142.699 14.4898 142.699 11.7898ZM146.199 11.8898V16.8898C146.199 17.7898 146.499 18.0897 147.299 17.9897C149.263 17.8397 151.235 17.8397 153.199 17.9897C156.299 18.3897 158.899 15.3898 159.099 12.7898C159.299 8.78976 157.399 6.38976 153.699 6.18976C151.799 6.08976 149.899 6.28975 147.999 6.08975C146.399 5.98975 146.099 6.58975 146.199 7.98975C146.299 9.18975 146.199 10.5898 146.199 11.8898Z" fill="#333471"/><path d="M108.9 5.89006C105.4 5.89006 101.9 5.79006 98.4995 5.89006C97.0995 5.89006 96.8995 5.39005 96.8995 4.19005C96.8995 2.99005 97.1995 2.49004 98.5995 2.49004C103.1 2.59004 107.6 2.49004 112.1 2.49004C113.2 2.49004 114.4 2.29004 114.9 3.49004C115.4 4.69004 114.6 5.79005 113.8 6.59004C110.7 9.79004 107.5 12.9901 104.3 16.1901L102.8 17.6901C103.443 18.0323 104.186 18.1384 104.9 17.99H113C114.2 17.99 115.1 17.8901 115.1 19.6901C115.1 21.2901 114.5 21.49 113.1 21.49C108.5 21.39 104 21.49 99.3995 21.49C98.3995 21.49 97.1995 21.5901 96.6995 20.3901C96.1995 19.1901 97.0995 18.4901 97.7995 17.7901C101.6 13.9901 105.4 10.29 109.1 6.49004C109.048 6.28526 108.981 6.08471 108.9 5.89006Z" fill="#383774"/><path d="M185.502 21.19C182.802 21.89 181.002 21.0899 180.002 18.4899C179.502 17.0899 178.501 16.59 176.901 16.69C175.372 16.84 173.831 16.84 172.302 16.69C171.702 16.69 170.402 17.09 170.502 16.29C170.602 15.29 171.002 13.89 172.602 13.89H177.302C175.902 11.59 174.702 9.68997 173.302 7.38997C171.102 11.19 169.002 14.79 166.802 18.39C165.002 21.39 165.001 21.39 161.401 21.19C161.201 20.59 161.601 20.19 161.901 19.79C164.901 14.69 167.902 9.58994 171.002 4.48994C172.802 1.58994 174.001 1.58994 175.701 4.48994C178.701 9.58994 181.802 14.69 184.802 19.79C185.302 20.29 185.702 20.59 185.502 21.19Z" fill="#333372"/><path d="M83.2003 7.39014C81.0003 11.1901 78.7003 14.6901 76.8003 18.3901C75.6003 20.8901 74.0003 21.8901 71.3003 21.0901C71.1003 20.6901 71.4003 20.3901 71.6003 20.0901C74.7003 14.7901 77.8003 9.59014 81.0003 4.29014C82.6003 1.59014 83.9003 1.59014 85.5003 4.29014C88.8003 9.79014 92.1003 15.3901 95.4003 20.9901C91.9003 21.7901 91.5003 21.6901 90.1003 18.8901C89.7643 18.0877 89.1658 17.4231 88.4028 17.0053C87.6397 16.5874 86.7574 16.4411 85.9003 16.5901C83.9683 16.6901 82.0324 16.6901 80.1003 16.5901C80.9003 12.2901 84.4003 14.3901 86.9003 13.5901C85.7003 11.6901 84.5003 9.69014 83.2003 7.39014Z" fill="#333372"/><path d="M140.799 21.0898C137.799 21.8898 135.999 20.9898 135.099 18.3898C134.599 16.9898 133.599 16.4898 131.999 16.5898C129.899 16.6898 127.699 16.5898 125.499 16.5898C125.899 13.9898 127.499 13.5898 129.599 13.7898C130.399 13.8898 131.499 14.2898 131.999 13.4898C132.499 12.6898 131.399 12.0898 130.999 11.4898C130.299 10.1898 129.499 8.98982 128.699 7.78982C127.999 7.78982 127.899 8.38982 127.599 8.78982C125.699 11.9898 123.599 15.1898 121.999 18.5898C120.799 21.0898 119.199 21.7898 116.699 21.1898C116.399 20.6898 116.899 20.3898 117.099 19.9898C120.099 14.7898 123.199 9.6898 126.299 4.4898C128.099 1.5898 129.299 1.58981 130.999 4.58981C134.199 10.0898 137.499 15.5898 140.799 21.0898Z" fill="#333372"/><path d="M114.402 24.1898C170.072 24.1898 215.202 24.0555 215.202 23.8898C215.202 23.7242 170.072 23.5898 114.402 23.5898C58.7313 23.5898 13.6016 23.7242 13.6016 23.8898C13.6016 24.0555 58.7313 24.1898 114.402 24.1898Z" fill="#FBDA89"/><path d="M44 31.6899V36.0899H43.5V31.6899H44Z" fill="#231F20"/><path d="M49.8008 36.0899V31.6899H50.3008L51.1008 33.7899C51.3008 34.2899 51.5007 34.8899 51.7007 35.2899C51.7007 34.5899 51.6008 33.9899 51.6008 33.2899V31.6899H52.1008V36.0899H51.6008L50.8008 33.9899C50.5596 33.5179 50.3911 33.0122 50.3008 32.4899C50.3008 33.0899 50.4008 33.6899 50.4008 34.5899V36.0899H49.8008Z" fill="#231F20"/><path d="M57.8008 31.6899H59.5008V32.0899H58.3008V33.5899H59.4008V33.9899H58.3008V35.9899H57.8008V31.6899Z" fill="#231F20"/><path d="M65.6016 31.6899V36.0899H65.1016V31.6899H65.6016Z" fill="#231F20"/><path d="M71.3008 36.0899V31.6899H71.8008L72.6008 33.7899C72.8008 34.2899 73.0007 34.8899 73.2007 35.2899C73.2007 34.5899 73.1008 33.9899 73.1008 33.2899V31.6899H73.6008V36.0899H73.1008L72.3008 33.9899C72.0596 33.5179 71.8911 33.0122 71.8008 32.4899V36.0899H71.3008Z" fill="#231F20"/><path d="M79.8984 31.6899V36.0899H79.3984V31.6899H79.8984Z" fill="#231F20"/><path d="M86.1008 32.0899H85.3008V31.6899H87.4008V32.1899H86.6008V36.1899H86.1008V32.0899Z" fill="#231F20"/><path d="M94.4985 33.9899H93.3984V35.6899H94.6984V36.0899H92.8984V31.6899H94.5984V32.0899H93.3984V33.5899H94.4985V33.9899Z" fill="#231F20"/><path d="M112.199 31.7898C112.48 31.6953 112.778 31.6642 113.072 31.6988C113.366 31.7333 113.648 31.8327 113.899 31.9898C114.094 32.2494 114.199 32.5653 114.199 32.8898C114.199 33.2144 114.094 33.5302 113.899 33.7898C113.776 33.9379 113.624 34.0587 113.452 34.1448C113.28 34.2309 113.091 34.2802 112.899 34.2898H112.699V36.0898H112.199V31.7898ZM112.699 33.8898H112.899C113.399 33.8898 113.699 33.5898 113.699 32.9898C113.699 32.3898 113.499 32.0898 112.999 32.0898H112.699V33.8898Z" fill="#231F20"/><path d="M122.102 33.8899C122.102 35.5899 121.502 36.1898 120.802 36.1898C120.102 36.1898 119.602 35.3899 119.602 33.8899C119.602 32.3899 120.102 31.5898 120.902 31.5898C121.702 31.5898 122.102 32.4899 122.102 33.8899ZM120.202 33.8899C120.202 34.7899 120.402 35.6898 120.902 35.6898C121.402 35.6898 121.602 34.6899 121.602 33.8899C121.602 33.0899 121.402 32.0898 120.902 32.0898C120.402 32.0898 120.202 32.9899 120.202 33.8899Z" fill="#231F20"/><path d="M127.601 35.4899C127.776 35.6155 127.985 35.6852 128.201 35.6899C128.701 35.6899 128.901 35.3899 128.901 34.8899C128.897 34.6981 128.839 34.5113 128.733 34.3518C128.627 34.1922 128.476 34.0666 128.301 33.9899C128.089 33.8587 127.908 33.6837 127.77 33.4767C127.632 33.2697 127.541 33.0355 127.501 32.7899C127.495 32.6308 127.522 32.4723 127.581 32.3241C127.639 32.176 127.727 32.0415 127.84 31.9289C127.952 31.8164 128.087 31.7282 128.235 31.6698C128.383 31.6115 128.542 31.5843 128.701 31.5899C128.919 31.5769 129.134 31.6485 129.301 31.7899L129.201 32.1899C129.064 32.0644 128.886 31.9933 128.701 31.9899C128.621 31.9871 128.542 32.0007 128.468 32.0299C128.394 32.059 128.326 32.1031 128.27 32.1594C128.214 32.2157 128.17 32.2829 128.141 32.357C128.112 32.4311 128.098 32.5103 128.101 32.5899C128.101 32.9899 128.301 33.1899 128.801 33.4899C129.026 33.6292 129.216 33.8193 129.355 34.0451C129.494 34.2708 129.578 34.5258 129.601 34.7899C129.616 34.9513 129.596 35.1142 129.541 35.2668C129.486 35.4194 129.398 35.5581 129.284 35.6727C129.169 35.7874 129.03 35.8753 128.878 35.9302C128.725 35.985 128.562 36.0054 128.401 35.9899C128.152 35.9993 127.907 35.9293 127.701 35.7899L127.601 35.4899Z" fill="#231F20"/><path d="M134.999 35.4899C135.174 35.6155 135.384 35.6852 135.599 35.6899C136.099 35.6899 136.299 35.3899 136.299 34.8899C136.296 34.6981 136.238 34.5113 136.131 34.3518C136.025 34.1922 135.875 34.0666 135.699 33.9899C135.488 33.8587 135.307 33.6837 135.169 33.4767C135.031 33.2697 134.939 33.0355 134.899 32.7899C134.894 32.6308 134.921 32.4723 134.979 32.3241C135.037 32.176 135.126 32.0415 135.238 31.9289C135.351 31.8164 135.485 31.7282 135.633 31.6698C135.782 31.6115 135.94 31.5843 136.099 31.5899C136.317 31.5769 136.532 31.6485 136.699 31.7899L136.599 32.1899C136.462 32.0644 136.285 31.9933 136.099 31.9899C136.02 31.9871 135.94 32.0007 135.866 32.0299C135.792 32.059 135.725 32.1031 135.669 32.1594C135.612 32.2157 135.568 32.2829 135.539 32.357C135.51 32.4311 135.496 32.5103 135.499 32.5899C135.499 32.9899 135.699 33.1899 136.199 33.4899C136.425 33.6292 136.614 33.8193 136.753 34.0451C136.892 34.2708 136.976 34.5258 136.999 34.7899C137.015 34.9513 136.994 35.1142 136.939 35.2668C136.885 35.4194 136.797 35.5581 136.682 35.6727C136.567 35.7874 136.429 35.8753 136.276 35.9302C136.123 35.985 135.961 36.0054 135.799 35.9899C135.551 35.9993 135.305 35.9293 135.099 35.7899L134.999 35.4899Z" fill="#231F20"/><path d="M142.898 31.6899V36.0899H142.398V31.6899H142.898Z" fill="#231F20"/><path d="M148.702 31.7898C148.982 31.6953 149.28 31.6642 149.574 31.6988C149.868 31.7333 150.151 31.8327 150.402 31.9898C150.508 32.0927 150.589 32.2178 150.641 32.3562C150.693 32.4945 150.714 32.6426 150.702 32.7898C150.712 33.0104 150.648 33.2281 150.522 33.409C150.395 33.5899 150.212 33.7238 150.002 33.7898C150.249 33.8385 150.469 33.9789 150.617 34.1829C150.766 34.3868 150.832 34.6394 150.802 34.8898C150.814 35.0523 150.794 35.2156 150.743 35.3702C150.691 35.5247 150.609 35.6674 150.502 35.7898C150.34 35.9351 150.149 36.0455 149.943 36.1143C149.737 36.1831 149.518 36.2088 149.302 36.1898H148.602V31.7898H148.702ZM149.202 33.5898H149.402C149.507 33.5912 149.612 33.5714 149.709 33.5316C149.807 33.4919 149.896 33.433 149.97 33.3585C150.045 33.2839 150.104 33.1952 150.143 33.0975C150.183 32.9999 150.203 32.8953 150.202 32.7898C150.213 32.6952 150.202 32.5992 150.171 32.5092C150.14 32.4191 150.089 32.3373 150.021 32.2699C149.954 32.2025 149.872 32.1513 149.782 32.1201C149.692 32.0889 149.596 32.0786 149.502 32.0898H149.202V33.5898ZM149.202 35.6898H149.502C149.74 35.6898 149.969 35.595 150.138 35.4262C150.307 35.2574 150.402 35.0285 150.402 34.7898C150.402 34.5511 150.307 34.3222 150.138 34.1534C149.969 33.9846 149.74 33.8898 149.502 33.8898H149.302V35.6898H149.202Z" fill="#231F20"/><path d="M156.898 31.6899V36.0899H156.398V31.6899H156.898Z" fill="#231F20"/><path d="M162.699 31.6899H163.199V35.6899H164.399V36.0899H162.699V31.6899Z" fill="#231F20"/><path d="M170.398 31.6899V36.0899H169.898V31.6899H170.398Z" fill="#231F20"/><path d="M176.698 32.0899H175.898V31.6899H177.998V32.1899H177.198V36.1899H176.698V32.0899Z" fill="#231F20"/><path d="M184.102 36.0898V34.1898L183.102 31.5898H183.602L184.002 32.6898C184.102 32.9898 184.202 33.3898 184.302 33.6898C184.402 33.3898 184.502 32.9898 184.602 32.6898L185.002 31.5898H185.502L184.502 34.0898V35.9898H184.102V36.0898Z" fill="#231F20"/></g><defs><clipPath id="clip0_2521_11490"><rect width="215.2" height="39.99" fill="white"/></clipPath></defs></svg>