<svg xmlns="http://www.w3.org/2000/svg" width="200" height="41" viewBox="0 0 200 41" fill="none"><g clip-path="url(#clip0_2521_11268)"><path d="M31.9984 17.4C31.9912 17.3232 31.9555 17.2519 31.8984 17.2C31.6984 17 31.5984 16.7 31.3984 16.5C31.6195 16.6892 31.7911 16.9295 31.8984 17.2C31.909 17.2758 31.9441 17.3461 31.9984 17.4Z" fill="white"/><path d="M17.8008 22.5C18.6979 23.4486 19.7851 24.1972 20.9913 24.697C22.1975 25.1967 23.4956 25.4362 24.8008 25.4C26.6008 25.4 28.9008 25.2 30.2008 24.1H30.1008C28.9008 25.1 26.5008 25.4 24.7008 25.4C23.4117 25.4265 22.1315 25.1821 20.9429 24.6825C19.7543 24.183 18.6838 23.4394 17.8008 22.5Z" fill="white"/><path d="M200 0V40H0V21.7V20.3V19.6V18.2H12.1C12.1 18.1 12.3 17.8 12.3 17.7C13.8 14.2 18.4 10.9 24.8 10.9C29.8 10.9 33.5 12.8 35.6 15.2C33.5 12.8 29.8 10.9 24.8 10.9C18.4 10.9 13.8 14.3 12.3 17.7C12.2775 17.8811 12.2086 18.0533 12.1 18.2H0V0V40H200V0Z" fill="white"/><path d="M14.6008 22.5H12.3008C12.6588 23.2753 13.0943 24.0124 13.6008 24.7C13.0379 24.0513 12.5975 23.3059 12.3008 22.5H14.6008Z" fill="white"/><path d="M90.6 18.3999C89.9 17.2999 88.2 15.8999 84.7 15.8999C81.2 15.8999 78.9 17.9999 78.5 19.0999H89.9C90.4 19.0999 90.9 18.9999 90.6 18.3999Z" fill="#110F10"/><path d="M121.898 24.9001C123.427 24.9963 124.933 24.4943 126.098 23.5001C126.507 23.1138 126.832 22.6488 127.056 22.1332C127.279 21.6176 127.396 21.0621 127.398 20.5001C127.405 19.9367 127.293 19.3782 127.069 18.8612C126.845 18.3442 126.514 17.8804 126.098 17.5001C125.529 16.9951 124.864 16.6106 124.142 16.37C123.42 16.1293 122.657 16.0375 121.898 16.1001C118.498 16.1001 116.398 17.9001 116.398 20.5001C116.401 21.0621 116.518 21.6176 116.741 22.1332C116.965 22.6488 117.29 23.1138 117.698 23.5001C118.864 24.4943 120.37 24.9963 121.898 24.9001Z" fill="#110F10"/><path d="M191.7 18.3999C191 17.2999 189.3 15.8999 185.7 15.8999C182.1 15.8999 179.9 17.9999 179.5 19.0999H190.9C191.5 19.0999 192 18.9999 191.7 18.3999Z" fill="#110F10"/><path d="M40 13.6H44.9V15.2C46.4957 13.7977 48.5791 13.0793 50.7 13.2C52.815 13.1048 54.8983 13.7404 56.6 15C57.1372 15.4544 57.568 16.0214 57.8618 16.6608C58.1556 17.3002 58.3052 17.9964 58.3 18.7V27.7H53.4V19.5C53.4268 19.0649 53.3501 18.6296 53.1763 18.2299C53.0025 17.8301 52.7365 17.4772 52.4 17.2C51.44 16.5214 50.2716 16.2027 49.1 16.3C45.8 16.3 44.9 17.8 44.9 20.5V27.7H40V40H200V0H40V13.6ZM154.1 27.8H149.1V13.6H154.1V27.8ZM177 16.1C179.43 13.9696 182.57 12.8278 185.8 12.9C189.3 12.9 192.5 14 194.3 15.7C195.595 16.9678 196.348 18.6885 196.4 20.5C196.4 21.5 196 21.8 195.2 21.8H179.8C179.926 22.3339 180.204 22.8201 180.6 23.2C182.084 24.2351 183.834 24.8229 185.641 24.8938C187.449 24.9647 189.24 24.5157 190.8 23.6H194.8C195.2 23.6 195.7 23.5 195.6 23.9C195.391 24.3056 195.122 24.6766 194.8 25C194.279 25.5199 193.71 25.9887 193.1 26.4C192.483 26.8001 191.809 27.1036 191.1 27.3C189.415 27.817 187.663 28.0865 185.9 28.1C182.2 28.1 178.9 27 177 25.1C176.37 24.5318 175.866 23.8376 175.522 23.0625C175.177 22.2873 174.999 21.4484 174.999 20.6C174.999 19.7516 175.177 18.9127 175.522 18.1375C175.866 17.3624 176.37 16.6682 177 16.1ZM156.6 25.3L159.7 23.7L159.9 23.6L160.1 23.8C161.448 24.835 163.1 25.3972 164.8 25.4C166.004 25.51 167.208 25.1913 168.2 24.5C168.4 24.3 168.6 24.1 168.6 23.9C168.6 22.7 166.3 22.4 164.6 22.1L164 22C160.5 21.5 157 20.6 157 17.8C157.014 17.2873 157.148 16.7851 157.391 16.3335C157.634 15.882 157.98 15.4938 158.4 15.2C159.9 14 162.8 13.3 165.7 13.3C169.1 13.3 171.6 14.2 172.9 15.7L173.1 16L169.6 17.7L169.4 17.8L169.2 17.7C168.143 16.8023 166.785 16.3378 165.4 16.4C163.8 16.4 162.5 16.8 162.5 17.7C162.5 18.9 164.9 19.2 166.6 19.5C166.826 19.5746 167.063 19.6085 167.3 19.6C170.7 20.1 174 21 174 23.9C174 27.3 168.9 28.5 164.8 28.5C160.9 28.5 158.6 27.8 156.6 26L156.3 25.7L156.6 25.3ZM149.1 8C149.787 7.4706 150.633 7.18871 151.5 7.2C152.4 7.17308 153.283 7.45542 154 8C154.214 8.14268 154.39 8.33588 154.512 8.56258C154.634 8.78928 154.699 9.04252 154.7 9.3C154.7 10.4 153.3 11.4 151.5 11.4C150.6 11.4269 149.717 11.1446 149 10.6C148.786 10.4573 148.61 10.2641 148.488 10.0374C148.366 9.81072 148.301 9.55747 148.3 9.3C148.453 8.80622 148.728 8.35907 149.1 8ZM134.4 13.7H139.3V15.9C140.827 14.3787 142.85 13.4561 145 13.3C145.638 13.3131 146.273 13.38 146.9 13.5V16.9L146.5 16.8C145.905 16.6947 145.304 16.6279 144.7 16.6C141.1 16.6 139.3 17.9 139.3 20.7V27.7H134.4V13.7ZM111.8 13.6H116.3V15.1C117.967 13.8378 120.009 13.1691 122.1 13.2C124.916 13.0717 127.684 13.9589 129.9 15.7C130.62 16.2973 131.2 17.0461 131.597 17.8931C131.995 18.7401 132.201 19.6644 132.2 20.6C132.2 25 128.2 28 122.1 28C119.978 28.0156 117.92 27.2706 116.3 25.9V34H111.8V13.6ZM97.3 13.7H102.2V15.9C103.727 14.3787 105.75 13.4561 107.9 13.3C108.538 13.3131 109.173 13.38 109.8 13.5V16.9L109.4 16.8C108.805 16.6947 108.204 16.6279 107.6 16.6C104 16.6 102.2 17.9 102.2 20.7V27.7H97.3V13.7ZM75.9 16.1C78.3295 13.9696 81.4696 12.8278 84.7 12.9C88.2 12.9 91.4 14 93.2 15.7C94.495 16.9678 95.2478 18.6885 95.3 20.5C95.3 21.5 94.9 21.8 94.1 21.8H78.7C78.8264 22.3339 79.1041 22.8201 79.5 23.2C80.9839 24.2351 82.7335 24.8229 84.5414 24.8938C86.3493 24.9647 88.1396 24.5157 89.7 23.6H93.7C94.1 23.6 94.6 23.5 94.5 23.9C94.2914 24.3056 94.0216 24.6766 93.7 25C93.1794 25.5199 92.6101 25.9887 92 26.4C91.3831 26.8001 90.7086 27.1036 90 27.3C88.3145 27.817 86.5629 28.0865 84.8 28.1C81.1 28.1 77.8 27 75.9 25.1C75.27 24.5318 74.7664 23.8376 74.4216 23.0625C74.0769 22.2873 73.8988 21.4484 73.8988 20.6C73.8988 19.7516 74.0769 18.9127 74.4216 18.1375C74.7664 17.3624 75.27 16.6682 75.9 16.1ZM59.6 13.5H62.9V9.7H67.9V13.5H73.1V16.4H67.9V22.9C67.9 24.3 68.5 25.1 70.7 25.1C71.5194 25.1394 72.3377 25.003 73.1 24.7V27.6C71.9263 27.92 70.7164 28.088 69.5 28.1C64.2 28.1 63 26.5 63 23.2V16.4H59.6V13.5Z" fill="#110F10"/><path d="M12.1 18.2C12.1 18.1 12.3 17.8 12.3 17.7C13.8 14.2 18.4 10.9 24.8 10.9C29.8 10.9 33.5 12.8 35.6 15.2C36.547 16.1927 37.174 17.4468 37.4 18.8C37.6 20 37.6 20.7 37.2 21.2C36.8 21.7 35.5 21.9 33.8 21.9H0V40.2H40V27.7V13.6V0H0V18.2H12.1ZM4.30002 38.3C3.97368 38.6063 3.54732 38.784 3.10001 38.8C2.87663 38.8017 2.65523 38.7583 2.44904 38.6724C2.24284 38.5864 2.05608 38.4598 1.89999 38.3C1.57478 37.9456 1.39609 37.481 1.39999 37C1.39831 36.7766 1.44173 36.5552 1.52765 36.349C1.61356 36.1428 1.7402 35.9561 1.89999 35.8C2.22634 35.4937 2.65269 35.316 3.10001 35.3C3.32338 35.2983 3.54478 35.3417 3.75098 35.4276C3.95717 35.5136 4.14393 35.6402 4.30002 35.8C4.60637 36.1263 4.78401 36.5527 4.80002 37C4.80392 37.481 4.62524 37.9456 4.30002 38.3ZM36.2 24.5C34.4 26.8 31.6 29.2 24.8 29.3C19.6 29.3 15.8 27.3 13.7 24.8C13.1372 24.1513 12.6967 23.4059 12.4 22.6H17.8C18.6971 23.5486 19.7843 24.2972 20.9905 24.797C22.1968 25.2967 23.4949 25.5362 24.8 25.5C26.6 25.5 28.9 25.3 30.2 24.2H36.6C36.4 24.3 36.3 24.3 36.2 24.5Z" fill="#34B66A"/><path d="M3 35.5C2.58233 35.5175 2.18784 35.6968 1.89999 36C1.70158 36.214 1.56991 36.4813 1.52112 36.769C1.47232 37.0567 1.50851 37.3525 1.62527 37.6199C1.74204 37.8874 1.93429 38.115 2.17847 38.2748C2.42265 38.4347 2.70816 38.5198 3 38.5198C3.29184 38.5198 3.57735 38.4347 3.82153 38.2748C4.06571 38.115 4.25796 37.8874 4.37473 37.6199C4.49149 37.3525 4.52768 37.0567 4.47888 36.769C4.43009 36.4813 4.29842 36.214 4.10001 36C3.81216 35.6968 3.41767 35.5175 3 35.5ZM3.5 38V37.7C3.5 37.5 3.40002 37.3 3.30002 37.3C3.20002 37.3 3.09999 37.2 2.89999 37.2H2.60001V38H2.30002V36.1H3C3.17323 36.0739 3.35013 36.1093 3.5 36.2C3.60008 36.2358 3.68466 36.3052 3.73935 36.3964C3.79404 36.4875 3.81549 36.5948 3.80002 36.7C3.79854 36.7773 3.77981 36.8534 3.74521 36.9226C3.71061 36.9918 3.661 37.0524 3.60001 37.1C3.50001 37.1 3.40002 37.2 3.30002 37.2C3.40002 37.2 3.60001 37.3 3.60001 37.4C3.63781 37.4395 3.66639 37.4869 3.68369 37.5388C3.70098 37.5906 3.70655 37.6457 3.70001 37.7V38H3.5Z" fill="#34B66A"/><path d="M3.50156 36.6998C3.50809 36.6455 3.50252 36.5905 3.48523 36.5386C3.46794 36.4867 3.43935 36.4393 3.40155 36.3998C3.30155 36.3998 3.20156 36.2998 3.00156 36.2998H2.60156V36.9998H3.20157C3.40157 36.8998 3.50156 36.7998 3.50156 36.6998Z" fill="#34B66A"/><path d="M33.8008 21.7C35.5008 21.7 36.7008 21.7 37.2008 21C37.6008 20.6 37.6008 19.8 37.4008 18.6C37.0901 17.2759 36.4736 16.043 35.6008 15C36.5101 16.0186 37.1315 17.2613 37.4008 18.6C37.6008 19.8 37.6008 20.5 37.2008 21C36.7008 21.7 35.5008 21.7 33.8008 21.7Z" fill="#34B66A"/><path d="M36.1992 24.4001C34.3992 26.8001 31.5992 29.2001 24.7992 29.2001C19.5992 29.2001 15.7992 27.2001 13.6992 24.7001C15.7992 27.2001 19.4992 29.2001 24.7992 29.2001C31.5992 29.2001 34.3992 26.8001 36.1992 24.4001C36.2992 24.3001 36.2992 24.2001 36.3992 24.1001C36.3572 24.2145 36.2887 24.3173 36.1992 24.4001Z" fill="#34B66A"/><path d="M32.0016 17.9V17.6C32.0016 17.5869 31.999 17.5739 31.994 17.5617C31.9889 17.5496 31.9815 17.5386 31.9723 17.5293C31.963 17.52 31.952 17.5126 31.9398 17.5076C31.9277 17.5026 31.9147 17.5 31.9016 17.5C31.8943 17.4232 31.8586 17.3519 31.8016 17.3C31.6016 17.1 31.5016 16.8 31.3016 16.6C31.0902 16.3758 30.8555 16.1746 30.6016 16C30.2382 15.7089 29.8338 15.473 29.4016 15.3C27.9646 14.6292 26.3854 14.3203 24.8016 14.4C23.4019 14.376 22.014 14.659 20.7355 15.2291C19.457 15.7993 18.319 16.6427 17.4016 17.7C17.2678 17.8439 17.1656 18.0142 17.1016 18.2H31.0016C31.5016 18.2 31.9016 18.1 32.0016 17.9Z" fill="#34B66A"/><path d="M30.6992 16C30.8992 16.2 31.1992 16.4 31.3992 16.6C31.1453 16.4254 30.9106 16.2242 30.6992 16Z" fill="#34B66A"/><path d="M35.1 19.9001C35.4 19.7001 35.4 19.5001 35.4 19.0001C35.3 17.1001 32.1 12.1001 24.8 12.1001C17.7 12.1001 15.2 16.2001 14.5 17.5001C14.3779 17.6883 14.2773 17.8895 14.2 18.1001H15C15.1 17.9001 15.1 17.8001 15.2 17.6001C15.8 16.5001 18.4 12.9001 24.7 12.9001C32 12.9001 34.6 17.9001 34.6 18.9001C34.6 19.1001 34.6 19.2001 34.5 19.2001C34.3 19.4001 34 19.5001 32.2 19.5001H0V20.2001H32.2C34.6 20.3001 34.9 20.1001 35.1 19.9001Z" fill="#34B66A"/><path d="M24.5016 26.9C19.6016 26.8 16.7016 24.5 15.5016 22.5H14.6016C15.8016 25 19.3016 27.5 24.4016 27.6C25.1016 27.6 31.0016 27.7 33.9016 24.1L34.0016 24H33.0016C30.0016 27.2 24.7016 26.9 24.5016 26.9Z" fill="#34B66A"/></g><defs><clipPath id="clip0_2521_11268"><rect width="200" height="40.2" fill="white"/></clipPath></defs></svg>