<svg xmlns="http://www.w3.org/2000/svg" width="131" height="41" viewBox="0 0 131 41" fill="none"><g clip-path="url(#clip0_2521_11433)"><path d="M18.5308 4.30016V7.70017C18.5308 8.10017 18.4308 8.20017 18.0308 8.20017H12.7308C11.5522 8.27492 10.4395 8.77029 9.59533 9.59615C8.75112 10.422 8.23143 11.5235 8.13079 12.7002C8.07524 13.8999 8.44655 15.0805 9.17882 16.0324C9.91109 16.9844 10.957 17.6461 12.1308 17.9002C13.125 18.0333 14.13 18.0668 15.1308 18.0002H18.0308C18.3308 18.0002 18.4308 18.1002 18.4308 18.4002V25.8002C18.4308 26.1002 18.3308 26.2002 18.0308 26.2002C15.9308 26.1002 13.8308 26.3002 11.7308 26.1002C8.65946 25.7887 5.7977 24.3994 3.65331 22.1786C1.50892 19.9578 0.220536 17.0492 0.0167747 13.9688C-0.186986 10.8884 0.70703 7.83543 2.54021 5.35153C4.37339 2.86764 7.02723 1.11344 10.0308 0.400163C11.0739 0.11976 12.1508 -0.0148608 13.2308 0.00015388H17.8308C18.2308 0.00015388 18.3308 0.100154 18.3308 0.500154C18.4896 1.76029 18.5564 3.03032 18.5308 4.30016Z" fill="#F27A21"></path><path d="M92.7305 20.0999V25.7999C92.7305 26.1999 92.6305 26.3999 92.2305 26.3999H86.7305C86.3305 26.3999 86.2305 26.2999 86.2305 25.8999V7.89988C86.2305 7.49988 86.3305 7.39988 86.7305 7.39988H92.3304C92.4747 7.38154 92.621 7.41065 92.7473 7.48281C92.8736 7.55497 92.973 7.66626 93.0305 7.79987C94.0305 9.79987 95.0304 11.6999 96.1304 13.7999V7.89988C96.1304 7.49988 96.2304 7.39988 96.6304 7.39988H102.23C102.63 7.39988 102.73 7.49988 102.73 7.89988V25.8999C102.73 26.2999 102.63 26.3999 102.23 26.3999H96.5305C96.399 26.4166 96.266 26.3854 96.1558 26.3119C96.0455 26.2384 95.9655 26.1276 95.9304 25.9999C94.9304 23.9999 93.8304 22.0999 92.8304 20.0999H92.7305Z" fill="#F37A21"></path><path d="M51.9297 16.8999V7.99984C51.9297 7.49984 52.0297 7.39985 52.5297 7.39985H59.8297C62.2373 7.37661 64.5627 8.27518 66.329 9.91139C68.0954 11.5476 69.169 13.7975 69.3297 16.1999C69.483 18.5334 68.7729 20.8417 67.3347 22.6857C65.8964 24.5296 63.8303 25.7804 61.5297 26.1999C61.1016 26.2828 60.6655 26.3163 60.2297 26.2998H52.5297C52.1297 26.2998 52.0297 26.1998 52.0297 25.7998C51.9297 22.8998 51.9297 19.8999 51.9297 16.8999ZM58.5297 16.8999V20.2998C58.5297 20.6998 58.6297 20.7998 59.0297 20.7998C60.0483 20.7789 61.0178 20.3581 61.7288 19.6284C62.4397 18.8987 62.8352 17.9186 62.8297 16.8999C62.8044 15.8735 62.3853 14.8962 61.6594 14.1702C60.9334 13.4442 59.956 13.0252 58.9297 12.9998C58.6297 12.9998 58.5297 13.0999 58.5297 13.3999V16.8999Z" fill="#F27A21"></path><path d="M37.0289 26.3999H30.8289C30.5289 26.3999 30.4289 26.1999 30.3289 25.9999L27.9289 21.1999C27.9289 21.0999 27.8289 20.9999 27.8289 20.8999C27.7289 20.5999 27.5289 20.6999 27.3289 20.6999C27.1289 20.6999 27.1289 20.8999 27.1289 21.0999V25.7999C27.1289 26.1999 27.0289 26.3999 26.6289 26.3999H21.1289C20.7289 26.3999 20.6289 26.2999 20.6289 25.8999V7.8999C20.6289 7.4999 20.7289 7.3999 21.1289 7.3999H29.8289C31.1619 7.42828 32.4559 7.85429 33.5451 8.62328C34.6343 9.39226 35.4689 10.4691 35.9417 11.7157C36.4146 12.9623 36.5041 14.3218 36.1989 15.6197C35.8937 16.9175 35.2078 18.0946 34.2289 18.9999C33.9289 19.2999 33.8289 19.4999 34.0289 19.8999C35.0289 21.7999 35.9289 23.7999 36.9289 25.6999C36.7289 25.8999 36.8289 26.0999 37.0289 26.3999ZM27.0289 14.0999V15.8999C27.0289 16.0999 26.9289 16.1999 27.2289 16.2999C27.6731 16.3908 28.1339 16.3546 28.5585 16.1954C28.983 16.0362 29.354 15.7605 29.6289 15.3999C29.8736 15.0289 30.0041 14.5943 30.0041 14.1499C30.0041 13.7055 29.8736 13.2709 29.6289 12.8999C29.3395 12.5516 28.97 12.2786 28.552 12.1044C28.134 11.9303 27.68 11.8601 27.2289 11.8999C27.0289 11.9999 27.0289 12.0999 27.0289 12.2999V14.0999Z" fill="#F37A21"></path><path d="M38.0281 16.8999V7.99989C38.0281 7.59989 38.1281 7.3999 38.5281 7.3999H49.5281C49.9281 7.3999 50.0281 7.4999 50.0281 7.8999V12.5999C50.0281 12.9999 49.9281 13.0999 49.5281 13.0999H45.0281C44.6281 13.0999 44.5281 13.1999 44.5281 13.5999C44.5281 14.6999 44.5281 14.6999 45.6281 14.6999H49.0281C49.3281 14.6999 49.4281 14.7999 49.4281 15.0999V18.8999C49.4281 19.2999 49.2281 19.2999 48.9281 19.2999H45.0281C44.6281 19.2999 44.5281 19.3999 44.5281 19.7999C44.5281 20.8999 44.5281 20.8999 45.6281 20.8999H49.5281C50.0281 20.8999 50.0281 20.9999 50.0281 21.4999V25.9999C50.0281 26.3999 49.9281 26.5999 49.4281 26.5999H38.4281C38.0281 26.5999 37.8281 26.4999 37.8281 26.0999C38.0281 22.8999 38.0281 19.8999 38.0281 16.8999Z" fill="#F27A23"></path><path d="M72.1297 16.8999V7.99989C72.1297 7.59989 72.2297 7.3999 72.6297 7.3999H83.6297C84.0297 7.3999 84.1297 7.4999 84.1297 7.8999V12.4999C84.1297 12.8999 84.0297 12.9999 83.6297 12.9999H79.1297C78.7297 12.9999 78.6297 13.0999 78.6297 13.4999C78.6297 14.5999 78.6297 14.5999 79.7297 14.5999H83.1297C83.4297 14.5999 83.6297 14.6999 83.5297 14.9999V18.6999C83.5297 18.9999 83.4297 19.0999 83.1297 19.0999H79.1297C78.7297 19.0999 78.6297 19.1999 78.6297 19.5999C78.6297 20.6999 78.6297 20.6999 79.7297 20.6999H83.6297C84.1297 20.6999 84.1297 20.7999 84.1297 21.2999V25.7999C84.1297 26.1999 84.0297 26.3999 83.5297 26.3999H72.5297C72.1297 26.3999 71.9297 26.2999 71.9297 25.8999C72.1297 22.8999 72.1297 19.8999 72.1297 16.8999Z" fill="#F27A23"></path><path d="M118.531 16.9V8C118.531 7.6 118.631 7.5 119.031 7.5H130.131C130.531 7.5 130.631 7.6 130.631 8V12.6C130.631 13 130.531 13.1 130.131 13.1H125.631C125.231 13.1 125.131 13.2 125.131 13.6C125.131 14.7 125.131 14.7 126.131 14.7H129.431C129.931 14.7 130.031 14.8 130.031 15.3V18.8C130.031 19.2 129.931 19.4 129.531 19.4H125.631C125.231 19.4 125.131 19.5 125.131 19.9C125.131 21 125.131 21 126.231 21H130.231C130.631 21 130.731 21.1 130.731 21.5V26.2C130.731 26.6 130.631 26.7 130.231 26.7H119.131C118.731 26.7 118.631 26.6 118.631 26.2C118.531 22.9 118.531 19.9 118.531 16.9Z" fill="#F27A23"></path><path d="M116.63 10.6999V13.4999C116.63 13.8999 116.53 13.9999 116.13 13.9999H113.03C112.299 14.0597 111.617 14.3902 111.118 14.9267C110.618 15.4632 110.337 16.1669 110.33 16.8999C110.345 17.6377 110.645 18.341 111.167 18.8628C111.689 19.3846 112.392 19.6846 113.13 19.6999H116.13C116.53 19.6999 116.63 19.7999 116.63 20.1999V25.7999C116.63 26.1999 116.53 26.2999 116.13 26.2999C114.494 26.3331 112.858 26.2663 111.23 26.0999C109.046 25.6451 107.095 24.4311 105.722 22.6735C104.348 20.9159 103.643 18.7285 103.73 16.4999C103.837 14.3701 104.653 12.3373 106.048 10.7246C107.443 9.11197 109.338 8.01209 111.43 7.59988C113.058 7.43344 114.694 7.36665 116.33 7.39989C116.63 7.39989 116.63 7.59988 116.63 7.79988V10.6999Z" fill="#F27A21"></path><path d="M60.1289 5.7002H71.1289C71.7289 5.7002 71.8289 5.80019 71.7289 6.40019C71.3289 8.70019 71.0289 11.1002 70.7289 13.4002C70.7289 13.5002 70.6289 13.6002 70.6289 13.8002C69.9461 11.5213 68.5658 9.51397 66.6821 8.06088C64.7985 6.60779 62.5065 5.78214 60.1289 5.7002Z" fill="#696A6C"></path><path d="M76.5305 34.1001V32.0001C76.5305 31.7001 76.6305 31.6001 76.9305 31.6001C77.2305 31.6001 77.4305 31.7001 77.4305 32.1001V37.7001C77.4305 37.8001 77.5305 38.1001 77.3305 38.1001C77.1305 38.1001 76.7305 38.2001 76.6305 38.0001C76.5305 37.8001 76.4305 37.8001 76.2305 37.9001C75.7899 38.1672 75.2631 38.2538 74.7601 38.1421C74.2571 38.0303 73.8166 37.7287 73.5305 37.3001C73.2142 36.8829 73.043 36.3737 73.043 35.8501C73.043 35.3265 73.2142 34.8173 73.5305 34.4001C73.8505 34.0133 74.2962 33.7514 74.7897 33.66C75.2833 33.5686 75.7933 33.6536 76.2305 33.9001C76.3449 33.9421 76.4478 34.0106 76.5305 34.1001ZM76.5305 35.8001C76.5305 35.5001 76.7305 35.1001 76.2305 34.8001C75.9901 34.6052 75.69 34.4989 75.3805 34.4989C75.071 34.4989 74.771 34.6052 74.5305 34.8001C74.2772 35.0158 74.1011 35.3083 74.0289 35.6331C73.9567 35.9579 73.9924 36.2974 74.1305 36.6001C74.2644 36.8931 74.5017 37.1265 74.7968 37.2556C75.092 37.3847 75.4244 37.4006 75.7305 37.3001C76.3305 37.1001 76.6305 37.0001 76.5305 35.8001Z" fill="#696A6C"></path><path d="M58.1312 37.8002V39.7002C58.1312 40.0002 58.2312 40.3002 57.6312 40.3002C57.0312 40.3002 57.2312 40.0002 57.2312 39.7002V34.3002C57.2312 33.8002 57.6312 33.5002 58.0312 33.9002C58.1486 33.9797 58.2902 34.0152 58.4312 34.0002C58.8865 33.7547 59.4179 33.6904 59.9186 33.8202C60.4194 33.95 60.8525 34.2644 61.1312 34.7002C61.4319 35.1101 61.5856 35.6095 61.5675 36.1176C61.5493 36.6256 61.3604 37.1128 61.0312 37.5002C60.7149 37.892 60.2688 38.1578 59.7737 38.2495C59.2785 38.3412 58.7669 38.2528 58.3312 38.0002C58.3312 37.9002 58.2312 37.9002 58.1312 37.8002ZM58.1312 35.9002C58.1312 36.8002 58.2312 36.9002 58.6312 37.2002C58.9055 37.3547 59.2249 37.4092 59.5349 37.3545C59.8449 37.2998 60.1264 37.1392 60.3312 36.9002C60.5407 36.6515 60.6638 36.3416 60.6818 36.0169C60.6998 35.6923 60.6119 35.3705 60.4312 35.1002C60.2708 34.8606 60.0418 34.6752 59.7741 34.5681C59.5064 34.461 59.2126 34.4373 58.9312 34.5002C58.2312 34.7002 58.1312 35.0002 58.1312 35.9002Z" fill="#68696A"></path><path d="M33.0289 34C33.3513 33.8408 33.6857 33.707 34.0289 33.6C34.2997 33.5725 34.5731 33.6006 34.8326 33.6824C35.0922 33.7643 35.3322 33.8983 35.5381 34.0761C35.7441 34.254 35.9116 34.472 36.0304 34.7168C36.1492 34.9617 36.2167 35.2282 36.2289 35.5C36.2789 36.2325 36.2789 36.9675 36.2289 37.7C36.2289 38.1 36.0289 38 35.8289 38C35.6289 38 35.3289 38 35.3289 37.6V35.7C35.3289 35.2 35.2289 34.7 34.7289 34.5C34.4988 34.4061 34.2479 34.3751 34.0018 34.4102C33.7558 34.4454 33.5235 34.5454 33.3289 34.7C33.2413 34.7748 33.1695 34.8665 33.118 34.9695C33.0664 35.0726 33.0362 35.185 33.0289 35.3V37.6C33.0289 38 32.8289 38 32.5289 38C32.2289 38 32.1289 37.9 32.1289 37.6V31.9C32.1289 31.5 32.3289 31.5 32.6289 31.5C32.9289 31.5 33.0289 31.6 33.0289 31.9V34Z" fill="#68696A"></path><path d="M39.9285 36.1002H38.6285C38.3285 36.1002 38.2285 36.2002 38.3285 36.5002C38.3954 36.7176 38.5163 36.9146 38.6797 37.0729C38.8432 37.2311 39.044 37.3454 39.2635 37.4053C39.483 37.4651 39.714 37.4686 39.9352 37.4152C40.1563 37.3619 40.3604 37.2535 40.5285 37.1002C40.9285 36.8002 41.0285 37.0002 41.2285 37.2002C41.4285 37.4002 41.1285 37.6002 41.0285 37.7002C40.6487 37.9605 40.203 38.108 39.7429 38.1257C39.2828 38.1434 38.8271 38.0306 38.4285 37.8002C38.0513 37.5604 37.7546 37.2132 37.5764 36.8033C37.3982 36.3934 37.3467 35.9396 37.4285 35.5002C37.4447 35.0767 37.6007 34.6705 37.8721 34.3449C38.1434 34.0193 38.5148 33.7926 38.9285 33.7002C39.2428 33.6209 39.5713 33.6158 39.888 33.6853C40.2046 33.7549 40.5008 33.8971 40.753 34.1008C41.0052 34.3045 41.2066 34.5641 41.3412 34.8591C41.4758 35.154 41.5399 35.4762 41.5285 35.8002C41.5333 35.8408 41.5289 35.8819 41.5155 35.9205C41.5021 35.9591 41.4802 35.9941 41.4513 36.023C41.4224 36.0519 41.3873 36.0739 41.3487 36.0872C41.3101 36.1006 41.2691 36.105 41.2285 36.1002H39.9285ZM39.4285 35.4002H40.2285C40.3285 35.4002 40.5285 35.5002 40.5285 35.3002C40.5285 35.1002 40.4285 35.1002 40.4285 35.0002C40.3278 34.839 40.1878 34.7061 40.0216 34.6139C39.8554 34.5218 39.6685 34.4734 39.4785 34.4734C39.2885 34.4734 39.1015 34.5218 38.9353 34.6139C38.7692 34.7061 38.6291 34.839 38.5285 35.0002C38.4232 35.1105 38.3535 35.2499 38.3285 35.4002C38.3285 35.6002 38.5285 35.5002 38.7285 35.5002C38.9503 35.4108 39.1905 35.3765 39.4285 35.4002Z" fill="#68696A"></path><path d="M70.6309 36.0998H69.3309C68.9309 36.0998 68.9309 36.1998 69.0309 36.4998C69.1062 36.7107 69.2312 36.9003 69.3955 37.0525C69.5597 37.2047 69.7583 37.3149 69.9743 37.3738C70.1904 37.4327 70.4174 37.4386 70.6362 37.3909C70.855 37.3432 71.059 37.2433 71.2309 37.0998C71.6309 36.7998 71.7309 36.9998 71.9309 37.2998C72.1309 37.5998 71.8309 37.6998 71.7309 37.7998C71.3687 38.0782 70.9305 38.2403 70.4743 38.2647C70.018 38.289 69.5651 38.1746 69.1753 37.9363C68.7854 37.6981 68.4769 37.3473 68.2905 36.9302C68.1041 36.513 68.0484 36.0492 68.1309 35.5998C68.1522 35.1623 68.3226 34.7452 68.6136 34.4178C68.9047 34.0904 69.2989 33.8723 69.7309 33.7998C70.0388 33.7342 70.3577 33.7397 70.6631 33.8159C70.9686 33.8921 71.2526 34.0369 71.4937 34.2394C71.7347 34.4419 71.9264 34.6967 72.0542 34.9844C72.1819 35.2721 72.2424 35.5852 72.2309 35.8998C72.2309 36.1998 72.0309 36.0998 71.9309 36.0998H70.6309ZM70.1309 35.3998H71.0309C71.4309 35.3998 71.3309 35.1998 71.2309 34.9998C71.1391 34.833 71.0061 34.6924 70.8448 34.5912C70.6834 34.49 70.4989 34.4317 70.3087 34.4217C70.1185 34.4117 69.9289 34.4503 69.7578 34.534C69.5867 34.6177 69.4398 34.7436 69.3309 34.8998C69.2309 34.9998 69.0309 35.1998 69.1309 35.2998C69.2309 35.3998 69.4309 35.3998 69.5309 35.3998H70.1309Z" fill="#68696A"></path><path d="M91.8285 36.0998H90.6285C90.1285 36.0998 90.2285 36.2998 90.3285 36.5998C90.4108 36.806 90.542 36.989 90.7107 37.1332C90.8795 37.2774 91.0807 37.3785 91.2972 37.4277C91.5136 37.4769 91.7387 37.4727 91.9532 37.4156C92.1677 37.3585 92.3652 37.2501 92.5285 37.0998C92.9285 36.7998 93.0285 36.9998 93.2285 37.1998C93.5285 37.5998 93.1285 37.5998 92.9285 37.7998C92.5669 38.0584 92.1376 38.2056 91.6934 38.2234C91.2492 38.2412 90.8095 38.1287 90.4285 37.8998C90.0513 37.66 89.7546 37.3128 89.5764 36.9029C89.3982 36.493 89.3467 36.0392 89.4285 35.5998C89.4447 35.1763 89.6007 34.7701 89.8721 34.4445C90.1434 34.1189 90.5148 33.8922 90.9285 33.7998C91.2428 33.7205 91.5713 33.7154 91.888 33.785C92.2046 33.8545 92.5008 33.9967 92.753 34.2004C93.0052 34.4041 93.2066 34.6637 93.3412 34.9587C93.4758 35.2536 93.5399 35.5758 93.5285 35.8998C93.5333 35.9404 93.5289 35.9815 93.5155 36.0201C93.5021 36.0587 93.4802 36.0938 93.4513 36.1226C93.4224 36.1515 93.3873 36.1735 93.3487 36.1868C93.3101 36.2002 93.2691 36.2047 93.2285 36.1998C92.7667 36.1168 92.2974 36.0833 91.8285 36.0998ZM91.4285 35.3998H92.2285C92.6285 35.3998 92.6285 35.1998 92.4285 34.9998C92.3308 34.8586 92.204 34.74 92.0566 34.6521C91.9092 34.5641 91.7446 34.5087 91.574 34.4898C91.4034 34.4708 91.2307 34.4887 91.0676 34.5422C90.9045 34.5956 90.7547 34.6835 90.6285 34.7998C90.4285 34.9998 90.2285 35.0998 90.3285 35.2998C90.4285 35.4998 90.6285 35.3998 90.8285 35.3998H91.4285Z" fill="#68696A"></path><path d="M111.93 36.1002H110.63C110.23 36.1002 110.23 36.3002 110.33 36.5002C110.405 36.7111 110.53 36.9007 110.694 37.0529C110.859 37.2051 111.057 37.3153 111.273 37.3742C111.489 37.4331 111.716 37.439 111.935 37.3913C112.154 37.3436 112.358 37.2437 112.53 37.1002C112.93 36.8002 113.03 37.0002 113.23 37.2002C113.53 37.6002 113.13 37.6002 112.93 37.8002C112.55 38.0605 112.104 38.208 111.644 38.2257C111.184 38.2434 110.728 38.1306 110.33 37.9002C109.959 37.6304 109.669 37.2637 109.493 36.8405C109.317 36.4172 109.26 35.9535 109.33 35.5002C109.401 35.0803 109.588 34.6889 109.871 34.3706C110.154 34.0523 110.521 33.82 110.93 33.7002C111.238 33.6346 111.556 33.6401 111.862 33.7163C112.167 33.7924 112.451 33.9373 112.692 34.1398C112.933 34.3423 113.125 34.5971 113.253 34.8848C113.381 35.1725 113.441 35.4856 113.43 35.8002C113.43 36.1002 113.23 36.0002 113.13 36.0002C112.736 36.0874 112.332 36.1211 111.93 36.1002ZM111.53 35.4002H112.43C112.73 35.4002 112.73 35.3002 112.63 35.1002C112.545 34.9292 112.419 34.7824 112.262 34.6734C112.106 34.5644 111.924 34.4967 111.735 34.4768C111.545 34.4568 111.353 34.4852 111.178 34.5592C111.002 34.6333 110.848 34.7506 110.73 34.9002C110.63 35.0002 110.43 35.2002 110.53 35.4002C110.63 35.6002 110.83 35.5002 111.03 35.5002C111.179 35.4095 111.356 35.3742 111.53 35.4002Z" fill="#68696A"></path><path d="M16.9291 35.9002C16.9127 35.6023 16.9576 35.3042 17.061 35.0243C17.1644 34.7445 17.3242 34.4888 17.5305 34.2732C17.7367 34.0576 17.985 33.8866 18.26 33.7709C18.535 33.6551 18.8308 33.597 19.1291 33.6002C19.425 33.6054 19.7169 33.6692 19.9881 33.7878C20.2592 33.9065 20.5041 34.0777 20.7086 34.2915C20.9132 34.5054 21.0734 34.7577 21.1799 35.0338C21.2864 35.3099 21.3371 35.6044 21.3291 35.9002C21.3456 36.1981 21.3007 36.4962 21.1972 36.7761C21.0938 37.056 20.934 37.3116 20.7278 37.5272C20.5216 37.7428 20.2732 37.9138 19.9982 38.0296C19.7233 38.1453 19.4274 38.2034 19.1291 38.2002C18.8332 38.1951 18.5413 38.1313 18.2702 38.0126C17.999 37.894 17.7541 37.7228 17.5496 37.5089C17.345 37.295 17.1849 37.0428 17.0784 36.7666C16.9719 36.4905 16.9211 36.1961 16.9291 35.9002ZM17.8291 35.9002C17.8486 36.1522 17.941 36.393 18.0952 36.5932C18.2493 36.7935 18.4585 36.9444 18.697 37.0277C18.9356 37.1109 19.1933 37.1228 19.4386 37.0619C19.6838 37.001 19.906 36.87 20.0779 36.6848C20.2498 36.4996 20.3641 36.2684 20.4067 36.0193C20.4493 35.7702 20.4183 35.5141 20.3176 35.2824C20.217 35.0506 20.0509 34.8532 19.8399 34.7143C19.6288 34.5753 19.3818 34.501 19.1291 34.5002C18.9518 34.5067 18.7775 34.548 18.6162 34.6219C18.4548 34.6957 18.3096 34.8007 18.1889 34.9307C18.0681 35.0608 17.9742 35.2133 17.9125 35.3797C17.8508 35.546 17.8224 35.7229 17.8291 35.9002Z" fill="#68696A"></path><path d="M104.329 36.5999C104.729 35.6999 105.129 34.8999 105.429 34.0999C105.629 33.5999 106.029 33.6999 106.329 33.7999C106.629 33.8999 106.329 34.0999 106.329 34.1999L104.829 37.7999C104.502 38.4064 104.235 39.0426 104.029 39.6999C103.829 40.3999 103.429 40.3999 102.829 40.2999L103.729 38.1999C103.826 38.0701 103.879 37.9122 103.879 37.7499C103.879 37.5876 103.826 37.4297 103.729 37.2999C103.136 36.1957 102.602 35.0608 102.129 33.8999C102.245 33.842 102.374 33.812 102.504 33.8121C102.634 33.8123 102.762 33.8426 102.878 33.9008C102.995 33.959 103.096 34.0434 103.174 34.1473C103.252 34.2513 103.305 34.372 103.329 34.4999C103.599 35.2282 103.934 35.931 104.329 36.5999Z" fill="#68696A"></path><path d="M47.5297 35.8998V34.1998C47.5297 33.9998 47.4297 33.7998 47.6297 33.6998C47.7427 33.6432 47.8703 33.6224 47.9954 33.6402C48.1205 33.6581 48.2371 33.7138 48.3297 33.7998C48.5297 33.9998 48.6297 33.8998 48.7297 33.7998C49.0282 33.649 49.3597 33.5755 49.694 33.5859C50.0282 33.5964 50.3545 33.6905 50.6429 33.8596C50.9314 34.0287 51.173 34.2674 51.3453 34.554C51.5177 34.8405 51.6155 35.1657 51.6297 35.4998V37.5998C51.6297 37.8998 51.4297 37.8998 51.2297 37.8998C51.0297 37.8998 50.7297 37.9998 50.7297 37.5998V35.5998C50.7468 35.3781 50.6991 35.1562 50.5927 34.9609C50.4862 34.7657 50.3254 34.6055 50.1297 34.4998C49.9024 34.4171 49.6603 34.3833 49.4191 34.4005C49.1778 34.4178 48.9429 34.4857 48.7297 34.5998C48.6033 34.6663 48.4985 34.7675 48.4277 34.8915C48.3568 35.0155 48.3228 35.1572 48.3297 35.2998V37.4998C48.3297 37.8998 48.1297 37.8998 47.8297 37.8998C47.5297 37.8998 47.4297 37.7998 47.4297 37.4998C47.5194 36.9715 47.553 36.4352 47.5297 35.8998Z" fill="#68696A"></path><path d="M14.2305 36.2999V35.3999C14.3305 34.7999 14.2305 34.3999 13.5305 34.5999C13.2305 34.6999 13.2305 34.3999 13.2305 34.1999C13.2305 33.9999 13.2305 33.7999 13.5305 33.7999H13.8304C14.2304 33.8999 14.3304 33.6999 14.3304 33.2999C14.3056 33.0823 14.3251 32.8619 14.3879 32.6521C14.4506 32.4423 14.5553 32.2473 14.6955 32.0791C14.8357 31.9108 15.0085 31.7728 15.2036 31.6732C15.3987 31.5737 15.6119 31.5147 15.8304 31.4999C16.0304 31.4999 16.4304 31.3999 16.4304 31.6999C16.4304 31.9999 16.4304 32.3999 15.9304 32.3999C15.7868 32.4217 15.6497 32.4746 15.5286 32.5548C15.4074 32.635 15.3052 32.7407 15.2291 32.8644C15.1529 32.9882 15.1047 33.127 15.0876 33.2713C15.0706 33.4156 15.0852 33.5618 15.1304 33.6999C15.1304 33.7999 15.2304 33.7999 15.3304 33.7999H16.0305C16.3305 33.7999 16.4304 33.7999 16.4304 34.1999C16.4304 34.5999 16.3305 34.5999 16.0305 34.5999C15.1305 34.5999 15.1304 34.5999 15.1304 35.5999V37.6999C15.1304 37.9999 15.0305 38.0999 14.7305 38.0999C14.4305 38.0999 14.2305 38.0999 14.2305 37.6999V36.2999Z" fill="#68696A"></path><path d="M86.6289 36.2998V34.9998C86.6289 34.5998 86.5289 34.4998 86.1289 34.4998C85.7289 34.4998 85.6289 34.5998 85.6289 34.0998C85.6289 33.5998 85.9289 33.6998 86.1289 33.6998C86.5289 33.6998 86.6289 33.5998 86.6289 33.1998C86.6091 32.9669 86.6387 32.7325 86.7158 32.5118C86.7928 32.2912 86.9156 32.0893 87.0761 31.9194C87.2366 31.7494 87.4311 31.6153 87.647 31.5258C87.8629 31.4362 88.0953 31.3933 88.3289 31.3998C88.5289 31.3998 88.8289 31.2998 88.7289 31.5998C88.6289 31.8998 88.8289 32.1998 88.3289 32.1998C88.1595 32.186 87.9902 32.2272 87.8461 32.3173C87.702 32.4073 87.5908 32.5415 87.5289 32.6998C87.3289 33.3998 87.4289 33.5998 88.1289 33.5998C88.3289 33.5998 88.7289 33.3998 88.7289 33.7998C88.7289 34.1998 88.8289 34.3998 88.2289 34.3998C87.4289 34.3998 87.3289 34.3998 87.3289 35.2998V37.5998C87.3289 37.9998 87.1289 37.8998 86.9289 37.9998C86.7289 38.0998 86.4289 37.9998 86.5289 37.5998C86.6158 37.1722 86.6494 36.7356 86.6289 36.2998Z" fill="#68696A"></path><path d="M95.9316 38.1999C95.4803 38.2073 95.034 38.1043 94.6316 37.8999C94.4316 37.7999 94.1316 37.7999 94.3316 37.3999C94.5316 36.9999 94.6316 36.8999 95.0316 37.1999C95.1911 37.3076 95.3712 37.381 95.5606 37.4154C95.7499 37.4498 95.9444 37.4445 96.1316 37.3999C96.2732 37.3962 96.4095 37.3448 96.5184 37.2541C96.6273 37.1634 96.7024 37.0386 96.7316 36.8999C96.7316 36.5999 96.5316 36.4999 96.2316 36.3999C95.9316 36.2999 95.5316 36.1999 95.2316 36.0999C94.9924 36.0361 94.7823 35.8919 94.6367 35.6917C94.4911 35.4914 94.4186 35.2472 94.4316 34.9999C94.4192 34.7266 94.5022 34.4574 94.6664 34.2385C94.8305 34.0196 95.0657 33.8646 95.3316 33.7999C95.6224 33.6922 95.9323 33.6455 96.242 33.6627C96.5517 33.6799 96.8545 33.7606 97.1316 33.8999C97.2316 33.9999 97.5316 33.9999 97.3316 34.2999C97.1316 34.5999 97.1316 34.8999 96.8316 34.5999C96.5969 34.4408 96.3135 34.37 96.0316 34.3999C95.8862 34.3887 95.7421 34.4347 95.63 34.5281C95.518 34.6214 95.4468 34.7549 95.4316 34.8999C95.4316 35.1999 95.7316 35.2999 95.9316 35.3999C96.2042 35.4833 96.4714 35.5835 96.7316 35.6999C97.0179 35.7768 97.2709 35.9457 97.4516 36.1806C97.6324 36.4156 97.7308 36.7035 97.7316 36.9999C97.6775 37.2983 97.5336 37.573 97.3191 37.7874C97.1047 38.0019 96.83 38.1458 96.5316 38.1999H95.9316Z" fill="#696A6C"></path><path d="M116.029 38.2002C115.578 38.2076 115.132 38.1046 114.729 37.9002C114.529 37.8002 114.229 37.8002 114.429 37.4002C114.629 37.0002 114.729 36.9002 115.129 37.2002C115.492 37.4108 115.918 37.4819 116.329 37.4002C116.529 37.3002 116.729 37.2002 116.729 36.9002C116.729 36.6002 116.529 36.5002 116.329 36.4002C116.129 36.3002 115.629 36.2002 115.329 36.1002C115.078 36.0442 114.852 35.9053 114.689 35.7059C114.526 35.5064 114.434 35.2579 114.429 35.0002C114.45 34.7354 114.546 34.482 114.705 34.2695C114.864 34.057 115.081 33.8942 115.329 33.8002C115.627 33.7094 115.94 33.6803 116.25 33.7147C116.559 33.7491 116.859 33.8462 117.129 34.0002C117.229 34.1002 117.429 34.2002 117.229 34.4002C117.029 34.6002 117.129 34.9002 116.729 34.7002C116.57 34.5925 116.39 34.5191 116.2 34.4847C116.011 34.4503 115.817 34.4556 115.629 34.5002C115.429 34.6002 115.229 34.7002 115.229 34.9002C115.229 35.1002 115.429 35.3002 115.629 35.4002L116.529 35.7002C116.815 35.777 117.069 35.946 117.249 36.1809C117.43 36.4159 117.528 36.7038 117.529 37.0002C117.475 37.2986 117.331 37.5733 117.117 37.7877C116.902 38.0021 116.628 38.146 116.329 38.2002H116.029Z" fill="#696A6C"></path><path d="M54.2298 38.1999C53.7337 38.2084 53.2464 38.0692 52.8297 37.7999C52.6297 37.6999 52.6298 37.4999 52.7298 37.2999C52.8298 37.0999 52.9298 36.8999 53.2298 37.0999C53.5818 37.3385 54.0068 37.4448 54.4297 37.3999C54.5714 37.3962 54.7077 37.3448 54.8165 37.2541C54.9254 37.1634 55.0005 37.0386 55.0297 36.8999C55.0453 36.8398 55.0467 36.7768 55.0337 36.716C55.0207 36.6553 54.9937 36.5984 54.9549 36.5498C54.916 36.5013 54.8664 36.4625 54.81 36.4365C54.7536 36.4105 54.6918 36.3979 54.6297 36.3999C54.3297 36.2999 53.9297 36.1999 53.6297 36.0999C53.3905 36.0361 53.1805 35.8919 53.0348 35.6917C52.8892 35.4914 52.8168 35.2472 52.8297 34.9999C52.8166 34.7405 52.8873 34.4838 53.0314 34.2677C53.1755 34.0516 53.3852 33.8876 53.6297 33.7999C53.9206 33.6922 54.2305 33.6455 54.5401 33.6627C54.8498 33.6799 55.1526 33.7606 55.4297 33.8999C55.5297 33.9999 55.9297 33.9999 55.6297 34.2999C55.5297 34.4999 55.4297 34.7999 55.0297 34.5999C54.8728 34.4848 54.6874 34.4146 54.4936 34.397C54.2998 34.3794 54.1048 34.415 53.9297 34.4999C53.7297 34.5999 53.5297 34.6999 53.5297 34.8999C53.5368 35.0037 53.5811 35.1014 53.6547 35.175C53.7282 35.2485 53.8259 35.2929 53.9297 35.2999C54.1825 35.4132 54.4534 35.4809 54.7298 35.4999C55.6298 35.7999 56.0297 36.2999 55.8297 36.9999C55.6297 37.6999 55.1298 38.1999 54.2298 38.1999Z" fill="#696A6C"></path><path d="M100.829 38.2002C100.62 38.231 100.407 38.2143 100.206 38.1514C100.005 38.0884 99.8205 37.9808 99.6667 37.8366C99.5128 37.6924 99.3935 37.5153 99.3177 37.3185C99.2419 37.1217 99.2116 36.9104 99.2289 36.7002V35.2002C99.2289 34.7002 99.1289 34.5002 98.6289 34.6002C98.4289 34.6002 98.1289 34.7002 98.1289 34.3002C98.1289 33.9002 98.2289 33.7002 98.6289 33.8002C99.0289 33.9002 99.3289 33.7002 99.2289 33.2002C99.1289 32.9002 99.3289 32.7002 99.6289 32.7002C99.9289 32.7002 100.129 32.9002 100.029 33.2002C99.9289 33.8002 100.229 33.9002 100.729 33.8002C100.929 33.8002 101.229 33.6002 101.429 33.9002C101.629 34.2002 101.429 34.5002 100.929 34.5002C100.129 34.5002 100.129 34.5002 100.129 35.3002V36.5002C100.129 37.0002 100.329 37.3002 100.829 37.2002C101.329 37.1002 101.429 37.5002 101.429 37.8002C101.329 38.3002 100.929 38.1002 100.829 38.2002Z" fill="#68696A"></path><path d="M28.7313 35.8V35.5C28.7813 35.2021 28.7813 34.8979 28.7313 34.6C28.6313 34.3 28.2312 34.5 27.9312 34.5C27.6312 34.5 27.7313 34.3 27.6313 34.1C27.5313 33.9 27.6312 33.7 27.9312 33.7H28.1313C28.6313 33.8 28.9313 33.6 28.8313 33C28.7313 32.7 28.8313 32.5 29.2313 32.5C29.6313 32.5 29.7313 32.6 29.7313 33C29.6313 33.6 29.8312 33.7 30.4312 33.7C30.6312 33.7 31.0313 33.5 31.0313 33.9C31.0313 34.3 31.1313 34.5 30.6313 34.5C29.7313 34.5 29.7313 34.5 29.7313 35.4V36.5C29.7313 37.1 29.9313 37.3 30.5313 37.3C31.1313 37.3 31.0313 37.6 31.0313 37.9C31.0313 38.2 30.7313 38.2 30.5313 38.2C30.3173 38.234 30.0985 38.2203 29.8905 38.1599C29.6824 38.0995 29.4903 37.9938 29.3279 37.8505C29.1655 37.7072 29.0367 37.5297 28.9508 37.3308C28.865 37.1319 28.8242 36.9165 28.8313 36.7C28.7488 36.4075 28.715 36.1035 28.7313 35.8Z" fill="#68696A"></path><path d="M82.3297 34.7999V37.4999C82.3297 37.7999 82.3297 37.9999 81.9297 37.9999C81.5297 37.9999 81.4297 37.8999 81.4297 37.4999V31.8999C81.4297 31.5999 81.5297 31.3999 81.8297 31.3999C82.1297 31.3999 82.2297 31.5999 82.2297 31.8999C82.2297 32.9999 82.3297 33.8999 82.3297 34.7999Z" fill="#696A6C"></path><path d="M107.33 34.8V31.9C107.33 31.5 107.43 31.5 107.73 31.5C108.03 31.5 108.13 31.6 108.13 31.9V37.6C108.13 38 107.93 38 107.63 38C107.33 38 107.23 37.8 107.23 37.5C107.318 36.6028 107.351 35.7012 107.33 34.8Z" fill="#696A6C"></path><path d="M22.9281 33.8002H23.0282C23.5282 34.3002 23.9282 33.7002 24.4282 33.7002C24.9282 33.7002 25.0281 33.8002 24.9281 34.3002C24.9281 34.5002 24.8282 34.5002 24.6282 34.6002C23.7282 34.7002 23.4281 35.0002 23.4281 35.9002V37.8002C23.4281 38.2002 23.2282 38.2002 23.0282 38.2002C22.8282 38.2002 22.5282 38.2002 22.6282 37.9002V34.3002C22.5282 33.8002 22.7281 33.7002 22.9281 33.8002Z" fill="#68696A"></path><path d="M65.2281 35.9002V34.2002C65.2281 34.1002 65.1281 33.8002 65.3281 33.8002C65.5281 33.8002 65.9281 33.7002 66.0281 33.9002C66.1281 34.1002 66.2281 34.1002 66.4281 34.0002C66.6281 33.9002 66.9281 33.7002 67.1281 33.8002C67.3281 33.9002 67.6281 33.6002 67.6281 34.0002C67.6281 34.4002 67.6281 34.6002 67.1281 34.6002C66.9739 34.5964 66.8207 34.6256 66.6788 34.686C66.5368 34.7463 66.4095 34.8364 66.3053 34.9501C66.2011 35.0638 66.1224 35.1985 66.0746 35.3451C66.0268 35.4918 66.0109 35.6469 66.0281 35.8002V37.8002C66.0281 38.2002 65.8281 38.2002 65.6281 38.2002C65.4281 38.2002 65.1281 38.2002 65.2281 37.8002V35.9002Z" fill="#68696A"></path><path d="M45.9292 35.9002V37.7002C45.9292 38.1002 45.7293 38.1002 45.5293 38.1002C45.3293 38.1002 45.0292 38.1002 45.1292 37.7002V34.1002C45.1292 33.8002 45.2293 33.7002 45.5293 33.7002C45.8293 33.7002 46.0293 33.7002 46.0293 34.1002C45.9461 34.6964 45.9127 35.2985 45.9292 35.9002Z" fill="#696A6C"></path><path d="M62.7305 35.9002V34.1002C62.7305 33.8002 62.8304 33.7002 63.1304 33.8002C63.4304 33.9002 63.6304 33.7002 63.6304 34.1002V37.8002C63.6304 38.2002 63.3304 38.1002 63.1304 38.1002C62.9304 38.1002 62.7305 38.1002 62.7305 37.8002C62.7807 37.1679 62.7807 36.5325 62.7305 35.9002Z" fill="#696A6C"></path><path d="M83.8304 35.9002V34.1002C83.8304 33.7002 84.0305 33.7002 84.2305 33.7002C84.4305 33.7002 84.6304 33.7002 84.6304 34.1002V37.7002C84.6304 38.1002 84.3304 38.0002 84.1304 38.0002C83.9304 38.0002 83.7305 38.0002 83.7305 37.7002C83.8136 37.104 83.847 36.5019 83.8304 35.9002Z" fill="#696A6C"></path><path d="M45.5314 32.8002C45.1314 32.8002 44.9313 32.6002 44.9313 32.3002C44.9201 32.1548 44.9661 32.0107 45.0595 31.8987C45.1529 31.7866 45.2863 31.7154 45.4313 31.7002C45.5129 31.6885 45.596 31.6959 45.6741 31.7219C45.7523 31.748 45.8233 31.7918 45.8815 31.8501C45.9398 31.9083 45.9836 31.9793 46.0097 32.0574C46.0357 32.1356 46.0431 32.2187 46.0314 32.3002C46.1314 32.6002 45.9314 32.8002 45.5314 32.8002Z" fill="#696A6C"></path><path d="M84.3282 32.8002C83.9282 32.8002 83.7282 32.6002 83.7282 32.3002C83.717 32.1548 83.763 32.0107 83.8563 31.8987C83.9497 31.7866 84.0832 31.7154 84.2282 31.7002C84.3097 31.6885 84.3928 31.6959 84.471 31.7219C84.5491 31.748 84.6201 31.7918 84.6784 31.8501C84.7366 31.9083 84.7805 31.9793 84.8065 32.0574C84.8325 32.1356 84.8399 32.2187 84.8282 32.3002C84.8326 32.367 84.8227 32.434 84.7991 32.4967C84.7756 32.5593 84.7389 32.6162 84.6915 32.6636C84.6442 32.7109 84.5873 32.7476 84.5247 32.7712C84.462 32.7947 84.395 32.8046 84.3282 32.8002Z" fill="#696A6C"></path><path d="M63.1306 32.8001C62.8306 32.8001 62.6306 32.6001 62.6306 32.2001C62.6194 32.0547 62.6654 31.9106 62.7587 31.7986C62.8521 31.6865 62.9855 31.6153 63.1306 31.6001C63.2897 31.6001 63.4423 31.6633 63.5548 31.7758C63.6673 31.8884 63.7306 32.041 63.7306 32.2001C63.7306 32.3592 63.6673 32.5118 63.5548 32.6244C63.4423 32.7369 63.2897 32.8001 63.1306 32.8001Z" fill="#696A6C"></path></g><defs><clipPath id="clip0_2521_11433"><rect width="130.73" height="40.35" fill="white"></rect></clipPath></defs></svg>