<svg xmlns="http://www.w3.org/2000/svg" width="194" height="40" viewBox="0 0 194 40" fill="none"><g clip-path="url(#clip0_2521_11480)"><path d="M122.202 28.9998H57.5016C53.2016 28.9998 51.6016 27.4998 51.6016 23.2998V16.0998C51.7016 13.0998 53.4016 11.3998 56.5016 11.2998C59.1016 11.2998 61.7015 11.1998 64.3015 11.2998C65.3218 11.2785 66.314 11.6339 67.0888 12.298C67.8636 12.9621 68.3665 13.8884 68.5016 14.8998C68.6016 15.5998 68.7016 16.4998 67.6016 16.4998C66.9016 16.4998 65.9015 16.8998 65.7015 15.5998C65.5015 14.2998 64.7016 14.0998 63.6016 14.1998C61.3016 14.1998 59.0015 14.2998 56.8015 14.1998C55.3015 14.1998 54.5016 14.6998 54.6016 16.2998C54.7016 18.9998 54.6016 21.6998 54.6016 24.3998C54.6016 25.6998 55.2016 26.2998 56.5016 26.1998H186.502C188.002 26.1998 189.802 26.6998 190.502 24.4998C190.802 23.5998 192.202 23.8998 192.902 24.1998C193.602 24.4998 193.102 25.2998 192.902 25.8998C192.002 28.2998 190.102 28.9998 187.702 28.9998H122.202Z" fill="#3464A7"></path><path d="M142.001 17.8001C142.201 16.0001 141.001 13.2001 142.501 11.8001C143.801 10.5001 146.701 11.5001 148.901 11.4001C150.401 11.3001 152.001 11.4001 153.501 11.4001C154.401 11.4001 155.301 11.2001 155.301 12.6001C155.301 14.0001 154.801 14.2001 153.601 14.2001C151.301 14.1001 149.001 14.2001 146.801 14.2001C145.801 14.2001 144.901 14.1001 144.901 15.6001C144.901 17.1001 145.801 17.2001 146.901 17.2001H153.701C154.601 17.2001 155.301 17.2001 155.301 18.4001C155.301 19.6001 154.701 19.9001 153.701 19.9001H146.901C145.801 19.9001 144.801 19.9001 144.901 21.5001C145.001 23.1001 145.801 22.9001 146.901 22.9001H153.701C154.701 22.9001 155.401 23.0001 155.401 24.3001C155.401 25.6001 154.701 25.5001 153.801 25.5001H143.801C142.501 25.5001 142.101 25.0001 142.101 23.8001C142.101 21.8001 142.001 20.0001 142.001 17.8001Z" fill="#3464A7"></path><path d="M172.4 21.3998V13.1998C172.4 12.1998 172.3 11.2998 173.9 11.2998C175.5 11.2998 175.3 12.1998 175.3 13.1998V22.7998C175.3 23.5998 175.9 24.8998 174.6 25.2998C173.974 25.5059 173.307 25.5498 172.66 25.4273C172.012 25.3049 171.407 25.0202 170.9 24.5998C168.2 22.0998 165.4 19.5998 162.7 17.0998C162.3 16.6998 161.8 16.3998 161.2 15.8998C160.6 18.5998 161 20.9998 160.9 23.3998C160.9 24.4998 161 25.4998 159.3 25.3998C157.6 25.2998 158 24.2998 158 23.3998V13.5998C158 12.8998 157.5 11.7998 158.5 11.4998C158.999 11.3199 159.54 11.2904 160.055 11.4148C160.57 11.5393 161.038 11.8122 161.4 12.1998C164.5 15.0998 167.7 17.8998 170.9 20.7998C171.3 20.9998 171.5 21.4998 172.4 21.3998Z" fill="#3464A7"></path><path d="M96.3 11.3001C97.5313 11.2001 98.7687 11.2001 100 11.3001C101 11.5001 102.9 10.2001 102.9 12.6001C102.9 15.0001 101 13.9001 99.9 14.0001C97.9362 14.1501 95.9638 14.1501 94 14.0001C92.9 14.0001 92.3 14.2001 92.4 15.4001C92.5 16.6001 92.9 16.9001 94 16.9001C96.4 16.8001 98.9 16.9001 101.3 16.9001C102.2 16.9001 102.9 16.9001 102.9 18.1001C102.9 19.3001 102.4 19.6001 101.3 19.6001H94C92.9 19.6001 92.4 19.9001 92.4 21.1001C92.4 22.3001 92.9 22.6001 94 22.6001H101.3C102.2 22.6001 102.9 22.7001 102.9 23.8001C102.9 24.9001 102.4 25.2001 101.4 25.2001H91.1C89.9 25.2001 89.5 24.8001 89.5 23.6001V12.6001C89.5 11.4001 90 11.1001 91.1 11.1001C92.8245 11.3145 94.5641 11.3815 96.3 11.3001Z" fill="#3464A7"></path><path d="M131.698 25.3002H127.498C124.998 25.2002 123.498 24.0002 123.298 21.6002C123.098 19.4715 123.098 17.3288 123.298 15.2002C123.373 14.1472 123.851 13.1637 124.634 12.4555C125.417 11.7473 126.443 11.3692 127.498 11.4002C130.165 11.3002 132.865 11.3002 135.598 11.4002C136.568 11.3962 137.511 11.7199 138.273 12.319C139.035 12.918 139.573 13.7572 139.798 14.7002C139.998 15.3002 140.298 16.3002 139.198 16.4002C138.498 16.5002 137.398 16.8002 137.198 15.8002C136.898 14.1002 135.698 14.2002 134.498 14.2002H127.898C126.698 14.2002 126.098 14.7002 126.098 15.9002V16.1002C126.198 24.2002 125.098 22.6002 132.398 22.8002H134.798C136.098 22.8002 137.098 22.7002 137.098 21.1002C137.098 19.7002 138.198 20.0002 138.998 20.0002C140.098 20.0002 139.898 20.9002 139.898 21.6002C139.848 22.6089 139.418 23.5614 138.695 24.2662C137.971 24.9711 137.008 25.3762 135.998 25.4002C134.598 25.4002 133.198 25.3002 131.698 25.3002Z" fill="#3464A7"></path><path d="M183.402 19.5999V18.8999C183.402 14.3999 183.402 14.3999 178.802 14.1999C177.802 14.1999 177.102 13.9999 177.102 12.7999C177.102 11.5999 177.602 11.3999 178.702 11.3999H190.602C191.602 11.3999 192.402 11.3999 192.302 12.6999C192.202 13.9999 191.802 14.1999 190.702 14.1999C186.002 14.4999 186.002 14.4999 186.002 19.0999V23.8999C186.002 24.7999 185.802 25.3999 184.602 25.3999C183.402 25.3999 183.202 24.8999 183.202 23.9999C183.415 22.5436 183.482 21.0695 183.402 19.5999Z" fill="#3464A7"></path><path d="M120 17.4999C116.8 16.7999 113.6 17.2999 110.3 17.1999C109.2 17.1999 108.2 17.2999 108.2 15.6999C108.2 14.0999 109.1 14.1999 110.2 14.1999H114.8C116 14.1999 117.3 13.6999 117.6 15.7999C117.8 16.8999 119.4 16.2999 120.4 16.0999C120.3 11.8999 119.7 11.3999 115.3 11.3999H108.7C107.2 11.3999 105.9 11.9999 105.7 13.2999C105.3 15.3999 104.8 17.6999 106.7 19.5999C109.8 20.2999 113 19.7999 116.1 19.8999C117.1 19.8999 118 19.7999 118 21.2999C118 22.7999 117.2 22.7999 116.1 22.7999H110.5C109.3 22.7999 108 23.1999 107.7 21.1999C107.5 19.9999 106.1 20.6999 105.2 20.5999C105 24.2999 105.5 25.2999 107.8 25.3999C111.3 25.4999 114.7 25.3999 118.2 25.3999C118.738 25.456 119.279 25.3144 119.72 25.0016C120.162 24.6888 120.475 24.2262 120.6 23.6999C121.1 21.4999 121.6 19.3999 120 17.4999Z" fill="#3464A7"></path><path d="M86.8014 16.7001C87.4014 13.0001 85.5014 11.4001 81.6014 11.4001H77.9014C75.6014 11.5001 72.7014 10.5001 71.3014 11.8001C69.9014 13.1001 71.0014 16.2001 70.8014 18.0001V24.2001C70.8014 25.3001 71.4014 25.5001 72.3014 25.5001C73.2014 25.5001 73.6014 25.2001 73.7014 24.3001C74.1014 20.9001 74.2014 20.9001 77.7014 20.9001C78.8014 20.9001 80.0014 21.0001 81.1014 20.9001C83.3014 20.7001 84.4014 21.4001 84.1014 23.6001C84.0014 24.6001 84.2014 25.5001 85.6014 25.4001C87.0014 25.3001 86.8014 24.5001 86.9014 23.6001C86.9014 21.3001 86.4014 19.1001 86.8014 16.7001ZM82.3014 18.2001H78.7014C77.8021 18.1501 76.9007 18.1501 76.0014 18.2001C73.7014 18.5001 73.5014 17.3001 73.6014 15.6001C73.7014 14.6001 74.0014 14.2001 75.0014 14.2001H82.3014C83.7014 14.2001 84.0014 15.1001 84.0014 16.2001C84.0014 17.3001 83.7014 18.2001 82.3014 18.2001Z" fill="#3464A7"></path><path d="M43.4 36.9C44.33 36.4937 45.232 36.026 46.1 35.5C45.1 35.8 44.2 36.1 43.3 36.3C42.6351 32.6466 41.0712 29.2161 38.7493 26.3181C36.4274 23.4201 33.4205 21.1456 30 19.7C29.9684 16.6848 29.3327 13.7065 28.1303 10.9412C26.928 8.17584 25.1835 5.6796 23 3.60001C23.792 2.69233 24.662 1.85579 25.6 1.10001C24.4843 1.68477 23.4145 2.35336 22.4 3.10001C20.9776 1.86297 19.3971 0.8205 17.7 0C19.1194 1.13799 20.4255 2.4106 21.6 3.80002C19.3076 5.83788 17.5186 8.37927 16.3735 11.2247C15.2284 14.0702 14.7583 17.1423 15 20.2C8.5 22.9 2.70001 28.6 2.10001 36.9C1.37663 36.7934 0.670516 36.5916 0 36.3C0.680008 36.6738 1.3812 37.0077 2.10001 37.3V40C2.20876 39.1561 2.37583 38.3208 2.60001 37.5C9.90001 40.4 16.9 38.4 22.1 34.4C25.0771 36.5295 28.5384 37.8825 32.1704 38.3365C35.8025 38.7906 39.4903 38.3311 42.9 37C43.1 37.7 43.4 38.5 43.6 39.4C43.5791 38.5637 43.5124 37.7291 43.4 36.9ZM22.3 4.60001C23.8986 6.52357 25.058 8.773 25.6971 11.1911C26.3362 13.6093 26.4395 16.1378 26 18.6C24.9755 18.4339 23.9374 18.3669 22.9 18.4C21.6884 18.4683 20.4844 18.6355 19.3 18.9C18.7763 16.439 18.7727 13.8956 19.2893 11.4331C19.8059 8.97053 20.8314 6.6431 22.3 4.60001ZM23.6 25.1C23.2 25.9 22.7 26.6 22.2 27.4C22.1 27.2 22 27.1 21.9 26.9C21.4 25.9 20.9 24.8 20.4 23.7C21.162 23.588 21.93 23.5213 22.7 23.5H24.3C24.1521 24.0668 23.9159 24.6067 23.6 25.1ZM2.69998 37C4.69998 30.5 9.99998 26.6 15.7 24.7C16.1677 26.3607 16.8044 27.9691 17.6 29.5C17.9751 30.1713 18.4102 30.8072 18.9 31.4C14.8 35.4 9.19998 38.2 2.69998 37ZM25.3 31.5C26.4756 30.2342 27.4839 28.8227 28.3 27.3C28.8944 26.2705 29.3325 25.1583 29.6 24C35.2 25.3 40.1 29 42.7 36.4C34.8 38 29.2 35.7 25.3 31.5Z" fill="#3464A7"></path></g><defs><clipPath id="clip0_2521_11480"><rect width="193.3" height="40" fill="white"></rect></clipPath></defs></svg>