<svg xmlns="http://www.w3.org/2000/svg" width="173" height="40" viewBox="0 0 173 40" fill="none"><g clip-path="url(#clip0_2521_11521)"><path d="M30.1984 12.71C30.0021 12.0061 29.5855 11.3836 29.0097 10.9337C28.4338 10.4838 27.7289 10.2302 26.9984 10.21H25.7984C25.3984 10.21 24.8984 10.31 24.6984 9.81001C24.4984 9.31001 24.8984 9.11001 25.1984 8.81001C26.0274 8.05722 26.5919 7.05734 26.808 5.9586C27.0241 4.85986 26.8805 3.72072 26.3985 2.71001C26.0183 1.94253 25.4116 1.31034 24.6604 0.89897C23.9092 0.487605 23.0498 0.316941 22.1984 0.410018C21.3624 0.460299 20.5587 0.751412 19.8845 1.24824C19.2102 1.74508 18.6941 2.42639 18.3985 3.21001C18.0639 4.14007 17.9895 5.1438 18.1833 6.11302C18.3771 7.08224 18.8319 7.98018 19.4984 8.71001C19.8984 9.01001 20.4984 9.21002 20.2984 9.91002C20.0984 10.61 19.3984 10.31 18.9984 10.41H18.4984C16.0984 10.41 14.7984 11.71 14.6984 14.11V16.01C14.5984 17.01 14.4984 18.31 15.9984 19.01C16.2463 19.1977 16.4509 19.4364 16.5984 19.71C18.2984 21.71 19.9984 23.61 21.5984 25.61C22.0984 26.31 22.4984 26.41 23.1984 25.81C24.2984 24.81 25.4984 23.91 26.5984 22.81C27.8984 21.61 29.7984 20.81 30.2984 19.21C30.7984 17.61 30.3985 15.71 30.3985 14.01C30.4055 13.5685 30.3378 13.129 30.1984 12.71Z" fill="#4A5C5C"></path><path d="M16.7985 9.01014C16.4445 8.56819 15.9822 8.2254 15.4565 8.01511C14.9308 7.80482 14.3596 7.73423 13.7985 7.81015C13.4985 7.81015 13.0985 7.91014 12.8985 7.51014C12.6985 7.11014 12.9985 6.91015 13.2985 6.71015C13.8208 6.24251 14.2078 5.64303 14.4189 4.97449C14.63 4.30595 14.6575 3.59297 14.4985 2.91016C14.3619 2.09452 13.9293 1.3579 13.2836 0.841283C12.6378 0.324666 11.8242 0.0643317 10.9985 0.110143C10.1513 0.144829 9.3466 0.49027 8.73792 1.08051C8.12923 1.67075 7.75922 2.46446 7.69849 3.31016C7.58245 3.97147 7.64134 4.65164 7.86939 5.28315C8.09743 5.91466 8.48669 6.47556 8.99847 6.91016C9.19847 7.11016 9.4985 7.31014 9.3985 7.61014C9.2985 7.91014 8.89847 8.01014 8.49847 8.01014H7.8985C7.50248 7.96634 7.10165 8.01043 6.72461 8.13923C6.34757 8.26802 6.00357 8.47836 5.7171 8.75528C5.43063 9.0322 5.20876 9.36888 5.06726 9.74134C4.92577 10.1138 4.86815 10.5129 4.8985 10.9102V17.2101C4.8985 17.9102 5.09846 18.2101 5.79846 18.1101H9.79846C10.8985 18.1101 12.3984 18.6102 13.0984 17.9102C13.7984 17.2102 13.2985 15.8101 13.2985 14.7101C13.1529 13.5045 13.4195 12.285 14.055 11.2501C14.6905 10.2152 15.6574 9.42575 16.7985 9.01014Z" fill="#4A5C5C"></path><path d="M39.6008 9.01005C39.3118 8.5984 38.9191 8.27058 38.4625 8.05982C38.0058 7.84906 37.5015 7.76289 37.0008 7.81007C36.5008 7.81007 35.9008 8.01005 35.6008 7.51005C35.3008 7.01005 36.0008 6.71007 36.3008 6.41007C36.7866 5.92144 37.1207 5.30262 37.2626 4.62833C37.4046 3.95405 37.3484 3.2531 37.1008 2.61005C36.9746 1.99436 36.6704 1.42928 36.226 0.98487C35.7816 0.540457 35.2165 0.236263 34.6008 0.110053C33.8685 -0.0862063 33.091 -0.0243436 32.3989 0.285255C31.7069 0.594853 31.1425 1.13332 30.8008 1.81007C30.412 2.56845 30.2704 3.42952 30.3959 4.27247C30.5215 5.11541 30.9079 5.89788 31.5008 6.51005C31.8008 6.81005 32.2008 6.91007 32.1008 7.41007C32.0008 7.91007 31.4008 7.81007 31.0008 7.81007C29.9008 7.81007 28.9008 7.91005 28.3008 9.01005C32.7008 10.71 31.4008 14.5101 31.7008 18.1101C34.3008 15.8101 36.8008 13.7101 39.2008 11.6101C40.3008 10.8101 40.4008 10.11 39.6008 9.01005Z" fill="#4A5C5C"></path><path d="M47.4 6.91006C45.5 8.51006 43.6 10.2101 41.7 11.9101C39.3 13.8101 37 15.8101 34.8 17.9101C32.8431 19.4017 30.9734 21.0043 29.2 22.7101C27.4 24.1101 25.7 25.61 24.1 27.11C22.3 28.41 22.2 28.5101 20.7 26.7101C18.9 24.6101 17.1 22.5101 15.4 20.4101C15.2092 20.1666 14.9666 19.9686 14.6899 19.8302C14.4133 19.6919 14.1093 19.6167 13.8 19.61H0.799988C0.499988 19.61 0.2 19.4101 0 19.9101C2.2 22.0101 4.50001 24.1101 6.70001 26.2101C11.2 30.5101 15.7 34.71 20.2 39.01C21.5 40.21 22.7 40.21 23.8 39.01C25.9 36.61 27.9 34.11 30 31.61C31.4 30.01 32.7 28.4101 34.1 26.8101C35.7 24.9101 37.3 23.0101 38.9 21.2101C40.9 19.0101 42.7 16.81 44.6 14.51C47.1 11.61 49.5 8.81006 52.1 5.81006C49.5 5.81006 48.5 6.01006 47.4 6.91006Z" fill="#7DC246"></path><path d="M60.7016 32.3101H59.8016V34.4101C59.8016 34.6101 59.8016 34.7101 59.9016 34.8101C59.9411 34.8479 59.9885 34.8764 60.0403 34.8937C60.0922 34.911 60.1473 34.9166 60.2016 34.9101H60.7016V36.11C60.1938 36.2246 59.6617 36.1537 59.2016 35.9101C59.0416 35.7171 58.9235 35.493 58.8546 35.252C58.7858 35.0111 58.7677 34.7584 58.8016 34.51V32.4101H58.1016V31.2101H58.8016V30.2101L59.8016 29.8101V31.2101H60.7016V32.3101Z" fill="#485C5C"></path><path d="M64.7012 35.41C64.5355 35.6555 64.3121 35.8565 64.0505 35.9954C63.789 36.1344 63.4974 36.2071 63.2012 36.2071C62.9051 36.2071 62.6135 36.1344 62.3519 35.9954C62.0904 35.8565 61.867 35.6555 61.7012 35.41C61.311 34.8533 61.1016 34.1899 61.1016 33.51C61.1016 32.8301 61.311 32.1667 61.7012 31.61C61.867 31.3646 62.0904 31.1636 62.3519 31.0246C62.6135 30.8857 62.9051 30.813 63.2012 30.813C63.4974 30.813 63.789 30.8857 64.0505 31.0246C64.3121 31.1636 64.5355 31.3646 64.7012 31.61C65.1209 32.1518 65.3336 32.8255 65.3012 33.51C65.3411 33.8511 65.3083 34.1969 65.2049 34.5244C65.1015 34.8519 64.9298 35.1537 64.7012 35.41ZM62.4012 34.61C62.4944 34.7342 62.6152 34.835 62.754 34.9044C62.8929 34.9739 63.046 35.01 63.2012 35.01C63.3565 35.01 63.5096 34.9739 63.6484 34.9044C63.7873 34.835 63.9081 34.7342 64.0012 34.61C64.1965 34.3131 64.3005 33.9654 64.3005 33.61C64.3005 33.2546 64.1965 32.907 64.0012 32.61C63.9081 32.4858 63.7873 32.385 63.6484 32.3156C63.5096 32.2462 63.3565 32.21 63.2012 32.21C63.046 32.21 62.8929 32.2462 62.754 32.3156C62.6152 32.385 62.4944 32.4858 62.4012 32.61C62.206 32.907 62.1019 33.2546 62.1019 33.61C62.1019 33.9654 62.206 34.3131 62.4012 34.61Z" fill="#485C5C"></path><path d="M69.1984 31.1099H70.1984V35.8099C70.2237 36.1348 70.1836 36.4614 70.0806 36.7706C69.9775 37.0797 69.8135 37.3651 69.5984 37.6099C69.4038 37.8087 69.17 37.9647 68.9117 38.0681C68.6534 38.1714 68.3764 38.2197 68.0984 38.2099C67.6804 38.2056 67.2693 38.1028 66.8984 37.9099C66.5584 37.6841 66.2827 37.374 66.0984 37.0099L66.9984 36.4099C67.0804 36.6305 67.2323 36.8182 67.4308 36.9446C67.6294 37.0709 67.8638 37.129 68.0984 37.1099C68.3939 37.1174 68.6807 37.0098 68.8984 36.8099C69.006 36.6875 69.0879 36.5448 69.1395 36.3902C69.191 36.2357 69.2111 36.0723 69.1984 35.9099V35.4099C69.0785 35.6517 68.893 35.8549 68.6631 35.9963C68.4333 36.1378 68.1683 36.2117 67.8984 36.2099C67.6234 36.2323 67.3475 36.1788 67.1006 36.0554C66.8538 35.932 66.6455 35.7433 66.4984 35.5099C66.1089 34.9906 65.8984 34.359 65.8984 33.7099C65.8984 33.0608 66.1089 32.4292 66.4984 31.9099C66.6614 31.6925 66.8728 31.5161 67.1158 31.3946C67.3588 31.2731 67.6268 31.2099 67.8984 31.2099C68.1683 31.208 68.4333 31.282 68.6631 31.4234C68.893 31.5649 69.0785 31.7681 69.1984 32.0099V31.1099ZM67.2984 34.5099C67.3915 34.6341 67.5123 34.7349 67.6512 34.8043C67.79 34.8737 67.9431 34.9099 68.0984 34.9099C68.2536 34.9099 68.4068 34.8737 68.5457 34.8043C68.6845 34.7349 68.8053 34.6341 68.8984 34.5099C69.0937 34.2129 69.1978 33.8653 69.1978 33.5099C69.1978 33.1544 69.0937 32.8068 68.8984 32.5099C68.8053 32.3857 68.6845 32.2849 68.5457 32.2155C68.4068 32.146 68.2536 32.1099 68.0984 32.1099C67.9431 32.1099 67.79 32.146 67.6512 32.2155C67.5123 32.2849 67.3915 32.3857 67.2984 32.5099C67.0954 32.8032 66.9904 33.1532 66.9984 33.5099C66.9515 33.688 66.9546 33.8757 67.0076 34.0521C67.0605 34.2286 67.1611 34.387 67.2984 34.5099Z" fill="#485C5C"></path><path d="M72.1016 34.1098C72.1141 34.2414 72.1526 34.3692 72.2148 34.4858C72.277 34.6024 72.3616 34.7056 72.4639 34.7893C72.5662 34.873 72.6841 34.9355 72.8107 34.9734C72.9373 35.0112 73.0702 35.0236 73.2017 35.0098C73.382 35.0108 73.5595 34.9653 73.7172 34.8777C73.8748 34.7901 74.0072 34.6634 74.1016 34.5098L74.9017 35.1098C74.7339 35.4427 74.4765 35.7221 74.1584 35.9164C73.8404 36.1108 73.4743 36.2124 73.1016 36.2098C72.798 36.233 72.4933 36.1813 72.2143 36.0593C71.9354 35.9372 71.6907 35.7486 71.5016 35.5098C71.082 34.9681 70.8692 34.2944 70.9017 33.6098C70.8856 32.9275 71.0967 32.2592 71.5016 31.7098C71.6774 31.4817 71.9054 31.299 72.1664 31.1772C72.4274 31.0554 72.7138 30.998 73.0016 31.0098C73.2966 31.0175 73.5858 31.0939 73.8461 31.2327C74.1065 31.3716 74.3309 31.5692 74.5016 31.8098C74.9213 32.3516 75.134 33.0253 75.1016 33.7098V34.2098H72.1016V34.1098ZM72.1016 33.1098H74.2017C74.1304 32.8164 73.9936 32.5429 73.8016 32.3098C73.723 32.2336 73.6283 32.1761 73.5244 32.1415C73.4205 32.1069 73.3103 32.096 73.2017 32.1098C73.0702 32.1063 72.9396 32.1313 72.8187 32.1831C72.6979 32.2349 72.5897 32.3122 72.5016 32.4098C72.368 32.4673 72.2567 32.5666 72.1846 32.6929C72.1124 32.8192 72.0833 32.9655 72.1016 33.1098Z" fill="#485C5C"></path><path d="M78.1 32.3101H77.2V34.4101C77.2 34.6101 77.2 34.7101 77.3 34.8101C77.3395 34.8479 77.3869 34.8764 77.4388 34.8937C77.4907 34.911 77.5457 34.9166 77.6 34.9101H78.1V36.11C77.5921 36.2246 77.0601 36.1537 76.6 35.9101C76.44 35.7171 76.3218 35.493 76.253 35.252C76.1841 35.0111 76.1661 34.7584 76.2 34.51V32.4101H75.5V31.2101H76.2V30.2101L77.2 29.8101V31.2101H78.1V32.3101Z" fill="#485C5C"></path><path d="M81.0984 31.0098C81.5161 31.0273 81.9106 31.2066 82.1984 31.5098C82.4936 31.952 82.6342 32.4793 82.5984 33.0098V36.0098H81.5984V33.1098C81.5917 32.8316 81.5235 32.5584 81.3984 32.3098C81.3397 32.2057 81.2511 32.1215 81.1442 32.0681C81.0373 32.0146 80.9169 31.9943 80.7984 32.0098C80.667 32.0062 80.5364 32.0312 80.4155 32.083C80.2947 32.1348 80.1865 32.2122 80.0984 32.3098C79.8984 32.5098 79.8984 32.8098 79.8984 33.2098V35.9098H78.8984V29.0098H79.8984V31.5098C80.0545 31.35 80.2413 31.2233 80.4474 31.1374C80.6536 31.0515 80.875 31.0081 81.0984 31.0098Z" fill="#485C5C"></path><path d="M84.3986 34.1098C84.411 34.2414 84.4495 34.3692 84.5117 34.4858C84.5738 34.6024 84.6585 34.7056 84.7608 34.7893C84.8631 34.873 84.981 34.9355 85.1076 34.9734C85.2342 35.0112 85.3671 35.0236 85.4985 35.0098C85.6789 35.0108 85.8564 34.9653 86.014 34.8777C86.1717 34.7901 86.3041 34.6634 86.3986 34.5098L87.1985 35.1098C87.0308 35.4427 86.7734 35.7221 86.4554 35.9164C86.1373 36.1108 85.7713 36.2124 85.3986 36.2098C85.0949 36.233 84.7903 36.1813 84.5113 36.0593C84.2323 35.9372 83.9875 35.7486 83.7985 35.5098C83.3788 34.9681 83.1661 34.2944 83.1985 33.6098C83.1825 32.9275 83.3935 32.2592 83.7985 31.7098C83.9743 31.4817 84.2023 31.299 84.4633 31.1772C84.7243 31.0554 85.0107 30.998 85.2985 31.0098C85.5935 31.0175 85.8826 31.0939 86.143 31.2327C86.4034 31.3716 86.6278 31.5692 86.7985 31.8098C87.2182 32.3516 87.431 33.0253 87.3986 33.7098V34.2098H84.3986V34.1098ZM84.3986 33.1098H86.4985C86.4273 32.8164 86.2905 32.5429 86.0985 32.3098C86.0199 32.2336 85.9251 32.1761 85.8213 32.1415C85.7174 32.1069 85.6071 32.096 85.4985 32.1098C85.3671 32.1063 85.2365 32.1313 85.1157 32.1831C84.9948 32.2349 84.8866 32.3122 84.7985 32.4098C84.5985 32.5098 84.4986 32.8098 84.3986 33.1098Z" fill="#485C5C"></path><path d="M89.3008 31.9102C89.3817 31.6261 89.5584 31.3788 89.8008 31.2102C90.0305 31.0403 90.3181 30.9684 90.6008 31.0101V32.4102C90.2872 32.38 89.9721 32.45 89.7008 32.6101C89.55 32.7252 89.4332 32.8789 89.3628 33.055C89.2924 33.231 89.2709 33.4229 89.3008 33.6101V36.0101H88.3008V31.0101H89.3008V31.9102Z" fill="#485C5C"></path><path d="M97.8008 31.1099H98.8008L97.6008 36.1099H96.6008L95.8008 33.1099L95.0008 36.1099H94.0008L92.8008 31.1099H93.9008L94.6008 34.1099L95.3008 31.1099H96.3008L97.0008 34.2099L97.8008 31.1099Z" fill="#485C5C"></path><path d="M100.199 34.1098C100.212 34.2414 100.25 34.3692 100.312 34.4858C100.375 34.6024 100.459 34.7056 100.562 34.7893C100.664 34.873 100.782 34.9355 100.908 34.9734C101.035 35.0112 101.168 35.0236 101.299 35.0098C101.48 35.0108 101.657 34.9653 101.815 34.8777C101.972 34.7901 102.105 34.6634 102.199 34.5098L102.999 35.1098C102.832 35.4427 102.574 35.7221 102.256 35.9164C101.938 36.1108 101.572 36.2124 101.199 36.2098C100.896 36.233 100.591 36.1813 100.312 36.0593C100.033 35.9372 99.7883 35.7486 99.5993 35.5098C99.1796 34.9681 98.9669 34.2944 98.9993 33.6098C98.9833 32.9275 99.1943 32.2592 99.5993 31.7098C99.7751 31.4817 100.003 31.299 100.264 31.1772C100.525 31.0554 100.812 30.998 101.099 31.0098C101.394 31.0175 101.683 31.0939 101.944 31.2327C102.204 31.3716 102.429 31.5692 102.599 31.8098C103.019 32.3516 103.232 33.0253 103.199 33.7098V34.2098H100.199V34.1098ZM100.199 33.1098H102.299C102.228 32.8164 102.091 32.5429 101.899 32.3098C101.821 32.2336 101.726 32.1761 101.622 32.1415C101.518 32.1069 101.408 32.096 101.299 32.1098C101.168 32.1063 101.037 32.1313 100.916 32.1831C100.796 32.2349 100.687 32.3122 100.599 32.4098C100.466 32.4673 100.354 32.5666 100.282 32.6929C100.21 32.8192 100.181 32.9655 100.199 33.1098Z" fill="#485C5C"></path><path d="M108.002 36.2101C107.707 36.2024 107.418 36.1261 107.157 35.9872C106.897 35.8484 106.672 35.6508 106.502 35.4101C106.082 34.8683 105.869 34.1946 105.902 33.5101C105.886 32.8278 106.097 32.1594 106.502 31.6101C106.672 31.3694 106.897 31.1718 107.157 31.033C107.418 30.8941 107.707 30.8178 108.002 30.8101C108.39 30.8012 108.772 30.9055 109.102 31.1101C109.438 31.3139 109.687 31.6343 109.802 32.0101L108.902 32.6101C108.827 32.4041 108.686 32.2284 108.502 32.1101C108.319 31.9992 108.114 31.9308 107.902 31.9101C107.745 31.9022 107.589 31.9349 107.449 32.005C107.309 32.0751 107.189 32.1802 107.102 32.3101C106.906 32.607 106.802 32.9547 106.802 33.3101C106.802 33.6655 106.906 34.0131 107.102 34.3101C107.189 34.44 107.309 34.5451 107.449 34.6151C107.589 34.6852 107.745 34.7179 107.902 34.7101C108.114 34.6894 108.319 34.621 108.502 34.5101C108.686 34.3918 108.827 34.2161 108.902 34.0101L109.802 34.6101C109.649 34.9948 109.366 35.3135 109.002 35.5101C108.702 36.1101 108.402 36.2101 108.002 36.2101Z" fill="#485C5C"></path><path d="M113.401 31.11H114.401V36.11H113.401V35.51C113.266 35.7317 113.075 35.9134 112.846 36.0364C112.618 36.1595 112.361 36.2194 112.101 36.21C111.823 36.1895 111.553 36.1071 111.311 35.9686C111.068 35.8302 110.86 35.6393 110.701 35.41C110.311 34.8533 110.102 34.1899 110.102 33.51C110.102 32.8301 110.311 32.1667 110.701 31.61C110.86 31.3806 111.068 31.1898 111.311 31.0513C111.553 30.9129 111.823 30.8305 112.101 30.81C112.362 30.7891 112.624 30.8441 112.854 30.9682C113.085 31.0924 113.275 31.2805 113.401 31.51V31.11ZM111.501 34.61C111.594 34.7342 111.715 34.835 111.854 34.9044C111.993 34.9738 112.146 35.01 112.301 35.01C112.456 35.01 112.61 34.9738 112.748 34.9044C112.887 34.835 113.008 34.7342 113.101 34.61C113.296 34.313 113.401 33.9654 113.401 33.61C113.401 33.2546 113.296 32.9069 113.101 32.61C113.008 32.4858 112.887 32.385 112.748 32.3156C112.61 32.2461 112.456 32.21 112.301 32.21C112.146 32.21 111.993 32.2461 111.854 32.3156C111.715 32.385 111.594 32.4858 111.501 32.61C111.306 32.9069 111.202 33.2546 111.202 33.61C111.202 33.9654 111.306 34.313 111.501 34.61Z" fill="#485C5C"></path><path d="M117.7 31.0101C118.118 31.0277 118.512 31.207 118.8 31.5101C119.095 31.9523 119.236 32.4797 119.2 33.0101V36.0101H118.2V33.1101C118.193 32.832 118.125 32.5587 118 32.3102C117.941 32.2061 117.853 32.1219 117.746 32.0685C117.639 32.015 117.519 31.9947 117.4 32.0101C117.269 32.0066 117.138 32.0316 117.017 32.0834C116.896 32.1352 116.788 32.2125 116.7 32.3102C116.5 32.5102 116.5 32.8101 116.5 33.2101V35.9102H115.5V30.9102H116.5V31.5101C116.642 31.3332 116.827 31.1948 117.036 31.1075C117.246 31.0201 117.474 30.9867 117.7 31.0101Z" fill="#485C5C"></path><path d="M65.5984 23.3101C63.8726 23.3692 62.1679 22.9169 60.6984 22.0101C59.3975 21.1038 58.4172 19.8084 57.8984 18.3101L61.1984 16.3101C61.4796 17.2643 62.0801 18.0929 62.8993 18.6573C63.7185 19.2216 64.7067 19.4874 65.6984 19.4101C66.5427 19.4804 67.3865 19.2694 68.0984 18.8101C68.3266 18.6344 68.5092 18.4064 68.631 18.1454C68.7528 17.8844 68.8102 17.5979 68.7984 17.3101C68.8034 16.974 68.7235 16.642 68.5662 16.3448C68.4089 16.0477 68.1792 15.795 67.8984 15.6101C66.8547 15.0456 65.7467 14.6092 64.5984 14.3101C63.8482 14.0923 63.1133 13.8251 62.3984 13.5101C61.7561 13.2177 61.1516 12.8484 60.5984 12.4101C60.0001 11.9661 59.5195 11.3824 59.1984 10.7101C58.8684 9.95306 58.6981 9.13602 58.6984 8.31013C58.6611 7.48071 58.8128 6.65364 59.1419 5.8914C59.4711 5.12917 59.9691 4.4517 60.5984 3.91014C61.8431 2.82859 63.4503 2.25711 65.0984 2.31013C66.5579 2.26355 67.9943 2.68392 69.1984 3.51012C70.4088 4.34135 71.3754 5.48057 71.9984 6.81013L68.7984 8.71013C68.5245 7.94848 68.0221 7.28999 67.3599 6.82463C66.6976 6.35927 65.9078 6.10973 65.0984 6.11012C64.4138 6.07769 63.7402 6.29044 63.1984 6.71013C62.9702 6.88591 62.7876 7.11388 62.6658 7.37489C62.544 7.6359 62.4866 7.92234 62.4984 8.21013C62.4942 8.50737 62.5654 8.80083 62.7053 9.06312C62.8452 9.32542 63.0492 9.54801 63.2984 9.71013C64.2015 10.2732 65.1772 10.7106 66.1984 11.0101C66.7984 11.2101 67.1984 11.3101 67.4984 11.4101C67.7984 11.5101 68.1984 11.7101 68.6984 11.9101C69.1176 12.0692 69.5197 12.2702 69.8984 12.5101C70.1984 12.7101 70.4984 13.0101 70.8984 13.3101C71.2525 13.563 71.5295 13.9092 71.6984 14.3101C71.9414 14.7101 72.1107 15.1504 72.1984 15.6101C72.3204 16.1351 72.3874 16.6713 72.3984 17.2101C72.4285 18.0628 72.2641 18.9112 71.9175 19.6908C71.571 20.4705 71.0515 21.1611 70.3984 21.7101C69.0664 22.8456 67.3453 23.4193 65.5984 23.3101Z" fill="#50B752"></path><path d="M82.5 12.0098H79.4V18.0098C79.3719 18.2118 79.3936 18.4178 79.4633 18.6095C79.533 18.8012 79.6486 18.973 79.8 19.1098C80.103 19.3772 80.496 19.5201 80.9 19.5098H82.6V22.9098C80.1 23.2098 78.4 22.9098 77.4 22.2098C76.4 21.5098 75.9 20.0098 75.9 18.1098V12.1098H73.5V8.50977H75.9V5.60977L79.5 4.50977V8.60977H82.6V12.0098H82.5Z" fill="#50B752"></path><path d="M95.1008 8.40986H98.7008V22.9099H95.1008V21.2098C94.5729 21.8938 93.8889 22.4413 93.106 22.8067C92.3231 23.172 91.464 23.3446 90.6008 23.3099C89.6897 23.309 88.7895 23.112 87.9613 22.7324C87.1331 22.3528 86.3962 21.7994 85.8008 21.1098C84.5103 19.6066 83.8008 17.691 83.8008 15.7098C83.8008 13.7287 84.5103 11.813 85.8008 10.3099C86.383 9.60476 87.1173 9.04058 87.9486 8.65958C88.7799 8.27858 89.6865 8.09063 90.6008 8.10984C91.464 8.07512 92.3231 8.24766 93.106 8.61301C93.8889 8.97837 94.5729 9.52592 95.1008 10.2098V8.40986ZM88.5008 18.6098C88.8384 18.9854 89.2568 19.2795 89.7244 19.47C90.1921 19.6605 90.6969 19.7425 91.2008 19.7098C92.2396 19.7102 93.24 19.3172 94.0008 18.6098C94.7267 17.8206 95.1206 16.782 95.1008 15.7098C95.1197 15.1776 95.0322 14.6469 94.8433 14.1489C94.6544 13.6509 94.368 13.1957 94.0008 12.8099C93.6431 12.4327 93.2069 12.1387 92.7231 11.9486C92.2393 11.7585 91.7196 11.677 91.2008 11.7098C90.6996 11.7002 90.2018 11.7928 89.7375 11.9819C89.2733 12.171 88.8525 12.4527 88.5008 12.8099C87.7749 13.5991 87.381 14.6377 87.4008 15.7098C87.4459 16.7697 87.8317 17.7867 88.5008 18.6098Z" fill="#50B752"></path><path d="M117.098 5.5098C115.098 5.3098 114.198 6.2098 114.198 8.0098V8.40983H117.098V12.0098H114.198V22.9098H110.598V12.0098H106.498V22.9098H102.898V12.0098H100.898V8.40983H102.898V8.30982C102.838 7.45928 102.948 6.60526 103.223 5.79807C103.498 4.99088 103.932 4.24684 104.498 3.60981C105.598 2.50981 107.198 2.10981 109.398 2.20981V5.80982C107.398 5.60982 106.498 6.50982 106.498 8.30982V8.40983H110.598V8.0098C110.554 7.15258 110.681 6.2951 110.973 5.48789C111.265 4.68068 111.716 3.9401 112.298 3.30982C113.398 2.20982 114.998 1.80983 117.198 1.90983V5.5098H117.098Z" fill="#50B752"></path><path d="M133.102 22.9099L131.902 19.3099H123.902L122.702 22.9099H118.602L125.402 2.60986H130.102L137.002 22.9099H133.102ZM125.102 15.5099H130.602L127.802 7.20987L125.102 15.5099Z" fill="#516464"></path><path d="M141.8 12.51C141.8 12.7165 141.869 12.9169 141.996 13.0799C142.123 13.2428 142.3 13.359 142.5 13.4101C143.073 13.6846 143.677 13.8861 144.3 14.01C145.014 14.1981 145.716 14.4319 146.4 14.71C147.123 14.9922 147.748 15.4786 148.2 16.11C148.699 16.8452 148.944 17.7228 148.9 18.61C148.943 19.2659 148.819 19.9219 148.539 20.5167C148.259 21.1114 147.833 21.6252 147.3 22.01C146.133 22.8358 144.729 23.2572 143.3 23.21C140.5 23.21 138.5 22.1101 137.5 19.8101L140.6 18.01C140.746 18.5986 141.1 19.1148 141.596 19.4638C142.092 19.8128 142.697 19.9712 143.3 19.9101C144.6 19.9101 145.2 19.51 145.2 18.71C145.2 18.5036 145.131 18.3031 145.004 18.1402C144.877 17.9772 144.7 17.8611 144.5 17.8101C143.914 17.543 143.313 17.3092 142.7 17.11C141.986 16.922 141.284 16.6882 140.6 16.4101C139.877 16.1279 139.252 15.6415 138.8 15.01C138.288 14.3189 138.04 13.4679 138.1 12.61C138.072 11.9661 138.192 11.3243 138.452 10.7346C138.713 10.1449 139.105 9.62322 139.6 9.21004C140.693 8.38881 142.034 7.96543 143.4 8.01003C144.484 8.01406 145.55 8.28909 146.5 8.81005C147.446 9.34025 148.212 10.1412 148.7 11.11L145.6 12.8101C145.441 12.3584 145.141 11.9694 144.746 11.6997C144.35 11.4299 143.879 11.2934 143.4 11.3101C142.981 11.3025 142.567 11.406 142.2 11.61C141.986 11.867 141.847 12.1787 141.8 12.51Z" fill="#516464"></path><path d="M153.1 6.70993C152.812 6.72178 152.526 6.66438 152.265 6.54257C152.004 6.42076 151.776 6.2381 151.6 6.00992C151.187 5.57464 150.939 5.00863 150.9 4.40994C150.888 4.10767 150.945 3.80662 151.066 3.52948C151.187 3.25234 151.37 3.00633 151.6 2.80993C151.776 2.58175 152.004 2.39909 152.265 2.27728C152.526 2.15547 152.812 2.09807 153.1 2.10992C153.401 2.10691 153.699 2.16776 153.975 2.28842C154.251 2.40908 154.498 2.58682 154.7 2.80993C155.113 3.24521 155.361 3.81125 155.4 4.40994C155.412 4.71221 155.355 5.01323 155.234 5.29037C155.113 5.56751 154.93 5.81352 154.7 6.00992C154.498 6.23303 154.251 6.4108 153.975 6.53146C153.699 6.65212 153.401 6.71294 153.1 6.70993ZM151.3 22.9099V8.40994H154.9V22.9099H151.3Z" fill="#516464"></path><path d="M168.698 8.40986H172.298V22.9099H168.698V21.2098C168.17 21.8938 167.487 22.4413 166.704 22.8067C165.921 23.172 165.062 23.3446 164.198 23.3099C163.287 23.309 162.387 23.112 161.559 22.7324C160.731 22.3528 159.994 21.7994 159.398 21.1098C158.108 19.6066 157.398 17.691 157.398 15.7098C157.398 13.7287 158.108 11.813 159.398 10.3099C159.981 9.60476 160.715 9.04058 161.546 8.65958C162.378 8.27858 163.284 8.09063 164.198 8.10984C165.062 8.07512 165.921 8.24766 166.704 8.61301C167.487 8.97837 168.17 9.52592 168.698 10.2098V8.40986ZM162.098 18.6098C162.436 18.9854 162.854 19.2795 163.322 19.47C163.79 19.6605 164.295 19.7425 164.798 19.7098C165.837 19.7102 166.838 19.3172 167.598 18.6098C168.324 17.8206 168.718 16.782 168.698 15.7098C168.717 15.1776 168.63 14.6469 168.441 14.1489C168.252 13.6509 167.966 13.1957 167.598 12.8099C167.241 12.4327 166.805 12.1387 166.321 11.9486C165.837 11.7585 165.317 11.677 164.798 11.7098C164.297 11.7002 163.799 11.7928 163.335 11.9819C162.871 12.171 162.45 12.4527 162.098 12.8099C161.372 13.5991 160.979 14.6377 160.998 15.7098C160.997 16.7787 161.389 17.8107 162.098 18.6098Z" fill="#516464"></path></g><defs><clipPath id="clip0_2521_11521"><rect width="172.3" height="39.91" fill="white"></rect></clipPath></defs></svg>