<svg xmlns="http://www.w3.org/2000/svg" width="622" height="623" viewBox="0 0 622 623" fill="none"><path d="M620.468 0.748047H131.629V48.7032H620.468V0.748047Z" fill="white"></path><path d="M605.31 26.9715C606.655 21.2824 603.127 15.5819 597.43 14.2391C591.733 12.8963 586.025 16.4198 584.681 22.1089C583.336 27.7981 586.864 33.4987 592.561 34.8415C598.258 36.1842 603.966 32.6607 605.31 26.9715Z" fill="#C2CCF4"></path><path d="M570.455 26.9736C571.799 21.2844 568.271 15.5838 562.574 14.2411C556.878 12.8983 551.17 16.4218 549.825 22.111C548.481 27.8002 552.009 33.5006 557.705 34.8434C563.402 36.1862 569.11 32.6627 570.455 26.9736Z" fill="white"></path><path d="M535.599 26.9736C536.944 21.2844 533.416 15.5838 527.719 14.2411C522.022 12.8983 516.314 16.4218 514.97 22.111C513.625 27.8002 517.153 33.5006 522.85 34.8434C528.547 36.1862 534.255 32.6627 535.599 26.9736Z" fill="white"></path><path d="M620.467 330.263H131.628C131.529 330.263 131.432 330.244 131.341 330.207C131.25 330.169 131.167 330.114 131.097 330.045C131.028 329.975 130.972 329.892 130.935 329.802C130.898 329.711 130.878 329.613 130.879 329.515V0.755576C130.879 0.557258 130.958 0.367063 131.098 0.226831C131.239 0.0865987 131.429 0.0078125 131.628 0.0078125H620.467C620.665 0.0078125 620.856 0.0865987 620.996 0.226831C621.136 0.367063 621.215 0.557258 621.215 0.755576V329.522C621.215 329.619 621.195 329.716 621.157 329.806C621.119 329.896 621.064 329.978 620.995 330.047C620.925 330.116 620.843 330.17 620.752 330.207C620.661 330.244 620.564 330.263 620.467 330.263ZM132.376 328.767H619.718V1.49994H132.376V328.767Z" fill="#141451"></path><path d="M314.523 111.822H302.305V277.604H314.523V111.822Z" fill="#D2D6FF"></path><path d="M338.749 162.666H326.531V277.603H338.749V162.666Z" fill="#D2D6FF"></path><path d="M362.976 196.438H350.758V277.61H362.976V196.438Z" fill="#404EED"></path><path d="M387.199 162.666H374.98V277.603H387.199V162.666Z" fill="#D2D6FF"></path><path d="M411.425 130.396H399.207V277.603H411.425V130.396Z" fill="#858FC1"></path><path d="M435.652 162.666H423.434V277.603H435.652V162.666Z" fill="#D2D6FF"></path><path d="M459.874 196.438H447.656V277.61H459.874V196.438Z" fill="#404EED"></path><path d="M484.097 162.666H471.879V277.603H484.097V162.666Z" fill="#D2D6FF"></path><path d="M508.324 130.396H496.105V277.603H508.324V130.396Z" fill="#858FC1"></path><path d="M532.55 111.822H520.332V277.604H532.55V111.822Z" fill="#D2D6FF"></path><path d="M556.773 162.666H544.555V277.603H556.773V162.666Z" fill="#D2D6FF"></path><path d="M580.999 196.438H568.781V277.61H580.999V196.438Z" fill="#404EED"></path><path d="M193.402 111.822H181.184V277.604H193.402V111.822Z" fill="#D2D6FF"></path><path d="M217.624 162.666H205.406V277.603H217.624V162.666Z" fill="#D2D6FF"></path><path d="M241.851 196.438H229.633V277.61H241.851V196.438Z" fill="#404EED"></path><path d="M266.074 162.666H253.855V277.603H266.074V162.666Z" fill="#D2D6FF"></path><path d="M290.3 130.396H278.082V277.603H290.3V130.396Z" fill="#858FC1"></path><path d="M289.538 362.406H10.293V621.253H289.538V362.406Z" fill="#141451"></path><path d="M279.995 352.875H0.75V611.722H279.995V352.875Z" fill="white"></path><path d="M279.997 612.474H0.748729C0.550425 612.473 0.360496 612.394 0.220273 612.254C0.0800496 612.114 0.000895291 611.924 0 611.726V352.883C0.000895291 352.684 0.0800496 352.495 0.220273 352.355C0.360496 352.215 0.550425 352.136 0.748729 352.135H279.997C280.195 352.136 280.385 352.215 280.525 352.355C280.666 352.495 280.745 352.684 280.746 352.883V611.733C280.743 611.93 280.663 612.118 280.523 612.256C280.383 612.395 280.194 612.473 279.997 612.474ZM1.50086 610.975H279.248V353.623H1.50086V610.975Z" fill="#141451"></path><path d="M31.905 392.31C29.5038 392.311 27.1564 391.601 25.1595 390.269C23.1627 388.937 21.6062 387.044 20.6868 384.828C19.7674 382.613 19.5265 380.175 19.9946 377.823C20.4626 375.471 21.6185 373.311 23.3162 371.615C25.0139 369.919 27.177 368.764 29.532 368.296C31.887 367.828 34.3281 368.068 36.5465 368.985C38.765 369.903 40.6612 371.457 41.9953 373.45C43.3294 375.444 44.0415 377.788 44.0415 380.186C44.0379 383.4 42.7582 386.481 40.483 388.754C38.2079 391.027 35.123 392.306 31.905 392.31ZM31.905 369.561C29.8008 369.561 27.7439 370.185 25.9943 371.352C24.2447 372.52 22.8811 374.179 22.0759 376.12C21.2706 378.062 21.0599 380.198 21.4704 382.259C21.8809 384.32 22.8942 386.214 24.3821 387.699C25.87 389.185 27.7657 390.197 29.8295 390.607C31.8932 391.017 34.0324 390.807 35.9764 390.003C37.9204 389.198 39.582 387.837 40.751 386.089C41.92 384.342 42.544 382.288 42.544 380.186C42.5413 377.369 41.4196 374.668 39.4251 372.675C37.4306 370.683 34.7261 369.562 31.905 369.558V369.561Z" fill="#141451"></path><path d="M73.968 392.31C71.567 392.31 69.2199 391.599 67.2235 390.267C65.2271 388.935 63.6711 387.041 62.7522 384.826C61.8334 382.611 61.593 380.173 62.0614 377.821C62.5298 375.469 63.686 373.309 65.3838 371.614C67.0816 369.918 69.2447 368.763 71.5997 368.295C73.9546 367.828 76.3955 368.068 78.6137 368.985C80.832 369.903 82.728 371.457 84.062 373.451C85.3959 375.445 86.1079 377.789 86.1079 380.186C86.1043 383.401 84.8241 386.482 82.5482 388.755C80.2724 391.028 77.1866 392.307 73.968 392.31ZM73.968 369.561C71.8638 369.561 69.8069 370.185 68.0573 371.352C66.3078 372.52 64.9441 374.179 64.1389 376.12C63.3336 378.062 63.123 380.198 63.5335 382.259C63.944 384.32 64.9572 386.214 66.4451 387.699C67.933 389.185 69.8287 390.197 71.8925 390.607C73.9562 391.017 76.0954 390.807 78.0394 390.003C79.9834 389.198 81.645 387.837 82.814 386.089C83.983 384.342 84.607 382.288 84.607 380.186C84.6043 377.369 83.4827 374.668 81.4881 372.675C79.4936 370.683 76.7891 369.562 73.968 369.558V369.561Z" fill="#141451"></path><path d="M116.05 392.31C113.649 392.31 111.302 391.599 109.305 390.267C107.309 388.935 105.753 387.041 104.834 384.826C103.915 382.611 103.675 380.173 104.143 377.821C104.612 375.469 105.768 373.309 107.466 371.614C109.164 369.918 111.327 368.763 113.682 368.295C116.037 367.828 118.478 368.068 120.696 368.985C122.914 369.903 124.81 371.457 126.144 373.451C127.478 375.445 128.19 377.789 128.19 380.186C128.186 383.401 126.906 386.482 124.63 388.755C122.354 391.028 119.269 392.307 116.05 392.31ZM116.05 369.561C113.946 369.561 111.889 370.185 110.139 371.352C108.39 372.52 107.026 374.179 106.221 376.12C105.416 378.062 105.205 380.198 105.616 382.259C106.026 384.32 107.039 386.214 108.527 387.699C110.015 389.185 111.911 390.197 113.974 390.607C116.038 391.017 118.177 390.807 120.121 390.003C122.065 389.198 123.727 387.837 124.896 386.089C126.065 384.342 126.689 382.288 126.689 380.186C126.687 377.369 125.566 374.667 123.571 372.674C121.576 370.681 118.871 369.561 116.05 369.558V369.561Z" fill="#141451"></path><path d="M158.12 392.31C155.719 392.31 153.372 391.599 151.376 390.267C149.379 388.935 147.823 387.041 146.905 384.826C145.986 382.611 145.745 380.173 146.214 377.821C146.682 375.469 147.838 373.309 149.536 371.614C151.234 369.918 153.397 368.763 155.752 368.295C158.107 367.828 160.548 368.068 162.766 368.985C164.984 369.903 166.88 371.457 168.214 373.451C169.548 375.445 170.26 377.789 170.26 380.186C170.257 383.401 168.976 386.482 166.701 388.755C164.425 391.028 161.339 392.307 158.12 392.31ZM158.12 369.561C156.016 369.561 153.959 370.185 152.21 371.352C150.46 372.52 149.096 374.179 148.291 376.12C147.486 378.062 147.275 380.198 147.686 382.259C148.096 384.32 149.11 386.214 150.597 387.699C152.085 389.185 153.981 390.197 156.045 390.607C158.109 391.017 160.248 390.807 162.192 390.003C164.136 389.198 165.797 387.837 166.966 386.089C168.135 384.342 168.759 382.288 168.759 380.186C168.758 377.369 167.636 374.667 165.641 372.674C163.647 370.681 160.942 369.561 158.12 369.558V369.561Z" fill="#141451"></path><path d="M200.195 392.31C197.793 392.31 195.446 391.599 193.45 390.267C191.454 388.935 189.898 387.041 188.979 384.826C188.06 382.611 187.82 380.173 188.288 377.821C188.756 375.469 189.913 373.309 191.61 371.614C193.308 369.918 195.471 368.763 197.826 368.295C200.181 367.828 202.622 368.068 204.84 368.985C207.059 369.903 208.955 371.457 210.289 373.451C211.622 375.445 212.334 377.789 212.334 380.186C212.331 383.401 211.051 386.482 208.775 388.755C206.499 391.028 203.413 392.307 200.195 392.31ZM200.195 369.561C198.09 369.562 196.034 370.186 194.285 371.354C192.536 372.522 191.173 374.181 190.368 376.123C189.563 378.064 189.353 380.201 189.764 382.261C190.175 384.322 191.188 386.215 192.676 387.701C194.164 389.186 196.06 390.198 198.124 390.608C200.187 391.017 202.326 390.807 204.27 390.002C206.214 389.198 207.875 387.836 209.044 386.089C210.213 384.342 210.837 382.288 210.837 380.186C210.835 377.368 209.713 374.666 207.718 372.673C205.722 370.68 203.016 369.56 200.195 369.558V369.561Z" fill="#141451"></path><path d="M242.269 392.31C239.868 392.31 237.521 391.599 235.524 390.267C233.528 388.935 231.972 387.041 231.053 384.826C230.134 382.611 229.894 380.173 230.362 377.821C230.831 375.469 231.987 373.309 233.685 371.614C235.382 369.918 237.545 368.763 239.9 368.295C242.255 367.828 244.696 368.068 246.915 368.985C249.133 369.903 251.029 371.457 252.363 373.451C253.697 375.445 254.409 377.789 254.409 380.186C254.405 383.401 253.125 386.482 250.849 388.755C248.573 391.028 245.487 392.307 242.269 392.31ZM242.269 369.561C240.165 369.562 238.108 370.186 236.359 371.354C234.61 372.522 233.247 374.181 232.442 376.123C231.637 378.064 231.427 380.201 231.838 382.261C232.249 384.322 233.262 386.215 234.751 387.701C236.239 389.186 238.134 390.198 240.198 390.608C242.262 391.017 244.401 390.807 246.344 390.002C248.288 389.198 249.95 387.836 251.118 386.089C252.287 384.342 252.911 382.288 252.911 380.186C252.909 377.368 251.788 374.666 249.792 372.673C247.797 370.68 245.091 369.56 242.269 369.558V369.561Z" fill="#141451"></path><path d="M31.905 380.93C31.7064 380.93 31.516 380.851 31.3756 380.711C31.2352 380.571 31.1562 380.38 31.1562 380.182V327.285C31.1562 327.087 31.2352 326.896 31.3756 326.756C31.516 326.616 31.7064 326.537 31.905 326.537C32.1036 326.537 32.2941 326.616 32.4345 326.756C32.5749 326.896 32.6537 327.087 32.6537 327.285V380.182C32.6529 380.38 32.5737 380.57 32.4335 380.71C32.2933 380.85 32.1033 380.929 31.905 380.93Z" fill="#141451"></path><path d="M73.9675 380.93C73.7689 380.93 73.5784 380.851 73.438 380.711C73.2976 380.571 73.2187 380.38 73.2188 380.182V327.285C73.2188 327.087 73.2976 326.896 73.438 326.756C73.5784 326.616 73.7689 326.537 73.9675 326.537C74.1661 326.537 74.3565 326.616 74.4969 326.756C74.6373 326.896 74.7162 327.087 74.7162 327.285V380.182C74.7153 380.38 74.6362 380.57 74.4959 380.71C74.3557 380.85 74.1658 380.929 73.9675 380.93Z" fill="#141451"></path><path d="M116.05 380.93C115.851 380.93 115.661 380.851 115.52 380.711C115.38 380.571 115.301 380.38 115.301 380.182V327.285C115.301 327.087 115.38 326.896 115.52 326.756C115.661 326.616 115.851 326.537 116.05 326.537C116.248 326.537 116.439 326.616 116.579 326.756C116.719 326.896 116.798 327.087 116.798 327.285V380.182C116.798 380.38 116.719 380.571 116.579 380.711C116.439 380.851 116.248 380.93 116.05 380.93Z" fill="#141451"></path><path d="M158.12 380.93C157.922 380.929 157.732 380.85 157.591 380.71C157.451 380.57 157.372 380.38 157.371 380.182V327.285C157.371 327.087 157.45 326.896 157.59 326.756C157.731 326.616 157.921 326.537 158.12 326.537C158.318 326.537 158.509 326.616 158.649 326.756C158.79 326.896 158.869 327.087 158.869 327.285V380.182C158.869 380.38 158.79 380.571 158.649 380.711C158.509 380.851 158.318 380.93 158.12 380.93Z" fill="#141451"></path><path d="M200.194 380.93C199.996 380.929 199.806 380.85 199.666 380.71C199.525 380.57 199.446 380.38 199.445 380.182V327.285C199.445 327.087 199.524 326.896 199.665 326.756C199.805 326.616 199.995 326.537 200.194 326.537C200.393 326.537 200.583 326.616 200.723 326.756C200.864 326.896 200.943 327.087 200.943 327.285V380.182C200.943 380.28 200.923 380.377 200.886 380.468C200.848 380.559 200.793 380.641 200.723 380.711C200.654 380.78 200.571 380.835 200.481 380.873C200.39 380.91 200.292 380.93 200.194 380.93Z" fill="#141451"></path><path d="M242.268 380.93C242.07 380.929 241.88 380.85 241.74 380.71C241.6 380.57 241.52 380.38 241.52 380.182V327.285C241.52 327.087 241.598 326.896 241.739 326.756C241.879 326.616 242.07 326.537 242.268 326.537C242.467 326.537 242.657 326.616 242.798 326.756C242.938 326.896 243.017 327.087 243.017 327.285V380.182C243.017 380.38 242.938 380.571 242.798 380.711C242.657 380.851 242.467 380.93 242.268 380.93Z" fill="#141451"></path><path d="M52.087 416.441H25.5508V439.962H52.087V416.441Z" fill="#C2CCF4"></path><path d="M92.5909 416.441H66.0547V439.962H92.5909V416.441Z" fill="#C2CCF4"></path><path d="M133.091 416.441H106.555V439.962H133.091V416.441Z" fill="#C2CCF4"></path><path d="M173.595 416.441H147.059V439.962H173.595V416.441Z" fill="#C2CCF4"></path><path d="M214.095 416.441H187.559V439.962H214.095V416.441Z" fill="#A1B1F3"></path><path d="M254.599 416.441H228.062V439.962H254.599V416.441Z" fill="#A1B1F3"></path><path d="M52.087 453.105H25.5508V476.626H52.087V453.105Z" fill="#C2CCF4"></path><path d="M92.5909 453.105H66.0547V476.626H92.5909V453.105Z" fill="#C2CCF4"></path><path d="M133.091 453.105H106.555V476.626H133.091V453.105Z" fill="#C2CCF4"></path><path d="M173.595 453.105H147.059V476.626H173.595V453.105Z" fill="#C2CCF4"></path><path d="M214.095 453.105H187.559V476.626H214.095V453.105Z" fill="#A1B1F3"></path><path d="M254.599 453.105H228.062V476.626H254.599V453.105Z" fill="#A1B1F3"></path><path d="M52.087 489.77H25.5508V513.29H52.087V489.77Z" fill="#C2CCF4"></path><path d="M92.5909 489.77H66.0547V513.29H92.5909V489.77Z" fill="#C2CCF4"></path><path d="M133.091 489.77H106.555V513.29H133.091V489.77Z" fill="#3866FF"></path><path d="M173.595 489.77H147.059V513.29H173.595V489.77Z" fill="#C2CCF4"></path><path d="M214.095 489.77H187.559V513.29H214.095V489.77Z" fill="#A1B1F3"></path><path d="M254.599 489.77H228.062V513.29H254.599V489.77Z" fill="#A1B1F3"></path><path d="M52.087 526.434H25.5508V549.954H52.087V526.434Z" fill="#C2CCF4"></path><path d="M92.5909 526.434H66.0547V549.954H92.5909V526.434Z" fill="#C2CCF4"></path><path d="M133.091 526.434H106.555V549.954H133.091V526.434Z" fill="#C2CCF4"></path><path d="M173.595 526.434H147.059V549.954H173.595V526.434Z" fill="#C2CCF4"></path><path d="M214.095 526.434H187.559V549.954H214.095V526.434Z" fill="#A1B1F3"></path><path d="M254.599 526.434H228.062V549.954H254.599V526.434Z" fill="#A1B1F3"></path><path d="M52.087 563.098H25.5508V586.618H52.087V563.098Z" fill="#C2CCF4"></path><path d="M92.5909 563.098H66.0547V586.618H92.5909V563.098Z" fill="#C2CCF4"></path><path d="M586.389 621.155L617.969 620.441C618.551 620.395 619.118 620.233 619.637 619.965C620.156 619.697 620.616 619.327 620.989 618.879C621.363 618.43 621.643 617.911 621.813 617.353C621.983 616.795 622.039 616.208 621.978 615.628L610.046 501.832C609.871 500.176 609.084 498.643 607.839 497.535C606.593 496.427 604.978 495.823 603.31 495.84L472.324 497.2L419.605 621.056L586.389 621.155Z" fill="#141451"></path><path d="M555.208 497.445L481.157 497.384C481.052 497.384 480.947 497.361 480.851 497.318C480.755 497.275 480.669 497.211 480.599 497.132C480.528 497.053 480.476 496.96 480.444 496.86C480.413 496.759 480.403 496.653 480.415 496.548L482.713 476.749C483.026 474.03 485.435 471.852 488.063 471.852L553.874 471.909C554.492 471.901 555.104 472.024 555.669 472.273C556.235 472.521 556.74 472.887 557.152 473.347C557.583 473.841 557.904 474.422 558.093 475.051C558.281 475.679 558.333 476.341 558.244 476.991L555.947 496.783C555.926 496.964 555.839 497.132 555.703 497.254C555.567 497.376 555.391 497.444 555.208 497.445ZM482.001 495.889L554.538 495.95L556.76 476.817C556.823 476.377 556.791 475.929 556.667 475.502C556.542 475.076 556.328 474.681 556.039 474.343C555.766 474.042 555.433 473.802 555.06 473.64C554.687 473.478 554.284 473.398 553.878 473.405L488.063 473.35C486.16 473.35 484.431 474.951 484.2 476.923L482.001 495.889Z" fill="#141451"></path><path d="M549.631 497.775L485.505 497.721C485.399 497.722 485.294 497.7 485.197 497.657C485.101 497.614 485.014 497.552 484.944 497.473C484.873 497.394 484.82 497.301 484.788 497.2C484.757 497.1 484.747 496.993 484.759 496.888L487.016 477.46C487.036 477.278 487.123 477.11 487.26 476.988C487.397 476.866 487.574 476.8 487.758 476.801L551.888 476.852C551.993 476.852 552.098 476.874 552.194 476.917C552.29 476.961 552.376 477.024 552.446 477.103C552.516 477.182 552.569 477.275 552.602 477.376C552.634 477.476 552.645 477.583 552.633 477.688L550.377 497.113C550.355 497.295 550.267 497.463 550.13 497.585C549.992 497.707 549.815 497.775 549.631 497.775ZM486.328 496.226L548.951 496.28L551.033 478.347L488.411 478.296L486.328 496.226Z" fill="#141451"></path><path d="M420.426 620.277L586.395 620.416L600.622 497.862L434.652 497.723L420.426 620.277Z" fill="white"></path><path d="M586.397 621.169L420.427 621.026C420.321 621.027 420.217 621.005 420.121 620.962C420.024 620.919 419.938 620.856 419.868 620.777C419.798 620.698 419.745 620.606 419.714 620.505C419.682 620.404 419.672 620.298 419.685 620.194L433.911 497.636C433.931 497.454 434.018 497.286 434.155 497.164C434.292 497.042 434.47 496.975 434.653 496.977L600.623 497.116C600.728 497.116 600.833 497.138 600.929 497.182C601.025 497.225 601.111 497.288 601.181 497.367C601.252 497.445 601.305 497.538 601.337 497.638C601.368 497.738 601.378 497.844 601.365 497.949L587.142 620.506C587.12 620.689 587.033 620.857 586.895 620.979C586.758 621.101 586.58 621.169 586.397 621.169ZM421.271 619.531L585.729 619.67L599.792 498.611L435.33 498.472L421.271 619.531Z" fill="#141451"></path><path d="M440.303 564.824L579.4 564.94L600.759 496.673L434.793 496.533L440.303 564.824Z" fill="white"></path><path d="M579.401 565.687L440.304 565.572C440.117 565.572 439.937 565.502 439.799 565.376C439.66 565.25 439.574 565.078 439.556 564.892L434.049 496.594C434.041 496.491 434.055 496.387 434.089 496.29C434.123 496.192 434.176 496.102 434.247 496.026C434.317 495.951 434.402 495.89 434.497 495.848C434.592 495.807 434.694 495.785 434.798 495.785L600.768 495.925C600.885 495.924 601.001 495.952 601.106 496.005C601.21 496.058 601.301 496.135 601.37 496.23C601.441 496.327 601.488 496.439 601.507 496.557C601.526 496.675 601.516 496.796 601.479 496.91L580.119 565.177C580.069 565.327 579.972 565.457 579.843 565.549C579.714 565.64 579.559 565.689 579.401 565.687ZM440.995 564.076L578.85 564.192L599.743 497.42L435.604 497.281L440.995 564.076Z" fill="#141451"></path><path d="M543.801 577.57L556.931 577.584L559.872 552.262L546.738 552.252L543.801 577.57Z" fill="white"></path><path d="M556.936 578.332H543.802C543.696 578.332 543.592 578.31 543.495 578.266C543.399 578.223 543.313 578.16 543.243 578.081C543.173 578.002 543.12 577.909 543.089 577.808C543.057 577.707 543.047 577.601 543.06 577.496L545.997 552.178C546.015 551.992 546.101 551.82 546.239 551.694C546.376 551.569 546.556 551.499 546.742 551.498H559.873C559.978 551.498 560.083 551.52 560.179 551.564C560.275 551.607 560.361 551.67 560.431 551.75C560.502 551.828 560.555 551.921 560.587 552.022C560.619 552.123 560.63 552.229 560.618 552.334L557.677 577.653C557.661 577.838 557.575 578.01 557.438 578.136C557.301 578.261 557.122 578.331 556.936 578.332ZM544.642 576.827H556.265L559.032 553H547.409L544.642 576.827Z" fill="#141451"></path><path d="M463.188 577.502L476.318 577.516L479.258 552.194L466.125 552.184L463.188 577.502Z" fill="white"></path><path d="M476.318 578.265H463.188C463.082 578.265 462.978 578.242 462.881 578.199C462.785 578.156 462.699 578.092 462.629 578.013C462.559 577.934 462.505 577.842 462.473 577.741C462.441 577.64 462.43 577.534 462.442 577.428L465.383 552.11C465.404 551.928 465.492 551.76 465.629 551.637C465.767 551.515 465.944 551.448 466.128 551.447H479.258C479.364 551.447 479.468 551.469 479.565 551.513C479.661 551.556 479.747 551.62 479.816 551.699C479.887 551.778 479.94 551.87 479.973 551.971C480.005 552.072 480.015 552.178 480.004 552.283L477.063 577.602C477.041 577.784 476.954 577.952 476.816 578.075C476.679 578.197 476.502 578.264 476.318 578.265ZM464.028 576.759H475.651L478.418 552.933H466.795L464.028 576.759Z" fill="#141451"></path><path d="M493.258 481.524L545.793 481.572L547.137 469.968L494.606 469.924L493.258 481.524Z" fill="#3866FF"></path><path d="M545.793 482.319L493.258 482.275C493.152 482.275 493.048 482.253 492.952 482.21C492.855 482.166 492.769 482.103 492.7 482.024C492.629 481.945 492.576 481.852 492.544 481.751C492.511 481.651 492.501 481.544 492.512 481.439L493.874 469.839C493.895 469.656 493.983 469.488 494.121 469.366C494.258 469.244 494.435 469.176 494.619 469.176L547.154 469.22C547.26 469.22 547.364 469.243 547.46 469.286C547.557 469.33 547.643 469.393 547.713 469.472C547.783 469.551 547.835 469.644 547.867 469.744C547.898 469.845 547.908 469.951 547.896 470.056L546.534 481.657C546.514 481.839 546.427 482.007 546.291 482.13C546.154 482.252 545.976 482.32 545.793 482.319ZM494.098 480.78L545.125 480.82L546.296 470.715L495.273 470.675L494.098 480.78Z" fill="#141451"></path><path d="M493.258 481.524L545.793 481.572L547.137 469.968L494.606 469.924L493.258 481.524Z" fill="white"></path><path d="M545.793 482.319L493.258 482.275C493.152 482.275 493.048 482.253 492.952 482.21C492.855 482.166 492.769 482.103 492.7 482.024C492.629 481.945 492.576 481.852 492.544 481.751C492.511 481.651 492.501 481.544 492.512 481.439L493.874 469.839C493.895 469.656 493.983 469.488 494.121 469.366C494.258 469.244 494.435 469.176 494.619 469.176L547.154 469.22C547.26 469.22 547.364 469.243 547.46 469.286C547.557 469.33 547.643 469.393 547.713 469.472C547.783 469.551 547.835 469.644 547.867 469.744C547.898 469.845 547.908 469.951 547.896 470.056L546.534 481.657C546.514 481.839 546.427 482.007 546.291 482.13C546.154 482.252 545.976 482.32 545.793 482.319ZM494.098 480.78L545.125 480.82L546.296 470.715L495.273 470.675L494.098 480.78Z" fill="#141451"></path><path d="M604.998 597.008C604.8 597.008 604.61 596.93 604.469 596.79C604.329 596.651 604.25 596.462 604.249 596.264L603.633 511.719C603.632 511.621 603.651 511.523 603.688 511.432C603.725 511.341 603.779 511.258 603.849 511.187C603.918 511.117 604 511.062 604.091 511.023C604.182 510.985 604.28 510.965 604.378 510.965C604.476 510.964 604.573 510.983 604.664 511.02C604.754 511.057 604.837 511.112 604.906 511.18C604.976 511.249 605.031 511.331 605.069 511.421C605.107 511.511 605.126 511.608 605.127 511.706L605.743 596.254C605.744 596.352 605.725 596.449 605.689 596.54C605.652 596.631 605.597 596.714 605.528 596.784C605.46 596.854 605.378 596.91 605.287 596.949C605.197 596.987 605.099 597.007 605.001 597.008H604.998Z" fill="#3866FF"></path><path d="M612.858 618.635C612.704 618.635 612.554 618.588 612.428 618.499C612.302 618.411 612.206 618.287 612.153 618.142L604.291 596.515C604.258 596.423 604.243 596.325 604.247 596.227C604.251 596.128 604.275 596.032 604.316 595.943C604.358 595.853 604.416 595.773 604.489 595.707C604.562 595.64 604.646 595.589 604.739 595.555C604.832 595.521 604.93 595.506 605.028 595.51C605.127 595.515 605.223 595.538 605.312 595.58C605.402 595.621 605.482 595.68 605.549 595.752C605.615 595.825 605.667 595.91 605.701 596.002L613.562 617.633C613.607 617.747 613.623 617.87 613.609 617.991C613.594 618.112 613.551 618.229 613.481 618.329C613.412 618.43 613.318 618.512 613.21 618.568C613.101 618.625 612.98 618.653 612.858 618.652V618.635Z" fill="#3866FF"></path><path d="M185.327 187.551C185.416 178.307 177.984 170.74 168.727 170.652C159.47 170.563 151.894 177.985 151.805 187.23C151.717 196.475 159.149 204.041 168.405 204.129C177.662 204.218 185.238 196.796 185.327 187.551Z" fill="#141451"></path><path d="M142.476 208.88C151.731 208.796 159.165 201.235 159.081 191.992C158.997 182.75 151.427 175.325 142.172 175.409C132.917 175.493 125.482 183.053 125.566 192.296C125.65 201.539 133.221 208.964 142.476 208.88Z" fill="#141451"></path><path d="M132.836 197.026C132.923 187.781 125.49 180.216 116.233 180.129C106.976 180.042 99.4015 187.466 99.3142 196.71C99.227 205.955 106.66 213.52 115.917 213.607C125.174 213.694 132.749 206.27 132.836 197.026Z" fill="#141451"></path><path d="M181.479 192.139H168.277V209.181H181.479V192.139Z" fill="white"></path><path d="M168.277 197.14V192.141H181.479V203.174C179.385 203.597 177.218 203.473 175.186 202.813C172.275 201.813 169.823 199.799 168.277 197.14Z" fill="#141451"></path><path d="M176.665 199.969C182.53 199.969 187.284 194.721 187.284 188.246C187.284 181.772 182.53 176.523 176.665 176.523C170.801 176.523 166.047 181.772 166.047 188.246C166.047 194.721 170.801 199.969 176.665 199.969Z" fill="white"></path><path d="M176.77 176.309C177.849 176.309 178.92 176.485 179.942 176.829C179.256 180.352 177.638 183.629 175.257 186.318C172.876 189.008 169.818 191.012 166.4 192.124C166.039 190.91 165.856 189.651 165.855 188.385C165.859 181.703 170.743 176.309 176.77 176.309Z" fill="#141451"></path><path d="M172.051 193.392C172.899 194.171 173.935 194.718 175.057 194.979C176.179 195.241 177.35 195.207 178.456 194.883C179.562 194.559 180.565 193.954 181.367 193.128C182.17 192.303 182.745 191.283 183.037 190.17L172.051 193.392Z" fill="#C2CCF4"></path><path d="M403.646 399.857L392.231 473.242L347.408 466.288L358.823 392.903L403.646 399.857Z" fill="white" stroke="black"></path><path d="M439.411 501.153L420.406 484.421L405.921 454.384L376.033 458.218C372.894 458.622 369.705 458.37 366.669 457.479C363.633 456.587 360.815 455.077 358.393 453.042L357.549 452.331C355.129 450.295 353.334 447.617 352.371 444.606C351.407 441.595 351.315 438.374 352.104 435.313L352.509 433.736C353.308 430.633 349.446 428.498 347.244 430.816L305.059 474.958L319.782 489.08C327.591 496.571 336.503 502.821 346.209 507.615L350.099 509.538C373.758 521.225 399.06 529.248 425.137 533.331L443.856 536.261L451.588 529.83L451.894 529.218C452.966 527.054 453.561 524.685 453.637 522.271C453.714 519.858 453.272 517.456 452.34 515.228L452.313 515.167C451.386 512.943 449.993 510.943 448.229 509.3L439.411 501.153Z" fill="#C2CCF4"></path><path d="M443.837 537.005H443.721L425.002 534.075C398.851 529.984 373.475 521.939 349.75 510.214L345.86 508.294C336.087 503.466 327.113 497.17 319.249 489.627L304.522 475.501C304.38 475.364 304.298 475.177 304.293 474.979C304.289 474.782 304.363 474.591 304.499 474.448L346.684 430.289C347.274 429.671 348.052 429.265 348.898 429.136C349.743 429.007 350.607 429.162 351.355 429.576C352.103 429.991 352.692 430.641 353.03 431.426C353.368 432.211 353.435 433.085 353.222 433.912L352.817 435.486C352.074 438.413 352.169 441.489 353.091 444.364C354.013 447.239 355.724 449.798 358.031 451.75L358.871 452.457C361.216 454.422 363.942 455.882 366.879 456.745C369.816 457.607 372.899 457.853 375.936 457.467L405.824 453.629C405.981 453.609 406.14 453.638 406.279 453.713C406.417 453.788 406.529 453.905 406.597 454.047L421.014 483.958L439.903 500.613H439.92L448.704 508.77C451.495 511.364 453.376 514.788 454.067 518.533C454.759 522.278 454.224 526.146 452.543 529.564L452.24 530.176C452.193 530.27 452.127 530.354 452.046 530.421L444.313 536.852C444.177 536.956 444.009 537.01 443.837 537.005ZM306.102 474.934L320.287 488.529C328.039 495.969 336.889 502.176 346.527 506.934L350.417 508.855C374.007 520.514 399.238 528.513 425.241 532.579L443.619 535.455L450.97 529.337L451.202 528.864C452.739 525.735 453.227 522.195 452.594 518.767C451.961 515.339 450.24 512.206 447.686 509.83L438.909 501.693L419.911 484.95C419.836 484.885 419.775 484.805 419.731 484.716L405.484 455.145L376.13 458.915C372.888 459.326 369.596 459.063 366.46 458.143C363.325 457.222 360.414 455.663 357.911 453.565L357.067 452.858C354.546 450.724 352.675 447.927 351.667 444.783C350.659 441.64 350.555 438.278 351.367 435.078L351.772 433.501C351.903 432.995 351.862 432.46 351.656 431.979C351.449 431.499 351.089 431.101 350.631 430.847C350.174 430.593 349.644 430.499 349.127 430.578C348.61 430.657 348.133 430.906 347.773 431.285L306.102 474.934Z" fill="#141451"></path><path d="M393.238 455.995L405.923 454.367L420.404 484.403L408.741 478.625C404.848 476.701 401.71 473.535 399.824 469.628L393.238 455.995Z" fill="white"></path><path d="M420.407 485.151C420.288 485.154 420.172 485.127 420.066 485.073L408.399 479.295C404.362 477.292 401.106 474.007 399.142 469.955L392.553 456.301C392.502 456.194 392.477 456.077 392.481 455.958C392.484 455.84 392.515 455.724 392.572 455.62C392.629 455.516 392.709 455.426 392.807 455.359C392.905 455.292 393.018 455.249 393.135 455.234L405.82 453.606C405.976 453.585 406.135 453.615 406.274 453.69C406.413 453.765 406.524 453.882 406.592 454.024L421.08 484.081C421.135 484.195 421.16 484.321 421.153 484.448C421.145 484.575 421.105 484.697 421.037 484.804C420.969 484.911 420.875 484.999 420.763 485.06C420.652 485.121 420.527 485.152 420.4 485.151H420.407ZM394.364 456.6L400.49 469.316C402.307 473.069 405.322 476.112 409.06 477.966L418.776 482.765L405.483 455.19L394.364 456.6Z" fill="#141451"></path><path d="M369.937 484.135L366.422 491.235L346.342 465.139L339.48 477.874L327.974 450.968L323.702 450.051L302.336 472.66L319.914 489.342C327.625 496.66 336.395 502.776 345.93 507.486L350.082 509.525C373.741 521.212 399.044 529.235 425.12 533.317L443.839 536.247L451.571 529.816L442.399 527.254C408.811 517.465 391.28 496.878 391.28 496.878L388.622 502.632L369.937 484.135Z" fill="white"></path><path d="M443.835 537.004H443.719L425 534.074C398.848 529.984 373.473 521.938 349.748 510.214L345.596 508.175C335.991 503.433 327.157 497.273 319.39 489.902L301.822 473.203C301.678 473.066 301.595 472.878 301.59 472.68C301.585 472.482 301.658 472.29 301.794 472.146L323.144 449.537C323.232 449.443 323.343 449.375 323.466 449.337C323.589 449.298 323.719 449.292 323.845 449.319L328.116 450.237C328.234 450.262 328.344 450.315 328.437 450.391C328.53 450.467 328.603 450.565 328.65 450.675L339.541 476.167L345.667 464.801C345.727 464.691 345.813 464.598 345.917 464.53C346.022 464.462 346.142 464.421 346.266 464.41C346.391 464.399 346.517 464.42 346.632 464.47C346.747 464.521 346.847 464.599 346.923 464.699L366.282 489.851L369.266 483.828C369.318 483.721 369.395 483.628 369.49 483.557C369.586 483.486 369.696 483.439 369.814 483.419C369.931 483.4 370.051 483.408 370.164 483.445C370.278 483.481 370.38 483.544 370.464 483.628L388.387 501.38L390.596 496.598C390.649 496.484 390.729 496.385 390.83 496.31C390.932 496.236 391.05 496.187 391.174 496.17C391.299 496.153 391.426 496.167 391.544 496.212C391.661 496.256 391.766 496.329 391.848 496.424C392.022 496.628 409.641 516.961 442.606 526.569L451.771 529.129C451.903 529.166 452.022 529.238 452.115 529.337C452.208 529.437 452.273 529.56 452.301 529.693C452.329 529.826 452.321 529.965 452.276 530.094C452.231 530.223 452.152 530.337 452.047 530.424L444.315 536.854C444.177 536.958 444.007 537.011 443.835 537.004ZM303.397 472.632L320.435 488.801C328.09 496.068 336.798 502.141 346.266 506.815L350.415 508.854C374.005 520.513 399.235 528.513 425.239 532.579L443.617 535.454L449.992 530.152L442.194 527.973C412.656 519.367 395.255 502.23 391.484 498.216L389.299 502.944C389.249 503.053 389.173 503.15 389.078 503.224C388.983 503.298 388.871 503.348 388.752 503.369C388.633 503.391 388.511 503.383 388.396 503.347C388.28 503.31 388.176 503.247 388.091 503.161L370.148 485.388L367.085 491.557C367.028 491.671 366.944 491.769 366.839 491.841C366.734 491.913 366.613 491.958 366.486 491.97C366.359 491.982 366.231 491.962 366.115 491.911C365.998 491.86 365.896 491.781 365.819 491.68L346.42 466.501L340.113 478.227C340.048 478.354 339.947 478.461 339.823 478.533C339.699 478.605 339.556 478.64 339.413 478.633C339.269 478.627 339.131 478.579 339.013 478.497C338.896 478.414 338.805 478.299 338.752 478.166L327.398 451.617L323.92 450.869L303.397 472.632Z" fill="#141451"></path><path d="M320.68 528.753V577.859H275.319V528.753H320.68Z" fill="white" stroke="black"></path><path d="M382.617 574.189L358.147 567.589L331.832 547.076L306.759 563.751C304.125 565.503 301.155 566.689 298.038 567.235C294.921 567.781 291.724 567.674 288.65 566.922L287.578 566.661C284.503 565.907 281.704 564.302 279.502 562.031C277.301 559.759 275.786 556.913 275.132 553.82L274.791 552.229C274.131 549.095 269.73 548.884 268.774 551.943L250.562 610.201L270.03 616.342C280.355 619.598 291.119 621.254 301.947 621.254H306.286C332.681 621.256 358.922 617.245 384.108 609.358L402.183 603.695L406.268 594.518V593.838C406.267 591.424 405.748 589.037 404.745 586.84C403.743 584.643 402.279 582.687 400.455 581.103L400.404 581.058C398.582 579.475 396.442 578.301 394.128 577.615L382.617 574.189Z" fill="#C2CCF4"></path><path d="M306.273 622.002H301.933C291.029 622.005 280.189 620.337 269.792 617.056L250.324 610.915C250.136 610.855 249.978 610.723 249.886 610.548C249.794 610.373 249.776 610.169 249.834 609.98L268.046 551.719C268.299 550.904 268.816 550.196 269.516 549.706C270.215 549.216 271.057 548.971 271.911 549.01C272.764 549.048 273.581 549.369 274.233 549.921C274.885 550.472 275.335 551.225 275.513 552.059L275.853 553.65C276.487 556.602 277.938 559.317 280.041 561.486C282.144 563.655 284.814 565.192 287.748 565.92L288.817 566.182C291.79 566.906 294.881 567.008 297.896 566.481C300.91 565.955 303.783 564.811 306.334 563.123L331.424 546.448C331.555 546.36 331.71 546.317 331.867 546.323C332.024 546.329 332.175 546.385 332.299 546.482L358.505 566.899L382.829 573.459H382.846L394.336 576.858C396.755 577.57 398.991 578.797 400.89 580.454C402.811 582.109 404.351 584.157 405.408 586.459C406.466 588.762 407.014 591.265 407.017 593.798V594.478C407.016 594.582 406.994 594.685 406.952 594.78L402.868 603.957C402.828 604.062 402.764 604.157 402.682 604.234C402.601 604.311 402.502 604.369 402.395 604.402L384.319 610.065C359.062 617.981 332.744 622.006 306.273 622.002ZM251.478 609.711L270.234 615.629C280.485 618.863 291.173 620.508 301.923 620.506H306.263C332.582 620.51 358.748 616.509 383.86 608.641L401.612 603.08L405.488 594.345V593.822C405.478 590.335 404.344 586.944 402.254 584.151C400.164 581.359 397.228 579.312 393.883 578.316L382.403 574.917L357.943 568.323C357.847 568.297 357.756 568.252 357.678 568.19L331.788 548.011L307.147 564.384C304.423 566.191 301.353 567.415 298.132 567.979C294.91 568.542 291.606 568.432 288.429 567.657L287.357 567.395C284.149 566.601 281.229 564.922 278.931 562.551C276.632 560.179 275.047 557.21 274.356 553.983L274.015 552.392C273.895 551.891 273.616 551.442 273.218 551.114C272.821 550.785 272.327 550.594 271.812 550.569C271.296 550.545 270.787 550.688 270.36 550.978C269.933 551.267 269.612 551.687 269.445 552.175L251.478 609.711Z" fill="#141451"></path><path d="M321.184 554.156L331.833 547.076L358.148 567.589H345.133C340.791 567.589 336.573 566.14 333.15 563.472L321.184 554.156Z" fill="white"></path><path d="M358.153 568.336H345.138C340.63 568.329 336.252 566.826 332.692 564.063L320.716 554.743C320.621 554.671 320.546 554.577 320.495 554.469C320.445 554.362 320.421 554.243 320.426 554.125C320.432 554.006 320.466 553.89 320.525 553.787C320.584 553.683 320.667 553.595 320.767 553.53L331.416 546.453C331.547 546.366 331.702 546.323 331.859 546.329C332.016 546.335 332.167 546.39 332.291 546.487L358.609 567C358.732 567.096 358.821 567.228 358.865 567.377C358.909 567.526 358.905 567.685 358.854 567.832C358.803 567.979 358.708 568.107 358.581 568.197C358.454 568.287 358.302 568.336 358.146 568.336H358.153ZM322.468 554.203L333.615 562.884C336.91 565.442 340.964 566.834 345.138 566.84H355.975L331.811 548L322.468 554.203Z" fill="#141451"></path><path d="M312.797 589.694V597.603L283.187 583.107L282.69 597.559L260.432 578.525L256.198 579.593L247.098 609.313L270.258 616.481C280.418 619.632 290.995 621.236 301.634 621.239H306.262C332.657 621.242 358.898 617.23 384.084 609.343L402.16 603.681L406.244 594.504L396.884 596.268C362.428 602.369 337.577 591.676 337.577 591.676L337.75 598.011L312.797 589.694Z" fill="white"></path><path d="M306.276 622.001H301.657C290.945 622.002 280.293 620.392 270.06 617.225L246.9 610.057C246.711 609.998 246.552 609.867 246.459 609.692C246.366 609.517 246.346 609.312 246.403 609.122L255.504 579.402C255.541 579.279 255.61 579.168 255.703 579.079C255.796 578.99 255.91 578.927 256.035 578.896L260.272 577.825C260.39 577.794 260.514 577.793 260.632 577.821C260.751 577.848 260.861 577.905 260.953 577.985L282.027 595.999L282.472 583.1C282.476 582.975 282.511 582.853 282.574 582.745C282.638 582.637 282.727 582.546 282.834 582.481C282.942 582.417 283.064 582.38 283.189 582.375C283.314 582.369 283.439 582.396 283.551 582.451L312.068 596.42V589.697C312.068 589.579 312.096 589.462 312.15 589.357C312.204 589.252 312.282 589.16 312.378 589.091C312.474 589.022 312.585 588.976 312.703 588.958C312.82 588.94 312.939 588.95 313.052 588.987L336.998 596.968L336.855 591.699C336.852 591.573 336.88 591.449 336.938 591.336C336.995 591.224 337.08 591.128 337.185 591.058C337.289 590.987 337.41 590.944 337.535 590.932C337.661 590.92 337.787 590.939 337.903 590.989C338.148 591.098 362.966 601.526 396.782 595.533L406.135 593.773C406.269 593.747 406.407 593.759 406.535 593.807C406.663 593.854 406.775 593.936 406.86 594.043C406.944 594.149 406.998 594.277 407.016 594.412C407.033 594.547 407.013 594.685 406.958 594.809L402.874 603.986C402.83 604.086 402.764 604.175 402.682 604.247C402.6 604.318 402.503 604.371 402.398 604.401L384.322 610.064C359.065 617.979 332.747 622.005 306.276 622.001ZM248.047 608.847L270.509 615.794C280.597 618.919 291.099 620.507 301.661 620.505H306.289C332.608 620.509 358.774 616.508 383.887 608.639L401.639 603.079L405.001 595.503L397.044 597.002C389.997 598.25 382.855 598.877 375.698 598.878C356.21 598.878 342.243 594.228 338.376 592.784L338.519 597.991C338.523 598.111 338.497 598.23 338.444 598.339C338.392 598.447 338.313 598.541 338.216 598.613C338.119 598.683 338.007 598.729 337.889 598.748C337.771 598.767 337.65 598.758 337.536 598.721L313.562 590.734V597.603C313.565 597.731 313.534 597.858 313.473 597.971C313.412 598.083 313.323 598.179 313.215 598.247C313.106 598.315 312.982 598.355 312.854 598.361C312.726 598.367 312.598 598.34 312.484 598.283L283.929 584.3L283.47 597.596C283.465 597.738 283.42 597.875 283.341 597.992C283.262 598.108 283.151 598.201 283.021 598.257C282.891 598.314 282.748 598.332 282.608 598.311C282.469 598.29 282.338 598.229 282.231 598.137L260.272 579.368L256.821 580.238L248.047 608.847Z" fill="#141451"></path><path d="M407.422 424.803H346.709L357.338 355.361L357.426 354.786H356.844H247.912C237.523 354.786 227.559 350.664 220.213 343.328C212.867 335.993 208.739 326.043 208.738 315.668C208.738 315.668 208.738 315.668 208.738 315.668V292.172L396.33 292.172L396.33 292.172C400.606 292.169 404.83 293.104 408.705 294.91C412.58 296.716 416.01 299.349 418.755 302.623C421.499 305.898 423.49 309.734 424.588 313.86C425.685 317.987 425.863 322.304 425.107 326.507L407.422 424.803Z" fill="white" stroke="black"></path><path d="M163.922 319.475L155.039 284.486H226.371L315.199 352.944C321.052 357.453 325.791 363.243 329.051 369.869C332.312 376.494 334.007 383.779 334.006 391.161V538.429H263.199V401.966L215.691 354.983L209.269 354.942C198.845 354.876 188.738 351.358 180.532 344.94C172.326 338.521 166.484 329.565 163.922 319.475Z" fill="white"></path><path d="M334.018 539.867H263.197C262.998 539.867 262.808 539.789 262.667 539.648C262.527 539.508 262.448 539.318 262.448 539.12V402.276L215.376 355.732L209.249 355.694C198.66 355.626 188.393 352.052 180.055 345.533C171.717 339.013 165.781 329.916 163.174 319.666L154.292 284.677C154.264 284.567 154.262 284.452 154.286 284.34C154.31 284.229 154.359 284.125 154.429 284.035C154.499 283.945 154.589 283.873 154.691 283.823C154.793 283.773 154.906 283.746 155.02 283.746H226.351C226.517 283.746 226.677 283.801 226.808 283.902L315.636 352.36C321.561 356.956 326.36 362.839 329.669 369.563C332.977 376.288 334.709 383.676 334.732 391.169V539.126C334.731 539.318 334.656 539.501 334.523 539.639C334.39 539.777 334.209 539.859 334.018 539.867ZM263.952 538.368H333.269V391.162C333.246 383.898 331.567 376.735 328.359 370.215C325.151 363.696 320.499 357.992 314.755 353.536L226.1 285.245H155.99L164.634 319.299C167.156 329.23 172.906 338.044 180.983 344.361C189.06 350.678 199.008 354.141 209.266 354.205L215.689 354.246C215.786 354.246 215.882 354.265 215.971 354.302C216.06 354.34 216.142 354.395 216.209 354.464L263.721 401.443C263.791 401.513 263.847 401.597 263.885 401.688C263.923 401.78 263.942 401.878 263.942 401.977L263.952 538.368Z" fill="#141451"></path><path d="M279.875 248.774L304.587 240.501C306.286 239.932 308.113 239.862 309.85 240.298C311.588 240.734 313.165 241.659 314.392 242.962L320.127 249.057C321.583 250.603 322.687 252.445 323.364 254.457L324.922 259.104C325.242 260.055 325.171 261.095 324.724 261.994C324.277 262.893 323.492 263.578 322.54 263.9L322.04 264.066C321.087 264.386 320.046 264.316 319.145 263.869C318.245 263.423 317.558 262.638 317.237 261.687L316.216 258.655C315.557 256.69 314.48 254.89 313.058 253.38L310.08 250.219C309.441 249.54 308.62 249.058 307.716 248.831C306.811 248.603 305.86 248.639 304.975 248.934L282.462 256.47L279.875 248.774Z" fill="white"></path><path d="M288.496 252.275L302.79 247.482C304.49 246.914 306.316 246.844 308.054 247.281C309.792 247.718 311.368 248.643 312.595 249.946L318.334 256.037C319.79 257.584 320.893 259.428 321.567 261.441L323.126 266.084C323.446 267.036 323.375 268.075 322.929 268.975C322.482 269.874 321.696 270.559 320.743 270.88L320.243 271.05C319.29 271.369 318.249 271.298 317.349 270.852C316.449 270.406 315.763 269.622 315.441 268.671L314.42 265.636C313.762 263.671 312.684 261.872 311.261 260.364L308.287 257.203C307.648 256.524 306.827 256.042 305.923 255.814C305.018 255.586 304.067 255.623 303.182 255.918L291.079 259.966L288.496 252.275Z" fill="white"></path><path d="M286.098 258.536L300.392 253.747C302.091 253.178 303.917 253.108 305.655 253.544C307.393 253.98 308.969 254.905 310.197 256.208L315.949 262.302C317.405 263.848 318.509 265.691 319.185 267.703L320.744 272.349C321.064 273.301 320.993 274.34 320.546 275.239C320.099 276.138 319.314 276.824 318.362 277.145L317.862 277.312C316.909 277.632 315.868 277.561 314.967 277.115C314.067 276.669 313.38 275.884 313.059 274.932L312.038 271.901C311.378 269.936 310.3 268.136 308.88 266.626L305.902 263.465C305.263 262.786 304.442 262.304 303.538 262.076C302.633 261.849 301.682 261.885 300.797 262.18L288.677 266.211L286.098 258.536Z" fill="white"></path><path d="M251.145 267.569V245.276L289.021 245.31L298.816 242.295L305.027 260.799L291.383 265.367L291.652 265.676C292.21 266.316 292.899 266.83 293.673 267.182C294.447 267.534 295.287 267.715 296.137 267.715H303.781C304.761 267.715 305.7 268.104 306.392 268.795C307.085 269.487 307.474 270.425 307.474 271.403V271.655C307.474 272.629 307.088 273.564 306.4 274.255C305.712 274.946 304.778 275.337 303.802 275.342C300.449 275.342 293.905 275.366 293.129 275.322C292.71 275.295 292.293 275.244 291.88 275.169L251.145 267.569Z" fill="white"></path><path d="M291.877 275.174C290.627 274.938 289.434 274.467 288.361 273.784L278.352 267.57H251.125L291.877 275.174Z" fill="#3866FF"></path><path d="M316.632 278.257C315.68 278.256 314.751 277.957 313.977 277.401C313.204 276.846 312.624 276.062 312.32 275.16L311.299 272.128C310.671 270.267 309.65 268.562 308.304 267.129L305.33 263.968C304.787 263.393 304.092 262.986 303.326 262.793C302.559 262.601 301.754 262.631 301.004 262.88L292.06 265.871C291.873 265.929 291.671 265.911 291.497 265.822C291.323 265.733 291.191 265.58 291.129 265.395C291.067 265.21 291.079 265.008 291.164 264.832C291.249 264.656 291.4 264.52 291.583 264.454L300.544 261.453C301.566 261.114 302.664 261.073 303.708 261.336C304.752 261.598 305.7 262.153 306.439 262.934L309.414 266.095C310.907 267.686 312.041 269.579 312.739 271.646L313.76 274.678C314.021 275.439 314.571 276.067 315.292 276.426C316.013 276.785 316.847 276.845 317.612 276.595L318.113 276.428C318.875 276.168 319.504 275.618 319.863 274.898C320.223 274.178 320.283 273.345 320.032 272.581L318.473 267.934C317.832 266.026 316.788 264.278 315.41 262.809L309.676 256.714C308.544 255.517 307.094 254.668 305.495 254.267C303.897 253.866 302.217 253.93 300.653 254.451L298.349 255.219C298.163 255.277 297.961 255.259 297.787 255.17C297.613 255.081 297.48 254.928 297.418 254.743C297.356 254.557 297.369 254.355 297.454 254.18C297.539 254.004 297.689 253.868 297.873 253.802L300.177 253.03C302.012 252.419 303.983 252.345 305.859 252.815C307.735 253.286 309.437 254.283 310.765 255.688L316.503 261.782C318.031 263.409 319.192 265.345 319.906 267.458L321.465 272.105C321.847 273.245 321.76 274.491 321.224 275.568C320.687 276.645 319.744 277.465 318.603 277.849L318.103 278.015C317.629 278.176 317.132 278.258 316.632 278.257Z" fill="#141451"></path><path d="M320.413 271.734C320.235 271.735 320.062 271.672 319.925 271.557C319.789 271.442 319.698 271.282 319.67 271.106C319.641 270.93 319.676 270.75 319.769 270.598C319.861 270.445 320.005 270.331 320.175 270.275L320.515 270.167C321.281 269.91 321.913 269.36 322.273 268.638C322.633 267.916 322.691 267.081 322.435 266.316L320.876 261.673C320.234 259.764 319.189 258.015 317.813 256.544L312.078 250.453C310.947 249.255 309.497 248.406 307.898 248.004C306.3 247.602 304.62 247.665 303.056 248.186L298.832 249.603C298.739 249.635 298.64 249.647 298.542 249.64C298.444 249.633 298.348 249.607 298.259 249.563C298.171 249.52 298.093 249.459 298.028 249.385C297.963 249.31 297.914 249.224 297.883 249.131C297.851 249.038 297.839 248.939 297.846 248.841C297.852 248.743 297.878 248.647 297.922 248.559C297.966 248.471 298.027 248.392 298.102 248.328C298.176 248.263 298.262 248.214 298.356 248.183L302.579 246.769C304.415 246.157 306.387 246.083 308.263 246.554C310.14 247.025 311.843 248.021 313.171 249.427L318.905 255.521C320.434 257.147 321.595 259.083 322.309 261.197L323.867 265.84C324.057 266.405 324.134 267.002 324.093 267.597C324.052 268.191 323.893 268.772 323.627 269.305C323.361 269.839 322.992 270.315 322.542 270.706C322.091 271.097 321.568 271.395 321.002 271.584L320.661 271.696C320.581 271.721 320.497 271.734 320.413 271.734Z" fill="#141451"></path><path d="M297.419 276.149C293.162 276.149 290.303 275.908 287.961 274.416L278.139 268.318H251.143C250.945 268.317 250.755 268.238 250.615 268.098C250.475 267.958 250.395 267.768 250.395 267.57V245.348C250.394 245.25 250.413 245.152 250.451 245.061C250.488 244.97 250.543 244.888 250.613 244.818C250.683 244.749 250.765 244.694 250.856 244.656C250.947 244.619 251.045 244.6 251.143 244.6L288.621 244.563L304.359 239.784C306.192 239.177 308.161 239.106 310.034 239.578C311.907 240.051 313.605 241.048 314.93 242.452L320.664 248.543C322.191 250.171 323.352 252.106 324.068 254.219L325.623 258.866C326.005 260.006 325.918 261.252 325.382 262.329C324.845 263.406 323.902 264.226 322.761 264.61C322.667 264.641 322.569 264.654 322.471 264.647C322.372 264.64 322.276 264.614 322.188 264.57C322.1 264.526 322.021 264.465 321.957 264.391C321.892 264.317 321.843 264.231 321.811 264.137C321.78 264.044 321.767 263.945 321.774 263.847C321.781 263.749 321.807 263.653 321.851 263.565C321.895 263.477 321.956 263.399 322.03 263.334C322.105 263.27 322.191 263.22 322.284 263.189C323.047 262.929 323.676 262.379 324.035 261.659C324.394 260.938 324.455 260.106 324.204 259.341L322.645 254.695C322.003 252.787 320.959 251.04 319.582 249.57L313.847 243.475C312.716 242.278 311.266 241.429 309.667 241.028C308.069 240.627 306.389 240.691 304.825 241.212L288.962 246.028C288.891 246.049 288.818 246.061 288.744 246.062L251.902 246.096V266.829H278.364C278.504 266.83 278.64 266.87 278.758 266.945L288.768 273.158C291.262 274.749 294.554 274.708 300.475 274.636C301.496 274.636 302.613 274.613 303.807 274.606C304.584 274.6 305.328 274.289 305.876 273.739C306.424 273.189 306.732 272.445 306.734 271.669V271.418C306.733 270.638 306.423 269.891 305.871 269.34C305.319 268.789 304.571 268.479 303.79 268.478H296.146C295.189 268.478 294.243 268.273 293.371 267.876C292.5 267.48 291.724 266.902 291.096 266.18L290.827 265.867C290.762 265.793 290.713 265.707 290.682 265.614C290.65 265.521 290.638 265.422 290.645 265.324C290.651 265.226 290.677 265.131 290.721 265.043C290.765 264.955 290.826 264.876 290.9 264.812C290.974 264.747 291.06 264.698 291.154 264.667C291.247 264.636 291.345 264.623 291.444 264.63C291.542 264.637 291.637 264.663 291.726 264.706C291.814 264.75 291.892 264.811 291.957 264.885L292.229 265.198C292.716 265.758 293.318 266.207 293.994 266.514C294.67 266.822 295.404 266.982 296.146 266.982H303.79C304.965 266.983 306.092 267.448 306.924 268.276C307.756 269.104 308.226 270.228 308.232 271.401V271.652C308.225 272.822 307.756 273.942 306.928 274.769C306.1 275.596 304.979 276.064 303.807 276.071C302.623 276.071 301.517 276.088 300.489 276.101C299.386 276.135 298.369 276.149 297.419 276.149Z" fill="#141451"></path><path d="M206.901 214.829L227.9 238.482C229.3 240.059 231.02 241.322 232.945 242.187C234.871 243.052 236.958 243.499 239.069 243.498H274.529V273.667L230.159 273.647C226.866 273.646 223.611 272.945 220.611 271.59C217.61 270.235 214.933 268.257 212.758 265.788L178.574 227.017L193.668 213.958C195.544 212.335 197.986 211.516 200.463 211.679C202.941 211.841 205.254 212.973 206.901 214.829Z" fill="#C2CCF4"></path><path d="M149.844 305.42L235.374 298.466L235.085 288.171H214.869L212.02 228.482C211.36 216.766 202.77 207.848 191.358 207.848H165.707L151.814 211.131L149.844 305.42Z" fill="#C2CCF4"></path><path d="M305.023 289.635H392.732L433.978 219.07H346.273L305.023 289.635Z" fill="#141451"></path><path d="M392.731 289.639H235.031V298.547H392.731V289.639Z" fill="#141451"></path><path d="M376.065 256.737C376.988 253.374 375.141 249.937 371.939 249.061C368.738 248.185 365.394 250.202 364.471 253.566C363.549 256.929 365.396 260.366 368.598 261.242C371.799 262.118 375.142 260.101 376.065 256.737Z" fill="white"></path><path d="M223.426 265.297L256.197 265.283V292.053L223.426 292.06V265.297Z" fill="white"></path><path d="M285.625 273.609L288.531 276.746C289.242 277.517 289.664 278.509 289.726 279.554C289.788 280.6 289.486 281.635 288.872 282.484L286.013 286.443L279.09 278.731H235.629V269.643H276.548C278.253 269.644 279.939 269.998 281.501 270.68C283.062 271.363 284.466 272.36 285.625 273.609Z" fill="white"></path><path d="M284.297 267.941L285.941 269.715C286.652 270.485 287.074 271.477 287.136 272.523C287.198 273.569 286.896 274.604 286.282 275.452L283.426 279.412L276.5 271.7H235.629V265.375H242.568C245.441 265.375 250.56 262.611 257.04 262.611H272.086C274.379 262.611 276.648 263.085 278.749 264.002C280.851 264.919 282.74 266.26 284.297 267.941Z" fill="white"></path><path d="M286.64 279.718L290.132 283.484C290.843 284.254 291.265 285.247 291.327 286.292C291.389 287.338 291.087 288.373 290.473 289.221L287.617 293.181L280.695 285.469H253.75V276.377H278.976C280.415 276.376 281.839 276.672 283.158 277.247C284.477 277.822 285.662 278.664 286.64 279.718Z" fill="white"></path><path d="M285.362 286.339L289.004 290.265C289.386 290.668 289.684 291.142 289.88 291.661C290.076 292.18 290.167 292.733 290.147 293.287C290.126 293.842 289.995 294.386 289.762 294.89C289.528 295.393 289.196 295.844 288.785 296.218C288.375 296.591 287.893 296.879 287.37 297.065C286.846 297.25 286.291 297.33 285.737 297.298C285.182 297.267 284.639 297.125 284.14 296.882C283.641 296.638 283.196 296.298 282.83 295.88L280.853 293.681C280.386 293.163 279.814 292.75 279.176 292.468C278.538 292.185 277.848 292.041 277.15 292.043H254.524C248.609 292.043 244.443 291.703 238.746 282.947H277.572C279.034 282.946 280.481 283.247 281.822 283.83C283.163 284.414 284.368 285.268 285.362 286.339Z" fill="white"></path><path d="M288.885 283.232C288.747 283.233 288.611 283.195 288.493 283.124C288.375 283.052 288.28 282.949 288.216 282.826C288.153 282.703 288.126 282.565 288.136 282.428C288.147 282.29 288.195 282.158 288.276 282.046C288.786 281.336 289.036 280.472 288.982 279.6C288.929 278.727 288.576 277.9 287.983 277.257L285.074 274.117C283.984 272.941 282.663 272.002 281.194 271.359C279.725 270.715 278.139 270.381 276.534 270.378H268.53C268.339 270.365 268.161 270.28 268.031 270.141C267.901 270.002 267.828 269.819 267.828 269.628C267.828 269.438 267.901 269.255 268.031 269.115C268.161 268.976 268.339 268.892 268.53 268.879H276.534C278.344 268.882 280.134 269.257 281.792 269.981C283.451 270.705 284.942 271.762 286.173 273.087L289.083 276.227C289.91 277.124 290.402 278.279 290.476 279.496C290.551 280.713 290.203 281.919 289.491 282.91C289.423 283.008 289.333 283.088 289.228 283.144C289.122 283.201 289.005 283.231 288.885 283.232Z" fill="#141451"></path><path d="M289.37 291.512C289.232 291.511 289.098 291.472 288.981 291.4C288.864 291.327 288.769 291.224 288.707 291.102C288.644 290.98 288.617 290.843 288.627 290.706C288.637 290.569 288.684 290.438 288.764 290.326L289.877 288.783C290.386 288.072 290.635 287.208 290.581 286.336C290.527 285.463 290.174 284.636 289.581 283.994L286.092 280.228C285.185 279.251 284.085 278.471 282.863 277.937C281.64 277.403 280.32 277.126 278.986 277.124H268.456C268.257 277.124 268.067 277.046 267.926 276.905C267.786 276.765 267.707 276.575 267.707 276.377C267.707 276.178 267.786 275.988 267.926 275.848C268.067 275.708 268.257 275.629 268.456 275.629H278.986C280.526 275.632 282.05 275.952 283.462 276.568C284.873 277.184 286.143 278.084 287.191 279.211L290.68 282.977C291.51 283.873 292.006 285.027 292.084 286.245C292.161 287.463 291.816 288.67 291.105 289.663L289.992 291.203C289.922 291.301 289.828 291.38 289.719 291.434C289.611 291.488 289.491 291.515 289.37 291.512Z" fill="#141451"></path><path d="M285.934 298.017C285.243 298.018 284.559 297.872 283.927 297.59C283.296 297.308 282.732 296.895 282.272 296.378L280.298 294.179C279.902 293.738 279.416 293.385 278.874 293.143C278.331 292.901 277.744 292.776 277.15 292.776H252.125C249.859 292.775 247.628 292.221 245.626 291.16C243.624 290.099 241.913 288.565 240.642 286.692C240.543 286.527 240.511 286.331 240.553 286.144C240.594 285.956 240.706 285.792 240.865 285.684C241.023 285.576 241.218 285.533 241.407 285.564C241.597 285.595 241.767 285.696 241.884 285.849C243.016 287.522 244.541 288.893 246.327 289.841C248.112 290.789 250.103 291.286 252.125 291.287H277.15C277.955 291.287 278.75 291.457 279.484 291.785C280.218 292.113 280.875 292.592 281.411 293.19L283.389 295.389C283.731 295.771 284.154 296.071 284.628 296.267C285.101 296.463 285.613 296.55 286.125 296.522C286.636 296.495 287.136 296.353 287.585 296.106C288.035 295.86 288.423 295.517 288.722 295.1C289.182 294.459 289.407 293.679 289.359 292.892C289.311 292.104 288.992 291.357 288.456 290.777L284.818 286.848C283.893 285.853 282.772 285.058 281.526 284.514C280.28 283.97 278.935 283.689 277.576 283.687H268.812C268.613 283.687 268.423 283.608 268.282 283.468C268.142 283.328 268.063 283.137 268.063 282.939C268.063 282.741 268.142 282.551 268.282 282.41C268.423 282.27 268.613 282.191 268.812 282.191H277.576C279.142 282.193 280.691 282.517 282.126 283.144C283.561 283.77 284.852 284.685 285.917 285.832L289.556 289.761C290.191 290.446 290.618 291.299 290.786 292.218C290.954 293.137 290.857 294.085 290.505 294.951C290.154 295.817 289.562 296.565 288.8 297.107C288.038 297.649 287.138 297.964 286.203 298.013L285.934 298.017Z" fill="#141451"></path><path d="M260.763 292.813H223.425C223.226 292.812 223.036 292.733 222.896 292.593C222.756 292.453 222.677 292.264 222.676 292.065V265.299C222.676 265.1 222.755 264.91 222.895 264.769C223.035 264.628 223.226 264.549 223.425 264.548H241.255C243.773 264.548 245.679 264.018 247.926 263.406C250.553 262.682 253.534 261.859 258.03 261.859H272.073C274.468 261.863 276.838 262.36 279.033 263.318C281.228 264.276 283.202 265.676 284.832 267.43L286.479 269.208C287.198 269.978 287.669 270.946 287.831 271.986C287.993 273.027 287.838 274.092 287.388 275.044C287.346 275.133 287.287 275.213 287.214 275.28C287.141 275.346 287.056 275.398 286.963 275.431C286.871 275.465 286.772 275.48 286.674 275.476C286.575 275.471 286.478 275.447 286.389 275.406C286.3 275.364 286.219 275.305 286.153 275.232C286.086 275.16 286.034 275.075 286.001 274.982C285.967 274.889 285.952 274.791 285.957 274.692C285.961 274.594 285.985 274.497 286.027 274.408C286.35 273.726 286.46 272.962 286.345 272.216C286.229 271.471 285.891 270.777 285.376 270.224L283.729 268.446C282.24 266.843 280.437 265.562 278.431 264.685C276.425 263.808 274.259 263.353 272.069 263.348H258.027C253.732 263.348 250.982 264.106 248.32 264.837C246.084 265.452 243.971 266.037 241.252 266.037H224.173V291.308H260.76C260.958 291.308 261.149 291.386 261.289 291.527C261.43 291.667 261.508 291.857 261.508 292.055C261.508 292.254 261.43 292.444 261.289 292.584C261.149 292.724 260.958 292.803 260.76 292.803L260.763 292.813Z" fill="#141451"></path><path d="M164.008 207.861H166.023L178.782 258.131C179.184 259.719 180.105 261.127 181.4 262.132C182.695 263.137 184.289 263.681 185.929 263.678L232.372 263.641L232.399 295.716L177.373 295.76C171.062 295.765 164.931 293.667 159.949 289.799C154.966 285.931 151.419 280.514 149.867 274.405L140.596 237.921C139.692 234.361 139.615 230.642 140.369 227.047C141.122 223.452 142.688 220.076 144.946 217.177C147.204 214.278 150.095 211.932 153.398 210.318C156.701 208.703 160.33 207.863 164.008 207.861Z" fill="#C2CCF4"></path><path d="M177.345 296.508C170.87 296.513 164.58 294.359 159.47 290.388C154.36 286.418 150.724 280.857 149.137 274.588L139.867 238.108C138.934 234.437 138.853 230.601 139.63 226.894C140.407 223.187 142.021 219.706 144.349 216.717C146.678 213.727 149.659 211.308 153.066 209.644C156.472 207.979 160.214 207.114 164.007 207.113H167.853C168.051 207.113 168.242 207.192 168.382 207.332C168.523 207.473 168.601 207.663 168.601 207.861C168.601 208.059 168.523 208.25 168.382 208.39C168.242 208.53 168.051 208.609 167.853 208.609H164.007C160.442 208.609 156.925 209.421 153.723 210.985C150.521 212.549 147.718 214.822 145.53 217.632C143.341 220.442 141.824 223.714 141.093 227.198C140.363 230.682 140.44 234.287 141.316 237.737L150.587 274.221C152.092 280.168 155.541 285.442 160.388 289.208C165.236 292.974 171.203 295.016 177.345 295.009H177.369L231.642 294.968L231.619 264.378L185.925 264.415C184.119 264.416 182.364 263.815 180.939 262.707C179.514 261.598 178.501 260.046 178.059 258.297L171.767 233.485C171.718 233.293 171.748 233.089 171.849 232.919C171.951 232.748 172.117 232.625 172.309 232.576C172.502 232.528 172.706 232.557 172.877 232.659C173.048 232.761 173.171 232.926 173.22 233.118L179.513 257.93C179.873 259.355 180.7 260.619 181.862 261.522C183.023 262.424 184.453 262.914 185.925 262.913L232.371 262.876C232.469 262.875 232.567 262.894 232.658 262.932C232.749 262.969 232.832 263.024 232.901 263.094C232.971 263.163 233.026 263.246 233.063 263.337C233.101 263.428 233.12 263.525 233.12 263.624L233.147 295.696C233.147 295.794 233.128 295.892 233.091 295.983C233.053 296.074 232.998 296.157 232.929 296.227C232.859 296.296 232.776 296.352 232.685 296.39C232.594 296.427 232.497 296.447 232.398 296.447L177.375 296.491L177.345 296.508Z" fill="#141451"></path><path d="M530.812 157.305C571.231 157.305 603.998 124.61 603.998 84.2794C603.998 43.9485 571.231 11.2539 530.812 11.2539C490.392 11.2539 457.625 43.9485 457.625 84.2794C457.625 124.61 490.392 157.305 530.812 157.305Z" fill="#141451"></path><path d="M525.487 151.996C565.907 151.996 598.674 119.302 598.674 78.9708C598.674 38.6399 565.907 5.94531 525.487 5.94531C485.067 5.94531 452.301 38.6399 452.301 78.9708C452.301 119.302 485.067 151.996 525.487 151.996Z" fill="white"></path><path d="M585.811 79.718C585.613 79.718 585.422 79.6393 585.282 79.499C585.142 79.3588 585.063 79.1686 585.063 78.9703C585.063 46.1946 558.339 19.5268 525.503 19.5268C514.53 19.5167 503.767 22.5388 494.407 28.2586C494.323 28.3122 494.229 28.3486 494.131 28.3657C494.033 28.3827 493.932 28.38 493.835 28.3578C493.738 28.3356 493.647 28.2943 493.566 28.2363C493.485 28.1782 493.417 28.1047 493.364 28.0199C493.312 27.9352 493.278 27.8409 493.263 27.7426C493.247 27.6443 493.252 27.544 493.276 27.4476C493.3 27.3511 493.344 27.2604 493.403 27.1808C493.463 27.1012 493.538 27.0343 493.624 26.984C503.219 21.1185 514.253 18.0199 525.503 18.0313C559.197 18.0313 586.581 45.3687 586.581 78.9703C586.581 79.0702 586.561 79.1692 586.522 79.2612C586.483 79.3533 586.426 79.4367 586.354 79.5064C586.282 79.5761 586.197 79.6307 586.104 79.6671C586.011 79.7034 585.911 79.7208 585.811 79.718Z" fill="#141451"></path><path d="M525.488 139.91C491.794 139.91 464.414 112.572 464.414 78.9706C464.413 75.4986 464.708 72.0328 465.296 68.6107C465.329 68.4151 465.439 68.2408 465.601 68.126C465.763 68.0113 465.964 67.9656 466.16 67.9989C466.356 68.0323 466.53 68.142 466.645 68.3039C466.76 68.4658 466.806 68.6666 466.773 68.8622C466.2 72.2013 465.913 75.5829 465.915 78.9706C465.915 111.75 492.638 138.414 525.474 138.414C534.05 138.436 542.527 136.594 550.319 133.017C550.5 132.934 550.706 132.926 550.892 132.995C551.078 133.063 551.23 133.203 551.313 133.384C551.396 133.564 551.404 133.77 551.335 133.956C551.266 134.142 551.126 134.293 550.945 134.376C542.962 138.043 534.275 139.931 525.488 139.91Z" fill="#141451"></path><path d="M577.369 95.7214C577.296 95.7213 577.224 95.711 577.154 95.6908L524.116 79.6888C523.988 79.6497 523.873 79.5775 523.783 79.4795C523.693 79.3816 523.63 79.2614 523.602 79.1314L518.156 54.197C518.134 54.1003 518.131 54.0002 518.147 53.9024C518.164 53.8045 518.2 53.711 518.253 53.6271C518.306 53.5433 518.375 53.4709 518.457 53.4141C518.538 53.3572 518.63 53.3172 518.727 53.2962C518.824 53.2752 518.925 53.2738 519.022 53.2919C519.12 53.31 519.213 53.3474 519.296 53.4018C519.379 53.4562 519.451 53.5266 519.506 53.6089C519.562 53.6911 519.6 53.7836 519.62 53.8809L524.953 78.3836L577.569 94.2565C577.742 94.3075 577.891 94.4193 577.988 94.5713C578.086 94.7233 578.125 94.9052 578.098 95.0835C578.072 95.2619 577.981 95.4246 577.844 95.5419C577.707 95.6591 577.532 95.7229 577.351 95.7214H577.369Z" fill="#141451"></path><path d="M576.341 75.352C576.343 79 575.937 82.6368 575.129 86.1945L530.807 75.352L518.82 27.5532C525.841 26.2646 533.06 26.5329 539.966 28.3391C546.872 30.1453 553.296 33.4453 558.783 38.0055C564.271 42.5657 568.687 48.2747 571.721 54.7284C574.754 61.182 576.33 68.2227 576.338 75.352H576.341Z" fill="#3866FF"></path></svg>