<svg xmlns="http://www.w3.org/2000/svg" width="537" height="476" viewBox="0 0 537 476" fill="none"><path d="M0.282471 299.195H517.773V301.051H0.282471V299.195Z" fill="#252362"></path><path d="M508.474 274.299C509.492 272.883 510.151 271.241 510.393 269.514C510.634 267.787 510.452 266.027 509.862 264.386C508.706 261.171 505.863 258.882 502.586 258.089C500.781 257.647 498.889 257.702 497.113 258.249C496.935 258.297 496.745 258.273 496.585 258.182C496.425 258.091 496.307 257.94 496.257 257.763C495.339 252.849 490.01 249.702 485.215 250.317C483.855 250.493 482.56 251.005 481.447 251.806C480.797 252.27 480.049 251.256 480.604 250.714C482.651 248.718 482.169 245.569 480.757 243.351C478.829 240.321 475.225 239.446 471.819 239.596C469.57 239.694 467.363 240.196 465.197 240.776C464.653 240.923 464.04 240.269 464.412 239.756C467.689 235.172 470.461 230.113 471.607 224.545C472.61 219.678 472.166 214.471 469.873 210.018C468.795 207.879 467.26 206.003 465.378 204.523C464.339 203.727 463.163 202.998 461.866 202.737C460.459 202.452 459.114 202.949 457.911 203.649C453.947 205.964 451.308 209.915 449.693 214.125C447.796 219.076 447.035 224.389 446.441 229.631C446.343 230.505 444.965 230.528 445.052 229.631C445.41 225.934 443.406 222.256 440.222 220.389C436.98 218.49 432.961 219.016 430.028 221.263C428.395 222.493 427.211 224.224 426.657 226.192C426.489 226.811 425.429 226.896 425.308 226.192C424.849 223.3 423.633 219.635 420.616 218.478C418.384 217.633 415.121 218.59 414.745 221.224C414.641 221.944 413.589 221.824 413.396 221.224C412.537 218.332 410.374 214.889 407.036 214.65C404.542 214.471 401.254 217.271 402.634 219.907C403.048 220.698 401.849 221.402 401.433 220.609C400.068 218.004 401.818 215.065 404.253 213.871C407.144 212.461 410.282 213.792 412.244 216.118C413.392 217.508 414.241 219.12 414.738 220.854H413.389C413.749 218.347 416.264 216.91 418.623 216.804C421.47 216.669 423.783 218.573 425.082 220.979C425.864 222.496 426.386 224.133 426.624 225.822H425.275C426.362 221.824 429.943 218.713 433.998 217.986C438.238 217.226 442.355 219.278 444.674 222.86C445.995 224.858 446.606 227.243 446.409 229.631H445.019C446.081 220.239 447.717 208.995 456.09 203.148C457.235 202.348 458.515 201.605 459.906 201.364C461.365 201.102 462.782 201.43 464.094 202.083C466.436 203.252 468.402 205.215 469.877 207.356C472.808 211.63 473.924 217.076 473.357 222.189C472.627 228.896 469.466 235.033 465.596 240.458C465.336 240.117 465.074 239.777 464.811 239.436C468.996 238.313 473.677 237.421 477.823 239.162C479.363 239.82 480.694 240.888 481.669 242.251C482.645 243.613 483.228 245.217 483.355 246.888C483.423 247.771 483.298 248.658 482.991 249.488C482.683 250.319 482.199 251.073 481.572 251.698C481.293 251.333 481.012 250.969 480.73 250.606C485.319 247.328 492.205 248.934 495.613 253.196C496.605 254.412 497.281 255.854 497.581 257.395L496.727 256.909C500.291 255.806 504.346 256.563 507.328 258.799C508.863 259.966 510.082 261.5 510.872 263.261C511.663 265.021 512 266.951 511.853 268.875C511.717 271.08 510.96 273.202 509.669 274.995C509.147 275.708 507.935 275.016 508.471 274.293L508.474 274.299Z" fill="#252362"></path><path d="M101.776 213.843C102.131 210.478 100.391 207.093 97.5228 205.327C94.6548 203.56 91.0275 203.877 88.2713 205.757C86.7422 206.783 85.585 208.276 84.9716 210.013C84.7634 210.623 83.792 210.725 83.6321 210.013C82.5412 205.192 74.9299 203.435 71.9675 207.506C71.5994 208.011 70.6183 207.911 70.6723 207.155C71.1021 200.363 69.0649 193.64 65.3469 187.979C61.6502 182.352 56.2592 177.71 49.9972 175.18C44.0107 172.759 36.6577 171.974 30.7849 175.162C27.809 176.778 25.7429 179.405 25.155 182.778C24.783 184.915 24.9623 187.129 25.1974 189.274C25.4339 191.459 25.7461 193.641 26.1341 195.819C27.6631 204.453 30.3139 212.85 34.0191 220.796C34.4753 221.773 34.9481 222.743 35.4376 223.706C35.721 224.265 35.0926 225.106 34.4874 224.659C33.2857 223.789 31.8774 223.248 30.4023 223.09C28.9272 222.933 27.4366 223.164 26.0782 223.76C23.3606 224.969 21.6452 227.671 21.4679 230.614C21.3464 232.281 21.7371 233.945 22.5877 235.384C22.6476 235.49 22.6788 235.609 22.6785 235.731C22.6781 235.853 22.6462 235.972 22.5857 236.078C22.5253 236.183 22.4384 236.272 22.3337 236.333C22.229 236.395 22.1099 236.429 21.9883 236.431C18.8524 236.477 15.8554 238.672 14.9688 241.707C14.0822 244.743 15.3947 248.209 18.014 249.94C18.546 250.293 18.3995 251.29 17.6632 251.236C11.7905 250.82 6.84481 256.444 6.6405 262.067C6.56932 263.679 6.93848 265.279 7.70828 266.696C7.78326 266.829 7.81323 266.983 7.79379 267.135C7.77435 267.287 7.70652 267.428 7.60034 267.539C2.67007 272.028 0.98362 279.411 2.93028 285.717C3.48557 287.512 4.34982 289.196 5.48407 290.693C6.02374 291.407 4.81913 292.101 4.28524 291.395C-0.026329 285.69 -0.301949 277.509 2.98425 271.269C3.91308 269.499 5.1424 267.904 6.61736 266.555C6.58073 266.837 6.54414 267.118 6.50945 267.398C3.30035 261.562 6.64436 253.794 12.3726 250.941C14.0069 250.111 15.8339 249.734 17.6632 249.85C17.5457 250.282 17.43 250.714 17.3124 251.146C16.1001 250.331 15.1028 249.234 14.4054 247.95C13.708 246.666 13.3313 245.232 13.3074 243.771C13.2611 240.82 14.8493 238.12 17.2797 236.506C18.6773 235.578 20.3114 235.071 21.9883 235.044C21.7956 235.393 21.5874 235.74 21.3889 236.089C19.635 233.17 19.6542 229.392 21.2655 226.412C22.9231 223.347 26.2575 221.604 29.7036 221.66C31.6745 221.677 33.5913 222.307 35.189 223.461L34.2388 224.412C30.1056 216.259 27.0853 207.588 25.2591 198.631C24.8029 196.385 24.4232 194.124 24.12 191.848C23.8232 189.625 23.5283 187.37 23.5649 185.121C23.6285 181.303 24.9777 177.743 28.021 175.336C33.4794 171.016 41.3201 170.987 47.6978 172.904C54.4938 174.944 60.4956 179.303 64.8303 184.89C69.1651 190.477 71.9193 197.36 72.114 204.478C72.1371 205.373 72.114 206.266 72.0619 207.159L70.7667 206.808C73.6077 202.897 79.7599 203.084 83.0751 206.295C84.0182 207.203 84.6771 208.365 84.9716 209.641H83.6321C84.8617 206.04 88.2 203.381 91.9507 202.843C95.8825 202.278 99.6178 204.258 101.686 207.601C102.856 209.459 103.379 211.653 103.176 213.84C103.083 214.719 101.694 214.729 101.786 213.84L101.776 213.843Z" fill="#252362"></path><path d="M54.7795 201.025C55.4291 199.92 55.1053 198.609 54.394 197.608C53.5364 196.387 52.114 195.826 50.6973 195.562C49.1562 195.285 47.5851 195.214 46.0253 195.352C45.345 195.413 44.5567 195.585 44.0979 196.123C43.7664 196.509 43.485 197.22 43.8532 197.677L42.6967 197.984C43.1342 196.941 42.3767 195.946 41.4111 195.544C40.274 195.072 39.1349 195.71 38.5066 196.678C36.7488 199.378 38.5625 202.497 39.9984 204.883C40.4609 205.654 39.2602 206.352 38.7976 205.585C37.6951 203.751 36.583 201.828 36.4076 199.647C36.2766 198.036 36.8239 196.268 37.9919 195.126C39.1599 193.984 40.8676 193.651 42.3401 194.457C43.6893 195.192 44.6742 196.833 44.0362 198.354C43.8589 198.777 43.2441 199.126 42.8798 198.661C41.999 197.566 42.2303 196.073 43.1766 195.084C44.3196 193.89 46.1486 193.901 47.6751 193.926C50.6934 193.978 54.2283 194.387 55.8608 197.301C56.6317 198.669 56.7975 200.333 55.9841 201.718C55.5312 202.489 54.3304 201.791 54.7853 201.016L54.7795 201.025Z" fill="#252362"></path><path d="M40.4368 247.452C43.0523 245.822 46.3866 245.675 49.1871 246.914C51.9105 248.117 53.8129 250.751 54.2832 253.664C54.576 255.333 54.4012 257.05 53.7782 258.626C53.6703 258.363 53.5642 258.103 53.4582 257.841C58.0319 260.282 60.5202 265.748 59.8514 270.832C59.6656 272.287 59.2079 273.694 58.5022 274.98C58.0705 275.763 56.8697 275.063 57.3034 274.278C60.1829 269.071 57.9973 261.835 52.7644 259.042C52.6327 258.964 52.5302 258.845 52.4724 258.703C52.4147 258.561 52.4048 258.404 52.4444 258.255C53.6818 255.23 52.9224 251.565 50.4746 249.359C47.969 247.093 43.9813 246.877 41.1461 248.643C40.3751 249.118 39.687 247.916 40.4445 247.444L40.4368 247.452Z" fill="#252362"></path><path d="M438.286 250.028C441.52 248.036 445.485 246.262 449.342 247.328C452.073 248.1 454.081 250.709 454.32 253.509C454.396 254.257 454.292 255.011 454.018 255.71C453.743 256.409 453.306 257.033 452.741 257.528C452.518 257.143 452.293 256.757 452.067 256.371C455.234 255.145 458.93 253.752 462.324 254.936C464.926 255.845 467.284 258.215 467.064 261.137C466.998 262.024 465.609 262.032 465.676 261.137C465.869 258.649 463.718 256.738 461.476 256.122C458.452 255.303 455.22 256.626 452.435 257.704C451.793 257.953 451.244 256.981 451.76 256.547C453.551 255.025 453.063 252.464 451.841 250.736C450.107 248.279 446.975 248.036 444.267 248.778C442.384 249.29 440.641 250.202 438.988 251.22C438.217 251.691 437.525 250.489 438.286 250.02V250.028Z" fill="#252362"></path><path d="M97.2098 158.532C100.166 148.434 104.804 138.86 110.738 130.182C116.73 121.463 123.892 113.61 132.024 106.846C140.445 99.8382 149.747 93.9652 159.694 89.3772C170.63 84.3089 182.212 80.6986 194.036 78.4037C205.957 76.0894 218.119 75.073 230.256 75.1772C231.748 75.1913 233.24 75.2209 234.733 75.2659C235.624 75.2948 235.627 76.6853 234.733 76.6564C222.723 76.2899 210.67 76.9765 198.814 78.9494C187.011 80.9147 175.381 84.1296 164.362 88.816C154.239 93.1206 144.629 98.6517 135.964 105.438C127.744 111.878 120.321 119.384 114.127 127.798C107.959 136.164 102.996 145.427 99.6846 155.284C99.2812 156.482 98.9034 157.687 98.5513 158.898C98.3007 159.755 96.9593 159.39 97.2021 158.528L97.2098 158.532Z" fill="#252362"></path><path d="M223.456 74.3402C228.853 70.0973 236.241 71.0616 242.491 72.3943C249.175 73.8233 255.725 76.1993 261.561 79.7922C264.85 81.8046 267.869 84.2305 270.542 87.0109C270.656 87.1318 270.723 87.2894 270.732 87.4554C270.74 87.6215 270.688 87.7849 270.587 87.9165C270.485 88.0481 270.34 88.1391 270.178 88.1732C270.015 88.2072 269.846 88.1822 269.7 88.1024C261.039 83.3294 251.591 80.1546 241.807 78.7296C239.052 78.328 236.279 78.0705 233.498 77.9582C232.607 77.9215 232.602 76.5291 233.498 76.5677C246.433 77.0995 259.067 80.6351 270.402 86.8952C270.12 87.2577 269.839 87.6216 269.559 87.9867C265.028 83.2444 259.406 79.6669 253.36 77.1752C250.31 75.9271 247.17 74.9155 243.966 74.1492C240.837 73.3932 237.634 72.7645 234.411 72.6604C230.925 72.5485 227.247 73.104 224.429 75.316C223.734 75.8618 222.745 74.886 223.448 74.3325L223.456 74.3402Z" fill="#252362"></path><path d="M217.626 76.0187C227.197 84.2691 238.492 90.1608 249.904 95.4201C253.111 96.8973 256.338 98.3303 259.566 99.7613C260.229 100.056 259.851 101.046 259.215 101.057C252.274 101.209 245.352 100.277 238.698 98.2936C232.145 96.3091 225.929 93.1964 220.631 88.8436C219.168 87.6448 217.786 86.3512 216.493 84.9711C215.088 83.4706 213.58 81.8584 213.014 79.8314C212.773 78.9694 214.112 78.601 214.353 79.4631C214.839 81.1988 216.159 82.5719 217.354 83.8583C218.48 85.0717 219.676 86.2185 220.935 87.2931C223.431 89.4119 226.145 91.2595 229.03 92.8049C234.891 95.9716 241.352 97.9503 247.919 98.9455C251.654 99.5018 255.43 99.7431 259.205 99.6668C259.087 100.099 258.97 100.531 258.855 100.963C247.29 95.8347 235.628 90.6565 225.125 83.5073C222.172 81.5001 219.335 79.3283 216.626 77.0022C215.947 76.4237 216.934 75.4382 217.609 76.0187H217.626Z" fill="#252362"></path><path d="M198.796 78.2702C207.066 86.4184 215.385 94.6225 224.842 101.413C227.514 103.33 230.274 105.126 233.13 106.769C233.83 107.172 233.352 108.209 232.594 108.04C225.954 106.555 219.538 104.2 213.513 101.035C210.516 99.4611 207.626 97.6887 204.865 95.7295C202.28 93.8955 199.763 91.9206 197.581 89.6121C195.18 87.0664 193.208 84.0964 192.252 80.7041C192.009 79.842 193.351 79.4736 193.601 80.3338C195.288 86.3123 200.216 90.667 205.083 94.179C213.427 100.206 222.912 104.464 232.959 106.693L232.423 107.964C222.238 102.09 213.351 94.2889 204.905 86.1716C202.523 83.8843 200.168 81.5661 197.815 79.248C197.177 78.6193 198.16 77.6357 198.798 78.2644L198.796 78.2702Z" fill="#252362"></path><path d="M182.791 83.3866C188.785 91.5706 195.794 98.9584 203.651 105.372C205.89 107.201 208.193 108.943 210.563 110.599C210.687 110.679 210.783 110.798 210.836 110.936C210.889 111.075 210.897 111.227 210.859 111.37C210.82 111.513 210.737 111.641 210.622 111.734C210.506 111.827 210.364 111.882 210.216 111.889C198.008 112.853 187.087 105.741 178.963 97.2838C176.627 94.85 174.445 92.2695 172.331 89.6448C171.776 88.9543 172.753 87.965 173.314 88.6612C180.509 97.6175 189.015 106.423 200.444 109.532C203.62 110.413 206.925 110.739 210.212 110.496C210.096 110.928 209.979 111.36 209.861 111.792C201.402 105.871 193.736 98.89 187.049 91.0198C185.146 88.7775 183.326 86.4671 181.59 84.0885C181.062 83.3653 182.267 82.6711 182.791 83.3866Z" fill="#252362"></path><path d="M159.732 90.8057C162.733 95.2279 165.632 99.7446 168.791 104.055C171.586 107.864 174.959 111.079 179.137 113.331C181.363 114.526 183.735 115.426 186.193 116.008C186.843 116.162 186.872 117.212 186.193 117.349C179.787 118.645 173.611 115.732 168.317 112.392C163.573 109.397 158.768 106.028 155.243 101.592C153.316 99.1641 151.805 96.4255 151.063 93.3977C150.851 92.5279 152.19 92.1576 152.412 93.0274C153.682 98.2152 157.267 102.321 161.288 105.661C163.368 107.359 165.542 108.939 167.8 110.392C170.366 112.078 173.035 113.671 175.895 114.799C179.054 116.035 182.462 116.681 185.827 116V117.341C181.312 116.256 177.103 114.159 173.517 111.208C169.554 107.951 166.771 103.633 163.915 99.4302L158.531 91.5C158.028 90.7575 159.231 90.0613 159.732 90.798V90.8057Z" fill="#252362"></path><path d="M140.272 102.927C144.32 113.289 153.379 120.502 162.592 126.13C165.431 127.866 168.335 129.495 171.236 131.125C171.899 131.497 171.513 132.336 170.885 132.419C158.428 134.076 146.96 127.11 138.33 118.795C135.824 116.391 133.484 113.835 131.198 111.235C130.608 110.566 131.584 109.579 132.181 110.252C139.985 119.112 149 127.885 160.899 130.55C164.172 131.296 167.552 131.458 170.881 131.028C170.766 131.46 170.649 131.892 170.53 132.324C160.496 126.691 150.131 120.774 143.267 111.245C141.492 108.79 140.034 106.119 138.929 103.297C138.603 102.464 139.947 102.102 140.278 102.927H140.272Z" fill="#252362"></path><path d="M122.362 119.169C125.718 124.583 130.291 129.148 135.543 132.727C140.896 136.374 146.877 139.037 153.083 140.837C156.583 141.851 160.155 142.599 163.768 143.074C164.645 143.189 164.676 144.379 163.768 144.464L153.387 145.428C150.068 145.737 146.718 146.2 143.38 146.119C140.235 146.051 137.247 145.347 134.481 143.824C131.783 142.349 129.397 140.352 127.055 138.389C124.21 136 121.479 133.484 118.86 130.841C118.228 130.204 119.211 129.221 119.841 129.857C122.1 132.133 124.444 134.319 126.872 136.414C129.185 138.407 131.542 140.416 134.144 142.019C136.728 143.643 139.688 144.569 142.736 144.707C145.947 144.856 149.17 144.431 152.36 144.129L163.768 143.064V144.455C157.131 143.612 150.644 141.847 144.494 139.211C138.483 136.603 132.839 133.039 128.111 128.478C125.443 125.905 123.103 123.01 121.146 119.861C120.674 119.09 121.876 118.4 122.347 119.159L122.362 119.169Z" fill="#252362"></path><path d="M109.268 139.661C113.809 146.109 120.375 150.851 127.922 153.132C130.62 153.942 133.384 154.339 136.186 154.611C139.631 154.948 143.125 155.22 146.401 156.391C147.08 156.632 147.038 157.475 146.401 157.741C136.242 161.843 124.416 161.149 114.632 156.308C111.883 154.945 109.314 153.247 106.982 151.251C106.3 150.673 107.287 149.691 107.964 150.27C115.999 157.128 127.087 160.158 137.516 158.686C140.437 158.272 143.297 157.505 146.033 156.401V157.751C142.998 156.669 139.796 156.37 136.61 156.063C133.719 155.785 130.863 155.434 128.068 154.642C122.908 153.166 118.132 150.58 114.073 147.066C111.798 145.093 109.779 142.841 108.064 140.365C107.551 139.628 108.754 138.934 109.263 139.663L109.268 139.661Z" fill="#252362"></path><path d="M61.2709 151.005C67.6677 124.172 78.8093 98.6992 94.1695 75.791C102.056 64.0267 111.048 53.086 120.891 42.9147C126.176 37.4569 131.644 32.1649 137.241 27.0233C142.547 22.1498 148.05 17.4615 153.986 13.3671C165.618 5.3462 179.507 -0.445291 193.873 0.395565C195.601 0.499934 197.32 0.700168 199.025 0.995347C199.904 1.14578 199.532 2.4842 198.655 2.3357C184.485 -0.0865775 170.157 4.75413 158.234 12.2312C152.192 16.0227 146.62 20.5009 141.292 25.2336C135.786 30.1225 130.464 35.2351 125.264 40.45C115.228 50.5133 105.95 61.2785 97.8084 72.929C90.0433 84.0501 83.2713 95.8335 77.5708 108.143C71.8608 120.473 67.2625 133.288 63.8304 146.436C63.4026 148.077 62.9933 149.721 62.6027 151.37C62.3964 152.241 61.0608 151.871 61.2535 151.001L61.2709 151.005Z" fill="#252362"></path><path d="M197.002 0.803642C202.114 0.273286 207.133 1.70814 211.674 3.98385C216.286 6.29813 220.57 9.40313 224.537 12.6913C226.626 14.427 228.529 16.4173 229.461 19.0151C229.654 19.5339 229.086 19.989 228.606 19.8695C220.346 17.8161 212.584 14.1188 205.783 8.99812C203.873 7.55833 202.044 6.01308 200.306 4.36956C199.656 3.75242 200.639 2.77078 201.289 3.386C207.341 9.11942 214.486 13.5731 222.297 16.481C224.486 17.2912 226.718 17.9788 228.983 18.5407L228.13 19.395C227.337 17.1907 225.672 15.4762 223.922 13.995C222.083 12.4329 220.133 10.9845 218.163 9.59405C214.152 6.76098 209.823 4.19406 205.057 2.89999C202.442 2.17752 199.715 1.94476 197.016 2.21342C196.127 2.306 196.133 0.9155 197.016 0.822929L197.002 0.803642Z" fill="#252362"></path><path d="M186.815 1.36138C189.997 4.59945 192.327 8.54722 194.742 12.3542L202.673 24.8803C204.161 27.2293 205.649 29.5776 207.135 31.9253C207.492 32.4885 206.75 33.2907 206.185 32.8761C197.15 26.3363 187.875 19.5381 181.447 10.2501C179.665 7.67974 178.164 4.92462 176.972 2.03252C176.63 1.20709 177.974 0.846448 178.311 1.66416C182.513 11.8547 190.866 19.5536 199.424 26.157C201.877 28.047 204.379 29.8714 206.887 31.6862C206.569 32.0025 206.253 32.3207 205.936 32.637L198.127 20.3076C195.588 16.2981 193.115 12.2462 190.488 8.28879C189.097 6.18473 187.597 4.15394 185.834 2.35073C185.205 1.71237 186.187 0.72881 186.815 1.36717V1.36138Z" fill="#252362"></path><path d="M168.297 6.34537C170.417 11.5641 173.389 16.3855 176.665 20.9466C178.307 23.2338 180.032 25.4594 181.782 27.6638C183.459 29.7736 185.117 31.9066 186.9 33.9335C188.808 36.0935 190.98 38.1417 193.686 39.2448C193.461 39.6305 193.237 40.0162 193.011 40.4019C192.134 39.3297 190.475 38.9285 189.253 38.3769C187.94 37.7868 186.646 37.1581 185.371 36.4908C182.819 35.1594 180.345 33.6835 177.96 32.0705C173.137 28.8123 168.695 25.0214 164.719 20.7691C162.461 18.3445 160.361 15.7774 158.432 13.0838C157.91 12.3548 159.114 11.6605 159.631 12.3818C166.428 21.8218 175.305 29.5707 185.574 35.029C187.009 35.7927 188.469 36.5088 189.953 37.1774C191.302 37.7868 193.017 38.2246 194 39.4184C194.386 39.887 194.041 40.8725 193.326 40.5755C188.22 38.4946 184.907 33.7619 181.569 29.6C177.928 25.0505 174.35 20.4201 171.342 15.4193C169.654 12.634 168.188 9.72064 166.955 6.70601C166.62 5.87672 167.963 5.51608 168.304 6.33572L168.297 6.34537Z" fill="#252362"></path><path d="M149.104 19.9621C153.625 28.9516 160.728 36.3837 169.502 41.3036C171.975 42.6911 174.565 43.8597 177.242 44.7962C177.94 45.0412 177.886 46.2137 177.049 46.1617C166.437 45.5021 156.208 40.8523 148.624 33.4081C146.51 31.3302 144.615 29.0413 142.967 26.5771C142.468 25.8307 143.671 25.1345 144.166 25.8751C149.848 34.3608 158.673 40.5958 168.492 43.3248C171.291 44.1067 174.164 44.5927 177.065 44.775C177.004 45.2302 176.943 45.6853 176.882 46.1405C167.116 42.6902 158.606 36.3946 152.446 28.064C150.719 25.7358 149.199 23.2611 147.903 20.6679C147.504 19.8695 148.703 19.1656 149.104 19.9659V19.9621Z" fill="#252362"></path><path d="M135.891 32.2823C142.87 42.4285 150.073 52.8331 159.895 60.4587C162.616 62.5767 165.538 64.4216 168.62 65.9667C169.324 66.3177 168.834 67.4768 168.086 67.2376C161.454 65.1306 154.95 62.6352 148.61 59.7644C142.813 57.1396 136.813 54.2526 132.518 49.4022C130.348 46.951 128.664 44.0639 127.893 40.8645C127.685 39.9947 129.024 39.6225 129.242 40.4942C130.641 46.3223 135.099 50.7156 140.035 53.8013C142.734 55.4907 145.625 56.8754 148.516 58.2042C151.528 59.5863 154.579 60.8817 157.669 62.0903C161.223 63.4788 164.821 64.7498 168.462 65.903C168.285 66.3273 168.106 66.7497 167.927 67.174C162.362 64.3968 157.393 60.5667 152.978 56.2062C148.495 51.7705 144.559 46.8257 140.849 41.742C138.748 38.8607 136.72 35.9292 134.7 32.992C134.191 32.2515 135.394 31.5572 135.899 32.29L135.891 32.2823Z" fill="#252362"></path><path d="M120.047 46.531C125.516 54.7158 131.201 63.2073 139.574 68.7095C141.769 70.1645 144.132 71.3483 146.611 72.2349C146.769 72.2848 146.904 72.3891 146.992 72.5292C147.08 72.6693 147.116 72.8362 147.093 73.0002C147.07 73.1642 146.989 73.3147 146.866 73.4249C146.742 73.5351 146.584 73.598 146.418 73.6023C141.357 73.8973 136.159 74.1808 131.213 72.8308C128.736 72.1578 126.439 71.0219 124.247 69.7027C121.963 68.3276 119.739 66.8426 117.532 65.3461C115.011 63.6399 112.527 61.8811 110.081 60.0695C109.368 59.543 110.062 58.3338 110.781 58.868C115.032 62.0116 119.388 65.024 123.866 67.8359C125.986 69.1685 128.185 70.4221 130.583 71.1954C132.946 71.9668 135.411 72.2966 137.886 72.4066C140.73 72.5339 143.577 72.3757 146.418 72.2137L146.225 73.5791C136.723 70.2234 129.688 62.6538 123.929 54.6792C122.172 52.2415 120.5 49.7401 118.829 47.2407C118.332 46.4943 119.535 45.7981 120.03 46.5387L120.047 46.531Z" fill="#252362"></path><path d="M105.296 65.8724C114.062 75.2761 124.405 83.0731 135.857 88.911C139.048 90.5387 142.316 92.0051 145.659 93.3101C146.237 93.5338 146.401 94.5058 145.659 94.6601C138.721 96.0101 131.518 95.4431 124.747 93.4605C118.155 91.5319 112.007 88.2785 106.414 84.321C103.289 82.0916 100.3 79.6773 97.4629 77.0908C96.7999 76.4891 97.7848 75.5075 98.4459 76.1073C108.32 85.0481 120.26 92.5155 133.79 93.8154C137.626 94.2004 141.497 94.0302 145.283 93.3101V94.6601C133.142 89.9195 121.922 83.0904 112.132 74.4815C109.395 72.0746 106.784 69.5354 104.299 66.8636C103.69 66.2099 104.669 65.2244 105.282 65.8801L105.296 65.8724Z" fill="#252362"></path><path d="M92.0662 82.0564C97.5493 90.2177 104.979 96.8825 113.684 101.448C116.121 102.726 118.645 103.828 121.239 104.746C121.817 104.954 121.972 105.957 121.239 106.096C111.458 107.811 101.391 106.72 92.2031 102.949C89.6509 101.898 87.1863 100.647 84.8327 99.2052C84.0714 98.7385 84.7692 97.5351 85.5343 98.0056C93.7417 103.017 103.193 105.616 112.807 105.506C115.51 105.475 118.207 105.223 120.869 104.754V106.104C108.612 101.771 98.0863 93.5841 90.8655 82.768C90.3663 82.0217 91.5709 81.3255 92.0662 82.066V82.0564Z" fill="#252362"></path><path d="M80.6697 104.222C87.7075 110.084 95.9548 114.316 104.82 116.613C107.32 117.263 109.859 117.754 112.422 118.082C113.135 118.173 113.439 119.239 112.614 119.448C103.014 121.725 93.1649 119.604 83.9713 116.619C81.3308 115.764 78.7172 114.833 76.1056 113.892C75.271 113.591 75.6315 112.246 76.4757 112.542C85.4207 115.768 94.7165 119.083 104.348 119.025C107.002 119.016 109.647 118.705 112.231 118.098L112.423 119.465C100.367 117.957 89.0017 113.002 79.6886 105.194C79.0025 104.615 79.9893 103.639 80.6716 104.21L80.6697 104.222Z" fill="#252362"></path><path d="M73.8916 120.762C80.9016 126.266 89.2261 129.844 98.0418 131.141C100.534 131.507 103.051 131.682 105.57 131.666C106.247 131.666 106.534 132.63 105.921 132.962C95.8272 138.479 83.914 138.815 72.847 136.626C69.537 135.951 66.2659 135.097 63.0481 134.069C62.1981 133.803 62.5605 132.458 63.4163 132.728C74.1268 136.09 85.6795 137.978 96.7273 135.097C99.6838 134.336 102.535 133.213 105.217 131.755C105.335 132.187 105.451 132.619 105.568 133.051C93.7124 133.102 82.1929 129.11 72.9087 121.732C72.209 121.176 73.1977 120.199 73.8916 120.748V120.762Z" fill="#252362"></path><path d="M450.403 210.127C444.81 200.081 438.745 190.319 432.207 180.844C425.669 171.368 418.688 162.224 411.264 153.412C403.881 144.645 396.092 136.242 387.898 128.203C379.704 120.165 371.152 112.542 362.241 105.333C353.295 98.0992 344.007 91.3177 334.378 84.9881C333.206 84.2167 332.031 83.4543 330.851 82.7009C330.099 82.2187 330.795 81.0153 331.553 81.4994C341.28 87.7299 350.687 94.4285 359.774 101.595C368.799 108.709 377.472 116.248 385.793 124.213C394.145 132.213 402.102 140.602 409.664 149.381C417.162 158.083 424.235 167.128 430.885 176.516C437.566 185.954 443.787 195.701 449.546 205.757C450.243 206.973 450.933 208.195 451.614 209.421C452.049 210.193 450.843 210.904 450.413 210.121L450.403 210.127Z" fill="#252362"></path><path d="M329.372 82.9077C318.925 79.6729 307.993 78.295 297.071 78.8365C293.961 78.9919 290.861 79.3041 287.782 79.7718L288.089 78.6147C294.162 85.6848 303.87 87.5343 312.76 87.1544C315.718 87.0271 318.663 86.6896 321.595 86.273C321.969 86.219 322.337 86.3656 322.45 86.759C322.543 87.083 322.335 87.5613 321.965 87.6134C312.202 88.9981 301.619 89.5651 292.811 84.3348C290.664 83.0747 288.736 81.473 287.104 79.5925C286.803 79.2415 286.85 78.5163 287.41 78.4353C298.405 76.7552 309.609 77.0163 320.513 79.2068C323.627 79.8357 326.706 80.6223 329.74 81.5635C330.592 81.8277 330.227 83.17 329.37 82.9135L329.372 82.9077Z" fill="#252362"></path><path d="M350.422 96.4335C341.159 97.0774 332.179 99.8974 324.209 104.665C321.954 106.012 319.793 107.511 317.741 109.152L317.25 107.966C327.719 106.929 338.119 105.281 348.396 103.031C351.303 102.388 354.198 101.704 357.081 100.977C357.948 100.757 358.318 102.098 357.451 102.327C347.168 104.932 336.743 106.936 326.227 108.329C323.241 108.724 320.249 109.069 317.252 109.366C316.673 109.424 316.299 108.547 316.76 108.18C326.373 100.456 338.126 95.8737 350.428 95.0527C351.32 94.9929 351.316 96.3834 350.428 96.4431L350.422 96.4335Z" fill="#252362"></path><path d="M370.176 112.123C362.466 113.088 354.757 114.017 347.047 115.045C343.663 115.498 340.261 116.064 337.025 117.209C333.941 118.308 331.337 120.137 328.637 121.953C325.888 123.801 322.822 125.554 319.385 125.232V123.847C333.648 125.245 348.533 126.657 362.32 121.726C365.846 120.474 369.195 118.768 372.282 116.652C373.021 116.143 373.716 117.346 372.984 117.851C367.423 121.691 360.969 124.054 354.36 125.313C347.128 126.69 339.729 126.771 332.401 126.347C328.055 126.096 323.728 125.672 319.385 125.247C318.504 125.163 318.493 123.776 319.385 123.857C322.427 124.135 325.102 122.636 327.555 121.012C330.238 119.234 332.784 117.377 335.806 116.191C338.989 114.943 342.371 114.316 345.742 113.838C349.477 113.31 353.226 112.874 356.969 112.403L370.176 110.733C371.06 110.621 371.053 112.012 370.176 112.123Z" fill="#252362"></path><path d="M386.492 127.583C372.542 128.213 358.671 130.03 345.028 133.013C341.174 133.858 337.335 134.795 333.512 135.825V134.475C341.029 137.463 349.091 138.791 357.163 138.882C361.222 138.919 365.278 138.685 369.306 138.18C373.118 137.711 376.946 137.073 380.652 136.059C384.7 134.948 388.637 133.285 391.866 130.562C392.546 129.984 393.533 130.967 392.849 131.546C386.874 136.587 378.902 138.236 371.362 139.304C363.154 140.462 354.787 140.683 346.584 139.426C341.983 138.736 337.475 137.527 333.146 135.821C332.547 135.584 332.429 134.664 333.146 134.471C346.751 130.807 360.642 128.306 374.67 126.996C378.604 126.63 382.546 126.357 386.496 126.179C387.39 126.138 387.389 127.529 386.496 127.569L386.492 127.583Z" fill="#252362"></path><path d="M404.406 149.387C401.879 147.459 398.727 146.909 395.622 146.782C392.062 146.637 388.472 146.82 384.914 146.959C377.262 147.256 369.628 147.83 362.011 148.679C357.682 149.162 353.363 149.734 349.055 150.398V149.048C364.083 155.24 380.271 158.109 396.511 157.458C401.07 157.278 405.614 156.817 410.116 156.077C410.991 155.933 411.367 157.273 410.484 157.418C402.398 158.752 394.191 159.208 386.007 158.777C377.822 158.343 369.708 157.034 361.802 154.872C357.342 153.65 352.961 152.152 348.685 150.388C348.141 150.164 347.914 149.165 348.685 149.038C356.429 147.848 364.208 146.939 372.023 146.313C375.933 146.001 379.852 145.762 383.781 145.596C387.502 145.438 391.247 145.26 394.973 145.351C398.51 145.438 402.226 145.962 405.117 148.166C405.818 148.703 405.117 149.902 404.415 149.368L404.406 149.387Z" fill="#252362"></path><path d="M426.199 173.459C413.431 168.822 399.84 166.886 386.286 167.774C381.753 168.071 377.305 168.835 372.812 169.467C367.886 170.16 362.77 170.526 357.998 168.827L358.534 167.556C371.725 174.23 386.464 177.24 401.214 176.273C406.439 175.928 411.622 175.054 416.857 175.768C422.402 176.524 427.978 178.661 433.625 177.696C434.5 177.546 434.874 178.886 433.993 179.046C428.889 179.922 423.894 178.451 418.911 177.517C416.315 177.018 413.671 176.807 411.028 176.89C408.33 176.981 405.632 177.309 402.933 177.54C387.377 178.866 371.759 175.828 357.832 168.767C357.138 168.414 357.62 167.224 358.368 167.496C362.608 169.01 367.155 168.821 371.565 168.254C376.054 167.676 380.491 166.841 385.008 166.486C393.991 165.789 403.027 166.314 411.869 168.048C416.867 169.025 421.781 170.389 426.569 172.127C427.403 172.43 427.043 173.774 426.199 173.477V173.459Z" fill="#252362"></path><path d="M435.831 192.227L410.015 189.226C401.65 188.25 393.228 187.525 385.152 184.983C380.719 183.585 376.423 181.824 372.129 180.065L372.913 179.043C377.373 185.006 383.749 189.34 390.645 192.019C398.547 195.085 407.059 195.986 415.477 195.656C420.643 195.463 425.777 194.804 430.868 193.92C431.743 193.77 432.119 195.11 431.238 195.27C422.013 196.861 412.557 197.764 403.229 196.568C395.365 195.561 387.636 193.043 381.035 188.576C377.458 186.174 374.307 183.191 371.712 179.749C371.363 179.284 371.951 178.505 372.497 178.729C376.286 180.272 380.077 181.832 383.959 183.138C387.853 184.452 391.85 185.44 395.909 186.09C400.13 186.765 404.389 187.193 408.629 187.687L421.364 189.172L435.819 190.856C436.696 190.958 436.706 192.349 435.819 192.246L435.831 192.227Z" fill="#252362"></path><path d="M18.7388 360.63C20.8243 355.259 25.9685 351.477 31.6524 350.754C37.5695 349.998 43.1955 353.08 46.3005 358.083C48.0352 360.868 48.9198 364.181 48.6346 367.458L47.5899 366.858C54.0814 362.873 63.1189 366.385 66.6384 372.769C67.6547 374.588 68.1658 376.646 68.1186 378.73L67.2378 378.059C74.8336 376.676 81.6932 383.821 81.9997 391.135C82.0878 393.212 81.573 395.27 80.5175 397.061L79.5673 396.11C84.5785 393.025 90.7616 395.163 94.6954 399.003C96.7519 401.017 98.3439 403.574 99.0551 406.374C100.019 410.144 99.7818 414.112 98.9299 417.876C97.9353 422.277 96.1236 426.45 94.2154 430.522C93.9533 430.18 93.6912 429.841 93.431 429.5C99.1901 427.525 105.381 425.494 111.525 426.769C116.012 427.7 119.994 430.992 121.565 435.335C121.996 436.485 122.188 437.711 122.132 438.937C122.075 440.164 121.769 441.366 121.234 442.471C120.943 443.063 119.85 442.809 119.938 442.12C120.488 437.925 125.624 435.937 129.244 437.607C130.127 438.016 130.875 438.668 131.401 439.488C132.145 440.645 132.301 442.242 133.328 443.219C134.355 444.197 136.084 444.321 137.416 444.722C138.76 445.129 140.059 445.672 141.292 446.344C146.151 448.992 149.936 453.807 150.125 459.487C150.295 464.538 147.62 469.932 142.685 471.728C137.692 473.54 131.314 471.228 129.417 466.092C129.107 465.251 130.448 464.889 130.767 465.722C132.251 469.735 137.117 471.602 141.105 470.736C145.7 469.739 148.47 465.205 148.73 460.729C149.029 455.616 146.107 451.065 141.916 448.33C140.844 447.623 139.7 447.031 138.505 446.562C137.281 446.085 136.017 445.823 134.76 445.462C133.503 445.102 132.414 444.498 131.703 443.379C131.04 442.328 130.838 441.032 130.103 440.024C127.929 437.042 121.833 438.359 121.342 442.118L120.048 441.767C121.887 438.032 119.967 433.796 117.13 431.16C113.353 427.66 108.071 427.289 103.216 428.161C100.003 428.74 96.8945 429.775 93.8126 430.832C93.1882 431.048 92.793 430.315 93.0282 429.812C96.0773 423.305 99.1747 416.005 98.1069 408.654C97.3244 403.254 93.6006 398.388 88.3755 396.598C85.6656 395.669 82.7571 395.777 80.2804 397.294C79.6849 397.661 78.9775 396.936 79.3283 396.344C82.8091 390.479 78.8214 382.522 72.9313 380.014C71.2598 379.291 69.4136 379.072 67.6194 379.384C67.1934 379.461 66.727 379.191 66.7405 378.715C66.9333 371.864 60.0949 366.462 53.5764 366.538C51.7145 366.551 49.8914 367.072 48.3031 368.044C47.879 368.302 47.2103 367.974 47.2565 367.442C47.721 362.098 44.8666 356.766 40.3314 353.959C35.7539 351.13 30.0218 351.549 25.5676 354.422C23.1371 355.988 21.1481 358.279 20.0977 360.979C19.7777 361.805 18.4324 361.446 18.7485 360.609L18.7388 360.63Z" fill="#252362"></path><path d="M69.7807 440.622C72.4173 436.495 69.7016 430.773 65.5404 428.858C64.355 428.302 63.03 428.116 61.7376 428.323C61.3039 428.397 60.851 428.142 60.8568 427.654C60.9108 423.344 56.1443 420.326 52.1527 420.866C50.9787 421.019 49.8801 421.529 49.0053 422.328C48.8959 422.435 48.7545 422.504 48.6026 422.524C48.4506 422.543 48.2963 422.513 48.163 422.437L43.7936 419.338C43.0689 418.825 43.7628 417.62 44.4952 418.139L48.8723 421.232L48.03 421.342C51.8732 417.797 58.357 419.516 61.0707 423.631C61.859 424.822 62.2714 426.222 62.2542 427.65L61.3753 426.979C67.0592 426.015 72.1108 431.394 72.2169 436.877C72.2511 438.45 71.8207 439.998 70.9795 441.328C70.4996 442.078 69.2969 441.382 69.7807 440.626V440.622Z" fill="#252362"></path><path d="M27.7206 386.036C27.9943 382.886 25.9512 379.671 22.8636 378.798C19.905 377.959 16.5591 379.409 15.0634 382.076C14.861 382.435 14.2559 382.568 13.9725 382.217C12.712 380.661 10.1177 380.364 8.65677 381.831C7.19581 383.299 7.53504 385.903 9.10201 387.145C9.80166 387.7 8.81289 388.678 8.11902 388.126C5.95649 386.412 5.72905 382.813 7.67572 380.848C9.62238 378.883 13.2208 379.085 14.9535 381.234L13.8627 381.374C15.2677 378.867 18.0046 377.299 20.8533 377.184C23.8157 377.066 26.5468 378.744 28.0155 381.284C28.8571 382.721 29.2392 384.381 29.1103 386.041C29.0332 386.927 27.6416 386.934 27.7206 386.041V386.036Z" fill="#252362"></path><path d="M228.032 473.621H312.334V475.33H228.032V473.621Z" fill="#252362"></path><path d="M424.43 456.938H508.732V458.646H424.43V456.938Z" fill="#252362"></path><path d="M337.348 473.621H354.949V475.33H337.348V473.621Z" fill="#252362"></path><path d="M429.297 373.097C416.812 398.716 384.792 405.431 318.655 417.895C259.87 428.971 216.394 436.583 166.846 417.381C147.459 409.859 127.963 402.309 112.301 382.88C69.9757 330.385 101.803 248.504 109.217 229.434C109.217 229.434 122.692 194.766 184.349 134.687C188.397 130.747 195.104 125.004 204.409 123.968C211.201 123.21 217.66 125.125 224.227 128.911C227.86 131.002 231.528 133.657 235.296 136.747C255.952 153.659 263.665 170.217 274.919 186.697C274.919 186.697 292.073 211.811 322.778 236.647C366.006 271.604 390.146 261.172 412.402 285.065C413.579 286.329 414.747 287.686 415.917 289.154C433.516 311.275 441.951 347.129 429.297 373.097Z" fill="white"></path><path d="M231.213 430.171C233.884 430.171 236.586 430.121 239.322 430.021C262.944 429.163 287.181 424.873 318.844 418.906C353.094 412.451 376.859 407.746 394.442 401.397C413.331 394.577 424.032 386.248 430.22 373.546C436.299 361.072 437.93 345.841 434.964 329.498C432.213 314.397 425.735 299.846 416.721 288.52C415.565 287.056 414.368 285.675 413.192 284.412C413.169 284.383 413.144 284.356 413.119 284.329C402.454 272.879 391.173 269.136 378.111 264.8C363.099 259.817 346.084 254.17 323.418 235.839C293.194 211.404 275.939 186.362 275.763 186.113C273.294 182.497 270.945 178.805 268.684 175.238C260.568 162.455 252.174 149.239 235.939 135.949C231.859 132.601 228.193 130.007 224.732 128.015C217.531 123.87 210.845 122.21 204.288 122.941C194.805 123.998 187.953 129.729 183.622 133.947C151.711 165.041 132.932 189.208 122.803 204.006C111.786 220.096 108.387 228.692 108.248 229.058C104.54 238.601 94.6867 263.952 91.0786 293.495C86.5242 330.784 93.3915 361.076 111.494 383.527C127.337 403.169 147.229 410.882 166.463 418.339C187.161 426.358 207.923 430.171 231.213 430.171ZM411.588 285.721C411.613 285.752 411.638 285.781 411.665 285.808C412.799 287.021 413.963 288.377 415.108 289.814C431.234 310.064 441.361 345.991 428.368 372.654C416.255 397.509 385.921 404.178 318.463 416.889C262.056 427.519 217.5 435.916 167.216 416.426C148.226 409.065 128.589 401.455 113.099 382.24C93.9601 358.504 77.9165 312.793 110.169 229.816C110.302 229.471 124.334 194.604 185.06 135.434C189.171 131.428 195.661 125.984 204.515 125C210.706 124.31 216.802 125.839 223.704 129.822C227.066 131.75 230.643 134.288 234.635 137.563C250.613 150.643 258.92 163.718 266.945 176.362C269.22 179.945 271.571 183.65 274.061 187.295C274.235 187.548 291.651 212.818 322.123 237.461C345.08 256.027 363.035 261.987 377.462 266.775C390.765 271.172 401.275 274.661 411.588 285.712V285.721Z" fill="#252362"></path><path d="M371.659 311.304C317.114 316.969 289.321 306.676 246.61 292.252C203.899 277.828 187.439 265.478 191.547 250.545C195.654 235.612 192.576 236.642 183.313 225.828C174.05 215.015 185.886 191.328 187.43 180C188.654 171.009 213.866 140.939 224.22 128.91C227.853 131.001 231.521 133.656 235.289 136.746C255.945 153.658 263.658 170.216 274.912 186.696C274.912 186.696 292.066 211.81 322.771 236.646C365.999 271.603 390.139 261.171 412.395 285.064C412.678 285.502 425.636 305.712 371.659 311.304Z" fill="white"></path><path d="M343.322 313.895C352.824 313.866 362.317 313.343 371.765 312.331C395.599 309.856 409.756 304.261 413.838 295.699C416.594 289.923 413.612 285.049 413.26 284.513L413.238 284.482C413.202 284.428 413.16 284.377 413.115 284.33C402.451 272.88 391.17 269.136 378.108 264.801C363.095 259.818 346.08 254.171 323.414 235.84C293.195 211.405 275.939 186.362 275.763 186.114C273.294 182.497 270.945 178.806 268.684 175.238C260.568 162.456 252.174 149.239 235.94 135.95C231.859 132.602 228.193 130.008 224.732 128.015C224.524 127.896 224.281 127.853 224.044 127.894C223.808 127.934 223.593 128.056 223.437 128.237C210.138 143.699 187.62 170.967 186.408 179.861C185.991 182.92 184.762 187.049 183.459 191.433C179.897 203.39 175.466 218.263 182.53 226.509C184.237 228.502 185.71 230.069 187.011 231.452C192.6 237.396 193.757 238.632 190.553 250.279C188.352 258.257 191.737 265.501 200.896 272.425C209.737 279.107 224.582 285.925 246.28 293.24L250.815 294.783C282.642 305.53 307.355 313.895 343.322 313.895ZM411.573 285.695C411.907 286.237 414.171 290.214 411.98 294.811C409.399 300.211 400.29 307.297 371.553 310.281C361.054 311.37 351.573 311.875 342.804 311.875C307.822 311.875 284.074 303.839 251.476 292.81L246.937 291.276C204.901 277.086 188.634 264.986 192.539 250.819C195.929 238.522 194.616 236.521 188.512 230.029C187.227 228.662 185.77 227.113 184.095 225.157C177.761 217.765 182.015 203.486 185.434 192.013C186.758 187.56 188.011 183.356 188.451 180.141C189.264 174.162 202.702 155.538 224.439 130.233C227.586 132.108 230.93 134.507 234.635 137.544C250.613 150.624 258.92 163.7 266.946 176.343C269.22 179.927 271.571 183.631 274.062 187.276C274.235 187.529 291.651 212.799 322.123 237.442C345.08 256.009 363.036 261.968 377.464 266.757C390.757 271.169 401.264 274.662 411.573 285.695Z" fill="#252362"></path><path d="M187.489 231.441C184.616 227.293 181.534 223.294 178.255 219.459C176.649 217.515 174.953 215.652 173.282 213.766C171.58 211.905 169.842 210.078 168.097 208.26C166.313 206.476 164.524 204.694 162.685 202.962C160.819 201.259 158.959 199.544 156.999 197.948C155.039 196.351 153.035 194.783 150.94 193.344C148.82 191.942 146.634 190.586 144.236 189.72C144.217 189.713 144.196 189.713 144.177 189.721C144.158 189.729 144.143 189.743 144.135 189.762C144.127 189.781 144.126 189.802 144.133 189.821C144.14 189.84 144.154 189.856 144.173 189.865C146.41 190.991 148.451 192.472 150.429 194.01C152.406 195.547 154.307 197.197 156.169 198.881C159.887 202.254 163.46 205.785 166.962 209.382C170.464 212.979 173.931 216.616 177.331 220.315C180.731 224.014 184.077 227.758 187.371 231.555C187.379 231.562 187.387 231.568 187.397 231.572C187.406 231.576 187.417 231.578 187.427 231.578C187.437 231.578 187.448 231.576 187.457 231.572C187.467 231.568 187.476 231.562 187.483 231.555C187.497 231.542 187.507 231.524 187.509 231.504C187.512 231.485 187.507 231.465 187.496 231.449L187.489 231.441Z" fill="#252362"></path><path d="M200.862 225.768C197.304 221.756 193.91 217.668 190.647 213.477L189.444 211.89C189.043 211.363 188.625 210.85 188.228 210.318L185.873 207.117C184.342 204.955 182.773 202.822 181.353 200.589C179.821 198.429 178.489 196.141 177.055 193.916L175.041 190.496C174.707 189.918 174.364 189.357 174.038 188.78L173.084 187.044L171.176 183.552L169.386 179.991C169.083 179.397 168.757 178.813 168.474 178.211C168.191 177.61 167.929 176.996 167.641 176.395L166.786 174.58L165.897 172.771V172.759C165.888 172.742 165.872 172.729 165.854 172.723C165.835 172.717 165.815 172.717 165.797 172.725C165.779 172.733 165.765 172.747 165.756 172.765C165.748 172.782 165.747 172.802 165.753 172.821L167.14 176.587L167.834 178.472C168.075 179.095 168.358 179.702 168.619 180.317L170.211 184.001C170.775 185.214 171.388 186.404 171.974 187.607L172.863 189.407C173.167 190.001 173.504 190.579 173.826 191.167L175.771 194.679C177.178 196.955 178.516 199.275 180.036 201.48C183.009 205.931 186.234 210.208 189.695 214.291C193.13 218.396 196.83 222.272 200.771 225.893C200.786 225.908 200.806 225.916 200.827 225.916C200.848 225.916 200.868 225.908 200.883 225.893C200.898 225.878 200.906 225.858 200.906 225.837C200.906 225.816 200.898 225.796 200.883 225.781L200.862 225.768Z" fill="#252362"></path><path d="M208.095 199.561C208.234 194.881 207.81 190.212 207.095 185.589C206.757 183.275 206.268 180.98 205.745 178.69C205.188 176.411 204.545 174.15 203.818 171.908C203.047 169.684 202.211 167.472 201.23 165.318C200.232 163.164 199.086 161.082 197.799 159.088C196.501 157.087 194.985 155.236 193.279 153.569C191.554 151.933 189.617 150.483 187.46 149.552C187.441 149.543 187.419 149.543 187.399 149.55C187.379 149.558 187.363 149.573 187.354 149.592C187.347 149.61 187.347 149.63 187.353 149.648C187.359 149.667 187.371 149.682 187.387 149.692C189.357 150.9 191.136 152.395 192.664 154.128C194.199 155.856 195.562 157.729 196.733 159.721C197.9 161.718 198.946 163.784 199.867 165.906C200.78 168.027 201.584 170.203 202.317 172.398C203.77 176.796 204.954 181.28 205.859 185.824C206.79 190.364 207.482 194.949 207.933 199.561C207.934 199.572 207.937 199.582 207.941 199.591C207.946 199.601 207.953 199.609 207.961 199.616C207.969 199.622 207.978 199.627 207.989 199.63C207.999 199.633 208.009 199.634 208.02 199.633C208.039 199.631 208.056 199.622 208.069 199.608C208.083 199.595 208.09 199.577 208.091 199.558L208.095 199.561Z" fill="#252362"></path><path d="M190.426 258.859C188.45 256.738 186.207 254.882 183.911 253.108C181.588 251.364 179.167 249.754 176.66 248.287C174.15 246.81 171.565 245.465 168.914 244.258C166.254 243.068 163.529 242.027 160.767 241.085L158.68 240.434L156.573 239.843C155.873 239.639 155.162 239.473 154.453 239.3C153.744 239.126 153.042 238.931 152.321 238.808L150.176 238.389C149.459 238.25 148.736 238.152 148.019 238.032C146.585 237.77 145.128 237.647 143.685 237.485C137.904 236.921 132.076 237.088 126.338 237.982C126.317 237.986 126.299 237.998 126.286 238.015C126.274 238.033 126.269 238.054 126.272 238.075C126.276 238.094 126.286 238.111 126.301 238.124C126.317 238.136 126.336 238.142 126.355 238.14C132.088 237.792 137.841 237.986 143.538 238.719C146.379 239.118 149.208 239.606 152.001 240.262C154.794 240.918 157.566 241.67 160.289 242.594C163.012 243.517 165.701 244.501 168.338 245.631C170.974 246.761 173.555 248.022 176.08 249.386C178.605 250.749 181.072 252.221 183.46 253.822C185.858 255.398 188.155 257.124 190.337 258.988C190.352 259.003 190.372 259.011 190.394 259.011C190.415 259.011 190.435 259.002 190.45 258.987C190.465 258.972 190.473 258.952 190.473 258.931C190.472 258.91 190.464 258.889 190.449 258.874L190.426 258.859Z" fill="#252362"></path><path d="M279.909 189.269C279.909 189.269 290.35 187.726 303.73 204.717C317.11 221.707 334.092 239.217 334.092 239.217L379.893 257.239L374.496 271.142C374.496 271.142 330.486 267.538 322.252 259.299C314.018 251.06 284.685 213.978 284.685 213.978L279.909 189.269Z" fill="white"></path><path d="M374.499 271.936C374.66 271.936 374.816 271.888 374.949 271.797C375.081 271.707 375.183 271.579 375.241 271.429L380.638 257.526C380.714 257.33 380.709 257.111 380.624 256.918C380.54 256.725 380.383 256.574 380.187 256.496L334.548 238.537C333.006 236.94 316.976 220.247 304.359 204.224C290.848 187.06 280.242 188.41 279.797 188.481C279.691 188.497 279.589 188.534 279.497 188.59C279.406 188.647 279.327 188.721 279.265 188.808C279.203 188.896 279.159 188.995 279.136 189.1C279.113 189.205 279.112 189.313 279.132 189.419L283.912 214.135C283.937 214.26 283.991 214.378 284.07 214.478C284.363 214.851 313.526 251.684 321.696 259.861C330.042 268.21 372.63 271.786 374.438 271.934L374.499 271.936ZM378.861 257.69L373.971 270.297C368.721 269.83 330.242 266.168 322.816 258.737C314.976 250.892 287.493 216.247 285.425 213.643L280.859 190.04C283.557 190.136 292.363 191.582 303.095 205.212C316.348 222.04 333.342 239.598 333.511 239.772C333.589 239.856 333.685 239.921 333.791 239.964L378.861 257.69Z" fill="#252362"></path><path d="M276.096 187.978C276.096 187.978 290.801 179.408 316.822 220.378L307.848 244.871C307.848 244.871 278.001 215.53 277.482 209.862C276.964 204.194 276.096 187.978 276.096 187.978Z" fill="#E0E6FF"></path><path d="M308.142 246.187L317.627 220.294L317.434 219.992C291.337 178.898 276.356 186.984 275.731 187.349L275.346 187.572L275.371 188.016C275.371 188.178 276.252 204.318 276.762 209.93C277.287 215.695 304.264 242.374 307.339 245.398L308.142 246.187ZM316.016 220.468L307.554 243.566C295.651 231.802 278.563 213.674 278.21 209.797C277.753 204.769 277.001 191.217 276.849 188.438C277.938 188.033 281.282 187.215 286.625 189.572C292.787 192.293 302.879 199.865 316.016 220.468Z" fill="#252362"></path><path d="M377.997 277.582C379.347 278.203 398.592 281.867 398.303 280.405C398.013 278.944 396.628 277.705 391.156 274.98C397.306 275.686 401.65 276.408 404.885 277.202C405.848 277.437 408.369 278.089 410.513 276.849C410.705 276.733 412.166 275.885 412.054 275.025C411.946 274.222 410.551 273.843 407.814 272.822C409.09 273.112 410.937 273.306 412.71 272.614C413.542 272.288 413.866 271.956 414.026 271.594C414.342 270.846 413.928 269.914 413.448 269.374C413.062 268.938 410.673 268.076 410.673 268.076C411.07 267.903 412.353 267.283 412.577 266.18C412.872 264.728 411.282 262.674 408.348 262.078C408.51 261.619 408.712 260.83 408.348 260.177C407.685 258.967 405.524 258.991 404.698 258.998C386.58 259.191 383.099 259.012 379.859 258.213C378.938 257.988 366.502 252.117 366.502 252.117L361.148 261.536C361.148 261.536 367.561 272.809 377.997 277.582Z" fill="white"></path><path d="M396.901 281.289C397.75 281.289 398.349 281.208 398.592 281.015C398.701 280.933 398.785 280.821 398.833 280.693C398.881 280.565 398.893 280.426 398.866 280.292C398.582 278.85 397.416 277.692 394.24 275.935C398.603 276.501 402.059 277.102 404.742 277.762L404.79 277.773C405.8 278.022 408.487 278.682 410.794 277.347C411.536 276.919 412.762 276.036 412.616 274.946C412.535 274.342 412.114 273.951 411.33 273.567C411.873 273.487 412.405 273.347 412.916 273.149C413.809 272.802 414.314 272.391 414.556 271.816C414.963 270.852 414.508 269.695 413.876 268.989C413.598 268.676 412.762 268.283 411.997 267.969C412.568 267.568 412.974 266.973 413.14 266.295C413.333 265.367 412.947 264.316 412.091 263.411C411.255 262.567 410.209 261.961 409.061 261.656C409.207 261.064 409.134 260.44 408.855 259.897C408.026 258.385 405.611 258.411 404.694 258.422C386.576 258.615 383.142 258.422 379.998 257.651C379.337 257.481 371.518 253.844 366.749 251.591C366.618 251.53 366.468 251.52 366.33 251.564C366.192 251.608 366.075 251.702 366.004 251.828L360.649 261.247C360.598 261.335 360.572 261.435 360.572 261.537C360.572 261.638 360.598 261.738 360.649 261.826C360.915 262.293 367.268 273.316 377.753 278.113C378.668 278.518 391.983 281.289 396.901 281.289ZM397.632 280.155C395.017 280.487 379.574 277.669 378.237 277.058C368.999 272.83 362.885 263.28 361.821 261.527L366.746 252.868C369.251 254.054 378.853 258.561 379.728 258.775C382.982 259.577 386.459 259.768 404.709 259.577C405.363 259.577 407.352 259.55 407.849 260.457C408.042 260.792 408.021 261.288 407.809 261.888C407.78 261.965 407.769 262.048 407.776 262.13C407.783 262.213 407.808 262.292 407.849 262.364C407.89 262.435 407.945 262.497 408.012 262.545C408.078 262.594 408.154 262.627 408.235 262.644C409.468 262.894 410.547 263.45 411.255 264.206C411.833 264.827 412.124 265.521 412.012 266.069C411.848 266.875 410.769 267.407 410.441 267.552C410.337 267.599 410.248 267.676 410.188 267.774C410.127 267.871 410.097 267.985 410.101 268.099C410.105 268.214 410.143 268.325 410.21 268.418C410.277 268.512 410.37 268.582 410.478 268.622C411.534 269.008 412.808 269.552 413.022 269.764C413.408 270.188 413.695 270.898 413.496 271.371C413.421 271.55 413.24 271.791 412.5 272.08C410.871 272.717 409.121 272.532 407.942 272.273C407.802 272.248 407.658 272.276 407.537 272.35C407.416 272.424 407.327 272.541 407.286 272.677C407.246 272.813 407.256 272.959 407.316 273.088C407.376 273.216 407.482 273.318 407.612 273.374L408.734 273.789C410.121 274.296 411.432 274.774 411.476 275.114C411.507 275.353 411.047 275.885 410.22 276.362C408.312 277.467 406.037 276.906 405.068 276.666L405.02 276.655C401.624 275.822 397.239 275.112 391.216 274.42C391.081 274.403 390.945 274.434 390.831 274.509C390.718 274.584 390.636 274.698 390.599 274.828C390.561 274.958 390.57 275.098 390.624 275.222C390.679 275.346 390.775 275.447 390.896 275.507C395.789 277.922 397.223 279.096 397.632 280.155Z" fill="#252362"></path><path d="M308.363 228.918C308.466 234.206 308.952 239.479 309.816 244.696C310.298 247.643 310.741 249.936 310.936 250.545C315.608 265.137 331.006 276.292 331.006 276.292L257.418 295.857C256.125 293.24 254.167 289.3 251.757 284.529C236.837 255.008 232.071 248.169 228.6 239.732C224.151 228.92 220.505 212.288 225.516 187.724C243.881 182.566 263.335 182.744 281.603 188.239C303.352 212.718 308.191 223.571 308.363 228.918Z" fill="#E0E6FF"></path><path d="M257.028 296.713L332.67 276.6L331.431 275.702C331.278 275.592 316.17 264.516 311.627 250.324C311.474 249.845 311.066 247.845 310.532 244.578C309.697 239.517 309.218 234.403 309.098 229.275L309.088 228.889C308.845 221.339 300.03 207.882 282.145 187.751L282.008 187.597L281.816 187.537C263.414 182.003 243.818 181.823 225.318 187.018L224.89 187.138L224.802 187.574C220.754 207.475 221.804 225.115 227.93 240.002C229.699 244.301 231.829 248.241 235.36 254.767C238.891 261.293 243.734 270.253 251.11 284.853C253.02 288.631 254.925 292.44 256.769 296.175L257.028 296.713ZM329.386 275.97L257.804 295.003C256.039 291.435 254.225 287.805 252.408 284.203C245.022 269.588 240.176 260.626 236.638 254.084C233.13 247.598 231.014 243.685 229.273 239.456C223.298 224.949 222.25 207.741 226.137 188.309C244.183 183.329 263.264 183.529 281.201 188.887C298.517 208.395 307.413 221.866 307.641 228.951L307.65 229.318C307.772 234.514 308.258 239.696 309.104 244.825C309.588 247.776 310.037 250.111 310.249 250.775C314.223 263.199 325.633 273.002 329.386 275.97Z" fill="#252362"></path><path d="M275.921 253.255C275.921 253.255 285.779 247.166 288.834 247.778C291.889 248.389 290.665 250.219 287.614 251.442C284.563 252.665 278.876 255.073 275.921 253.255Z" fill="white"></path><path d="M278.652 254.674C281.623 254.674 285.148 253.258 287.518 252.303L287.89 252.153C290.203 251.229 291.46 250.032 291.36 248.859C291.302 248.23 290.843 247.403 288.985 247.031C285.739 246.383 276.559 251.968 275.524 252.608C275.415 252.678 275.325 252.774 275.262 252.888C275.2 253.002 275.167 253.129 275.167 253.259C275.167 253.389 275.2 253.517 275.262 253.63C275.325 253.744 275.415 253.84 275.524 253.91C276.413 254.456 277.481 254.674 278.652 254.674ZM288.32 248.502C288.441 248.501 288.562 248.511 288.681 248.533C289.673 248.726 289.837 249.009 289.837 249.011C289.837 249.204 289.245 249.976 287.331 250.747L286.946 250.898C284.558 251.862 280.441 253.517 277.694 253.096C281.266 251.002 286.256 248.498 288.32 248.498V248.502Z" fill="#252362"></path><path d="M531.188 418.409C531.641 418.918 535.621 423.45 534.272 425.618C533.649 426.621 531.986 426.956 529.126 426.648C516.316 425.261 509.515 414.207 495.676 411.715C488.575 410.438 485.688 412.508 477.664 409.655C474.293 408.456 468.835 406.431 467.372 401.941C466.894 400.462 466.794 398.294 467.048 393.974C467.627 384.455 471.366 390.277 442.185 363.985C442.046 363.861 441.907 363.734 441.769 363.599C415.822 340.119 399.004 315.098 392.144 303.92C389.814 300.118 388.631 297.92 388.631 297.92C382.9 304.712 362.611 327.93 340.771 336.024C335.396 338.017 326.297 341.245 318.643 337.054C318.643 337.054 313.78 334.717 311.836 330.239C301.541 306.533 375.247 255.698 375.247 255.698C383.887 250.537 396.211 245.26 408.697 248.489C427.901 253.453 434.863 275.284 455.01 313.883C466.455 335.783 478.993 357.093 492.577 377.734C496.328 382.379 500.65 386.531 505.442 390.092C510.839 394.082 517.479 398.984 526.027 401.935C527.511 402.382 528.91 403.077 530.163 403.991C535.288 407.821 537.635 415.628 535.309 417.894C534.821 418.367 533.767 418.955 531.188 418.409Z" fill="white"></path><path d="M530.956 427.552C533.032 427.552 534.318 427.058 534.952 426.036C536.108 424.185 534.512 421.381 533.044 419.421C534.265 419.421 535.21 419.099 535.861 418.457C536.706 417.633 537.093 416.283 536.981 414.555C536.761 411.177 534.51 406.243 530.634 403.347C529.351 402.4 527.917 401.677 526.394 401.206L526.296 401.171C517.873 398.265 511.262 393.38 505.944 389.455C501.211 385.936 496.937 381.835 493.224 377.251C479.555 356.444 466.936 334.996 455.72 313.504C451.904 306.193 448.51 299.381 445.517 293.372C432.603 267.46 424.815 251.821 408.896 247.707C398.783 245.094 387.327 247.547 374.839 255.003L374.797 255.032C374.604 255.159 356.126 267.953 339.14 283.48C316.114 304.535 306.679 320.368 311.099 330.537C313.14 335.235 318.083 337.654 318.292 337.754C326.387 342.19 335.918 338.653 341.035 336.753C360.581 329.511 378.873 310.555 388.481 299.295C389.06 300.301 390.048 302.027 391.454 304.309C399.09 316.752 415.708 341.073 441.223 364.162L441.252 364.189C441.383 364.31 441.512 364.43 441.637 364.546C447.523 369.851 451.989 373.778 455.576 376.931C467.017 386.99 467.017 386.99 466.518 390.975C466.421 391.746 466.3 392.711 466.229 393.893C465.966 398.222 466.067 400.537 466.589 402.153C468.202 407.117 474.167 409.24 477.382 410.382C482.288 412.118 485.298 412.081 488.488 412.033C490.568 412.002 492.715 411.971 495.519 412.475C502.167 413.672 507.211 416.93 512.095 420.079C517.358 423.479 522.331 426.69 529.029 427.407C529.668 427.49 530.312 427.538 530.956 427.552ZM531.187 417.612C531.034 417.612 530.884 417.657 530.755 417.74C530.626 417.823 530.524 417.942 530.462 418.082C530.399 418.222 530.377 418.377 530.401 418.529C530.424 418.681 530.49 418.822 530.592 418.937C532.608 421.207 534.289 424.088 533.599 425.197C533.298 425.681 532.294 426.189 529.214 425.855C522.892 425.17 518.072 422.06 512.972 418.766C507.96 415.529 502.782 412.183 495.818 410.932C492.863 410.399 490.637 410.432 488.482 410.465C485.445 410.507 482.567 410.552 477.932 408.905C474.987 407.856 469.501 405.902 468.131 401.684C467.674 400.276 467.595 398.126 467.844 394.012C467.913 392.886 468.025 391.989 468.123 391.197C468.726 386.375 468.509 386.182 456.653 375.758C453.068 372.607 448.608 368.684 442.726 363.385C442.601 363.271 442.475 363.157 442.352 363.041L442.317 363.009C416.945 340.059 400.422 315.869 392.832 303.499C390.542 299.767 389.351 297.561 389.339 297.54C389.278 297.425 389.189 297.328 389.082 297.255C388.974 297.183 388.85 297.138 388.721 297.125C388.592 297.111 388.462 297.13 388.341 297.178C388.221 297.226 388.114 297.304 388.03 297.403C380.556 306.264 360.962 327.695 340.505 335.274C335.619 337.085 326.524 340.454 319.036 336.352C318.953 336.312 314.373 334.061 312.573 329.916C302.716 307.217 374.107 257.458 375.689 256.363C387.79 249.142 398.832 246.753 408.509 249.254C423.722 253.186 430.961 267.714 444.1 294.087C447.097 300.105 450.495 306.922 454.315 314.247C465.562 335.797 478.215 357.302 491.923 378.167C491.938 378.188 491.953 378.212 491.971 378.233C495.768 382.926 500.139 387.124 504.981 390.728C510.401 394.732 517.123 399.696 525.777 402.685L525.879 402.72C527.243 403.141 528.527 403.786 529.678 404.629C533.167 407.238 535.193 411.653 535.389 414.658C535.47 415.89 535.241 416.833 534.745 417.317C534.034 418.015 532.504 417.869 531.347 417.624C531.295 417.615 531.241 417.611 531.187 417.612Z" fill="#252362"></path><path d="M317.732 259.445C318.142 236.989 318.553 214.534 318.966 192.08L396.432 195.528L392.754 255.362L317.732 259.445Z" fill="white"></path><path d="M317.335 259.856L317.753 259.833L393.114 255.733L396.838 195.157L318.586 191.674L317.335 259.856ZM392.386 254.991L318.127 259.041L319.347 192.505L396.015 195.899L392.386 254.991Z" fill="black"></path><path d="M317.732 259.446L280.372 288.035L370.07 279.029L392.75 255.363L317.732 259.446Z" fill="#252362"></path><path d="M279.051 288.56L370.259 279.403L370.357 279.299L393.717 254.922L392.734 254.974L317.593 259.063L317.496 259.136L279.051 288.56ZM369.894 278.657L281.701 287.513L317.874 259.828L391.793 255.805L369.894 278.657Z" fill="black"></path><path d="M309.388 255.856C307.654 254.265 298.641 246.952 295.999 247.552C293.356 248.152 274.235 253.16 274.235 253.16C272.317 253.788 270.54 254.785 269.004 256.093L232.601 245.066C233.474 241.151 237.429 223.2 239.428 207.519C239.848 204.223 240.515 197.76 237.163 193.633C235.005 190.977 231.028 188.831 226.832 188.648C226.832 188.648 224.762 188.557 222.997 189.033C213.664 191.527 210.083 231.938 210.083 231.938C208.489 250.333 207.77 259.632 211.467 264.683C218.813 274.712 234.095 274.729 244.138 274.739C252.669 274.727 261.13 273.195 269.123 270.212V270.168C271.191 270.218 273.876 270.384 274.886 270.143C277.438 269.534 280.562 268.116 284.33 265.275C284.33 265.275 294.623 275.273 296.35 271.352C297.12 269.582 295.447 267.302 293.368 265.339C296.727 267.653 300.532 269.759 301.577 268.232C303.207 265.833 302.003 265.079 301.532 264.888C302.571 265.223 308.058 266.743 306.95 261.065L297.23 253.833C297.23 253.833 308.186 260.627 309.61 259.272C311.034 257.916 311.121 257.445 309.388 255.856Z" fill="white"></path><path d="M244.199 275.49C252.788 275.476 261.307 273.93 269.355 270.927L270.475 270.962C272.371 271.028 274.162 271.088 275.054 270.875C277.911 270.193 281.002 268.64 284.257 266.26C286.196 268.091 291.709 273.01 294.908 273.01C295.08 273.011 295.251 272.996 295.419 272.964C295.777 272.898 296.113 272.743 296.395 272.514C296.677 272.284 296.897 271.986 297.034 271.649C297.466 270.669 297.36 269.551 296.716 268.295C298.555 269.259 299.941 269.645 300.91 269.452C301.168 269.41 301.414 269.316 301.634 269.177C301.855 269.037 302.045 268.855 302.194 268.64C302.868 267.647 303.186 266.766 303.157 266.01C304.364 266.16 305.788 266.075 306.781 265.196C307.774 264.316 308.08 262.87 307.695 260.901C307.659 260.715 307.554 260.549 307.402 260.436L305.935 259.344C308.724 260.502 309.63 260.282 310.133 259.803C310.855 259.117 311.455 258.481 311.447 257.653C311.439 256.826 310.879 256.18 309.905 255.291C309.799 255.194 299.305 246.022 295.835 246.805C293.21 247.401 274.827 252.217 274.056 252.421C272.163 253.035 270.399 253.991 268.852 255.242L233.513 244.539C235.036 237.66 238.403 221.71 240.199 207.609C240.544 204.909 241.464 197.696 237.771 193.144C235.319 190.128 231.046 188.061 226.883 187.878C226.792 187.878 224.676 187.787 222.82 188.284C218.645 189.399 215.11 197.129 212.31 211.258C210.263 221.593 209.348 231.754 209.34 231.855C207.782 249.833 206.925 259.732 210.866 265.117C218.439 275.458 233.912 275.473 244.15 275.483L244.199 275.49ZM268.634 269.572C260.811 272.466 252.539 273.954 244.199 273.969H244.133C234.199 273.969 219.191 273.946 212.073 264.226C208.613 259.503 209.193 250.932 210.834 231.995C211.818 220.904 215.958 191.688 223.192 189.76C224.821 189.326 226.777 189.405 226.798 189.405C230.547 189.569 234.382 191.416 236.57 194.111C239.847 198.161 238.995 204.886 238.673 207.418C236.821 221.948 233.29 238.468 231.859 244.898C231.818 245.085 231.848 245.281 231.945 245.446C232.041 245.612 232.197 245.735 232.38 245.791L268.782 256.816C268.905 256.853 269.034 256.859 269.159 256.833C269.284 256.807 269.401 256.749 269.498 256.666C270.949 255.425 272.629 254.481 274.443 253.887C274.617 253.842 293.565 248.872 296.165 248.294C298.077 247.856 306.022 253.798 308.874 256.417C309.734 257.208 309.917 257.536 309.917 257.672C309.917 257.892 309.354 258.444 309.115 258.671C308.02 258.978 302.321 256.089 297.618 253.173C297.452 253.073 297.253 253.04 297.063 253.081C296.873 253.123 296.707 253.236 296.598 253.397C296.488 253.558 296.445 253.754 296.476 253.946C296.508 254.138 296.612 254.311 296.766 254.429L306.245 261.481C306.438 262.733 306.284 263.603 305.761 264.064C304.921 264.81 303.077 264.577 301.754 264.15C301.567 264.091 301.365 264.106 301.189 264.192C301.013 264.279 300.877 264.43 300.81 264.615C300.743 264.799 300.75 265.003 300.829 265.182C300.909 265.362 301.054 265.503 301.236 265.578C301.321 265.606 301.398 265.654 301.461 265.717C301.525 265.78 301.574 265.856 301.604 265.94C301.658 266.12 301.702 266.661 300.937 267.792C300.902 267.841 300.857 267.882 300.804 267.911C300.751 267.941 300.693 267.959 300.633 267.963C300.128 268.058 298.449 267.929 293.79 264.706C293.633 264.594 293.439 264.547 293.248 264.573C293.057 264.6 292.883 264.698 292.761 264.848C292.64 264.998 292.58 265.188 292.594 265.381C292.608 265.573 292.695 265.753 292.836 265.884C295.149 268.071 296.144 269.903 295.643 271.039C295.605 271.152 295.537 271.252 295.446 271.329C295.355 271.406 295.245 271.456 295.128 271.475C293.106 271.861 287.752 267.543 284.847 264.725C284.717 264.599 284.546 264.523 284.365 264.512C284.184 264.5 284.005 264.554 283.86 264.663C280.584 267.136 277.5 268.731 274.702 269.4C274.008 269.566 272.159 269.502 270.527 269.446C270.049 269.431 269.578 269.415 269.135 269.404C268.953 269.396 268.775 269.456 268.634 269.572Z" fill="#252362"></path><path d="M464.397 383.507L488.166 370.805C488.251 370.756 488.345 370.724 488.442 370.711C488.54 370.699 488.639 370.706 488.733 370.733C488.828 370.759 488.916 370.805 488.993 370.866C489.07 370.928 489.133 371.005 489.179 371.091C489.226 371.178 489.254 371.274 489.263 371.372C489.271 371.47 489.26 371.568 489.23 371.662C489.199 371.756 489.15 371.842 489.086 371.916C489.021 371.99 488.942 372.051 488.854 372.094L465.083 384.795C464.913 384.886 464.713 384.906 464.528 384.849C464.343 384.793 464.187 384.665 464.096 384.494C464.005 384.324 463.986 384.124 464.042 383.938C464.099 383.753 464.226 383.598 464.397 383.507Z" fill="#252362"></path><path d="M441.274 304.498C441.44 304.399 441.638 304.369 441.826 304.416C442.013 304.463 442.174 304.582 442.274 304.747L471.093 353.154C471.144 353.237 471.178 353.329 471.194 353.425C471.209 353.521 471.205 353.619 471.183 353.713C471.16 353.808 471.118 353.896 471.06 353.975C471.003 354.053 470.93 354.119 470.847 354.169C470.763 354.218 470.671 354.251 470.575 354.264C470.478 354.278 470.38 354.272 470.286 354.247C470.193 354.223 470.105 354.179 470.028 354.12C469.951 354.061 469.886 353.987 469.838 353.902L441.02 305.495C440.922 305.329 440.893 305.131 440.941 304.944C440.989 304.757 441.108 304.597 441.274 304.498Z" fill="#252362"></path><path d="M413.391 272.217C413.253 272.091 413.168 271.916 413.155 271.729C413.142 271.541 413.202 271.356 413.321 271.212C413.441 271.067 413.612 270.974 413.798 270.952C413.984 270.93 414.172 270.981 414.322 271.093C414.985 271.641 416.793 273.17 418.576 274.993C419.445 273.623 420.443 272.339 421.555 271.159C421.689 271.027 421.869 270.953 422.057 270.95C422.244 270.948 422.426 271.017 422.563 271.145C422.701 271.273 422.784 271.449 422.796 271.636C422.807 271.824 422.746 272.008 422.625 272.152C421.486 273.356 420.475 274.675 419.609 276.088C421.519 278.2 423.118 280.503 422.829 282.067C422.729 282.603 422.38 283.318 421.287 283.681C420.756 283.867 420.197 283.966 419.634 283.974C418.554 283.974 417.681 283.538 417.14 282.697C416.317 281.415 416.38 279.162 417.814 276.333C416.417 274.88 414.94 273.506 413.391 272.217ZM418.373 281.903C418.93 282.769 420.152 282.518 420.833 282.288C421.334 282.121 421.376 281.891 421.395 281.795C421.559 280.915 420.457 279.268 418.874 277.475C417.884 279.631 417.907 281.18 418.373 281.903Z" fill="#252362"></path><path d="M441.779 363.596C415.833 340.116 399.014 315.095 392.155 303.917L390.133 256.256C390.133 256.256 422.717 289.277 441.779 363.596Z" fill="#252362"></path><path d="M442.477 364.752L442.155 363.499C432.298 325.062 418.76 297.885 409.14 281.855C398.709 264.471 390.491 256.064 390.41 255.981L389.701 255.264L391.775 304.033L391.827 304.12C399.451 316.544 416.044 340.828 441.521 363.884L442.477 364.752ZM390.566 257.287C392.769 259.701 399.866 267.905 408.491 282.285C417.974 298.099 431.273 324.767 441.064 362.43C416.264 339.756 400.057 316.054 392.528 303.802L390.566 257.287Z" fill="#252362"></path><path d="M467.714 414.29C461.624 410.277 453.789 403.164 446.49 389.573H446.195C423.272 329.356 405.433 285.265 398.928 270.118C396.148 263.646 392.671 256.581 385.343 253.05C376.659 248.863 367.124 252.005 362.39 253.64C343.465 260.172 305.865 274.951 257.411 295.862C257.633 298.624 259.747 320.355 278.508 332.422C295.448 343.319 313.627 338.412 318.648 337.051C332.442 333.329 341.364 324.936 349.01 317.484C355.053 311.589 360.406 305.024 364.963 297.916C374.467 333.081 393.948 364.737 421.05 389.059C420.191 390.756 413.83 403.716 419.508 412.745C420.51 414.281 421.722 415.668 423.111 416.865C428.081 421.107 432.281 420.176 438.547 423.036C440.633 423.989 439.719 423.887 448.325 430.245C460.172 438.993 462.202 439.406 463.763 439.514C467.425 439.764 472.542 438.636 475.942 436.428C477.274 435.56 478.167 434.592 480.273 433.853C482.414 433.101 483.97 433.259 485.04 431.794C485.666 430.934 485.845 429.9 485.905 429.219C486.016 428.987 486.091 428.74 486.127 428.486C486.749 424.054 474.984 419.075 467.714 414.29Z" fill="white"></path><path d="M464.856 440.287C468.743 440.287 473.317 439.018 476.349 437.043C476.734 436.794 477.079 436.538 477.416 436.289C478.282 435.651 479.099 435.045 480.525 434.553C481.095 434.361 481.674 434.199 482.26 434.067C483.536 433.761 484.741 433.469 485.643 432.235C486.217 431.401 486.559 430.429 486.633 429.419C486.746 429.157 486.824 428.881 486.863 428.598C487.379 424.856 481.144 421.294 474.545 417.522C472.332 416.257 470.046 414.951 468.126 413.686C460.062 408.375 453.002 400.148 447.141 389.236C447.052 389.069 446.902 388.943 446.723 388.885C423.698 328.418 405.939 284.572 399.608 269.83C396.798 263.289 393.172 256.008 385.671 252.392C376.535 247.989 366.462 251.467 362.157 252.951C344.889 258.911 308.23 273.138 257.127 295.187C256.987 295.247 256.869 295.35 256.79 295.481C256.712 295.612 256.676 295.764 256.688 295.916C257.019 300.024 259.61 321.124 278.118 333.031C289.54 340.377 303.244 341.968 318.844 337.756C333.251 333.868 342.657 324.7 349.524 318.008C355.218 312.453 360.303 306.306 364.695 299.673C374.338 334.177 393.572 365.234 420.161 389.23C418.531 392.611 413.493 404.539 418.899 413.144C419.941 414.74 421.202 416.183 422.644 417.429C425.772 420.1 428.657 420.818 431.714 421.58C433.736 422.085 435.825 422.606 438.254 423.717C439.281 424.187 439.48 424.345 440.759 425.383C441.916 426.312 443.857 427.869 447.891 430.848C459.397 439.35 461.785 440.127 463.711 440.258C464.092 440.275 464.472 440.287 464.856 440.287ZM446.048 390.281C451.985 401.229 459.141 409.511 467.319 414.899C469.277 416.189 471.584 417.508 473.816 418.783C479.431 421.99 485.795 425.628 485.411 428.389C485.386 428.569 485.334 428.744 485.255 428.908C485.217 428.987 485.194 429.072 485.188 429.159C485.107 430.069 484.862 430.812 484.457 431.365C483.879 432.168 483.095 432.355 481.915 432.64C481.282 432.783 480.656 432.959 480.042 433.166C478.409 433.745 477.463 434.437 476.547 435.114C476.216 435.359 475.9 435.593 475.553 435.818C472.509 437.799 467.579 439.051 463.823 438.792C462.568 438.705 460.849 438.586 448.768 429.664C444.757 426.7 442.833 425.155 441.685 424.233C440.366 423.175 440.054 422.924 438.861 422.378C436.311 421.211 434.056 420.642 432.067 420.153C429.058 419.402 426.458 418.756 423.586 416.307C422.255 415.158 421.091 413.828 420.129 412.355C414.828 403.926 420.514 391.745 421.707 389.388C421.779 389.245 421.802 389.081 421.773 388.924C421.743 388.766 421.662 388.622 421.543 388.514C394.544 364.288 375.137 332.754 365.668 297.725C365.63 297.589 365.553 297.467 365.447 297.374C365.341 297.281 365.21 297.22 365.071 297.2C364.931 297.18 364.788 297.2 364.66 297.259C364.532 297.318 364.423 297.413 364.348 297.532C359.819 304.592 354.503 311.113 348.501 316.97C341.755 323.553 332.504 332.567 318.459 336.354C303.271 340.454 289.964 338.925 278.903 331.811C261.647 320.712 258.665 301.339 258.183 296.325C308.995 274.405 345.438 260.261 362.627 254.33C366.757 252.903 376.431 249.565 385.027 253.707C392.075 257.106 395.435 263.819 398.257 270.405C404.598 285.172 422.416 329.163 445.512 389.834C445.557 389.947 445.63 390.047 445.723 390.126C445.817 390.204 445.929 390.257 446.048 390.281Z" fill="#252362"></path><path d="M389.328 275.646C389.413 275.601 389.505 275.573 389.601 275.564C389.696 275.555 389.792 275.564 389.884 275.593C389.976 275.621 390.061 275.667 390.135 275.728C390.209 275.789 390.27 275.864 390.315 275.949C390.455 276.213 404.302 302.422 410.928 318.233C410.966 318.321 410.985 318.415 410.986 318.511C410.987 318.607 410.969 318.702 410.933 318.79C410.898 318.879 410.845 318.96 410.778 319.028C410.711 319.096 410.631 319.15 410.543 319.187C410.454 319.226 410.358 319.246 410.261 319.245C410.117 319.245 409.977 319.203 409.857 319.123C409.737 319.044 409.643 318.931 409.587 318.798C402.987 303.047 389.17 276.896 389.031 276.634C388.986 276.549 388.957 276.457 388.948 276.362C388.938 276.266 388.948 276.17 388.975 276.078C389.003 275.987 389.048 275.901 389.109 275.827C389.169 275.753 389.244 275.692 389.328 275.646Z" fill="#252362"></path><path d="M413.856 343.23C417.775 349.868 410.034 346.605 402.953 342.765C400.505 335.373 407.81 332.993 413.856 343.23Z" fill="white"></path><path d="M393.273 337.051C393.273 337.051 397.949 340.052 402.954 342.765C403.25 343.64 403.627 344.485 404.08 345.29L393.273 337.051Z" fill="white"></path><path d="M413.594 347.772C414.396 347.772 414.843 347.539 415.136 347.248C416.24 346.183 415.29 344.232 414.478 342.857C410.558 336.22 406.127 334.712 403.673 336.122C402.27 336.924 401.413 338.727 401.827 341.316C397.483 338.886 393.701 336.461 393.659 336.434C393.496 336.335 393.3 336.302 393.114 336.345C392.927 336.388 392.765 336.502 392.662 336.663C392.559 336.824 392.523 337.019 392.562 337.207C392.601 337.394 392.712 337.558 392.87 337.665C392.917 337.694 397.467 340.608 402.342 343.258C402.641 344.078 403.007 344.872 403.435 345.634C403.533 345.795 403.689 345.912 403.872 345.96C404.054 346.009 404.248 345.984 404.413 345.892C404.578 345.801 404.701 345.649 404.757 345.468C404.812 345.288 404.796 345.093 404.71 344.924C404.604 344.732 404.504 344.543 404.41 344.357C409.494 346.995 412.133 347.772 413.594 347.772ZM405.589 337.096C407.607 337.096 410.583 339.123 413.228 343.601C414.498 345.749 414.135 346.193 414.13 346.197C414.083 346.241 412.854 347.271 403.554 342.259C402.783 339.713 403.332 338.016 404.406 337.389C404.768 337.189 405.176 337.088 405.589 337.096Z" fill="#252362"></path><path d="M304.55 286.618C306.167 285.81 344.291 266.821 356.096 264.767C356.193 264.746 356.292 264.744 356.389 264.763C356.486 264.781 356.579 264.819 356.661 264.874C356.743 264.929 356.813 265 356.866 265.083C356.92 265.165 356.957 265.258 356.974 265.355C356.99 265.453 356.988 265.552 356.965 265.649C356.942 265.745 356.9 265.835 356.842 265.915C356.783 265.994 356.709 266.061 356.624 266.111C356.539 266.161 356.445 266.193 356.347 266.206C354.691 266.529 353.059 266.964 351.461 267.506L318.665 281.411C311.03 285.011 305.35 287.841 305.202 287.916C305.029 287.995 304.833 288.003 304.654 287.94C304.476 287.877 304.329 287.747 304.244 287.577C304.159 287.408 304.144 287.212 304.201 287.031C304.258 286.85 304.384 286.698 304.55 286.608V286.618Z" fill="#252362"></path><path d="M364.755 262.511C365.077 262.411 372.704 260.074 376.745 259.331C376.932 259.305 377.121 259.352 377.274 259.463C377.426 259.573 377.53 259.738 377.564 259.924C377.598 260.109 377.559 260.301 377.455 260.458C377.352 260.615 377.191 260.726 377.007 260.768C373.05 261.495 365.262 263.885 365.183 263.908C365.113 263.929 365.041 263.94 364.969 263.94C364.794 263.94 364.626 263.877 364.494 263.763C364.362 263.648 364.275 263.491 364.249 263.318C364.223 263.145 364.26 262.969 364.353 262.821C364.445 262.673 364.588 262.563 364.755 262.511Z" fill="#252362"></path><path d="M420.911 388.342L443.987 383.432C444.083 383.408 444.182 383.404 444.279 383.419C444.376 383.434 444.469 383.469 444.553 383.521C444.636 383.573 444.708 383.641 444.764 383.722C444.821 383.802 444.86 383.893 444.881 383.99C444.901 384.086 444.902 384.185 444.883 384.282C444.864 384.378 444.826 384.47 444.771 384.551C444.716 384.633 444.645 384.702 444.562 384.755C444.479 384.809 444.387 384.845 444.29 384.861L421.213 389.768C421.163 389.779 421.112 389.785 421.061 389.785C420.88 389.785 420.706 389.718 420.571 389.597C420.437 389.476 420.352 389.31 420.334 389.13C420.315 388.95 420.364 388.769 420.47 388.623C420.577 388.477 420.734 388.376 420.911 388.339V388.342Z" fill="#252362"></path><path d="M230.679 187.017C227.464 186.794 221.306 186.909 216.266 191.11C210.962 195.528 209.52 202.284 208.578 209.524C207.292 219.446 206.198 236.177 209.542 259.144L239.32 243.804C238.866 235.453 238.866 227.084 239.32 218.733C239.987 206.679 241.382 199.165 236.918 192.643C235.299 190.312 233.164 188.387 230.679 187.017Z" fill="#E0E6FF"></path><path d="M208.986 260.216L240.05 244.209L240.027 243.755C239.576 235.432 239.576 227.09 240.027 218.767C240.127 216.937 240.245 215.228 240.358 213.575C240.977 204.511 241.426 197.973 237.504 192.243C235.823 189.821 233.605 187.822 231.022 186.402L230.885 186.325H230.727C226.601 186.037 220.66 186.541 215.817 190.567C210.139 195.298 208.784 202.48 207.884 209.431C205.92 224.593 206.244 241.352 208.847 259.24L208.986 260.216ZM238.604 243.381L210.093 258.075C207.635 240.677 207.36 224.379 209.272 209.618C210.137 202.943 211.422 196.058 216.713 191.651C221.146 187.964 226.608 187.464 230.473 187.709C232.811 189.018 234.821 190.842 236.349 193.044C239.996 198.37 239.585 204.384 238.961 213.487C238.847 215.143 238.73 216.856 238.63 218.694C238.184 226.917 238.176 235.157 238.604 243.381Z" fill="#252362"></path><path d="M206.787 249.046L235.426 237.86C237.704 236.971 240.212 238.371 240.775 240.848L241.655 244.722C242.099 246.674 241.174 248.684 239.437 249.544L212.365 262.818C210.293 263.832 207.832 262.851 206.93 260.652L204.484 254.674C203.574 252.456 204.626 249.889 206.787 249.046Z" fill="#E0E6FF"></path><path d="M210.651 263.915C211.351 263.913 212.041 263.751 212.669 263.44L239.741 250.168C241.753 249.182 242.844 246.831 242.331 244.575L241.45 240.701C241.299 240.013 241.001 239.366 240.577 238.804C240.153 238.242 239.613 237.779 238.993 237.445C238.41 237.135 237.767 236.955 237.108 236.916C236.449 236.877 235.79 236.982 235.175 237.221L206.536 248.396C205.94 248.63 205.397 248.981 204.94 249.429C204.482 249.877 204.119 250.412 203.872 251.003C203.608 251.625 203.469 252.292 203.464 252.968C203.458 253.644 203.587 254.313 203.841 254.939L206.287 260.918C206.535 261.53 206.905 262.086 207.375 262.55C207.845 263.015 208.405 263.378 209.02 263.618C209.541 263.815 210.094 263.916 210.651 263.915ZM236.844 238.294C237.368 238.297 237.883 238.43 238.343 238.679C238.786 238.919 239.173 239.252 239.475 239.656C239.778 240.059 239.99 240.522 240.097 241.015L240.978 244.891C241.35 246.523 240.571 248.218 239.13 248.926L212.058 262.2C211.665 262.395 211.236 262.507 210.798 262.528C210.36 262.548 209.923 262.477 209.514 262.32C209.074 262.15 208.674 261.891 208.34 261.559C208.006 261.227 207.744 260.83 207.571 260.391L205.125 254.413C204.94 253.957 204.846 253.47 204.85 252.978C204.854 252.487 204.955 252.001 205.148 251.549C205.323 251.128 205.58 250.747 205.905 250.427C206.23 250.108 206.615 249.857 207.039 249.69L235.678 238.504C236.05 238.362 236.446 238.291 236.844 238.294Z" fill="#252362"></path><path d="M254.007 144.097C254.007 144.097 250.661 138.007 242.196 146.9C233.731 155.792 248.572 168.141 254.2 161.595C259.828 155.05 260.084 154.224 260.084 154.224L254.007 144.097Z" fill="#252362"></path><path d="M250.07 163.85C250.912 163.87 251.748 163.701 252.518 163.357C253.287 163.014 253.97 162.503 254.518 161.862C259.928 155.569 260.439 154.495 260.493 154.341L260.549 154.159L254.381 143.876C254.013 143.279 253.516 142.771 252.927 142.39C252.338 142.009 251.671 141.764 250.975 141.674C248.387 141.336 245.332 142.993 241.899 146.601C239.454 149.17 238.658 152.346 239.658 155.542C240.88 159.451 244.6 162.871 248.505 163.681C249.019 163.79 249.544 163.847 250.07 163.85ZM259.599 154.229C259.325 154.665 258.194 156.29 253.88 161.312C252.298 163.152 250.172 163.166 248.665 162.855C245.101 162.118 241.572 158.869 240.454 155.293C239.814 153.247 239.65 150.181 242.503 147.193C245.693 143.841 248.576 142.225 250.858 142.522C251.423 142.597 251.965 142.796 252.445 143.103C252.926 143.411 253.332 143.82 253.637 144.302V144.318L259.599 154.229Z" fill="#252362"></path><path d="M286.421 140.608C288.682 142.568 291.818 142.932 294.175 141.573C297.088 139.899 298.554 135.743 296.6 132.842C295.058 130.549 291.766 129.629 288.844 130.902C288.794 129.938 288.516 127.226 286.421 125.083C283.611 122.21 279.676 122.534 278.18 122.657C276.958 122.76 274.786 122.968 272.849 124.597C272.052 125.273 271.394 126.096 270.91 127.022C269.838 126.418 266.124 124.495 261.701 125.568C256.703 126.779 254.265 130.968 253.461 132.358C248.579 140.755 251.534 154.922 259.276 158.548C267.018 162.174 281.104 156.089 286.421 140.608Z" fill="#252362"></path><path d="M264.182 160.059C266.448 160.059 268.9 159.538 271.344 158.502C278.19 155.609 283.743 149.397 286.659 141.421C289.01 143.12 292.056 143.371 294.424 141.999C295.272 141.494 296.009 140.823 296.591 140.025C297.173 139.227 297.587 138.32 297.809 137.357C298.21 135.622 297.926 133.926 297.011 132.569C295.417 130.202 292.192 129.254 289.282 130.212C289.111 128.746 288.542 126.548 286.776 124.739C283.806 121.701 279.691 122.039 278.146 122.168C277.005 122.262 274.632 122.457 272.537 124.222C271.817 124.829 271.204 125.551 270.723 126.361C268.838 125.379 265.473 124.149 261.589 125.09C256.385 126.351 253.868 130.683 253.041 132.11C250.343 136.758 249.823 143.374 251.692 149.378C253.143 154.028 255.763 157.443 259.066 158.994C260.673 159.72 262.419 160.084 264.182 160.059ZM286.191 139.76L285.955 140.449C283.197 148.476 277.731 154.72 270.954 157.596C266.76 159.376 262.58 159.563 259.485 158.109C256.476 156.699 253.978 153.411 252.629 149.091C250.834 143.342 251.316 137.028 253.884 132.611C254.655 131.275 257.023 127.211 261.815 126.054C265.689 125.113 269.023 126.53 270.667 127.458L271.107 127.709L271.344 127.259C271.797 126.389 272.415 125.615 273.163 124.982C275.019 123.42 277.101 123.246 278.219 123.155C279.643 123.038 283.423 122.727 286.067 125.435C287.902 127.311 288.286 129.678 288.351 130.937L288.39 131.645L289.045 131.369C291.672 130.224 294.746 130.983 296.196 133.134C296.957 134.262 297.19 135.689 296.851 137.151C296.66 137.982 296.304 138.766 295.803 139.455C295.301 140.144 294.666 140.725 293.935 141.162C291.73 142.43 288.841 142.061 286.748 140.246L286.191 139.76Z" fill="#252362"></path><path d="M287.102 150.848C286.672 147.477 286.52 144.077 286.649 140.682C285.947 139.488 283.548 135.756 279.294 134.896C276.1 134.252 271.492 135.153 271.282 136.495C270.495 137.66 269.803 138.885 269.21 140.159C268.035 142.695 267.261 145.397 266.914 148.171C265.372 143.853 261.637 141.716 258.97 142.508C256.181 143.34 255.387 147.127 255.342 147.353C254.789 150.188 256.019 153.22 258.551 155.277L253.405 188.196C252.372 194.798 258.442 200.483 264.879 198.711H264.889L264.877 198.786L271.045 213.717L272.33 192.071L272.255 192.04C272.409 191.571 272.526 191.092 272.606 190.605L275.316 173.273C276.272 173.537 277.261 173.662 278.253 173.645C282.05 173.574 284.907 171.121 284.907 171.121C287.177 169.165 287.886 166.685 288.274 165.266C289.571 160.548 287.992 157.744 287.102 150.848Z" fill="white"></path><path d="M271.053 214.522C271.097 214.521 271.141 214.518 271.185 214.512C271.362 214.482 271.524 214.393 271.645 214.259C271.765 214.124 271.837 213.954 271.848 213.774L273.133 192.127C273.139 192.07 273.139 192.013 273.133 191.956C273.25 191.556 273.342 191.148 273.409 190.737L275.986 174.251C276.743 174.396 277.513 174.461 278.283 174.444C282.331 174.369 285.316 171.835 285.441 171.727C287.947 169.571 288.697 166.807 289.059 165.478C289.99 162.061 289.502 159.594 288.828 156.181C288.523 154.638 288.178 152.902 287.901 150.746C287.478 147.421 287.328 144.067 287.454 140.717C287.459 140.566 287.421 140.416 287.344 140.285C286.205 138.357 283.668 134.972 279.461 134.114C276.73 133.563 272.948 134.045 271.366 135.146C270.986 135.383 270.698 135.743 270.55 136.166C268.638 139.033 267.283 142.235 266.555 145.604C264.483 142.345 261.158 141.03 258.749 141.747C255.472 142.712 254.603 147.018 254.568 147.201C253.99 150.183 255.183 153.361 257.704 155.596L252.626 188.073C252.359 189.765 252.523 191.497 253.101 193.108C253.679 194.72 254.654 196.16 255.935 197.296C257.063 198.316 258.413 199.06 259.877 199.47C261.342 199.88 262.881 199.945 264.375 199.658L270.317 214.03C270.378 214.176 270.48 214.3 270.611 214.387C270.742 214.475 270.896 214.522 271.053 214.522ZM271.526 192.343L270.464 210.219L265.684 198.659C265.675 198.544 265.641 198.432 265.584 198.331C265.527 198.229 265.449 198.142 265.355 198.074C265.262 198.007 265.154 197.96 265.04 197.938C264.926 197.916 264.809 197.92 264.697 197.948C263.363 198.327 261.954 198.358 260.604 198.038C259.255 197.718 258.01 197.057 256.987 196.119C255.905 195.161 255.082 193.945 254.593 192.584C254.105 191.223 253.966 189.761 254.191 188.332L259.337 155.413C259.359 155.276 259.344 155.135 259.294 155.005C259.244 154.875 259.161 154.76 259.053 154.673C256.741 152.798 255.627 150.058 256.122 147.518C256.122 147.483 256.837 143.986 259.194 143.275C261.436 142.609 264.766 144.526 266.164 148.441C266.223 148.611 266.338 148.756 266.49 148.852C266.642 148.948 266.822 148.99 267.001 148.971C267.18 148.951 267.347 148.872 267.475 148.745C267.603 148.619 267.684 148.452 267.706 148.274C268.205 144.213 269.658 140.328 271.946 136.938C272.011 136.841 272.054 136.731 272.071 136.615C272.362 136.037 275.986 135.04 279.139 135.674C282.608 136.374 284.794 139.146 285.85 140.881C285.735 144.241 285.891 147.604 286.316 150.939C286.6 153.139 286.951 154.914 287.261 156.48C287.916 159.801 288.35 161.993 287.517 165.05C287.172 166.315 286.53 168.672 284.397 170.51C284.372 170.531 281.698 172.778 278.248 172.842C277.333 172.858 276.421 172.742 275.538 172.498C275.43 172.468 275.317 172.462 275.206 172.479C275.095 172.496 274.989 172.536 274.895 172.597C274.801 172.658 274.72 172.738 274.659 172.832C274.598 172.926 274.557 173.032 274.54 173.143L271.83 190.475C271.757 190.92 271.65 191.359 271.508 191.788C271.447 191.969 271.453 192.166 271.526 192.343Z" fill="#252362"></path><path d="M275.346 173.146L274.5 178.561C270.797 175.063 267.519 169.551 266.649 168.025C268.249 170.662 271.294 172.392 275.346 173.146Z" fill="#252362"></path><path d="M274.84 179.559L275.904 172.749L275.436 172.662C271.454 171.92 268.561 170.227 267.069 167.768L266.223 168.267C267.135 169.868 270.405 175.366 274.162 178.919L274.84 179.559ZM274.786 173.536L274.162 177.538C272.325 175.655 270.619 173.331 269.328 171.403C270.816 172.371 272.651 173.09 274.783 173.536H274.786Z" fill="#252362"></path><path d="M282.031 159.141C282.223 159.141 283.827 159.039 284.584 158.103C284.747 157.903 284.863 157.67 284.926 157.42C284.988 157.17 284.995 156.91 284.947 156.657C284.692 155.137 282.69 146.779 282.605 146.424L281.159 146.771C281.181 146.856 283.235 155.434 283.482 156.904C283.495 156.948 283.497 156.996 283.488 157.041C283.479 157.087 283.459 157.13 283.43 157.166C283.191 157.463 282.414 157.633 281.967 157.654L282.031 159.141Z" fill="#252362"></path><path d="M276.97 240.459H277.034C277.227 240.443 277.405 240.35 277.53 240.202C277.654 240.054 277.715 239.862 277.698 239.669C276.157 221.696 271.625 213.454 271.433 213.112C271.389 213.039 271.333 212.973 271.267 212.919L257.887 201.591C257.815 201.524 257.729 201.471 257.636 201.438C257.543 201.404 257.444 201.39 257.346 201.396C257.247 201.402 257.15 201.427 257.062 201.472C256.973 201.516 256.895 201.578 256.831 201.653C256.767 201.729 256.719 201.817 256.69 201.911C256.661 202.006 256.652 202.105 256.662 202.204C256.673 202.302 256.703 202.398 256.752 202.484C256.8 202.57 256.866 202.646 256.944 202.706L270.218 213.944C270.754 214.977 274.829 223.278 276.243 239.8C276.261 239.98 276.345 240.148 276.48 240.27C276.614 240.392 276.789 240.459 276.97 240.459Z" fill="#252362"></path><path d="M301.672 225.016C301.737 225.016 301.802 225.008 301.865 224.991C302.052 224.94 302.211 224.818 302.308 224.65C302.405 224.482 302.431 224.283 302.381 224.096C300.304 216.298 288.213 202.259 287.699 201.665C287.635 201.592 287.558 201.533 287.472 201.49C287.386 201.447 287.292 201.422 287.196 201.416C287.1 201.409 287.004 201.422 286.913 201.453C286.822 201.483 286.738 201.532 286.665 201.595C286.593 201.658 286.534 201.735 286.491 201.822C286.449 201.908 286.423 202.002 286.417 202.098C286.41 202.194 286.423 202.29 286.454 202.381C286.484 202.472 286.533 202.556 286.596 202.629C286.719 202.772 298.98 217.008 300.971 224.479C301.013 224.633 301.105 224.769 301.231 224.866C301.358 224.962 301.513 225.015 301.672 225.016Z" fill="#252362"></path><path d="M213.16 225.016C213.354 225.016 213.539 224.939 213.676 224.802C213.813 224.665 213.89 224.479 213.89 224.285C213.89 210.648 216.793 199.599 216.824 199.499C216.875 199.312 216.85 199.112 216.753 198.943C216.657 198.775 216.498 198.651 216.311 198.6C216.124 198.549 215.924 198.574 215.756 198.67C215.587 198.767 215.464 198.926 215.413 199.113C215.382 199.225 212.429 210.436 212.429 224.275C212.428 224.372 212.446 224.468 212.482 224.558C212.518 224.648 212.572 224.729 212.64 224.798C212.708 224.867 212.789 224.922 212.878 224.959C212.967 224.996 213.063 225.016 213.16 225.016Z" fill="#252362"></path><path d="M258.594 240.895C258.859 240.888 259.121 240.827 259.362 240.715C259.604 240.603 259.819 240.444 259.997 240.245C261.811 238.433 263.601 235.735 262.68 234.105C262.319 233.468 261.442 232.822 259.305 233.357C258.078 233.652 256.831 233.856 255.573 233.966C254.953 232.089 254.435 230.18 254.02 228.248C253.976 228.061 253.861 227.9 253.7 227.797C253.538 227.695 253.343 227.66 253.155 227.7C252.968 227.74 252.805 227.852 252.699 228.012C252.594 228.172 252.555 228.367 252.592 228.554C252.771 229.39 253.293 231.702 254.07 234.101C252.243 234.257 251.034 234.402 250.601 235.283C250.525 235.455 250.518 235.649 250.581 235.826C250.645 236.003 250.774 236.148 250.942 236.232C251.11 236.317 251.303 236.333 251.483 236.278C251.662 236.223 251.814 236.101 251.906 235.937C252.12 235.733 253.448 235.621 254.5 235.53H254.565C255.504 238.084 256.716 240.419 258.093 240.826C258.255 240.873 258.424 240.897 258.594 240.895ZM260.739 234.618C261.124 234.618 261.34 234.703 261.41 234.826C261.697 235.331 260.991 237.187 258.966 239.214C258.7 239.478 258.565 239.439 258.499 239.42C257.792 239.21 256.911 237.594 256.077 235.384C257.283 235.265 258.48 235.061 259.658 234.774C260.009 234.68 260.37 234.627 260.733 234.618H260.739Z" fill="#252362"></path><path d="M228.671 218.867C228.757 218.867 228.843 218.857 228.927 218.836C229.209 218.767 229.808 218.616 230.359 216.329C231.246 216.924 232.02 217.671 232.647 218.535C232.766 218.68 232.937 218.774 233.124 218.796C233.31 218.819 233.499 218.768 233.649 218.656C233.799 218.543 233.9 218.376 233.931 218.191C233.962 218.005 233.921 217.815 233.815 217.66C232.973 216.502 231.897 215.534 230.656 214.821C230.974 212.892 231.246 210.034 231.387 205.757C231.394 205.658 231.381 205.56 231.349 205.467C231.317 205.374 231.267 205.288 231.201 205.215C231.136 205.142 231.056 205.083 230.967 205.041C230.878 205 230.781 204.976 230.683 204.973C230.585 204.97 230.487 204.986 230.395 205.022C230.304 205.057 230.22 205.11 230.149 205.179C230.079 205.247 230.023 205.329 229.985 205.42C229.947 205.511 229.927 205.608 229.927 205.706C229.829 208.676 229.579 211.928 229.249 214.271C228.58 214.132 227.983 214.196 227.514 214.499C227.046 214.802 226.165 215.712 227.445 217.937C227.861 218.674 228.31 218.867 228.671 218.867ZM229.014 215.72C228.933 216.192 228.811 216.656 228.652 217.108C228.17 216.217 228.237 215.793 228.322 215.737C228.445 215.648 228.688 215.648 229.014 215.72Z" fill="#252362"></path><path d="M217.275 252.821H217.356C218.148 252.737 236.834 250.633 240.573 243.154C240.66 242.98 240.674 242.779 240.613 242.596C240.552 242.412 240.42 242.26 240.247 242.173C240.073 242.086 239.873 242.072 239.689 242.133C239.505 242.195 239.353 242.326 239.267 242.5C235.884 249.271 217.385 251.35 217.198 251.371C217.011 251.39 216.84 251.481 216.718 251.623C216.596 251.766 216.533 251.95 216.543 252.137C216.553 252.324 216.635 252.5 216.771 252.629C216.907 252.758 217.088 252.83 217.275 252.829V252.821Z" fill="#252362"></path><path d="M302.7 232.233C302.76 232.232 302.82 232.225 302.878 232.21C302.971 232.187 303.059 232.145 303.136 232.088C303.213 232.031 303.278 231.96 303.327 231.877C303.377 231.795 303.41 231.704 303.424 231.609C303.438 231.514 303.433 231.417 303.41 231.324L302.38 227.205C302.36 227.109 302.32 227.019 302.263 226.939C302.207 226.86 302.135 226.792 302.052 226.74C301.969 226.689 301.876 226.655 301.78 226.64C301.683 226.625 301.584 226.629 301.49 226.653C301.395 226.676 301.306 226.719 301.228 226.778C301.15 226.837 301.084 226.91 301.035 226.995C300.986 227.08 300.955 227.173 300.942 227.27C300.93 227.367 300.937 227.466 300.964 227.56L301.993 231.679C302.033 231.837 302.124 231.977 302.252 232.078C302.38 232.178 302.538 232.232 302.7 232.233Z" fill="#252362"></path><path d="M239.917 190.515C239.971 190.515 240.025 190.509 240.077 190.498L244.703 189.468C244.798 189.448 244.887 189.409 244.967 189.355C245.046 189.3 245.114 189.23 245.167 189.149C245.219 189.067 245.255 188.976 245.272 188.881C245.289 188.786 245.287 188.689 245.266 188.594C245.245 188.5 245.206 188.411 245.15 188.332C245.094 188.253 245.024 188.185 244.942 188.134C244.86 188.082 244.769 188.048 244.674 188.032C244.578 188.016 244.481 188.019 244.387 188.041L239.761 189.07C239.586 189.109 239.431 189.212 239.326 189.358C239.221 189.504 239.174 189.684 239.193 189.863C239.213 190.041 239.297 190.207 239.431 190.327C239.564 190.448 239.738 190.514 239.917 190.515Z" fill="#252362"></path><path d="M261.121 288.932C264.247 288.932 271.081 288.315 277.409 283.567C277.559 283.449 277.657 283.277 277.681 283.087C277.706 282.898 277.656 282.706 277.541 282.554C277.427 282.401 277.257 282.299 277.068 282.27C276.88 282.241 276.687 282.287 276.532 282.398C268.641 288.319 259.644 287.412 259.554 287.412C259.457 287.398 259.358 287.404 259.263 287.429C259.168 287.454 259.079 287.498 259.002 287.558C258.924 287.618 258.86 287.693 258.812 287.778C258.764 287.864 258.733 287.958 258.723 288.056C258.712 288.153 258.721 288.252 258.749 288.346C258.777 288.44 258.824 288.527 258.887 288.603C258.949 288.678 259.026 288.74 259.114 288.785C259.201 288.83 259.296 288.857 259.394 288.865C259.968 288.918 260.544 288.94 261.121 288.932Z" fill="#252362"></path><path d="M184.863 263.861C182.276 263.414 179.659 263.248 177.036 263.157C174.415 263.097 171.788 263.144 169.166 263.337C166.541 263.493 163.933 263.846 161.33 264.241C158.726 264.636 156.154 265.234 153.599 265.89C148.507 267.263 143.509 269.093 138.848 271.593C134.16 274.012 129.873 277.143 126.141 280.873C126.126 280.887 126.116 280.907 126.115 280.928C126.114 280.95 126.122 280.97 126.136 280.986C126.151 281.002 126.17 281.011 126.192 281.012C126.213 281.013 126.233 281.005 126.249 280.991C130.285 277.717 134.699 274.938 139.396 272.715C140.552 272.137 141.759 271.645 142.944 271.12C144.153 270.648 145.349 270.144 146.577 269.724C147.793 269.271 149.033 268.887 150.266 268.484C151.511 268.121 152.753 267.74 154.011 267.425C159.03 266.09 164.144 265.14 169.307 264.581C174.467 264.023 179.674 263.763 184.857 264.017C184.878 264.02 184.899 264.014 184.916 264C184.932 263.987 184.943 263.968 184.945 263.947C184.947 263.926 184.941 263.905 184.928 263.889C184.915 263.872 184.895 263.862 184.874 263.859L184.863 263.861Z" fill="#252362"></path><path d="M354.145 370.444C349.627 371.107 345.119 371.759 340.587 372.228C336.066 372.762 331.529 373.207 327.009 373.605C322.478 373.965 317.95 374.328 313.413 374.542C308.879 374.799 304.342 374.952 299.804 375.001C297.535 375.059 295.269 375.047 293 375.053C290.732 375.016 288.463 374.991 286.196 374.914C283.93 374.874 281.665 374.754 279.399 374.65C278.265 374.592 277.136 374.496 276.004 374.432L274.304 374.332L272.61 374.193C263.54 373.486 254.52 372.234 245.6 370.444C245.59 370.441 245.579 370.441 245.568 370.443C245.558 370.444 245.548 370.448 245.539 370.454C245.53 370.46 245.523 370.467 245.517 370.476C245.511 370.485 245.507 370.495 245.505 370.505C245.501 370.525 245.505 370.546 245.516 370.563C245.526 370.58 245.543 370.593 245.563 370.598C249.981 371.744 254.429 372.768 258.928 373.553C263.426 374.337 267.944 374.997 272.487 375.439L274.189 375.618L275.895 375.761C277.032 375.853 278.169 375.954 279.306 376.038C281.584 376.179 283.86 376.334 286.142 376.411C288.423 376.524 290.705 376.548 292.985 376.604C295.267 376.604 297.549 376.638 299.831 376.604C308.959 376.469 318.075 375.848 327.148 374.868C331.685 374.372 336.208 373.774 340.718 373.076C345.227 372.376 349.723 371.585 354.183 370.613C354.204 370.608 354.221 370.596 354.233 370.578C354.244 370.561 354.248 370.54 354.245 370.519C354.24 370.499 354.229 370.482 354.212 370.471C354.196 370.46 354.176 370.455 354.156 370.457L354.145 370.444Z" fill="#252362"></path><path d="M361.366 370.777C361.873 370.777 373.846 370.748 376.978 368.145C377.027 368.1 377.057 368.038 377.062 367.972C377.067 367.905 377.045 367.84 377.003 367.789C376.96 367.737 376.9 367.705 376.834 367.697C376.768 367.689 376.701 367.707 376.648 367.748C373.669 370.234 361.499 370.255 361.376 370.255C361.34 370.252 361.304 370.256 361.27 370.268C361.236 370.279 361.205 370.298 361.179 370.322C361.153 370.346 361.131 370.375 361.117 370.408C361.103 370.441 361.095 370.476 361.095 370.512C361.095 370.548 361.103 370.583 361.117 370.616C361.131 370.649 361.153 370.678 361.179 370.703C361.205 370.727 361.236 370.745 361.27 370.757C361.304 370.768 361.34 370.773 361.376 370.77L361.366 370.777Z" fill="#252362"></path><path d="M190.499 266.429C188.271 266.649 186.103 267.214 183.964 267.864C181.827 268.545 179.74 269.375 177.719 270.348C175.689 271.319 173.724 272.422 171.836 273.647C169.962 274.898 168.16 276.255 166.44 277.711L165.177 278.841L163.959 280.016C163.547 280.401 163.163 280.816 162.77 281.221C162.377 281.626 161.978 282.025 161.614 282.465L160.515 283.753C160.156 284.187 159.817 284.638 159.466 285.08C158.747 285.948 158.142 286.903 157.497 287.822C155.016 291.557 153.111 295.644 151.845 299.945V299.955C151.839 299.975 151.841 299.996 151.85 300.014C151.859 300.032 151.875 300.046 151.894 300.053C151.913 300.06 151.934 300.06 151.953 300.051C151.971 300.043 151.986 300.028 151.994 300.009C153.743 295.967 155.928 292.127 158.51 288.559C161.121 285.015 164.126 281.78 167.469 278.916C170.796 276.035 174.432 273.532 178.311 271.453C180.249 270.407 182.243 269.47 184.285 268.645C186.319 267.808 188.411 267.119 190.544 266.583C190.554 266.581 190.564 266.578 190.572 266.572C190.581 266.566 190.589 266.559 190.595 266.551C190.601 266.542 190.605 266.533 190.607 266.522C190.61 266.512 190.61 266.502 190.608 266.492C190.606 266.481 190.603 266.471 190.597 266.463C190.592 266.454 190.584 266.446 190.576 266.44C190.567 266.434 190.558 266.43 190.548 266.428C190.537 266.425 190.527 266.425 190.517 266.427L190.499 266.429Z" fill="#252362"></path><path d="M101.933 344.81C102.485 346.096 103.09 347.359 103.716 348.607C104.343 349.855 105.025 351.079 105.719 352.294C107.104 354.726 108.562 357.116 110.113 359.455C113.259 364.106 116.692 368.557 120.39 372.782L123.216 375.912L126.17 378.92C127.176 379.906 128.207 380.86 129.225 381.832C130.243 382.804 131.326 383.707 132.374 384.646C136.659 388.309 141.182 391.683 145.913 394.748C150.692 397.743 155.671 400.407 160.815 402.721L164.73 404.339L165.707 404.738L166.703 405.093L168.694 405.801C171.323 406.817 174.062 407.504 176.76 408.292C178.121 408.641 179.499 408.929 180.868 409.257L182.922 409.725C183.608 409.876 184.304 409.972 184.996 410.099L189.146 410.813C189.834 410.938 190.537 410.987 191.231 411.077C191.925 411.168 192.625 411.245 193.322 411.313C196.106 411.664 198.912 411.714 201.703 411.858C204.494 412.003 207.292 411.837 210.081 411.8C210.092 411.8 210.102 411.798 210.112 411.794C210.122 411.79 210.13 411.784 210.138 411.777C210.145 411.769 210.151 411.76 210.155 411.75C210.159 411.74 210.16 411.73 210.16 411.719C210.159 411.699 210.151 411.679 210.136 411.665C210.121 411.65 210.102 411.641 210.081 411.64C198.949 411.584 187.814 410.121 177.098 407.11C174.448 406.264 171.759 405.525 169.17 404.499L167.214 403.776L166.235 403.415L165.271 403.006L161.436 401.363C156.377 399.042 151.479 396.386 146.774 393.412C137.397 387.386 128.838 380.173 121.309 371.95C117.547 367.843 114.039 363.509 110.805 358.973C109.178 356.715 107.642 354.389 106.179 352.03C104.716 349.672 103.317 347.249 102.089 344.756C102.085 344.746 102.079 344.738 102.071 344.731C102.063 344.724 102.054 344.719 102.044 344.715C102.034 344.712 102.024 344.71 102.013 344.711C102.003 344.712 101.993 344.714 101.983 344.719C101.966 344.726 101.951 344.739 101.942 344.755C101.933 344.772 101.93 344.791 101.933 344.81Z" fill="#252362"></path></svg>