<svg xmlns="http://www.w3.org/2000/svg" width="553" height="498" viewBox="0 0 553 498" fill="none"><path d="M142.686 489.335C130.986 486.805 -9.57709 464.013 0.780344 295.897C11.1378 127.78 24.1081 77.2192 78.7567 58.7195C133.405 40.2197 266.246 -47.3021 370.488 35.922C474.731 119.146 587.216 193.786 542.577 326.671C497.937 459.555 490.651 503.885 374.167 497.102C257.683 490.318 198.317 501.372 142.686 489.335Z" fill="#F9F9F9"></path><path d="M472.82 492.243C467.164 485.614 463.032 480.781 462.932 480.692C454.409 473.301 445.355 466.606 436.368 459.795C430.378 455.252 425.629 449.273 422.558 442.411C419.183 434.882 415.796 426.883 413.465 418.962C412.736 416.476 410.991 412.526 411.256 409.936C411.532 407.433 414.609 404.528 416.376 402.876C418.954 400.565 421.775 398.54 424.789 396.838C427.949 394.971 428.656 394.667 428.96 390.972C429.722 382.051 428.883 372.677 428.844 363.717C428.805 354.757 427.794 339.273 427.618 323.591L416.432 300.793C412.708 293.203 412.714 285.188 418.547 279.073C422.74 274.687 429.192 276.582 432.236 278.161C443.35 283.945 450.277 294.071 457.337 304.235L473.163 327.032C477.433 333.18 482.504 338.958 485.277 346.001C488.348 353.807 489.337 362.319 490.398 370.583C491.944 382.658 492.9 394.772 493.999 406.898C494.552 413.173 495.264 419.426 495.91 425.679C496.374 430.153 496.656 434.777 498.44 438.97C500.783 444.466 504.837 448.99 508.627 453.52C509.013 453.973 513.449 458.215 519.481 463.932L472.82 492.243Z" fill="white"></path><path d="M471.974 489.418C469.717 486.726 467.456 484.041 465.191 481.364C463.374 479.22 461.087 477.53 458.916 475.751C451.735 469.868 444.167 464.493 436.897 458.732C429.992 453.258 425.673 446.226 422.193 438.249C418.651 430.282 415.643 422.089 413.188 413.723C412.708 412.027 412.244 410.176 412.94 408.48C413.691 406.635 415.321 405.1 416.718 403.752C419.756 400.808 423.253 398.709 426.816 396.482C428.578 395.378 429.727 394.273 430.13 392.185C430.898 388.147 430.683 383.728 430.594 379.64C430.346 362.825 429.451 346.038 429.064 329.228C429.009 326.947 429.385 324.5 428.54 322.384C427.937 320.876 427.092 319.423 426.374 317.965C424.334 313.807 422.292 309.646 420.248 305.481C418.701 302.326 416.934 299.156 415.984 295.758C413.934 288.329 416.917 275.369 427.032 277.319C434.163 278.7 440.455 284.826 445.089 290.063C450.558 296.239 455.071 303.232 459.767 309.999C465.075 317.644 470.295 325.361 475.786 332.863C478.344 336.343 480.901 339.867 482.801 343.762C484.678 347.812 486.044 352.08 486.867 356.467C490.634 374.641 491.286 393.477 493.104 411.927C493.562 416.628 494.098 421.318 494.579 426.019C495.004 430.184 495.28 434.443 496.744 438.404C499.053 444.64 503.859 450.595 508.576 455.208C511.04 457.611 513.548 459.969 516.039 462.339C516.691 462.958 519.199 461.958 518.519 461.312C513.509 456.556 508.698 451.976 504.516 446.452C501.754 442.823 499.478 438.912 498.467 434.438C497.457 429.963 497.241 425.201 496.749 420.628C494.672 401.178 493.54 381.601 490.673 362.239C489.347 353.296 487.121 344.822 482.089 337.216C477.057 329.609 471.422 322.218 466.185 314.678C461.009 307.226 456.049 299.542 450.392 292.444C445.62 286.445 439.897 280.634 432.865 277.314C427.893 274.983 421.585 274.812 417.486 278.877C412.062 284.263 411.47 292.173 414.172 299.029C417.11 306.497 421.231 313.639 424.767 320.837C425.225 321.782 426.004 322.87 426.264 323.892C426.634 325.345 426.335 327.339 426.369 328.864C426.431 331.544 426.507 334.222 426.595 336.895C426.871 345.181 427.341 353.467 427.49 361.753C427.661 371.337 428.457 381.087 427.672 390.627C427.567 391.931 427.545 393.499 426.706 394.577C425.728 395.842 423.689 396.621 422.358 397.449C419.03 399.464 415.974 401.898 413.266 404.691C411.122 406.945 409.515 409.226 410.045 412.425C410.703 416.38 412.41 420.473 413.708 424.257C416.553 432.543 419.751 441.42 424.518 448.827C429.49 456.561 436.798 461.533 443.979 466.985C447.901 469.968 451.801 472.984 455.624 476.094C457.999 478.022 460.595 479.861 462.567 482.203C464.887 484.932 467.191 487.683 469.5 490.423C470.052 491.097 472.621 490.163 471.98 489.401L471.974 489.418Z" fill="#6A79A8"></path><path d="M335.859 218.805H421.95C423.831 218.82 425.692 219.206 427.424 219.94C429.157 220.674 430.728 221.742 432.048 223.084C433.368 224.425 434.411 226.013 435.117 227.757C435.823 229.502 436.178 231.368 436.163 233.25V408.244C436.186 412.042 434.704 415.696 432.04 418.404C429.376 421.112 425.748 422.655 421.95 422.694H335.859C333.977 422.678 332.117 422.292 330.384 421.557C328.652 420.822 327.081 419.753 325.762 418.412C324.442 417.07 323.4 415.481 322.695 413.736C321.99 411.992 321.635 410.125 321.651 408.244V233.25C321.62 229.45 323.099 225.794 325.764 223.085C328.428 220.377 332.059 218.837 335.859 218.805Z" fill="#E5E5E5"></path><path d="M341.609 218.805H427.711C431.51 218.837 435.141 220.377 437.805 223.085C440.47 225.794 441.949 229.45 441.918 233.25V408.244C441.934 410.125 441.58 411.992 440.874 413.736C440.169 415.481 439.127 417.07 437.807 418.412C436.488 419.753 434.917 420.822 433.185 421.557C431.453 422.292 429.592 422.678 427.711 422.694H341.609C339.727 422.678 337.867 422.292 336.134 421.557C334.402 420.822 332.831 419.753 331.512 418.412C330.192 417.07 329.15 415.481 328.445 413.736C327.74 411.992 327.385 410.125 327.401 408.244V233.25C327.37 229.45 328.849 225.794 331.514 223.085C334.178 220.377 337.809 218.837 341.609 218.805Z" fill="white"></path><path d="M340.759 219.358H401.025C409.449 219.358 417.873 219.297 426.297 219.358C429.818 219.337 433.22 220.626 435.843 222.974C438.465 225.322 440.121 228.562 440.489 232.063C440.586 233.469 440.612 234.879 440.566 236.289V398.362C440.566 402.814 441.262 408.205 440.013 412.547C438.516 417.74 434.108 421.938 428.557 422.137C427.966 422.137 427.375 422.137 426.784 422.137H346.134C342.571 422.137 339.179 422.247 335.92 420.38C331.103 417.618 328.783 412.586 328.739 407.194C328.656 391.092 328.739 374.99 328.739 358.882V279.657C328.739 264.19 328.612 248.723 328.739 233.256C328.799 226.213 333.561 219.534 341.041 219.335C341.786 219.335 343.946 218.181 342.19 218.231C333.782 218.452 326.38 224.489 326.082 233.206C326.043 234.388 326.082 235.576 326.082 236.758V401.908C326.082 408.962 325.75 416.16 332.5 420.734C335.892 423.026 339.604 423.253 343.504 423.253H425.403C435.103 423.253 443.212 417.43 443.256 407.117C443.256 401.328 443.256 395.544 443.256 389.761V244.558C443.256 240.431 443.46 236.272 443.256 232.129C442.825 224.185 436.23 218.402 428.452 218.247C425.839 218.192 423.221 218.247 420.608 218.247H342.482C341.897 218.253 339.455 219.358 340.759 219.358Z" fill="#6A79A8"></path><path d="M435.577 242.977H333.754V396.416H435.577V242.977Z" fill="white"></path><path d="M374.201 233.548H392.507C393.728 233.548 395.026 233.669 396.153 233.128C398.213 232.139 398.672 228.918 396.379 227.897C395.275 227.421 393.733 227.659 392.612 227.659H378.029C376.609 227.659 374.792 227.416 373.449 228.001C370.748 229.173 371.002 232.918 373.897 233.525C374.858 233.719 377.051 232.255 375.499 231.946C375.2 231.885 373.593 230.051 374.278 229.355C374.344 229.294 374.582 229.399 374.67 229.355C375.107 229.139 376.151 229.355 376.648 229.355H390.596C392.032 229.355 393.849 228.885 394.722 230.062C396.412 232.343 394.142 231.896 392.612 231.896H375.167C374.062 231.874 372.378 233.548 374.201 233.548Z" fill="#6A79A8"></path><path d="M362.92 233.614C364.677 233.614 366.864 233.112 367.151 231.018C367.4 229.212 366.4 227.704 364.5 227.593C362.749 227.483 360.545 228.179 360.274 230.189C360.025 232.001 361.02 233.504 362.92 233.614C363.528 233.653 364.378 233.427 364.666 232.824C364.953 232.222 364.428 231.841 363.881 231.808C363.058 231.758 362.92 230.891 362.948 230.217C363.018 229.932 363.106 229.651 363.213 229.377C363.213 229.444 362.754 229.377 363.213 229.377C363.318 229.377 363.423 229.377 363.528 229.377C364.34 229.499 364.494 230.256 364.456 230.968C364.462 231.134 364.443 231.3 364.4 231.46C364.4 231.46 364.174 231.863 364.163 231.825C364.152 231.786 364.621 231.825 364.323 231.786C364.17 231.775 364.017 231.775 363.865 231.786C363.251 231.786 362.417 231.952 362.119 232.576C361.821 233.2 362.368 233.614 362.92 233.614Z" fill="#6A79A8"></path><path d="M379.066 415.397C382.784 415.397 387.009 416.011 390.666 415.237C396.842 413.928 396.881 404.554 390.263 404.118C388.407 403.996 386.507 404.118 384.645 404.118C382.784 404.118 380.574 403.874 378.668 404.278C372.448 405.598 372.509 414.806 379.066 415.397C380.071 415.486 381.905 414.077 380.116 413.917C377.326 413.668 375.967 410.183 376.912 407.758C377.818 405.416 379.602 405.598 381.541 405.598C384.01 405.598 386.766 405.239 389.213 405.598C391.926 405.996 393.207 408.912 392.528 411.404C391.848 413.895 390.014 413.917 388.031 413.917H380.116C379.132 413.917 377.276 415.397 379.066 415.397Z" fill="#6A79A8"></path><path d="M333.218 397.124H435.042C435.594 397.124 436.914 396.837 436.914 396.08V242.619C436.914 242.321 436.285 242.293 436.119 242.293H334.295C333.743 242.293 332.423 242.575 332.423 243.331V396.793C332.423 397.489 335.091 397.03 335.091 396.08V242.619L333.218 243.663H435.042L434.246 243.331V396.793L436.119 395.754H334.295C333.384 395.754 331.429 397.124 333.218 397.124Z" fill="#6A79A8"></path><path d="M379.724 284.331V300.902C379.724 303.554 385.11 302.665 385.11 300.427V283.856C385.11 281.204 379.724 282.099 379.724 284.331Z" fill="#CFCFCF"></path><path d="M379.724 334.045V350.617C379.724 353.269 385.11 352.379 385.11 350.142V333.57C385.11 330.919 379.724 331.814 379.724 334.045Z" fill="#E3E3E3"></path><path d="M356.523 294.94L368.24 306.662C369.842 308.264 374.907 306.137 373.145 304.375L361.418 292.659C359.816 291.057 354.756 293.178 356.518 294.94H356.523Z" fill="#CFCFCF"></path><path d="M348.994 319.07H365.566C368.521 319.07 369.737 315.402 366.119 315.402H349.547C346.591 315.402 345.376 319.07 348.994 319.07Z" fill="#DBDBDB"></path><path d="M398.71 319.07H415.282C418.237 319.07 419.453 315.402 415.834 315.402H399.262C396.307 315.402 395.092 319.07 398.71 319.07Z" fill="#EFEFEF"></path><path d="M361.18 341.37L372.897 329.654C373.781 328.77 373.322 327.638 372.25 327.245C370.996 326.781 369.383 327.35 368.478 328.256L356.761 339.973C355.872 340.862 356.336 341.989 357.407 342.387C358.656 342.845 360.274 342.276 361.18 341.37Z" fill="#DBDBDB"></path><path d="M396.336 306.22L408.052 294.482C408.936 293.598 408.477 292.466 407.406 292.073C406.152 291.609 404.539 292.178 403.633 293.084L391.916 304.801C391.027 305.69 391.491 306.817 392.563 307.215C393.811 307.673 395.43 307.104 396.336 306.204V306.22Z" fill="#EFEFEF"></path><path d="M438.08 393.092C437.01 392.301 436.021 391.406 435.13 390.418C432.87 387.883 432.279 385.132 431.423 381.961C429.766 375.885 427.844 369.935 426.07 363.914C423.57 355.444 421.066 346.965 418.558 338.476C415.995 329.776 407.51 324.611 399.6 326.942L399.478 326.981C391.584 329.312 387.265 338.244 389.833 346.934C392.183 354.899 394.532 362.863 396.882 370.825C403.157 392.092 409.736 413.359 417.166 434.24C419.74 441.465 421.789 444.597 426.689 450.42C432.213 456.999 440.427 465.721 448.448 469.201C456.27 472.609 459.236 464.373 460.678 458.015C464.727 440.195 466.837 423.766 459.192 406.51C456.983 401.466 457.077 401.339 452.403 400.019C448.814 399.05 445.366 397.621 442.145 395.765C440.744 394.947 439.387 394.054 438.08 393.092Z" fill="white"></path><path d="M433.643 384.707C431.168 376.325 428.696 367.943 426.225 359.561L421.485 343.542C420.507 340.228 419.739 336.676 417.917 333.704C413.895 327.147 405.913 323.982 398.583 326.523C391.087 329.097 386.905 336.847 387.921 344.564C388.689 350.381 391.142 356.253 392.799 361.87C394.53 367.737 396.264 373.598 398.003 379.453C401.599 391.462 405.311 403.438 409.238 415.359C411.371 421.817 413.536 428.263 415.867 434.654C417.42 439.207 419.667 443.493 422.529 447.359C429.771 456.872 438.957 464.318 448.856 470.897C449.641 471.416 452.082 470.289 450.966 469.544C442.526 463.937 434.522 457.717 427.954 449.945C425.192 446.669 422.573 443.283 420.734 439.388C418.524 434.721 417.022 429.699 415.353 424.822C407.907 403.112 401.372 381.11 394.876 359.086C392.252 350.198 386.916 339.029 394.495 331.036C401.295 323.854 412.133 327.986 416.116 335.958C417.403 338.532 418.044 341.531 418.85 344.277C420.301 349.189 421.75 354.098 423.197 359.004C425.805 367.842 428.408 376.664 431.008 385.469C431.307 386.469 433.969 385.745 433.676 384.751L433.643 384.707Z" fill="#6A79A8"></path><path d="M445.801 396.306C441.498 395.074 437.515 391.605 434.632 388.224C434.135 387.628 431.588 388.545 432.14 389.197C435.09 392.688 439.178 396.19 443.641 397.483C444.348 397.687 446.735 396.588 445.801 396.317V396.306Z" fill="#6A79A8"></path><path d="M406.792 357.003C412.26 355.39 418.094 352.678 417.287 345.817C417.033 343.607 416.099 341.326 415.47 339.188C414.801 336.94 414.265 334.703 412.603 332.935C408.559 328.648 401.919 329.858 397.136 332.195C395.694 332.865 394.441 333.882 393.489 335.156C392.537 336.429 391.917 337.919 391.683 339.492C391.335 342.077 392.396 344.635 393.114 347.071C393.926 349.833 394.484 352.755 396.6 354.849C399.362 357.611 403.173 357.903 406.775 357.003C408.322 356.616 408.139 355.86 406.571 356.252C398.583 358.24 396.677 349.396 395.053 343.895C394.28 341.271 393.899 338.719 395.169 336.161C396.766 332.924 400.235 331.444 403.67 331.217C410.852 330.742 412.244 338.023 413.812 343.337C414.547 345.828 415.061 348.203 414.078 350.75C412.735 354.246 409.824 355.313 406.571 356.274C405.079 356.699 405.239 357.456 406.792 357.003Z" fill="#6A79A8"></path><path d="M80.032 44.7988C85.6886 51.4276 89.8205 56.2611 89.9199 56.3494C98.4434 63.7405 107.497 70.4356 116.485 77.2466C122.474 81.7901 127.224 87.7685 130.295 94.6305C133.67 102.16 137.056 110.158 139.387 118.08C140.116 120.566 141.862 124.515 141.597 127.106C141.32 129.608 138.244 132.514 136.476 134.166C133.899 136.477 131.078 138.501 128.063 140.203C124.903 142.07 124.196 142.374 123.892 146.07C123.13 154.991 123.97 164.365 124.008 173.325C124.047 182.285 125.058 197.769 125.235 213.451L136.421 236.248C140.144 243.838 140.138 251.854 134.305 257.969C130.112 262.355 123.66 260.46 120.617 258.88C109.502 253.097 102.575 242.971 95.5157 232.807L79.6896 210.01C75.4195 203.861 70.3485 198.083 67.5755 191.04C64.5042 183.235 63.5154 174.723 62.4548 166.459C60.9081 154.383 59.9524 142.269 58.8532 130.144C58.3008 123.869 57.5882 117.61 56.9419 111.363C56.4778 106.888 56.1961 102.265 54.4119 98.072C52.0697 92.5756 48.0151 88.0515 44.2257 83.5218C43.839 83.0689 39.4033 78.8265 33.3711 73.1092L80.032 44.7988Z" fill="white"></path><path d="M80.8774 47.6212C83.1349 50.3095 85.396 52.9942 87.6609 55.6751C89.4782 57.8184 91.7652 59.5088 93.9361 61.2875C101.117 67.176 108.685 72.5453 115.955 78.3068C122.86 83.7811 127.179 90.8131 130.659 98.7897C134.201 106.756 137.209 114.95 139.663 123.316C140.144 125.012 140.608 126.862 139.912 128.558C139.161 130.403 137.531 131.939 136.134 133.287C133.095 136.231 129.599 138.33 126.036 140.556C124.274 141.661 123.125 142.766 122.721 144.854C121.954 148.892 122.169 153.311 122.252 157.399C122.506 174.214 123.401 191.001 123.788 207.811C123.843 210.092 123.467 212.539 124.312 214.655C124.914 216.163 125.76 217.616 126.478 219.074C128.518 223.239 130.56 227.401 132.604 231.558C134.151 234.712 135.918 237.883 136.868 241.28C138.918 248.71 135.935 261.669 125.82 259.719C118.689 258.338 112.397 252.212 107.763 246.976C102.294 240.8 97.7808 233.806 93.0854 227.04C87.7769 219.394 82.5567 211.677 77.0659 204.176C74.5083 200.696 71.9507 197.172 70.0504 193.277C68.1739 189.227 66.8082 184.959 65.9848 180.572C62.2175 162.398 61.5656 143.561 59.7482 125.111C59.2898 120.411 58.7539 115.721 58.2733 111.02C57.848 106.855 57.5718 102.596 56.1079 98.635C53.81 92.3708 48.9931 86.416 44.2756 81.809C41.8119 79.4061 39.304 77.0474 36.8127 74.6776C36.1609 74.0589 33.653 75.0587 34.3325 75.705C39.3427 80.4612 44.1541 85.0405 48.3357 90.5645C51.0977 94.1938 53.3736 98.1047 54.3845 102.579C55.3954 107.054 55.6108 111.815 56.1024 116.389C58.1794 135.839 59.3118 155.416 62.1788 174.777C63.5045 183.721 65.7307 192.194 70.763 199.801C75.7954 207.407 81.4188 214.804 86.6555 222.344C91.8314 229.796 96.792 237.48 102.449 244.578C107.221 250.577 112.944 256.388 119.976 259.708C124.92 262.039 131.256 262.211 135.355 258.145C140.779 252.759 141.37 244.849 138.669 237.994C135.73 230.525 131.61 223.383 128.074 216.185C127.616 215.246 126.837 214.152 126.577 213.13C126.207 211.677 126.505 209.683 126.472 208.159C126.41 205.478 126.334 202.8 126.246 200.127C125.97 191.841 125.5 183.555 125.351 175.269C125.18 165.685 124.384 155.935 125.169 146.395C125.274 145.092 125.296 143.523 126.135 142.446C127.113 141.181 129.151 140.402 130.483 139.573C133.811 137.558 136.867 135.124 139.575 132.331C141.718 130.077 143.326 127.796 142.796 124.598C142.138 120.642 140.431 116.549 139.133 112.765C136.288 104.479 133.09 95.6024 128.323 88.1947C123.351 80.4612 116.043 75.4896 108.862 70.0374C104.94 67.0545 101.04 64.0384 97.2173 60.9284C94.842 59.0006 92.2458 57.1611 90.2737 54.8189C87.9536 52.0901 85.6501 49.3391 83.3411 46.5992C82.7887 45.9253 80.2201 46.8589 80.8608 47.6212H80.8774Z" fill="#6A79A8"></path><path d="M216.994 318.235H130.903C129.021 318.22 127.161 317.834 125.428 317.1C123.696 316.366 122.125 315.298 120.805 313.956C119.485 312.615 118.442 311.027 117.736 309.283C117.03 307.538 116.675 305.672 116.69 303.79V128.796C116.666 124.998 118.149 121.344 120.812 118.636C123.476 115.928 127.105 114.385 130.903 114.346H216.994C218.876 114.362 220.736 114.748 222.468 115.483C224.201 116.218 225.772 117.287 227.091 118.628C228.41 119.97 229.452 121.559 230.158 123.304C230.863 125.048 231.218 126.915 231.202 128.796V303.79C231.233 307.59 229.753 311.246 227.089 313.955C224.425 316.663 220.794 318.203 216.994 318.235Z" fill="#E5E5E5"></path><path d="M211.244 318.235H125.142C121.342 318.203 117.711 316.663 115.047 313.955C112.383 311.246 110.903 307.59 110.934 303.79V128.796C110.918 126.915 111.273 125.048 111.978 123.304C112.684 121.559 113.726 119.97 115.045 118.628C116.364 117.287 117.935 116.218 119.667 115.483C121.4 114.748 123.26 114.362 125.142 114.346H211.244C213.126 114.362 214.986 114.748 216.718 115.483C218.451 116.218 220.021 117.287 221.341 118.628C222.66 119.97 223.702 121.559 224.407 123.304C225.113 125.048 225.468 126.915 225.451 128.796V303.79C225.482 307.59 224.003 311.246 221.339 313.955C218.674 316.663 215.043 318.203 211.244 318.235Z" fill="white"></path><path d="M212.094 317.682H151.827C143.403 317.682 134.979 317.743 126.555 317.682C123.035 317.703 119.633 316.414 117.01 314.066C114.387 311.718 112.732 308.478 112.364 304.977C112.267 303.571 112.241 302.16 112.287 300.751V138.706C112.287 134.253 111.591 128.862 112.839 124.52C114.336 119.328 118.744 115.129 124.296 114.931C124.887 114.931 125.478 114.931 126.069 114.931H206.719C210.282 114.931 213.674 114.82 216.933 116.687C221.75 119.449 224.07 124.482 224.114 129.873C224.197 145.975 224.114 162.078 224.114 178.186V257.383C224.114 272.85 224.241 288.317 224.114 303.784C224.053 310.827 219.292 317.505 211.812 317.704C211.066 317.704 208.907 318.859 210.663 318.809C219.071 318.588 226.473 312.55 226.771 303.834C226.81 302.652 226.771 301.464 226.771 300.282V135.132C226.771 128.078 227.103 120.88 220.352 116.306C216.961 114.014 213.248 113.787 209.349 113.787H127.45C117.75 113.787 109.641 119.609 109.597 129.923C109.569 135.712 109.597 141.495 109.597 147.279V292.482C109.597 296.608 109.392 300.768 109.597 304.911C110.028 312.854 116.623 318.638 124.401 318.793C127.014 318.848 129.632 318.793 132.245 318.793H210.37C210.956 318.787 213.398 317.682 212.094 317.682Z" fill="#6A79A8"></path><path d="M219.099 140.625H117.275V294.064H219.099V140.625Z" fill="white"></path><path d="M178.68 303.494H160.373C159.152 303.494 157.854 303.373 156.727 303.914C154.667 304.903 154.208 308.123 156.501 309.145C157.606 309.62 159.147 309.383 160.268 309.383H174.851C176.271 309.383 178.088 309.626 179.431 309.04C182.132 307.869 181.878 304.124 178.983 303.516C178.022 303.323 175.829 304.787 177.381 305.096C177.68 305.157 179.287 306.991 178.602 307.687C178.536 307.748 178.298 307.643 178.21 307.687C177.774 307.902 176.73 307.687 176.232 307.687H162.284C160.848 307.687 159.031 308.156 158.158 306.98C156.468 304.698 158.738 305.146 160.268 305.146H177.685C178.79 305.168 180.475 303.494 178.68 303.494Z" fill="#6A79A8"></path><path d="M189.933 303.426C188.176 303.426 185.989 303.929 185.702 306.022C185.453 307.829 186.453 309.337 188.353 309.447C190.104 309.558 192.308 308.862 192.579 306.851C192.827 305.039 191.833 303.537 189.933 303.426C189.325 303.387 188.475 303.614 188.187 304.216C187.9 304.818 188.425 305.199 188.972 305.232C189.795 305.282 189.933 306.149 189.905 306.823C189.835 307.109 189.747 307.389 189.64 307.663C189.64 307.597 190.099 307.663 189.64 307.663C189.535 307.663 189.43 307.663 189.325 307.663C188.513 307.541 188.359 306.785 188.397 306.072C188.391 305.906 188.41 305.741 188.452 305.58C188.452 305.58 188.679 305.177 188.69 305.216C188.701 305.254 188.232 305.216 188.53 305.254C188.682 305.266 188.836 305.266 188.988 305.254C189.601 305.254 190.436 305.089 190.734 304.465C191.032 303.84 190.485 303.426 189.933 303.426Z" fill="#6A79A8"></path><path d="M173.785 121.645C170.068 121.645 165.842 121.032 162.185 121.805C156.009 123.114 155.97 132.488 162.588 132.925C164.444 133.046 166.344 132.925 168.206 132.925C170.068 132.925 172.277 133.168 174.183 132.764C180.403 131.444 180.342 122.236 173.785 121.645C172.78 121.556 170.946 122.965 172.736 123.125C175.498 123.374 176.884 126.859 175.939 129.284C174.995 131.709 173.249 131.444 171.31 131.444C168.841 131.444 166.085 131.803 163.638 131.444C160.925 131.046 159.644 128.13 160.323 125.638C161.003 123.147 162.837 123.125 164.82 123.125H172.725C173.719 123.125 175.575 121.645 173.785 121.645Z" fill="#6A79A8"></path><path d="M219.633 139.916H117.81C117.258 139.916 115.938 140.204 115.938 140.96V294.422C115.938 294.72 116.567 294.748 116.733 294.748H218.556C219.136 294.748 220.429 294.466 220.429 293.709V140.248C220.429 139.552 217.761 140.01 217.761 140.96V294.422L219.633 293.378H117.81L118.606 293.709V140.248L116.733 141.286H218.556C219.468 141.286 221.423 139.916 219.633 139.916Z" fill="#6A79A8"></path><path d="M173.128 252.71V236.139C173.128 233.487 167.742 234.376 167.742 236.614V253.185C167.742 255.837 173.128 254.942 173.128 252.71Z" fill="#CFCFCF"></path><path d="M173.128 202.996V186.424C173.128 183.772 167.742 184.662 167.742 186.899V203.471C167.742 206.122 173.128 205.227 173.128 202.996Z" fill="#E3E3E3"></path><path d="M196.329 242.098L184.618 230.404C183.016 228.802 177.951 230.929 179.713 232.691L191.435 244.407C193.037 246.009 198.097 243.888 196.335 242.126L196.329 242.098Z" fill="#CFCFCF"></path><path d="M203.858 217.971H187.286C184.331 217.971 183.115 221.639 186.734 221.639H203.305C206.261 221.639 207.476 217.971 203.858 217.971Z" fill="#DBDBDB"></path><path d="M154.143 217.971H137.571C134.616 217.971 133.4 221.639 137.019 221.639H153.591C156.546 221.639 157.761 217.971 154.143 217.971Z" fill="#EFEFEF"></path><path d="M191.671 195.671L179.955 207.387C179.071 208.271 179.53 209.403 180.601 209.796C181.855 210.26 183.468 209.691 184.374 208.785L196.091 197.068C196.98 196.179 196.516 195.052 195.444 194.654C194.196 194.196 192.577 194.765 191.671 195.671Z" fill="#DBDBDB"></path><path d="M156.517 230.821L144.801 242.559C143.917 243.443 144.375 244.575 145.447 244.967C146.701 245.431 148.32 244.863 149.22 243.957L160.936 232.24C161.826 231.351 161.362 230.224 160.29 229.826C159.042 229.368 157.423 229.937 156.517 230.837V230.821Z" fill="#EFEFEF"></path><path d="M114.773 143.949C115.843 144.74 116.832 145.636 117.723 146.623C119.982 149.158 120.573 151.909 121.43 155.08C123.087 161.156 125.009 167.106 126.782 173.127C129.283 181.597 131.787 190.076 134.295 198.565C136.858 207.265 145.343 212.43 153.253 210.099L153.375 210.06C161.269 207.729 165.588 198.797 163.02 190.108C160.674 182.142 158.324 174.178 155.971 166.216C149.696 144.949 143.117 123.682 135.687 102.801C133.113 95.5759 131.063 92.4438 126.164 86.6216C120.64 80.0425 112.426 71.3202 104.405 67.8401C96.5829 64.4318 93.6165 72.668 92.1748 79.0261C88.1257 96.8465 86.0155 113.275 93.6607 130.532C95.8703 135.575 95.7764 135.702 100.45 137.022C104.038 137.991 107.487 139.421 110.708 141.276C112.109 142.094 113.466 142.987 114.773 143.949Z" fill="white"></path><path d="M119.208 152.334C121.683 160.712 124.156 169.094 126.627 177.48L131.366 193.499C132.344 196.813 133.112 200.365 134.935 203.337C138.956 209.894 146.938 213.059 154.269 210.518C161.765 207.944 165.946 200.194 164.93 192.477C164.162 186.66 161.709 180.788 160.052 175.171C158.325 169.304 156.591 163.443 154.849 157.588C151.253 145.579 147.54 133.603 143.613 121.682C141.481 115.224 139.315 108.778 136.984 102.387C135.431 97.8338 133.184 93.5482 130.322 89.6816C123.08 80.1693 113.894 72.723 103.995 66.144C103.211 65.6247 100.769 66.7516 101.885 67.4973C110.325 73.1042 118.33 79.3242 124.898 87.0964C127.66 90.3721 130.278 93.7583 132.118 97.6527C134.327 102.32 135.83 107.342 137.498 112.214C144.944 133.929 151.479 155.931 157.975 177.949C160.599 186.837 165.935 198.007 158.356 206C151.556 213.181 140.718 209.049 136.736 201.078C135.448 198.504 134.808 195.504 134.001 192.759C132.55 187.85 131.101 182.941 129.654 178.032C127.047 169.194 124.443 160.372 121.843 151.567C121.545 150.567 118.882 151.29 119.175 152.285L119.208 152.334Z" fill="#6A79A8"></path><path d="M107.051 140.733C111.354 141.965 115.336 145.434 118.22 148.815C118.717 149.411 121.264 148.494 120.711 147.842C117.761 144.351 113.674 140.849 109.21 139.556C108.503 139.352 106.117 140.451 107.051 140.722V140.733Z" fill="#6A79A8"></path><path d="M146.06 180.036C140.591 181.649 134.758 184.361 135.564 191.222C135.818 193.432 136.752 195.713 137.382 197.851C138.05 200.099 138.586 202.336 140.249 204.104C144.292 208.391 150.932 207.181 155.716 204.844C157.158 204.175 158.412 203.158 159.364 201.884C160.315 200.611 160.935 199.12 161.168 197.547C161.516 194.962 160.455 192.404 159.737 189.968C158.925 187.206 158.367 184.284 156.252 182.19C153.49 179.428 149.678 179.136 146.076 180.036C144.53 180.423 144.712 181.18 146.281 180.787C154.269 178.793 156.174 187.643 157.798 193.144C158.572 195.768 158.953 198.32 157.682 200.878C156.086 204.115 152.617 205.596 149.181 205.822C142 206.297 140.608 199.016 139.039 193.702C138.304 191.211 137.791 188.836 138.774 186.289C140.116 182.793 143.027 181.726 146.281 180.765C147.772 180.34 147.612 179.583 146.06 180.036Z" fill="#6A79A8"></path><path d="M375.857 188.454L394.914 190.194C396.246 190.315 398.384 189.641 398.533 188.017L400.223 169.518C400.477 166.717 395.036 167.408 394.81 169.893L393.136 188.421L396.754 186.244L377.691 184.499C375.017 184.256 372.272 188.15 375.873 188.476L375.857 188.454Z" fill="#6A79A8"></path><path d="M180.668 351.892L161.61 350.152C160.401 350.042 158.103 350.705 157.965 352.224L156.274 370.713C156.037 373.325 161.456 372.513 161.666 370.243L163.356 351.743L159.71 353.815L178.773 355.555C181.259 355.787 184.297 352.207 180.668 351.876V351.892Z" fill="#6A79A8"></path><path d="M397.07 185.461C372.146 148.655 330.937 125.139 286.591 122.278C273.885 121.493 261.132 122.339 248.641 124.797C248.089 124.902 245.526 125.404 245.493 126.172C245.46 126.94 247.111 126.636 247.592 126.542C289.966 118.328 334.655 130.829 367.169 159.095C376.531 167.255 384.791 176.599 391.74 186.892C392.557 188.096 397.396 185.936 397.076 185.461H397.07Z" fill="#6A79A8"></path><path d="M159.136 354.103C184.651 387.49 224.23 408.685 266.212 411.204C278.096 411.894 290.02 411.166 301.731 409.033C302.836 408.834 304.223 407.674 303.897 406.443C303.527 405.078 301.798 405.089 300.726 405.283C260.904 412.464 219.225 401.482 187.75 376.155C178.88 368.996 170.905 360.794 163.997 351.728C162.494 349.756 157.423 351.882 159.119 354.103H159.136Z" fill="#6A79A8"></path></svg>