<svg xmlns="http://www.w3.org/2000/svg" width="599" height="559" viewBox="0 0 599 559" fill="none"><path d="M505 9.22261C562.112 29.4498 595.44 86.8666 598.412 158.888C601.814 241.355 587.532 326.125 549.101 398.385C511.213 469.631 450.101 530.957 375.251 550.952C338.843 560.674 144.271 575.422 72.5415 496.74C15.6977 434.441 -11.5603 331.885 5.95117 249.185C24.4176 161.992 83.8398 124.062 151.469 105.512C186.05 96.0282 221.389 101.227 254.813 86.2996C286.595 72.1005 313.537 50.0112 343.666 32.4937C390.697 5.14614 447.935 -8.42022 499.837 7.52159C501.58 8.05478 503.301 8.62179 505 9.22261Z" fill="#F8F8F8"></path><path d="M352.219 386.932C351.352 395.539 352.058 425.73 370.806 425.73H266.869C288.427 425.73 286.327 395.56 285.457 386.932L285.953 373.658H351.996L352.219 386.932Z" fill="#F8F8F8"></path><path d="M266.87 427.272C266.461 427.272 266.069 427.109 265.78 426.82C265.491 426.531 265.328 426.14 265.328 425.731C265.328 425.322 265.491 424.93 265.78 424.642C266.069 424.353 266.461 424.19 266.87 424.19C271.618 424.19 275.3 422.67 278.133 419.541C283.388 413.72 285.447 402.206 283.926 387.087C283.906 386.885 283.925 386.681 283.984 386.486C284.043 386.291 284.14 386.11 284.268 385.953C284.397 385.795 284.556 385.665 284.735 385.569C284.914 385.473 285.111 385.413 285.313 385.392C285.516 385.372 285.72 385.392 285.915 385.451C286.11 385.509 286.291 385.606 286.448 385.735C286.606 385.864 286.736 386.022 286.833 386.201C286.929 386.38 286.989 386.577 287.009 386.779C289.064 407.28 284.573 417.035 280.435 421.609C277.01 425.365 272.453 427.272 266.87 427.272Z" fill="#5D7183"></path><path d="M370.807 427.271C368.522 427.309 366.255 426.847 364.167 425.919C362.078 424.99 360.217 423.618 358.715 421.896C350.178 412.464 350.024 393.349 350.685 386.779C350.699 386.573 350.754 386.371 350.847 386.187C350.941 386.003 351.07 385.839 351.228 385.706C351.386 385.572 351.569 385.472 351.766 385.411C351.964 385.35 352.172 385.329 352.377 385.35C352.583 385.37 352.782 385.432 352.964 385.531C353.145 385.63 353.304 385.765 353.432 385.927C353.561 386.089 353.655 386.276 353.71 386.475C353.764 386.674 353.778 386.882 353.751 387.087C353.172 392.863 353.258 411.272 361 419.832C362.212 421.236 363.72 422.354 365.415 423.108C367.111 423.861 368.952 424.231 370.807 424.19C371.216 424.19 371.608 424.352 371.897 424.641C372.186 424.93 372.349 425.322 372.349 425.731C372.349 426.139 372.186 426.531 371.897 426.82C371.608 427.109 371.216 427.271 370.807 427.271Z" fill="#5D7183"></path><path d="M351.384 427.273H285.955C285.546 427.273 285.154 427.11 284.865 426.822C284.575 426.533 284.413 426.141 284.413 425.732C284.413 425.323 284.575 424.932 284.865 424.643C285.154 424.354 285.546 424.191 285.955 424.191H351.384C351.793 424.191 352.185 424.354 352.474 424.643C352.763 424.932 352.926 425.323 352.926 425.732C352.926 426.141 352.763 426.533 352.474 426.822C352.185 427.11 351.793 427.273 351.384 427.273Z" fill="#5D7183"></path><path d="M121.566 381.434L515.507 381.434C519.291 381.434 522.358 378.368 522.358 374.586V116.655C522.358 112.873 519.291 109.808 515.507 109.808L121.566 109.808C117.783 109.808 114.715 112.873 114.715 116.655L114.715 374.586C114.715 378.368 117.783 381.434 121.566 381.434Z" fill="#F8F8F8"></path><path d="M133.332 342.375L503.735 342.375V127.652L133.332 127.652V342.375Z" fill="white"></path><path d="M418.167 382.979H121.624C119.383 382.978 117.235 382.089 115.649 380.507C114.064 378.925 113.171 376.779 113.166 374.54V116.701C113.171 114.462 114.064 112.316 115.649 110.734C117.235 109.152 119.383 108.263 121.624 108.262H515.445C517.685 108.263 519.833 109.152 521.418 110.734C523.003 112.316 523.896 114.462 523.899 116.701V177.86C523.899 178.268 523.737 178.66 523.448 178.949C523.159 179.238 522.767 179.4 522.358 179.4C521.949 179.4 521.557 179.238 521.268 178.949C520.979 178.66 520.816 178.268 520.816 177.86V116.701C520.813 115.279 520.246 113.916 519.239 112.912C518.232 111.907 516.868 111.343 515.445 111.343H121.624C120.201 111.343 118.836 111.907 117.828 112.912C116.821 113.916 116.253 115.279 116.249 116.701V374.533C116.251 375.956 116.818 377.321 117.826 378.327C118.834 379.333 120.2 379.898 121.624 379.898H418.16C418.569 379.898 418.961 380.06 419.25 380.349C419.539 380.638 419.702 381.03 419.702 381.439C419.702 381.847 419.539 382.239 419.25 382.528C418.961 382.817 418.569 382.979 418.16 382.979H418.167Z" fill="#5D7183"></path><path d="M423.267 343.913H130.376C129.967 343.913 129.575 343.751 129.285 343.462C128.996 343.173 128.834 342.781 128.834 342.373C128.834 341.964 128.996 341.572 129.285 341.283C129.575 340.994 129.967 340.832 130.376 340.832H423.267C423.676 340.832 424.068 340.994 424.357 341.283C424.646 341.572 424.809 341.964 424.809 342.373C424.809 342.781 424.646 343.173 424.357 343.462C424.068 343.751 423.676 343.913 423.267 343.913Z" fill="#5D7183"></path><path d="M296.858 224.135C284.649 224.135 273.125 223.413 261.875 222.708C261.58 222.689 261.296 222.585 261.058 222.409C260.819 222.233 260.637 221.992 260.532 221.715C259.156 218.022 259.103 213.966 260.382 210.238C260.449 210.047 260.554 209.871 260.689 209.721C260.825 209.57 260.989 209.447 261.171 209.36C261.354 209.273 261.553 209.222 261.755 209.211C261.958 209.2 262.16 209.23 262.351 209.297C262.543 209.364 262.719 209.469 262.869 209.604C263.02 209.74 263.143 209.903 263.23 210.086C263.318 210.269 263.368 210.467 263.379 210.67C263.39 210.872 263.361 211.075 263.294 211.266C262.359 213.994 262.292 216.944 263.102 219.712C278.116 220.65 293.648 221.581 310.581 220.739C323.201 220.109 336.205 220.078 348.777 220.054C357.211 220.034 365.905 220.01 374.448 219.808C374.448 218.914 374.469 217.849 374.479 216.785C374.5 215.025 374.517 213.265 374.534 212.258C374.538 212.056 374.581 211.857 374.662 211.671C374.743 211.485 374.859 211.318 375.005 211.177C375.151 211.037 375.323 210.926 375.511 210.852C375.699 210.778 375.901 210.742 376.103 210.745C376.305 210.749 376.505 210.792 376.691 210.873C376.876 210.954 377.044 211.07 377.185 211.216C377.326 211.361 377.436 211.533 377.51 211.722C377.584 211.91 377.621 212.111 377.617 212.313C377.617 213.316 377.583 215.052 377.562 216.815C377.542 218.579 377.528 220.335 377.507 221.342C377.501 221.738 377.341 222.117 377.061 222.398C376.781 222.679 376.404 222.842 376.007 222.852C366.97 223.091 357.724 223.112 348.784 223.136C336.246 223.167 323.283 223.197 310.735 223.82C306.004 224.036 301.383 224.135 296.858 224.135Z" fill="#5D7183"></path><path d="M318.525 212.439C318.123 212.439 317.737 212.282 317.449 212.002C317.161 211.722 316.994 211.341 316.984 210.939C316.757 202.798 316.703 193.917 316.641 185.33C316.579 176.743 316.535 167.903 316.298 159.799C316.287 159.39 316.439 158.994 316.72 158.697C317.001 158.4 317.388 158.227 317.797 158.215C318.206 158.204 318.603 158.356 318.9 158.636C319.197 158.917 319.37 159.305 319.382 159.713C319.608 167.852 319.662 176.726 319.724 185.313C319.786 193.899 319.83 202.746 320.067 210.857C320.077 211.266 319.925 211.661 319.643 211.958C319.362 212.254 318.975 212.427 318.566 212.439H318.525Z" fill="#5D7183"></path><path d="M318.395 214.086C318.006 214.087 317.632 213.94 317.347 213.675C314.846 211.354 312.493 209.002 310.215 206.732C307.937 204.462 305.621 202.148 303.182 199.864C302.883 199.586 302.706 199.2 302.691 198.791C302.677 198.383 302.825 197.986 303.103 197.686C303.382 197.387 303.768 197.211 304.176 197.196C304.585 197.181 304.983 197.329 305.282 197.608C307.779 199.929 310.133 202.278 312.411 204.551C314.339 206.475 316.326 208.454 318.395 210.416C321.187 207.718 323.941 205.184 326.617 202.723C329.611 199.984 332.708 197.118 335.832 194.067C336.124 193.782 336.518 193.624 336.927 193.629C337.336 193.634 337.726 193.801 338.012 194.093C338.298 194.386 338.456 194.779 338.451 195.188C338.446 195.597 338.279 195.987 337.986 196.272C334.828 199.354 331.714 202.219 328.703 204.993C325.692 207.766 322.612 210.597 319.488 213.648C319.344 213.789 319.173 213.901 318.985 213.976C318.798 214.051 318.597 214.089 318.395 214.086Z" fill="#5D7183"></path><path d="M455.378 293.85C455.378 293.85 326.51 296.452 270.685 296.452C258.089 296.452 181.694 293.85 181.694 293.85C181.005 293.852 180.322 293.719 179.684 293.458C179.046 293.196 178.466 292.811 177.977 292.325C177.489 291.839 177.101 291.262 176.836 290.626C176.57 289.989 176.434 289.307 176.433 288.618V258.863C176.433 258.174 176.569 257.493 176.833 256.857C177.097 256.222 177.484 255.644 177.971 255.158C178.459 254.672 179.037 254.287 179.674 254.024C180.31 253.761 180.992 253.627 181.681 253.628C181.681 253.628 330.716 250.889 379.312 250.889C399.136 250.889 455.361 253.628 455.361 253.628C456.049 253.627 456.731 253.762 457.367 254.025C458.003 254.288 458.581 254.673 459.068 255.16C459.555 255.646 459.942 256.223 460.206 256.858C460.469 257.494 460.605 258.175 460.606 258.863V288.618C460.604 290.004 460.053 291.333 459.073 292.313C458.093 293.294 456.765 293.846 455.378 293.85Z" fill="white"></path><path d="M364.925 293.848C294.648 298.7 181.626 293.848 181.626 293.848C180.945 293.851 180.271 293.719 179.641 293.461C179.011 293.203 178.439 292.823 177.956 292.343C177.474 291.863 177.091 291.292 176.829 290.664C176.568 290.036 176.433 289.362 176.433 288.682V258.793C176.433 258.113 176.567 257.441 176.828 256.814C177.089 256.186 177.47 255.617 177.951 255.137C178.432 254.657 179.003 254.277 179.631 254.017C180.259 253.758 180.933 253.625 181.612 253.626L364.911 251.75L364.925 293.848Z" fill="#404EED"></path><path d="M270.687 297.99C258.29 297.99 183.395 295.446 181.665 295.388C179.872 295.38 178.155 294.663 176.889 293.395C175.623 292.126 174.91 290.408 174.906 288.616V258.86C174.91 257.063 175.627 255.34 176.9 254.07C178.172 252.799 179.897 252.086 181.696 252.085C183.159 252.057 331.273 249.346 379.327 249.346C387.176 249.346 401.498 249.767 421.898 250.592C422.307 250.6 422.695 250.77 422.979 251.065C423.262 251.36 423.417 251.755 423.408 252.163C423.4 252.572 423.23 252.961 422.935 253.244C422.64 253.527 422.245 253.681 421.836 253.673H421.771C401.416 252.848 387.134 252.43 379.327 252.43C331.3 252.43 183.213 255.132 181.723 255.169C181.235 255.166 180.751 255.259 180.299 255.444C179.847 255.628 179.436 255.899 179.089 256.242C178.742 256.585 178.467 256.994 178.278 257.443C178.089 257.893 177.991 258.376 177.989 258.864V288.619C177.992 289.6 178.384 290.539 179.079 291.231C179.774 291.923 180.715 292.311 181.696 292.31H181.747C182.511 292.334 258.259 294.909 270.687 294.909C309.54 294.909 384.075 293.642 425.032 292.889H425.06C425.468 292.885 425.862 293.043 426.154 293.329C426.446 293.615 426.612 294.006 426.616 294.414C426.621 294.823 426.462 295.216 426.176 295.508C425.89 295.8 425.499 295.966 425.09 295.97C384.113 296.723 309.564 297.99 270.687 297.99Z" fill="#404EED"></path><path d="M187.899 278.74C187.583 278.74 187.276 278.643 187.017 278.462C186.758 278.281 186.561 278.026 186.453 277.73C186.344 277.434 186.329 277.112 186.409 276.807C186.49 276.502 186.662 276.229 186.902 276.025C187.039 275.908 200.498 264.518 206.606 259.248C206.919 259.002 207.314 258.885 207.71 258.923C208.107 258.961 208.473 259.15 208.733 259.451C208.993 259.752 209.127 260.142 209.107 260.539C209.087 260.936 208.914 261.31 208.624 261.583C202.499 266.866 189.029 278.267 188.896 278.384C188.616 278.616 188.263 278.742 187.899 278.74Z" fill="white"></path><path d="M205.863 289.222C205.546 289.219 205.237 289.118 204.978 288.933C204.72 288.749 204.526 288.488 204.421 288.189C204.316 287.889 204.307 287.564 204.394 287.259C204.481 286.953 204.661 286.682 204.908 286.483L241.785 257.504C242.106 257.251 242.514 257.136 242.92 257.185C243.326 257.233 243.697 257.44 243.95 257.761C244.203 258.082 244.318 258.49 244.269 258.896C244.221 259.302 244.014 259.672 243.693 259.925L206.812 288.893C206.542 289.107 206.208 289.223 205.863 289.222Z" fill="white"></path><path d="M242.206 289.898C241.887 289.904 241.575 289.812 241.312 289.633C241.048 289.455 240.846 289.2 240.734 288.902C240.621 288.605 240.603 288.28 240.683 287.972C240.762 287.664 240.935 287.388 241.178 287.183C252.561 277.473 274.872 259.765 275.092 259.587C275.246 259.438 275.43 259.322 275.631 259.248C275.833 259.173 276.048 259.142 276.263 259.155C276.477 259.169 276.686 259.227 276.877 259.327C277.068 259.426 277.236 259.564 277.37 259.732C277.504 259.899 277.601 260.094 277.656 260.301C277.711 260.509 277.721 260.726 277.687 260.938C277.653 261.15 277.575 261.353 277.457 261.533C277.34 261.713 277.187 261.867 277.006 261.984C276.784 262.162 254.517 279.835 243.178 289.511C242.909 289.749 242.565 289.886 242.206 289.898Z" fill="white"></path><path d="M275.41 289.312C275.09 289.316 274.776 289.22 274.513 289.037C274.25 288.855 274.05 288.595 273.942 288.294C273.833 287.992 273.821 287.665 273.908 287.357C273.994 287.048 274.174 286.775 274.423 286.573C280.185 281.78 285.851 277.103 291.329 272.581C296.806 268.058 302.493 263.36 308.262 258.564C308.576 258.302 308.981 258.176 309.389 258.213C309.796 258.251 310.172 258.448 310.434 258.762C310.695 259.076 310.821 259.482 310.784 259.889C310.747 260.296 310.549 260.671 310.235 260.933C304.459 265.726 298.783 270.42 293.292 274.97C287.8 279.52 282.152 284.17 276.397 288.956C276.12 289.187 275.77 289.313 275.41 289.312Z" fill="white"></path><path d="M310.681 289.418C310.377 289.42 310.08 289.331 309.826 289.164C309.573 288.996 309.374 288.758 309.256 288.478C309.139 288.198 309.106 287.89 309.163 287.592C309.22 287.293 309.365 287.019 309.578 286.802C319.591 276.562 340.179 259.19 340.384 259.015C340.539 258.881 340.718 258.778 340.912 258.713C341.107 258.649 341.312 258.624 341.516 258.639C341.72 258.655 341.919 258.711 342.101 258.804C342.284 258.897 342.446 259.026 342.577 259.182C342.709 259.339 342.809 259.52 342.87 259.715C342.931 259.911 342.953 260.116 342.934 260.32C342.914 260.524 342.855 260.721 342.758 260.902C342.662 261.082 342.53 261.242 342.371 261.371C342.166 261.545 321.694 278.832 311.784 288.956C311.64 289.103 311.469 289.219 311.279 289.299C311.09 289.378 310.886 289.419 310.681 289.418Z" fill="white"></path><path d="M343.262 288.555C342.955 288.556 342.654 288.465 342.399 288.294C342.145 288.122 341.947 287.879 341.831 287.595C341.716 287.31 341.688 286.998 341.751 286.698C341.814 286.397 341.966 286.123 342.186 285.909L358.461 270.091C358.606 269.95 358.778 269.839 358.966 269.764C359.154 269.689 359.355 269.652 359.557 269.654C359.76 269.657 359.96 269.7 360.146 269.78C360.332 269.86 360.5 269.975 360.642 270.12C360.783 270.265 360.894 270.437 360.969 270.625C361.044 270.813 361.081 271.014 361.079 271.216C361.076 271.418 361.033 271.618 360.953 271.804C360.873 271.99 360.758 272.158 360.612 272.3L344.337 288.117C344.049 288.398 343.664 288.555 343.262 288.555Z" fill="white"></path><path d="M105.308 106.685C105.047 106.685 104.791 106.619 104.562 106.494C104.334 106.368 104.141 106.186 104.003 105.966C98.5011 97.2248 91.136 90.0897 82.6849 85.3204C82.4994 85.2262 82.3349 85.0954 82.2013 84.9359C82.0677 84.7764 81.9678 84.5916 81.9076 84.3924C81.8475 84.1933 81.8283 83.9841 81.8512 83.7774C81.8741 83.5706 81.9386 83.3707 82.0409 83.1896C82.1432 83.0084 82.2812 82.8499 82.4464 82.7235C82.6117 82.5971 82.8008 82.5054 83.0025 82.454C83.2042 82.4026 83.4141 82.3926 83.6198 82.4245C83.8254 82.4564 84.0225 82.5296 84.1991 82.6396C93.0886 87.6554 100.841 95.1534 106.613 104.322C106.76 104.555 106.842 104.823 106.85 105.099C106.859 105.374 106.792 105.647 106.659 105.888C106.526 106.129 106.33 106.33 106.092 106.469C105.854 106.609 105.583 106.682 105.308 106.681V106.685Z" fill="#5D7183"></path><path d="M90.3818 113.406C90.2187 113.407 90.0566 113.38 89.9022 113.328L68.7318 106.384C68.5345 106.325 68.351 106.228 68.1921 106.097C68.0332 105.966 67.9021 105.805 67.8067 105.622C67.7112 105.44 67.6532 105.24 67.6362 105.035C67.6191 104.83 67.6433 104.624 67.7074 104.428C67.7715 104.233 67.8741 104.052 68.0092 103.897C68.1444 103.742 68.3092 103.615 68.4941 103.524C68.679 103.434 68.8802 103.381 69.0858 103.37C69.2913 103.358 69.4971 103.388 69.691 103.457L90.8614 110.4C91.2108 110.514 91.5082 110.748 91.7 111.061C91.8919 111.374 91.9655 111.746 91.9076 112.108C91.8498 112.471 91.6643 112.801 91.3845 113.039C91.1048 113.277 90.7492 113.407 90.3818 113.406Z" fill="#5D7183"></path><path d="M118.856 97.3193C118.537 97.32 118.225 97.2216 117.963 97.0377C117.702 96.8537 117.504 96.5932 117.397 96.2922L106.777 65.4237C106.706 65.231 106.673 65.0258 106.682 64.8203C106.691 64.6149 106.741 64.4132 106.829 64.2273C106.917 64.0415 107.041 63.8751 107.195 63.738C107.348 63.6009 107.527 63.4959 107.722 63.4291C107.917 63.3624 108.123 63.3352 108.328 63.3493C108.533 63.3634 108.734 63.4185 108.917 63.5112C109.101 63.6039 109.264 63.7324 109.397 63.8892C109.53 64.046 109.631 64.2278 109.693 64.424L120.312 95.289C120.378 95.4803 120.406 95.6827 120.393 95.8847C120.381 96.0866 120.329 96.2842 120.24 96.466C120.151 96.6479 120.028 96.8105 119.876 96.9446C119.724 97.0786 119.548 97.1815 119.356 97.2474C119.195 97.2978 119.026 97.3221 118.856 97.3193Z" fill="#5D7183"></path><path d="M577.099 527.067C578.959 475.225 570.933 434.88 557.501 385.198C551.27 362.139 551.893 336.646 551.407 312.714C550.602 272.851 548.776 207.314 492.551 213.059C448.703 217.537 434.603 266.586 432.603 303.511C431.602 322.037 433.092 340.699 430.948 359.129C427.522 388.55 415.43 411.763 402.217 436.506C393.05 453.662 356.718 509.51 345.694 525.523L577.099 527.067Z" fill="white"></path><path d="M546.402 331.672C541.606 308.39 536.125 283.852 519.068 266.72C512.758 260.389 504.516 255.154 495.24 254.771C479.595 254.12 465.043 267.161 449.703 264.419C435.164 261.817 422.921 246.729 420.037 233.701C417.012 220.034 421.931 199.036 437.59 193.643C438.422 199.69 445.595 202.757 451.977 203.531C458.359 204.305 464.837 202.131 470.579 199.207C476.32 196.283 481.619 192.592 487.484 189.912C501.265 183.612 517.63 183.406 531.825 188.179C546.021 192.952 558.1 202.453 566.791 214.049C578.607 229.847 584.292 249.391 582.792 269.058C580.617 296.321 564.979 321.058 548.94 344.083C547.597 339.731 547.323 336.143 546.402 331.672Z" fill="#141451"></path><path d="M577.099 528.607H577.044C576.842 528.6 576.642 528.553 576.458 528.469C576.274 528.385 576.108 528.265 575.97 528.117C575.832 527.969 575.724 527.795 575.653 527.605C575.583 527.416 575.55 527.214 575.557 527.011C577.39 475.998 569.778 436.519 556.031 385.611C550.626 365.616 550.331 343.927 550.047 322.956C549.999 319.601 549.951 316.133 549.886 312.764C549.615 299.452 549.245 281.224 546.145 264.462C542.627 245.453 536.399 232.217 527.102 223.997C518.425 216.324 506.856 213.164 492.726 214.609C473.542 216.571 458.586 227.42 448.268 246.857C437.576 266.995 434.843 291.061 434.164 303.616C433.757 311.114 433.764 318.78 433.767 326.192C433.767 337.066 433.767 348.309 432.5 359.327C428.964 389.764 416.056 413.898 403.597 437.238C394.239 454.757 362.973 501.888 352.669 516.846C352.557 517.02 352.412 517.17 352.241 517.286C352.07 517.402 351.878 517.483 351.676 517.524C351.473 517.565 351.264 517.564 351.062 517.523C350.86 517.482 350.668 517.4 350.498 517.283C350.327 517.166 350.183 517.016 350.072 516.842C349.961 516.667 349.886 516.473 349.851 516.269C349.817 516.066 349.824 515.857 349.872 515.656C349.92 515.456 350.008 515.267 350.13 515.1C360.407 500.18 391.58 453.199 400.877 435.786C413.21 412.7 425.97 388.826 429.437 358.971C430.698 348.131 430.691 336.98 430.684 326.195C430.684 318.738 430.684 311.028 431.085 303.448C431.77 290.643 434.575 266.074 445.544 245.416C450.58 235.925 456.808 228.276 464.043 222.689C472.209 216.382 481.753 212.633 492.407 211.545C507.435 210.011 519.791 213.424 529.14 221.689C538.972 230.385 545.525 244.193 549.173 263.904C552.318 280.91 552.691 299.285 552.962 312.702C553.03 316.082 553.078 319.55 553.123 322.915C553.407 343.701 553.698 365.195 559.005 384.817C572.844 436.019 580.497 475.724 578.654 527.142C578.634 527.539 578.461 527.913 578.171 528.186C577.881 528.459 577.497 528.61 577.099 528.607Z" fill="#5D7183"></path><path d="M419.194 457.087C419.069 457.087 418.943 457.072 418.821 457.042C418.493 456.959 418.202 456.772 417.991 456.508C417.78 456.244 417.661 455.918 417.653 455.58C417.588 452.787 419.66 445.439 423.079 433.668C425.59 425.017 428.44 415.214 428.382 412.691C428.341 411.007 425.768 408.658 424.066 407.107C423.641 406.72 423.24 406.354 422.884 406.008C422.604 405.721 422.448 405.337 422.447 404.936C422.446 404.536 422.601 404.151 422.88 403.863C423.158 403.575 423.538 403.407 423.938 403.394C424.338 403.38 424.728 403.524 425.025 403.793C425.367 404.108 425.737 404.457 426.145 404.82C428.481 406.953 431.393 409.613 431.462 412.609C431.527 415.403 429.458 422.75 426.039 434.521C425.282 437.123 424.497 439.831 423.768 442.413C424.939 439.876 426.186 437.164 427.419 434.483C431.684 425.202 435.713 416.437 437.097 413.968C437.744 412.814 438.549 411.383 439.957 410.462C442.653 408.692 447.836 410.034 454.372 411.972C456.167 412.503 457.859 412.999 458.86 413.171C465.105 414.203 471.407 414.855 477.732 415.122C489.413 415.595 500.635 414.667 511.084 412.359C524.611 409.374 543.209 402.773 555 388.359C555.259 388.041 555.634 387.839 556.042 387.797C556.45 387.755 556.857 387.877 557.175 388.136C557.493 388.395 557.695 388.769 557.737 389.177C557.779 389.585 557.657 389.992 557.398 390.31C545.066 405.419 525.762 412.277 511.758 415.369C501.053 417.734 489.567 418.686 477.615 418.2C471.167 417.927 464.741 417.263 458.373 416.211C456.729 415.87 455.104 415.44 453.505 414.923C449.963 413.872 443.372 411.914 441.66 413.037C440.879 413.547 440.289 414.571 439.796 415.475C438.47 417.837 434.281 426.951 430.232 435.767C425.967 445.049 421.935 453.817 420.551 456.286C420.418 456.529 420.222 456.732 419.983 456.873C419.744 457.014 419.472 457.088 419.194 457.087Z" fill="#5D7183"></path><path d="M450.539 337.203C449.575 337.23 448.616 337.057 447.722 336.697C446.827 336.336 446.017 335.795 445.342 335.108C441.293 330.999 441.916 321.892 442.259 317.003C442.297 316.458 442.327 315.976 442.351 315.572C442.373 315.163 442.556 314.78 442.86 314.506C443.164 314.232 443.565 314.09 443.973 314.111C444.382 314.133 444.766 314.316 445.04 314.62C445.314 314.924 445.456 315.324 445.434 315.733C445.41 316.154 445.376 316.654 445.338 317.215C445.054 321.306 444.462 329.821 447.538 332.947C448.38 333.807 449.48 334.187 450.878 334.115C453.115 333.998 454.646 331.177 455.355 329.506C456.657 326.452 457.537 323.235 457.972 319.944C457.993 319.739 458.055 319.54 458.154 319.36C458.253 319.179 458.388 319.02 458.55 318.892C458.711 318.765 458.897 318.671 459.095 318.616C459.294 318.561 459.502 318.547 459.706 318.573C459.911 318.6 460.107 318.668 460.285 318.772C460.463 318.876 460.618 319.015 460.741 319.18C460.865 319.345 460.953 319.533 461.003 319.733C461.052 319.933 461.06 320.141 461.028 320.344C460.556 323.914 459.601 327.403 458.188 330.715C456.448 334.796 453.978 337.039 451.039 337.189C450.871 337.199 450.703 337.203 450.539 337.203Z" fill="#5D7183"></path><path d="M441.06 434.419C440.953 434.418 440.846 434.406 440.741 434.385C439.894 434.209 439.145 433.716 438.648 433.008C438.151 432.299 437.943 431.428 438.066 430.572C438.188 429.715 438.633 428.937 439.309 428.397C439.984 427.856 440.841 427.593 441.704 427.661C441.906 427.676 442.104 427.731 442.285 427.823C442.466 427.914 442.628 428.041 442.76 428.195C442.892 428.348 442.993 428.527 443.056 428.72C443.12 428.912 443.144 429.116 443.129 429.318C443.114 429.52 443.059 429.718 442.967 429.899C442.875 430.08 442.749 430.241 442.595 430.373C442.441 430.506 442.263 430.606 442.07 430.67C441.877 430.733 441.673 430.758 441.471 430.742C441.394 430.752 441.321 430.784 441.261 430.833C441.2 430.882 441.154 430.946 441.128 431.02C441.136 431.095 441.164 431.166 441.209 431.227C441.255 431.287 441.315 431.334 441.385 431.362C441.761 431.438 442.095 431.651 442.321 431.96C442.548 432.269 442.652 432.651 442.612 433.032C442.572 433.413 442.392 433.765 442.106 434.021C441.821 434.276 441.45 434.416 441.067 434.413L441.06 434.419Z" fill="#5D7183"></path><path d="M432.77 458.359C432.663 458.359 432.556 458.347 432.451 458.325C431.604 458.148 430.855 457.655 430.358 456.947C429.861 456.239 429.653 455.368 429.776 454.511C429.898 453.655 430.343 452.877 431.018 452.336C431.694 451.795 432.551 451.532 433.414 451.6C433.616 451.616 433.814 451.671 433.995 451.762C434.176 451.854 434.337 451.98 434.47 452.134C434.602 452.288 434.703 452.466 434.766 452.659C434.83 452.852 434.854 453.055 434.839 453.257C434.824 453.46 434.769 453.657 434.677 453.838C434.585 454.019 434.459 454.181 434.305 454.313C434.151 454.445 433.973 454.546 433.78 454.609C433.587 454.672 433.383 454.697 433.181 454.682C433.103 454.689 433.03 454.719 432.969 454.768C432.908 454.816 432.863 454.882 432.838 454.956C432.843 455.034 432.869 455.109 432.914 455.173C432.958 455.237 433.02 455.288 433.092 455.319C433.463 455.398 433.793 455.612 434.016 455.919C434.239 456.227 434.341 456.606 434.302 456.983C434.263 457.361 434.086 457.711 433.804 457.966C433.523 458.222 433.157 458.364 432.777 458.366L432.77 458.359Z" fill="#5D7183"></path><path d="M250.496 526.033C250.179 526.034 249.869 525.938 249.609 525.756C249.349 525.575 249.151 525.317 249.043 525.019C248.935 524.721 248.922 524.397 249.005 524.091C249.089 523.786 249.265 523.513 249.509 523.311C251.564 521.582 253.836 520.045 256.018 518.559C258.611 516.792 261.297 514.964 263.554 512.869C269.874 507.031 269.916 501.526 269.378 498.763C268.891 496.274 267.572 494.175 265.757 493.004C263.941 491.833 261.386 491.82 260.464 493.004C260.343 493.17 260.189 493.31 260.013 493.416C259.836 493.522 259.64 493.591 259.436 493.62C259.232 493.649 259.025 493.637 258.826 493.584C258.627 493.531 258.441 493.44 258.278 493.314C258.115 493.188 257.979 493.031 257.878 492.852C257.776 492.673 257.712 492.475 257.689 492.271C257.665 492.066 257.683 491.859 257.741 491.662C257.798 491.464 257.895 491.281 258.025 491.121C259.704 488.947 263.773 488.04 267.425 490.406C269.943 492.025 271.759 494.856 272.403 498.167C273.526 503.94 271.063 510.119 265.647 515.121C263.205 517.374 260.427 519.268 257.737 521.096C255.617 522.541 253.425 524.034 251.468 525.667C251.197 525.898 250.853 526.028 250.496 526.033Z" fill="#5D7183"></path><path d="M183.121 464.174C178.085 486.983 193.967 542.649 200.842 543.262C209.855 544.074 230.724 545.351 239.284 542.293C246.207 539.821 265.048 488.927 258.098 467.098C258.098 467.098 231.135 467.505 221.762 467.139C212.39 466.772 183.121 464.174 183.121 464.174Z" fill="#F8F8F8"></path><path d="M221.091 545.786C212.698 545.786 204.36 545.129 200.701 544.8C199.478 544.691 198.324 543.838 197.067 542.123C193.165 536.796 188.191 522.608 184.693 506.776C180.699 488.719 179.575 473.07 181.61 463.839C181.69 463.473 181.901 463.149 182.203 462.927C182.505 462.706 182.878 462.603 183.251 462.637C183.546 462.661 212.595 465.243 221.82 465.602C231.046 465.962 257.789 465.565 258.07 465.561H258.094C258.421 465.562 258.739 465.666 259.002 465.858C259.266 466.051 259.461 466.322 259.56 466.633C263.976 480.489 258.098 503.267 255.367 512.398C253.072 520.088 250.28 527.49 247.509 533.245C242.994 542.609 240.589 543.468 239.801 543.749C235.437 545.31 228.243 545.786 221.091 545.786ZM184.364 465.832C182.624 475.761 184.286 492.537 188.893 511.2C190.921 519.417 193.346 527.076 195.69 532.769C199.167 541.205 200.979 541.716 200.996 541.719C227.819 544.136 237.164 541.407 238.767 540.836C241.004 540.034 247.153 529.13 252.418 511.504C257.803 493.475 259.427 477.972 256.947 468.646C251.647 468.718 229.884 468.988 221.704 468.67C213.571 468.365 190.287 466.349 184.364 465.832Z" fill="#5D7183"></path><path d="M213.656 456.521C212.194 456.499 210.772 456.036 209.576 455.193C208.306 454.331 207.259 453.18 206.52 451.835C205.781 450.49 205.371 448.989 205.325 447.455C205.325 444.952 205.952 440.95 211.676 434.979C212.132 434.5 212.601 434.024 213.067 433.551C215.695 430.884 218.171 428.364 219.374 425.17C220.158 423.054 220.096 420.717 219.202 418.644C218.946 418.038 218.572 417.489 218.101 417.028C217.631 416.567 217.074 416.204 216.462 415.96C216.272 415.891 216.097 415.785 215.948 415.648C215.798 415.511 215.677 415.347 215.592 415.163C215.506 414.98 215.458 414.781 215.449 414.579C215.44 414.377 215.471 414.175 215.54 413.985C215.61 413.795 215.716 413.62 215.853 413.471C215.989 413.321 216.154 413.201 216.338 413.115C216.521 413.03 216.72 412.981 216.922 412.972C217.125 412.963 217.327 412.994 217.517 413.064C218.514 413.441 219.425 414.016 220.194 414.753C220.964 415.491 221.576 416.377 221.994 417.357C223.223 420.181 223.315 423.369 222.251 426.259C220.823 430.063 217.993 432.935 215.26 435.715C214.8 436.181 214.341 436.646 213.889 437.115C211.32 439.789 208.374 443.381 208.408 447.441C208.451 448.474 208.735 449.481 209.237 450.384C209.739 451.287 210.445 452.06 211.299 452.642C211.985 453.111 213.379 453.806 214.89 453.204C215.266 453.068 215.68 453.085 216.045 453.249C216.41 453.414 216.696 453.713 216.844 454.085C216.991 454.456 216.989 454.871 216.836 455.241C216.684 455.61 216.394 455.906 216.027 456.066C215.273 456.368 214.468 456.523 213.656 456.521Z" fill="#5D7183"></path><path d="M232.84 457.086C232.631 457.086 232.425 457.045 232.233 456.962C230.017 456.015 228.116 454.456 226.755 452.468C225.394 450.479 224.628 448.144 224.548 445.736C224.468 443.328 225.076 440.947 226.302 438.872C227.528 436.798 229.321 435.116 231.469 434.023C231.829 433.869 232.234 433.857 232.601 433.99C232.969 434.123 233.273 434.391 233.451 434.739C233.628 435.087 233.667 435.49 233.559 435.866C233.45 436.242 233.203 436.562 232.867 436.762C231.236 437.587 229.876 438.861 228.945 440.432C228.014 442.004 227.551 443.809 227.612 445.635C227.673 447.46 228.254 449.23 229.288 450.737C230.321 452.243 231.764 453.423 233.446 454.138C233.773 454.277 234.042 454.525 234.207 454.84C234.372 455.154 234.423 455.516 234.352 455.865C234.281 456.213 234.091 456.525 233.815 456.75C233.54 456.974 233.195 457.096 232.84 457.096V457.086Z" fill="#5D7183"></path><path d="M353.35 527.248C347.341 527.248 341.365 526.976 335.42 526.433C311.156 524.211 287.567 517.411 265.301 506.233C264.983 506.027 264.752 505.711 264.652 505.345C264.552 504.979 264.591 504.59 264.76 504.251C264.93 503.912 265.219 503.647 265.571 503.508C265.924 503.368 266.315 503.363 266.671 503.494C288.595 514.501 311.811 521.194 335.687 523.382C356.926 525.327 378.696 523.725 400.397 518.644C419.792 514.063 438.502 506.959 456.047 497.512C471.681 489.121 486.11 479.024 497.771 468.287C497.919 468.143 498.094 468.029 498.286 467.953C498.478 467.877 498.684 467.841 498.89 467.846C499.097 467.851 499.3 467.898 499.489 467.983C499.677 468.069 499.846 468.191 499.986 468.343C500.126 468.495 500.234 468.674 500.303 468.869C500.373 469.063 500.402 469.27 500.39 469.476C500.378 469.682 500.325 469.884 500.233 470.069C500.142 470.254 500.014 470.419 499.857 470.554C488.011 481.455 473.363 491.716 457.506 500.227C439.726 509.798 420.767 516.997 401.113 521.64C385.461 525.34 369.434 527.222 353.35 527.248Z" fill="#5D7183"></path></svg>