<svg xmlns="http://www.w3.org/2000/svg" width="569" height="511" viewBox="0 0 569 511" fill="none"><path d="M147.195 502.176C135.182 499.58 -9.14662 476.197 1.4883 303.72C12.1232 131.243 25.441 79.3706 81.5537 60.3909C137.666 41.4113 274.066 -48.3807 381.101 37.0022C488.137 122.385 603.635 198.961 557.8 335.292C511.965 471.624 504.483 517.104 384.879 510.144C265.274 503.185 204.318 514.525 147.195 502.176Z" fill="#F9F9F9"></path><path d="M284.928 454.153C245.689 453.49 211.97 440.018 184.415 412.476C156.538 384.593 143.118 350.47 142.721 311.156C143.759 272.721 157.207 239.409 184.551 212.201C212.486 184.391 246.518 170.49 285.898 170.79C324.467 171.107 357.79 185.134 385.021 212.49C412.507 240.1 426.426 273.775 426.319 312.692C426.228 351.519 412.229 385.057 384.703 412.538C357.177 440.018 323.475 453.439 284.928 454.153Z" fill="#E3E3E3"></path><path d="M320.723 355.259C317.851 352.705 315.637 349.497 314.269 345.908C313.242 343.38 310.196 339.674 309.913 337.141C309.779 335.965 309.74 334.78 309.794 333.599C309.78 333.342 309.848 333.089 309.986 332.873C310.102 332.759 310.241 332.671 310.394 332.615C310.546 332.56 310.709 332.537 310.871 332.55C314.564 332.471 316.169 337.452 317.882 340.042C320.451 343.913 323.083 347.829 326.679 350.81C330.434 353.95 335.419 355.984 340.229 355.094C346.173 353.995 353.802 346.679 357.2 341.856C359.128 339.118 361.295 335.168 361.635 331.768C361.947 328.657 360.444 326.31 362.651 323.324C366.666 317.878 374.097 317.713 379.519 320.751C384.522 323.55 387.584 328.419 390.46 333.219C392.077 335.894 395.151 344.701 399.739 341.612C400.982 340.773 401.662 339.345 402.184 337.934C404.226 332.403 404.544 326.486 405.185 320.677C405.689 316.098 405.911 309.184 410.527 306.554C414.498 304.287 416.676 307.546 417.203 311.156C418.508 320.139 420.896 328.951 421.741 338.002C422.546 346.843 419.614 353.542 416.46 361.697C405.888 389.041 386.643 412.793 362.31 429.137C339.859 444.24 313.49 452.48 286.427 452.847C259.364 453.214 232.781 445.694 209.927 431.206C184.194 415.099 163.985 393.354 153.004 364.819C141.438 334.692 140.764 302.009 150.168 271.264C151.657 266.398 153.359 261.602 155.272 256.875C156.441 254.042 157.802 251.242 159.197 248.493C161.546 243.88 162.152 238.774 166.815 236.462C172.305 233.736 179.86 235.861 185.532 236.496C195.878 237.658 201.828 226.295 207.296 219.494C214.176 210.902 225.14 202.373 235.718 199.024C237.015 198.531 238.411 198.354 239.79 198.508C241.152 198.741 242.479 199.642 242.825 200.99C243.392 203.093 241.441 204.958 239.654 206.21C234.164 210.03 226.58 213.311 222.848 219.109C220.789 222.305 222.139 224.476 225.423 225.422C234.186 227.944 243.715 224.289 252.132 222.129C261.429 219.726 271.077 214.144 269.613 203.127C268.53 194.972 264.889 189.067 271.372 181.642C277.526 174.592 287.781 175.352 296.328 175.114C301.904 174.961 309.68 176.514 313.911 180.481C329.044 194.739 308.88 220.588 296.385 228.613C287.344 234.416 276.936 237.754 267.861 243.625C259.737 248.817 252.466 255.235 246.307 262.65C244.279 264.993 242.686 267.68 241.605 270.584C240.471 273.656 239.206 276.818 236.501 278.87C231.963 282.27 224.839 282.361 222.922 288.674C221.952 291.854 222.922 295.719 222.071 299.074C220.988 303.483 218.515 309.127 215.395 312.46C211.884 316.211 206.32 317.282 202.866 321.199C199.251 325.271 196.676 330.158 195.362 335.44C192.764 345.981 196.127 357.044 203.03 365.318C208.702 372.119 215.769 374.199 224.277 374.488C230.959 374.714 237.005 375.735 241.651 380.909C244.702 384.309 246.846 388.418 248.905 392.464C253.068 400.648 257.192 406.423 257.243 416.046C257.243 418.783 257.107 421.532 257.498 424.235C258.394 430.412 263.584 436.011 268.11 439.99C274.582 445.657 282.619 447.573 290.934 445.017C297.349 443.044 307.235 438.159 310.968 432.294C313.673 428.032 312.618 425.533 317.836 423.084C319.867 422.132 321.949 421.18 323.508 419.599C329.487 413.643 320.95 404.864 324.909 397.916C329.895 389.126 339.441 384.145 344.103 374.856C345.204 372.657 346.077 370.243 345.901 367.789C345.374 360.235 336.145 360.835 330.7 359.855C327.019 359.257 323.57 357.668 320.723 355.259Z" fill="white"></path><path d="M290.678 320.151C288.466 319.811 286.277 319.329 284.048 318.802C281.422 318.184 278.705 317.634 275.994 317.759C273.373 317.872 270.844 318.592 268.195 318.422C265.068 318.172 262.145 316.775 259.988 314.5C258.803 313.316 257.886 311.892 257.299 310.324C256.199 307.105 256.091 304.838 252.194 303.948C250.322 303.517 248.383 303.625 246.471 303.563C241.264 303.375 235.899 297.64 242.348 294.132C245.32 292.511 247.957 289.695 251.57 289.678C253.737 289.678 255.813 290.488 257.946 290.879C259.948 291.248 262.024 291.248 263.969 291.86C268.098 293.157 269.902 296.852 273.203 299.312C275.205 300.808 277.678 301.817 280.168 301.579C281.558 301.46 282.936 300.967 284.309 301.182C287.411 301.675 288.846 305.353 291.62 306.85C295.199 308.833 300.372 307.779 304.257 307.62C305.035 307.53 305.823 307.612 306.566 307.858C307.893 308.425 308.585 309.938 308.573 311.372C308.539 315.146 305.681 318.739 302.176 319.947C300.486 320.449 298.725 320.671 296.963 320.604C294.86 320.617 292.758 320.465 290.678 320.151Z" fill="white"></path><path d="M351.205 188.358C364.342 195.732 376.281 205.057 386.615 216.014C387.38 216.813 389.984 215.759 389.144 214.881C378.702 203.79 366.634 194.348 353.354 186.879C352.435 186.369 349.951 187.649 351.21 188.341L351.205 188.358Z" fill="#6A79A8"></path><path d="M263.386 173.124C290.345 169.458 318.239 172.796 343.037 184.193C343.984 184.629 346.44 183.314 345.181 182.73C319.805 171.067 291.298 167.593 263.686 171.345C262.263 171.538 261.508 173.379 263.386 173.124Z" fill="#6A79A8"></path><path d="M392.894 223.076C408.265 241.563 418.73 263.478 422.819 287.201C426.869 310.698 425.326 335.514 417.748 358.161C402.757 402.932 363.332 438.704 317.355 449.404C293.846 454.839 269.343 454.254 246.121 447.703C223.472 441.339 203.014 429.041 186.31 412.527C169.606 396.012 157.077 376.007 150.333 353.587C143.497 330.803 142.41 306.682 147.168 283.376C156.77 236.247 192.101 195.227 237.692 179.291C243.277 177.357 248.982 175.786 254.77 174.587C256.472 174.23 256.013 172.592 254.328 172.944C206.315 183.043 165.046 219.653 149.187 266.057C133.555 311.797 142.154 364.043 172.782 401.6C187.887 420.115 207.307 435.122 229.456 444.224C251.815 453.322 276.093 456.7 300.089 454.051C323.543 451.438 346.18 443.351 365.578 429.846C385.18 416.205 401.833 397.633 412.723 376.358C434.923 332.993 432.484 277.674 406.206 236.632C402.912 231.512 399.301 226.602 395.395 221.931C394.698 221.087 392.071 222.107 392.871 223.065L392.894 223.076Z" fill="#6A79A8"></path><path d="M275.019 272.969C293.572 254.431 323.435 243.76 349.004 269.308C374.681 294.964 363.893 324.688 345.34 343.226C326.787 361.763 256.466 291.501 275.019 272.969Z" fill="white"></path><path d="M276.108 273.163C284.315 265.041 294.423 258.394 305.835 255.911C318.449 253.163 331.171 256.546 341.381 264.282C351.931 272.267 360.45 283.845 362.367 297.152C364.069 308.691 360.569 320.314 354.511 330.101C351.658 334.839 348.203 339.187 344.234 343.04C342.728 344.518 340.742 345.408 338.636 345.55C332.867 345.998 326.934 343.198 322.011 340.512C308.245 332.986 296.175 321.47 286.59 309.155C281.752 302.921 277.191 296.121 274.707 288.578C273.079 283.658 272.104 277.243 276.091 273.163C277.18 272.029 274.509 272.165 273.913 272.777C264.838 282.111 275.388 298.217 281.167 306.344C291.014 320.195 304.122 332.941 318.988 341.323C324.456 344.411 330.831 347.285 337.263 347.035C344.846 346.741 349.344 340.847 353.593 335.179C360.637 325.777 365.532 314.42 365.538 302.536C365.538 288.47 358.238 275.957 348.04 266.662C337.291 256.875 323.338 251.757 308.813 254.002C295.461 256.07 283.413 263.387 273.913 272.777C272.824 273.877 275.507 273.758 276.108 273.163Z" fill="#6A79A8"></path><path d="M256.613 278.019C251.162 283.46 265.478 306.594 288.58 329.682C311.682 352.77 334.835 367.086 340.286 361.623L350.404 351.467C350.524 351.376 350.638 351.278 350.745 351.172C356.196 345.726 341.88 322.598 318.778 299.509C295.676 276.421 272.523 262.106 267.072 267.569C266.998 267.637 266.93 267.711 266.868 267.79L256.613 278.019Z" fill="#F9F9F9"></path><path d="M339.99 361.508C345.43 356.072 331.108 332.949 308.001 309.861C284.894 286.773 261.751 272.463 256.311 277.898C250.871 283.334 265.193 306.457 288.3 329.545C311.408 352.633 334.55 366.943 339.99 361.508Z" fill="white"></path><path d="M314.297 353.229C318.659 356.255 323.185 359.151 328.057 361.288C330.893 362.54 334.143 363.702 337.314 363.356C341.704 362.88 344.687 358.392 347.591 355.501C350.274 352.804 353.592 350.673 353.229 346.502C352.628 339.61 347.784 332.776 344.012 327.233C331.137 308.395 314.161 291.388 295.801 277.894C289.669 273.389 282.852 268.566 275.438 266.441C271.825 265.409 268.116 265.358 265.325 268.141C263.249 270.192 261.196 272.255 259.132 274.318C257.725 275.718 255.728 277.152 254.742 278.914C253.17 281.646 254.571 285.511 255.615 288.157C257.759 293.604 261.026 298.591 264.361 303.374C264.775 303.975 267.424 303.108 266.925 302.388C263.985 298.322 261.411 294.003 259.234 289.484C258.026 286.854 256.664 283.72 256.84 280.756C256.948 278.965 257.81 278.03 258.995 276.851L264.372 271.49C265.598 270.266 266.772 268.86 268.11 267.755C269.449 266.65 271.133 267.075 272.761 267.5C279.29 269.201 285.308 273.292 290.753 277.135C307.4 288.832 322.374 303.589 334.994 319.514C339.98 325.805 344.841 332.47 348.193 339.803C349.713 343.119 352.163 348.412 349.174 351.54C346.049 354.827 342.861 358.488 339.367 361.378C337.308 363.079 333.916 361.588 331.687 360.715C326.395 358.641 321.54 355.484 316.889 352.26C316.203 351.784 313.781 352.872 314.32 353.246L314.297 353.229Z" fill="#6A79A8"></path><path d="M276.272 318.45C283.468 326.627 291.189 334.328 299.385 341.504C300.117 342.139 302.68 341.085 301.926 340.428C293.74 333.252 286.03 325.551 278.847 317.373C278.217 316.659 275.591 317.645 276.3 318.45H276.272Z" fill="#6A79A8"></path><path d="M257.521 278.643C260.715 275.69 268.519 280.491 271.35 282.043C279.29 286.441 286.567 292.08 293.47 297.957C309.216 311.389 324.666 327.183 335.097 345.205C336.912 348.345 338.647 351.66 339.578 355.191C340.065 357.05 340.61 359.628 339.152 361.204C337.984 362.467 340.61 362.904 341.421 362.008C344.762 358.393 341.665 351.972 339.918 348.379C335.658 339.617 329.572 331.711 323.327 324.287C315.18 314.633 306.283 305.636 296.72 297.379C289.001 290.703 280.776 284.208 271.673 279.516C267.606 277.413 259.921 273.475 255.695 277.379C254.334 278.632 256.495 279.561 257.51 278.626L257.521 278.643Z" fill="#6A79A8"></path><path d="M333.31 290.9C336.578 290.9 339.226 288.254 339.226 284.989C339.226 281.725 336.578 279.078 333.31 279.078C330.043 279.078 327.395 281.725 327.395 284.989C327.395 288.254 330.043 290.9 333.31 290.9Z" fill="#EFEFEF"></path><path d="M327.859 280.808C327.204 281.484 326.708 282.297 326.406 283.187C326.104 284.078 326.003 285.025 326.112 285.959C326.22 286.893 326.535 287.792 327.033 288.59C327.532 289.388 328.201 290.065 328.993 290.573C331.977 292.46 336.248 291.706 338.687 289.264C339.337 288.623 339.841 287.849 340.166 286.996C340.49 286.142 340.627 285.229 340.566 284.319C340.506 283.408 340.25 282.521 339.816 281.717C339.382 280.914 338.78 280.214 338.051 279.664C335.045 277.465 330.678 278.19 328.057 280.621C326.923 281.67 329.611 281.562 330.23 280.995C332.351 279.04 335.261 279.805 336.86 282.061C337.592 283.112 337.936 284.385 337.832 285.662C337.729 286.939 337.185 288.14 336.293 289.06C334.155 291.168 330.967 289.893 329.572 287.592C328.933 286.529 328.665 285.284 328.812 284.053C328.959 282.822 329.512 281.674 330.383 280.791C330.842 280.298 329.991 280.083 329.662 280.06C329.326 280.053 328.992 280.116 328.682 280.245C328.372 280.374 328.091 280.566 327.859 280.808Z" fill="#6A79A8"></path><path d="M311.087 335.934L278.4 368.578C277.36 369.617 276.775 371.027 276.775 372.496C276.775 373.966 277.36 375.376 278.4 376.415C279.44 377.455 280.851 378.038 282.322 378.038C283.793 378.038 285.204 377.455 286.244 376.415L318.932 343.761C321.093 341.596 320.066 339.131 317.882 336.96C315.716 334.818 313.248 333.775 311.087 335.934Z" fill="white"></path><path d="M274.474 299.356L241.792 332.016C240.752 333.056 240.168 334.466 240.168 335.935C240.168 337.405 240.752 338.815 241.792 339.854C242.833 340.894 244.244 341.477 245.715 341.477C247.186 341.477 248.596 340.894 249.637 339.854L282.319 307.194C284.485 305.029 283.453 302.569 281.275 300.393C279.108 298.24 276.641 297.169 274.474 299.356Z" fill="white"></path><path d="M311.268 334.318L278.49 367.074C275.96 369.602 274.071 372.991 276.595 376.38C279.374 380.109 284.638 379.327 287.655 376.448C293.327 371.025 298.795 365.318 304.359 359.758L321.375 342.756C322.544 341.583 319.878 341.391 319.106 342.133L288.251 372.968C286.334 374.884 283.929 378.262 280.764 376.652C277.73 375.111 277.52 371.144 279.63 368.78C280.106 368.242 280.662 367.755 281.172 367.245L298.517 349.914L313.525 334.913C314.694 333.745 312.028 333.553 311.256 334.295L311.268 334.318Z" fill="#6A79A8"></path><path d="M274.673 297.776L241.889 330.527C239.37 333.043 237.465 336.404 239.989 339.787C242.751 343.499 248.043 342.7 251.043 339.838C256.715 334.415 262.183 328.708 267.741 323.148L284.757 306.146C285.892 305.013 283.243 304.883 282.534 305.58L251.679 336.409C249.761 338.325 247.339 341.72 244.186 340.088C241.157 338.523 240.913 334.545 243.017 332.153C243.494 331.587 244.05 331.122 244.56 330.612L261.905 313.281L276.913 298.286C278.047 297.152 275.399 297.022 274.69 297.719L274.673 297.776Z" fill="#6A79A8"></path><path d="M351.449 267.347C367.33 251.892 386.745 237.118 394.499 215.543C398.14 205.41 398.134 192.709 390.284 184.48C384.726 178.654 376.394 177.113 368.657 177.884C347.83 179.856 331.846 195.804 317.984 210.023C302.766 225.653 285.75 245.347 262.563 247.71C252.643 248.724 242.831 245.324 237.42 236.591C233.404 230.113 232.184 222.519 234.544 215.231C238.974 201.567 251.293 192.278 257.708 179.68C260.731 173.73 262.019 167.116 260.124 160.604C257.362 151.089 248.871 142.883 238.957 141.336C234.835 140.751 230.634 141.464 226.938 143.376C222.4 145.586 218.572 149.145 213.801 150.885C203.552 154.62 191.289 147.207 188.357 137.085C184.823 124.912 191.25 112.274 199.531 103.648C209.126 93.704 219.288 84.3222 229.967 75.5501C238.055 68.8627 247.896 61.4953 250.34 50.6935C251.299 46.46 251.401 41.3425 248.105 38.0498C245.406 35.3465 241.441 35.5052 238.06 36.6443C234.374 37.8855 231.141 40.2714 228.418 42.986C227.726 43.6717 230.386 43.4507 230.931 42.9123C234.13 39.733 239.938 35.1028 244.543 38.1802C249.149 41.2575 248.593 48.0299 247.238 52.677C243.988 63.8302 232.729 71.0729 224.346 78.2137C214.505 86.5955 204.539 95.4081 195.85 104.997C188.584 112.982 183.179 124.033 185.028 135.085C186.559 144.22 193.978 151.061 202.985 152.755C207.078 153.53 211.306 153.137 215.185 151.622C219.456 149.921 223.018 147.031 226.989 144.821C232.377 141.812 237.873 141.942 243.375 144.662C248.65 147.33 252.94 151.602 255.626 156.864C257.204 159.969 258.09 163.379 258.223 166.859C258.356 170.338 257.733 173.806 256.398 177.022C251.219 190.017 239.444 199.011 233.472 211.592C230.636 217.566 229.649 224.157 231.606 230.561C234.016 238.495 239.751 245.086 247.691 247.738C265.552 253.695 285.007 242.734 298.251 231.626C315.619 217.056 329.044 197.651 348.698 185.84C356.565 181.114 366.23 177.957 375.475 179.363C385.117 180.831 391.861 188.107 393.625 197.583C395.894 209.688 390.313 221.782 383.506 231.473C377.086 240.609 369.032 248.475 360.932 256.092C356.916 259.866 352.867 263.601 348.919 267.426C348.227 268.101 350.887 267.885 351.432 267.347H351.449Z" fill="#6A79A8"></path></svg>