<svg xmlns="http://www.w3.org/2000/svg" width="549" height="512" viewBox="0 0 549 512" fill="none"><path d="M462.485 8.6185C514.783 27.1405 545.301 79.7169 548.023 145.667C551.138 221.181 538.06 298.805 502.869 364.974C468.175 430.213 412.215 486.37 343.675 504.678C310.336 513.581 132.167 527.086 66.4846 455.037C14.4329 397.99 -10.5272 304.079 5.50801 228.352C22.4177 148.509 76.8305 113.777 138.758 96.7905C170.424 88.1061 202.784 92.8664 233.39 79.1977C262.493 66.1957 287.163 45.9685 314.752 29.9278C357.819 4.88569 410.231 -7.53699 457.758 7.06088C459.354 7.54912 460.93 8.06833 462.485 8.6185Z" fill="#F8F8F8"></path><path d="M482.947 76.4414H55.2856C52.2672 76.4414 49.8203 78.8883 49.8203 81.9067V425.326C49.8203 428.344 52.2672 430.791 55.2856 430.791H482.947C485.965 430.791 488.412 428.344 488.412 425.326V81.9067C488.412 78.8883 485.965 76.4414 482.947 76.4414Z" fill="white"></path><path d="M488.412 107.479H49.8203V81.9067C49.8203 80.4572 50.3961 79.0671 51.4211 78.0422C52.446 77.0172 53.8361 76.4414 55.2856 76.4414H482.947C484.397 76.4414 485.787 77.0172 486.812 78.0422C487.837 79.0671 488.412 80.4572 488.412 81.9067V107.479Z" fill="#EEEEEE"></path><path d="M73.6379 99.1464C77.3838 99.1464 80.4204 95.9263 80.4204 91.9541C80.4204 87.9819 77.3838 84.7617 73.6379 84.7617C69.8921 84.7617 66.8555 87.9819 66.8555 91.9541C66.8555 95.9263 69.8921 99.1464 73.6379 99.1464Z" fill="#FFAC98"></path><path d="M81.739 91.5973C81.1925 81.2132 65.4742 82.3991 65.5344 92.3078C65.5999 102.834 81.2417 101.364 81.739 91.5973C81.7718 91.0234 79.1485 91.406 79.0993 92.3078C78.908 96.1335 75.5796 100.178 71.4478 97.6802C70.4313 97.0265 69.5972 96.1255 69.0237 95.0617C68.4502 93.9978 68.156 92.8058 68.1686 91.5973C68.1686 87.9355 71.4041 84.2027 75.2736 85.9625C77.7876 87.1048 78.9736 89.668 79.0993 92.3078C79.1321 92.9527 81.7828 92.4717 81.739 91.5973Z" fill="#5D7183"></path><path d="M93.9866 99.1464C97.7324 99.1464 100.769 95.9263 100.769 91.9541C100.769 87.9819 97.7324 84.7617 93.9866 84.7617C90.2407 84.7617 87.2041 87.9819 87.2041 91.9541C87.2041 95.9263 90.2407 99.1464 93.9866 99.1464Z" fill="#FFEEA4"></path><path d="M102.086 91.5991C101.539 81.1603 85.8918 82.1167 85.8809 92.2057C85.8809 102.77 101.583 101.77 102.086 91.8013C102.146 90.659 99.4895 91.1564 99.4403 92.1074C99.2764 95.3264 97.1176 99.0429 93.3246 98.2231C90.3734 97.5891 88.5589 94.5558 88.5643 91.7029C88.5643 88.2106 91.3626 84.598 95.1883 85.8769C97.9702 86.8115 99.3037 89.5441 99.4458 92.3096C99.4895 93.2277 102.14 92.6703 102.086 91.5991Z" fill="#5D7183"></path><path d="M114.333 99.1464C118.079 99.1464 121.116 95.9263 121.116 91.9541C121.116 87.9819 118.079 84.7617 114.333 84.7617C110.587 84.7617 107.551 87.9819 107.551 91.9541C107.551 95.9263 110.587 99.1464 114.333 99.1464Z" fill="#96E296"></path><path d="M122.428 91.5973C121.881 81.2132 106.169 82.4156 106.229 92.3078C106.289 102.823 121.936 101.353 122.428 91.5973C122.461 91.0508 119.837 91.4169 119.794 92.3078C119.597 96.1335 116.268 100.183 112.142 97.6802C111.123 97.0292 110.287 96.1288 109.713 95.0643C109.139 93.9998 108.847 92.8065 108.863 91.5973C108.863 87.9355 112.093 84.1863 115.968 85.9571C118.476 87.1048 119.668 89.6626 119.794 92.3078C119.821 92.9308 122.472 92.4499 122.428 91.5973Z" fill="#5D7183"></path><path d="M394.015 197.899H384.691C384.401 197.899 384.123 197.783 383.918 197.578C383.713 197.373 383.598 197.095 383.598 196.805C383.598 196.516 383.713 196.238 383.918 196.033C384.123 195.828 384.401 195.712 384.691 195.712H394.015C394.498 195.713 394.98 195.679 395.458 195.609C395.601 195.588 395.748 195.595 395.888 195.631C396.029 195.667 396.161 195.73 396.277 195.817C396.393 195.903 396.491 196.012 396.566 196.137C396.64 196.262 396.689 196.4 396.71 196.543C396.73 196.687 396.723 196.833 396.687 196.973C396.651 197.114 396.588 197.246 396.501 197.362C396.415 197.479 396.306 197.577 396.181 197.651C396.057 197.725 395.918 197.774 395.775 197.795C395.191 197.87 394.603 197.905 394.015 197.899ZM373.761 197.899H362.83C362.54 197.899 362.262 197.783 362.057 197.578C361.852 197.373 361.737 197.095 361.737 196.805C361.737 196.516 361.852 196.238 362.057 196.033C362.262 195.828 362.54 195.712 362.83 195.712H373.761C374.051 195.712 374.329 195.828 374.534 196.033C374.739 196.238 374.854 196.516 374.854 196.805C374.854 197.095 374.739 197.373 374.534 197.578C374.329 197.783 374.051 197.899 373.761 197.899ZM351.899 197.899H340.969C340.679 197.899 340.401 197.783 340.196 197.578C339.991 197.373 339.876 197.095 339.876 196.805C339.876 196.516 339.991 196.238 340.196 196.033C340.401 195.828 340.679 195.712 340.969 195.712H351.899C352.189 195.712 352.467 195.828 352.672 196.033C352.877 196.238 352.992 196.516 352.992 196.805C352.992 197.095 352.877 197.373 352.672 197.578C352.467 197.783 352.189 197.899 351.899 197.899ZM330.038 197.899H319.107C318.817 197.899 318.539 197.783 318.334 197.578C318.13 197.373 318.014 197.095 318.014 196.805C318.014 196.516 318.13 196.238 318.334 196.033C318.539 195.828 318.817 195.712 319.107 195.712H330.038C330.328 195.712 330.606 195.828 330.811 196.033C331.016 196.238 331.131 196.516 331.131 196.805C331.131 197.095 331.016 197.373 330.811 197.578C330.606 197.783 330.328 197.899 330.038 197.899ZM308.177 197.899H297.246C296.956 197.899 296.678 197.783 296.473 197.578C296.268 197.373 296.153 197.095 296.153 196.805C296.153 196.516 296.268 196.238 296.473 196.033C296.678 195.828 296.956 195.712 297.246 195.712H308.177C308.467 195.712 308.745 195.828 308.95 196.033C309.155 196.238 309.27 196.516 309.27 196.805C309.27 197.095 309.155 197.373 308.95 197.578C308.745 197.783 308.467 197.899 308.177 197.899ZM286.315 197.899H275.385C275.095 197.899 274.817 197.783 274.612 197.578C274.407 197.373 274.292 197.095 274.292 196.805C274.292 196.516 274.407 196.238 274.612 196.033C274.817 195.828 275.095 195.712 275.385 195.712H286.315C286.605 195.712 286.883 195.828 287.088 196.033C287.293 196.238 287.409 196.516 287.409 196.805C287.409 197.095 287.293 197.373 287.088 197.578C286.883 197.783 286.605 197.899 286.315 197.899ZM264.454 197.899H253.524C253.234 197.899 252.956 197.783 252.751 197.578C252.546 197.373 252.43 197.095 252.43 196.805C252.43 196.516 252.546 196.238 252.751 196.033C252.956 195.828 253.234 195.712 253.524 195.712H264.454C264.744 195.712 265.022 195.828 265.227 196.033C265.432 196.238 265.547 196.516 265.547 196.805C265.547 197.095 265.432 197.373 265.227 197.578C265.022 197.783 264.744 197.899 264.454 197.899ZM242.593 197.899H231.662C231.372 197.899 231.094 197.783 230.889 197.578C230.684 197.373 230.569 197.095 230.569 196.805C230.569 196.516 230.684 196.238 230.889 196.033C231.094 195.828 231.372 195.712 231.662 195.712H242.593C242.883 195.712 243.161 195.828 243.366 196.033C243.571 196.238 243.686 196.516 243.686 196.805C243.686 197.095 243.571 197.373 243.366 197.578C243.161 197.783 242.883 197.899 242.593 197.899ZM220.732 197.899H209.801C209.511 197.899 209.233 197.783 209.028 197.578C208.823 197.373 208.708 197.095 208.708 196.805C208.708 196.516 208.823 196.238 209.028 196.033C209.233 195.828 209.511 195.712 209.801 195.712H220.732C221.022 195.712 221.3 195.828 221.505 196.033C221.71 196.238 221.825 196.516 221.825 196.805C221.825 197.095 221.71 197.373 221.505 197.578C221.3 197.783 221.022 197.899 220.732 197.899ZM198.87 197.899H187.94C187.65 197.899 187.372 197.783 187.167 197.578C186.962 197.373 186.847 197.095 186.847 196.805C186.847 196.516 186.962 196.238 187.167 196.033C187.372 195.828 187.65 195.712 187.94 195.712H198.87C199.16 195.712 199.438 195.828 199.643 196.033C199.848 196.238 199.963 196.516 199.963 196.805C199.963 197.095 199.848 197.373 199.643 197.578C199.438 197.783 199.16 197.899 198.87 197.899ZM177.009 197.899H166.078C165.789 197.899 165.51 197.783 165.305 197.578C165.1 197.373 164.985 197.095 164.985 196.805C164.985 196.516 165.1 196.238 165.305 196.033C165.51 195.828 165.789 195.712 166.078 195.712H177.009C177.299 195.712 177.577 195.828 177.782 196.033C177.987 196.238 178.102 196.516 178.102 196.805C178.102 197.095 177.987 197.373 177.782 197.578C177.577 197.783 177.299 197.899 177.009 197.899ZM155.148 197.899H144.217C143.927 197.899 143.649 197.783 143.444 197.578C143.239 197.373 143.124 197.095 143.124 196.805C143.124 196.516 143.239 196.238 143.444 196.033C143.649 195.828 143.927 195.712 144.217 195.712H155.148C155.438 195.712 155.716 195.828 155.921 196.033C156.126 196.238 156.241 196.516 156.241 196.805C156.241 197.095 156.126 197.373 155.921 197.578C155.716 197.783 155.438 197.899 155.148 197.899ZM135.445 193.488C135.275 193.489 135.106 193.45 134.953 193.374C134.801 193.298 134.668 193.187 134.565 193.051C133.019 190.979 132.186 188.461 132.193 185.875V181.934C132.193 181.644 132.309 181.366 132.514 181.161C132.719 180.956 132.997 180.841 133.286 180.841C133.576 180.841 133.854 180.956 134.059 181.161C134.264 181.366 134.38 181.644 134.38 181.934V185.875C134.37 187.989 135.047 190.049 136.309 191.745C136.429 191.907 136.502 192.1 136.519 192.301C136.537 192.502 136.498 192.704 136.407 192.885C136.317 193.066 136.178 193.218 136.006 193.324C135.834 193.43 135.636 193.487 135.434 193.488H135.445ZM403.978 191.466C403.823 191.469 403.67 191.435 403.53 191.367C403.267 191.248 403.061 191.029 402.959 190.759C402.857 190.488 402.865 190.188 402.984 189.925C403.559 188.652 403.855 187.271 403.853 185.875V179.584C403.853 179.294 403.968 179.016 404.173 178.811C404.378 178.606 404.656 178.491 404.946 178.491C405.236 178.491 405.514 178.606 405.719 178.811C405.924 179.016 406.039 179.294 406.039 179.584V185.875C406.041 187.583 405.678 189.271 404.973 190.826C404.886 191.017 404.746 191.179 404.57 191.292C404.393 191.406 404.188 191.466 403.978 191.466ZM133.286 172.097C132.997 172.097 132.719 171.982 132.514 171.777C132.309 171.572 132.193 171.294 132.193 171.004V160.073C132.193 159.783 132.309 159.505 132.514 159.3C132.719 159.095 132.997 158.98 133.286 158.98C133.576 158.98 133.854 159.095 134.059 159.3C134.264 159.505 134.38 159.783 134.38 160.073V171.004C134.38 171.294 134.264 171.572 134.059 171.777C133.854 171.982 133.576 172.097 133.286 172.097ZM404.946 169.747C404.656 169.747 404.378 169.631 404.173 169.426C403.968 169.222 403.853 168.943 403.853 168.654V157.723C403.853 157.433 403.968 157.155 404.173 156.95C404.378 156.745 404.656 156.63 404.946 156.63C405.236 156.63 405.514 156.745 405.719 156.95C405.924 157.155 406.039 157.433 406.039 157.723V168.654C406.039 168.943 405.924 169.222 405.719 169.426C405.514 169.631 405.236 169.747 404.946 169.747ZM134.123 150.345C133.98 150.344 133.839 150.316 133.707 150.263C133.575 150.208 133.454 150.128 133.352 150.027C133.25 149.926 133.169 149.805 133.114 149.673C133.059 149.54 133.03 149.398 133.03 149.255C133.029 149.111 133.057 148.969 133.112 148.836C133.874 146.971 135.094 145.328 136.66 144.059C138.226 142.79 140.086 141.937 142.069 141.578C142.213 141.545 142.363 141.541 142.508 141.567C142.654 141.592 142.793 141.648 142.917 141.729C143.04 141.81 143.146 141.915 143.228 142.038C143.31 142.162 143.366 142.3 143.393 142.446C143.419 142.591 143.416 142.741 143.383 142.885C143.351 143.029 143.289 143.166 143.202 143.285C143.115 143.405 143.005 143.506 142.878 143.582C142.75 143.657 142.609 143.707 142.463 143.726C140.841 144.023 139.32 144.723 138.04 145.761C136.759 146.799 135.76 148.142 135.134 149.667C135.051 149.868 134.911 150.039 134.731 150.16C134.551 150.28 134.339 150.345 134.123 150.345ZM403.016 148.284C402.839 148.284 402.664 148.241 402.507 148.158C402.35 148.075 402.215 147.955 402.115 147.809C401.21 146.501 400.001 145.431 398.592 144.693C397.184 143.954 395.617 143.568 394.026 143.568H393.654C393.365 143.568 393.086 143.453 392.882 143.248C392.677 143.043 392.561 142.765 392.561 142.475C392.561 142.185 392.677 141.907 392.882 141.702C393.086 141.497 393.365 141.382 393.654 141.382H394.026C395.971 141.382 397.886 141.854 399.608 142.758C401.33 143.661 402.807 144.969 403.913 146.568C404.026 146.732 404.093 146.924 404.106 147.123C404.118 147.322 404.076 147.521 403.984 147.697C403.891 147.874 403.752 148.022 403.582 148.126C403.411 148.229 403.216 148.284 403.016 148.284ZM382.713 143.551H371.782C371.492 143.551 371.214 143.436 371.009 143.231C370.804 143.026 370.689 142.748 370.689 142.458C370.689 142.168 370.804 141.89 371.009 141.685C371.214 141.48 371.492 141.365 371.782 141.365H382.713C383.003 141.365 383.281 141.48 383.486 141.685C383.691 141.89 383.806 142.168 383.806 142.458C383.806 142.748 383.691 143.026 383.486 143.231C383.281 143.436 383.003 143.551 382.713 143.551ZM360.852 143.551H349.921C349.631 143.551 349.353 143.436 349.148 143.231C348.943 143.026 348.828 142.748 348.828 142.458C348.828 142.168 348.943 141.89 349.148 141.685C349.353 141.48 349.631 141.365 349.921 141.365H360.852C361.141 141.365 361.419 141.48 361.624 141.685C361.829 141.89 361.945 142.168 361.945 142.458C361.945 142.748 361.829 143.026 361.624 143.231C361.419 143.436 361.141 143.551 360.852 143.551ZM338.99 143.551H328.06C327.77 143.551 327.492 143.436 327.287 143.231C327.082 143.026 326.967 142.748 326.967 142.458C326.967 142.168 327.082 141.89 327.287 141.685C327.492 141.48 327.77 141.365 328.06 141.365H338.99C339.28 141.365 339.558 141.48 339.763 141.685C339.968 141.89 340.083 142.168 340.083 142.458C340.083 142.748 339.968 143.026 339.763 143.231C339.558 143.436 339.28 143.551 338.99 143.551ZM317.129 143.551H306.198C305.908 143.551 305.63 143.436 305.425 143.231C305.22 143.026 305.105 142.748 305.105 142.458C305.105 142.168 305.22 141.89 305.425 141.685C305.63 141.48 305.908 141.365 306.198 141.365H317.129C317.419 141.365 317.697 141.48 317.902 141.685C318.107 141.89 318.222 142.168 318.222 142.458C318.222 142.748 318.107 143.026 317.902 143.231C317.697 143.436 317.419 143.551 317.129 143.551ZM295.268 143.551H284.337C284.047 143.551 283.769 143.436 283.564 143.231C283.359 143.026 283.244 142.748 283.244 142.458C283.244 142.168 283.359 141.89 283.564 141.685C283.769 141.48 284.047 141.365 284.337 141.365H295.268C295.558 141.365 295.836 141.48 296.041 141.685C296.246 141.89 296.361 142.168 296.361 142.458C296.361 142.748 296.246 143.026 296.041 143.231C295.836 143.436 295.558 143.551 295.268 143.551ZM273.406 143.551H262.476C262.186 143.551 261.908 143.436 261.703 143.231C261.498 143.026 261.383 142.748 261.383 142.458C261.383 142.168 261.498 141.89 261.703 141.685C261.908 141.48 262.186 141.365 262.476 141.365H273.406C273.696 141.365 273.974 141.48 274.179 141.685C274.384 141.89 274.499 142.168 274.499 142.458C274.499 142.748 274.384 143.026 274.179 143.231C273.974 143.436 273.696 143.551 273.406 143.551ZM251.545 143.551H240.614C240.325 143.551 240.047 143.436 239.842 143.231C239.637 143.026 239.521 142.748 239.521 142.458C239.521 142.168 239.637 141.89 239.842 141.685C240.047 141.48 240.325 141.365 240.614 141.365H251.545C251.835 141.365 252.113 141.48 252.318 141.685C252.523 141.89 252.638 142.168 252.638 142.458C252.638 142.748 252.523 143.026 252.318 143.231C252.113 143.436 251.835 143.551 251.545 143.551ZM229.684 143.551H218.753C218.463 143.551 218.185 143.436 217.98 143.231C217.775 143.026 217.66 142.748 217.66 142.458C217.66 142.168 217.775 141.89 217.98 141.685C218.185 141.48 218.463 141.365 218.753 141.365H229.684C229.974 141.365 230.252 141.48 230.457 141.685C230.662 141.89 230.777 142.168 230.777 142.458C230.777 142.748 230.662 143.026 230.457 143.231C230.252 143.436 229.974 143.551 229.684 143.551ZM207.823 143.551H196.892C196.602 143.551 196.324 143.436 196.119 143.231C195.914 143.026 195.799 142.748 195.799 142.458C195.799 142.168 195.914 141.89 196.119 141.685C196.324 141.48 196.602 141.365 196.892 141.365H207.823C208.112 141.365 208.39 141.48 208.595 141.685C208.8 141.89 208.916 142.168 208.916 142.458C208.916 142.748 208.8 143.026 208.595 143.231C208.39 143.436 208.112 143.551 207.823 143.551ZM185.961 143.551H175.031C174.741 143.551 174.463 143.436 174.258 143.231C174.053 143.026 173.938 142.748 173.938 142.458C173.938 142.168 174.053 141.89 174.258 141.685C174.463 141.48 174.741 141.365 175.031 141.365H185.961C186.251 141.365 186.529 141.48 186.734 141.685C186.939 141.89 187.054 142.168 187.054 142.458C187.054 142.748 186.939 143.026 186.734 143.231C186.529 143.436 186.251 143.551 185.961 143.551ZM164.1 143.551H153.169C152.879 143.551 152.601 143.436 152.396 143.231C152.191 143.026 152.076 142.748 152.076 142.458C152.076 142.168 152.191 141.89 152.396 141.685C152.601 141.48 152.879 141.365 153.169 141.365H164.1C164.39 141.365 164.668 141.48 164.873 141.685C165.078 141.89 165.193 142.168 165.193 142.458C165.193 142.748 165.078 143.026 164.873 143.231C164.668 143.436 164.39 143.551 164.1 143.551Z" fill="#5D7183"></path><path d="M362.934 378.178H432.136C438.683 378.178 443.99 372.87 443.99 366.323V250.005C443.99 243.458 438.683 238.151 432.136 238.151H362.934C356.387 238.151 351.08 243.458 351.08 250.005V366.323C351.08 372.87 356.387 378.178 362.934 378.178Z" fill="#EEEEEE"></path><path d="M371.64 360.143H423.435C426.236 360.143 428.507 357.872 428.507 355.071V354.01C428.507 351.209 426.236 348.939 423.435 348.939H371.64C368.839 348.939 366.568 351.209 366.568 354.01V355.071C366.568 357.872 368.839 360.143 371.64 360.143Z" fill="white"></path><path d="M371.465 330.33H423.61C426.314 330.33 428.507 328.138 428.507 325.433V256.811C428.507 254.106 426.314 251.914 423.61 251.914H371.465C368.761 251.914 366.568 254.106 366.568 256.811V325.433C366.568 328.138 368.761 330.33 371.465 330.33Z" fill="white"></path><path d="M106.103 378.178H175.305C181.852 378.178 187.159 372.87 187.159 366.323L187.159 250.005C187.159 243.458 181.852 238.151 175.305 238.151H106.103C99.5561 238.151 94.2487 243.458 94.2487 250.005L94.2487 366.323C94.2487 372.87 99.5561 378.178 106.103 378.178Z" fill="#EEEEEE"></path><path d="M114.809 360.143H166.604C169.405 360.143 171.676 357.872 171.676 355.071V354.01C171.676 351.209 169.405 348.939 166.604 348.939H114.809C112.008 348.939 109.737 351.209 109.737 354.01V355.071C109.737 357.872 112.008 360.143 114.809 360.143Z" fill="white"></path><path d="M114.634 330.33H166.779C169.483 330.33 171.676 328.138 171.676 325.433V256.811C171.676 254.106 169.483 251.914 166.779 251.914H114.634C111.93 251.914 109.737 254.106 109.737 256.811V325.433C109.737 328.138 111.93 330.33 114.634 330.33Z" fill="white"></path><path d="M234.516 378.178H303.718C310.265 378.178 315.572 372.87 315.572 366.323V250.005C315.572 243.458 310.265 238.151 303.718 238.151H234.516C227.969 238.151 222.662 243.458 222.662 250.005V366.323C222.662 372.87 227.969 378.178 234.516 378.178Z" fill="#EEEEEE"></path><path d="M243.227 360.143H295.022C297.823 360.143 300.094 357.872 300.094 355.071V354.01C300.094 351.209 297.823 348.939 295.022 348.939H243.227C240.426 348.939 238.155 351.209 238.155 354.01V355.071C238.155 357.872 240.426 360.143 243.227 360.143Z" fill="white"></path><path d="M243.052 330.33H295.197C297.901 330.33 300.094 328.138 300.094 325.433V256.811C300.094 254.106 297.901 251.914 295.197 251.914H243.052C240.348 251.914 238.155 254.106 238.155 256.811V325.433C238.155 328.138 240.348 330.33 243.052 330.33Z" fill="white"></path><path d="M487.096 375.698V422.153C487.096 424.678 487.643 429.389 484.511 430.264C482.872 430.734 480.368 430.264 478.663 430.264H428.546C427.962 430.264 425.551 431.357 426.841 431.357H476.608C482.074 431.357 489.61 432.177 489.725 424.432C489.856 416.201 489.725 407.954 489.725 399.718V374.993C489.725 374.534 487.085 374.916 487.085 375.698H487.096Z" fill="#5D7183"></path><path d="M325.006 430.235H59.763C55.4727 430.235 51.2426 430.53 51.1387 424.42C51.0731 420.447 51.1387 416.468 51.1387 412.495V86.2149C51.1387 83.4822 50.4392 77.7108 53.9424 76.9894C56.6751 76.4429 60.1019 76.9894 62.8618 76.9894H480.779C481.463 76.9539 482.149 76.9539 482.834 76.9894C486.468 77.372 487.096 80.766 487.096 83.7227V310.025C487.096 310.49 489.736 310.102 489.736 309.32V99.5557C489.736 93.8171 489.802 88.0786 489.736 82.3454C489.698 79.0663 488.097 76.1259 484.5 75.8909C483.746 75.8417 482.97 75.8909 482.216 75.8909H62.7471C60.3041 75.8909 57.8283 75.798 55.4017 75.8909C51.4011 76.033 48.5919 78.558 48.499 82.6351C48.4717 83.8867 48.499 85.1382 48.499 86.3898V389.125C48.499 401.149 48.264 413.232 48.499 425.267C48.6247 431.415 53.2866 431.35 57.6916 431.35H323.306C323.891 431.35 326.301 430.257 325.011 430.257L325.006 430.235Z" fill="#5D7183"></path><path d="M386.928 430.234H359.601C359.016 430.234 356.606 431.327 357.896 431.327H385.222C385.807 431.327 388.217 430.234 386.928 430.234Z" fill="#5D7183"></path><path d="M307.877 462.213C308.543 463.153 315.43 465.59 318.479 465.765C323.945 466.989 332.842 465.765 334.121 465.88C342.319 466.607 352.244 466.268 360.508 466.508C372.225 466.858 417.894 465.229 427.966 462.683C436.077 460.633 414.363 454.736 411.57 454.485C381.429 451.457 349.178 450.992 318.714 452.298C318.571 452.307 318.428 452.329 318.288 452.364C313.566 452.692 306.434 460.207 307.877 462.213Z" fill="#EEEEEE"></path><path d="M329.613 459.831C333.154 461.673 334.433 456.945 336.1 454.71C338.603 451.354 341.724 444.55 343.38 440.708C354.229 415.453 366.946 391.52 377.812 366.254C378.134 365.662 378.284 364.992 378.243 364.319C378.047 363.024 376.604 362.379 375.341 362.002C360.35 357.558 344.249 359.936 328.711 358.176C326.782 357.957 324.82 357.668 322.896 357.99C320.972 358.313 319.174 353.618 318.365 355.389C317.332 357.64 324.022 434.357 326.76 450.086C327.137 452.273 327.257 458.06 329.099 459.514C329.262 459.633 329.433 459.739 329.613 459.831Z" fill="#EEEEEE"></path><path d="M317.606 368.257C318.437 389.222 320.667 410.22 322.946 431.065C323.443 435.628 323.968 440.187 324.585 444.728C325.132 448.669 325.405 452.855 326.312 456.708C326.815 458.851 327.761 460.698 330.138 461.048C332.045 461.326 333.669 460.326 334.811 458.862C336.303 456.965 337.576 454.61 338.828 452.533C340.58 449.532 342.151 446.429 343.533 443.242C350.802 427.13 358.383 411.193 366.012 395.245C366.614 393.988 363.963 394.152 363.526 395.065C357.049 408.592 350.365 422.025 344.26 435.727C341.675 441.531 339.342 447.565 335.959 452.959C335.319 453.97 334.598 454.921 333.991 455.954C333.516 456.774 333.04 458.036 332.302 458.687C329.28 461.326 328.559 453.915 328.384 452.352C327.526 444.799 326.34 437.284 325.52 429.726C324.354 418.879 323.303 408.018 322.366 397.142C321.514 387.304 320.634 377.439 320.246 367.563C320.208 366.552 317.562 367.121 317.606 368.274V368.257Z" fill="#5D7183"></path><path d="M353.83 372.326C354.628 380.327 361.41 389.487 364.76 395.182C379.233 419.776 397.919 446.78 423.928 460.219C429.82 463.264 430.776 456.492 427.89 452.021C424.327 446.556 420.632 441.167 417.616 435.276C413.075 426.281 410.344 416.482 409.576 406.435C408.74 395.876 407.975 366.445 407.592 355.979C407.499 353.383 378.189 359.477 367.695 359.543C364.547 359.543 361.197 359.696 358.579 361.581C354.584 364.44 353.425 368.233 353.83 372.326Z" fill="#EEEEEE"></path><path d="M353.665 377.676C356.196 384.688 360.617 390.793 364.388 397.133C368.11 403.407 371.974 409.594 376.095 415.611C384.637 428.077 394.316 439.97 406.018 449.611C411.248 453.917 417.243 458.612 423.572 461.181C427.398 462.744 431.071 460.563 430.775 456.262C430.562 453.163 428.617 450.726 426.983 448.228C424.501 444.446 422.026 440.658 419.878 436.68C415.94 429.383 413.217 421.493 411.816 413.321C410.723 406.888 410.532 400.33 410.231 393.821C409.9 386.512 409.608 379.203 409.357 371.894C409.324 371.058 406.679 371.582 406.717 372.599C407.089 383.529 407.433 394.515 408.165 405.445C409.166 420.306 414.39 433.548 422.375 445.976C424.152 448.709 426.616 451.523 427.655 454.644C428.102 455.836 428.239 457.123 428.054 458.382C427.677 460.29 426.649 460.312 424.977 459.563C418.648 456.721 412.729 452.168 407.488 447.725C397.005 438.915 388.157 428.296 380.292 417.092C375.997 410.982 371.98 404.669 368.132 398.264C363.978 391.35 359.054 384.601 356.305 376.949C355.977 376.026 353.354 376.791 353.665 377.654V377.676Z" fill="#5D7183"></path><path d="M315.463 355.903C313.572 333.883 314.84 314.678 318.704 292.92C320.825 280.99 325.263 269.163 328.793 257.56C333.166 243.323 333.565 228.419 338.44 214.116C339.817 210.077 341.429 206.016 344.184 202.759C348.212 198.004 354.163 196.578 360.126 197.758C364.006 198.529 367.165 201.496 369.116 204.945C372.642 211.181 373.871 218.275 374.582 225.32C374.926 228.818 380.812 250.531 382.414 253.532C389.682 267.135 393.929 272.584 398.487 287.368C405.488 310.087 410.194 334.216 409.729 357.805C409.675 360.537 395.563 367.506 354.491 364.429C335.674 363.024 315.463 355.903 315.463 355.903Z" fill="white"></path><path d="M398.481 287.366C393.929 272.61 389.283 266.264 382.042 252.716C371.745 259.203 362.077 260.176 354.327 260.138C348.495 260.138 338.248 256.569 335.827 255.323C333.92 254.258 332.094 253.056 330.361 251.727C329.897 253.678 329.378 255.623 328.787 257.558C325.235 269.161 320.819 280.988 318.698 292.919C314.834 314.676 313.566 333.909 315.457 355.901C315.457 355.901 335.679 361.334 354.48 362.738C395.552 365.815 409.68 360.519 409.718 357.819C410.188 334.215 405.482 310.085 398.481 287.366Z" fill="white"></path><path d="M385.78 215.652C384.72 221.773 377.801 226.172 371.805 224.538C365.81 222.904 362.083 215.602 364.274 209.782C363.362 211.113 362.116 212.179 360.66 212.874C359.204 213.568 357.59 213.866 355.982 213.738C354.374 213.609 352.829 213.058 351.502 212.141C350.175 211.224 349.113 209.973 348.425 208.514C347.889 210.104 346.964 211.536 345.733 212.677C344.503 213.818 343.006 214.634 341.38 215.049C339.754 215.463 338.05 215.465 336.423 215.052C334.796 214.64 333.298 213.826 332.066 212.687C330.834 211.547 329.907 210.117 329.369 208.527C328.831 206.938 328.699 205.239 328.986 203.585C329.273 201.931 329.97 200.376 331.012 199.06C332.054 197.745 333.409 196.711 334.953 196.053C330.898 195.506 327.782 191.446 327.908 187.358C328.034 183.269 331.061 179.553 334.909 178.17C338.757 176.788 343.205 177.569 346.643 179.81C346.228 175.285 349.879 170.776 354.393 170.235C358.907 169.694 363.515 173.213 364.181 177.706C365.653 176.068 367.65 174.996 369.829 174.676C372.007 174.356 374.228 174.807 376.109 175.952C377.99 177.096 379.411 178.862 380.127 180.944C380.843 183.026 380.809 185.293 380.031 187.352C384.594 186.532 389.491 189.965 390.278 194.534C391.065 199.103 387.595 203.978 383.02 204.732C386.299 207.732 387.015 211.383 385.813 215.662L385.78 215.652Z" fill="#ABDFF5"></path><path d="M317.824 307.036C319.054 297.559 320.666 288.186 323.322 278.993C325.979 269.8 329.471 260.832 331.695 251.524C333.881 242.359 334.975 232.942 337.029 223.772C338.866 215.666 341.353 203.73 349.458 199.549C353.393 197.516 358.869 197.478 362.695 199.822C366.52 202.167 368.706 206.474 370.204 210.573C372.39 216.656 372.532 223.028 373.959 229.264C376.057 238.435 378.101 248.355 382.594 256.689C391.338 272.899 399.536 289.394 402.586 307.735C402.734 308.593 405.384 307.976 405.226 307.03C402.296 289.448 394.667 273.479 386.283 257.924C381.277 248.633 378.735 238.195 376.445 227.92C374.806 220.585 374.724 213.229 371.335 206.31C367.947 199.391 361.831 195.756 354.01 196.822C346.031 197.915 341.227 203.703 338.379 210.841C334.647 220.17 333.133 230.166 331.411 240.009C329.449 251.268 326.104 261.87 322.667 272.763C319.151 284.058 316.644 295.642 315.174 307.38C315.042 308.386 317.693 307.927 317.808 307.036H317.824Z" fill="#5D7183"></path><path d="M332.711 254.733C339.781 258.742 347.745 260.91 355.872 261.038C363.999 261.166 372.028 259.25 379.221 255.465C380.811 254.618 379.368 253.421 378.1 254.093C371.395 257.619 363.909 259.395 356.334 259.257C348.76 259.118 341.343 257.07 334.771 253.301C333.875 252.787 331.492 254.033 332.711 254.733Z" fill="#5D7183"></path><path d="M331.05 265.371C331.919 266.956 333.4 269.475 335.209 270.125C337.018 270.776 339.532 268.923 341.084 268.213C342.724 267.464 341.27 266.026 339.915 266.649L337.783 267.622C337.428 267.786 337.073 267.961 336.718 268.109L336.171 268.355C336.586 268.245 336.597 268.087 336.204 267.89C335.876 267.3 335.144 266.764 334.723 266.207C334.254 265.57 333.83 264.902 333.455 264.206C332.908 263.168 330.378 264.152 331.039 265.371H331.05Z" fill="#ABDFF5"></path><path d="M329.668 272.983C330.646 273.972 331.592 275.059 332.63 275.983C332.829 276.225 333.092 276.405 333.389 276.501C333.686 276.598 334.005 276.608 334.308 276.53C336.412 276.229 338.478 274.89 340.32 273.884C340.866 273.589 340.544 273.469 340.178 273.338C339.669 273.185 338.746 273.595 338.314 273.841C337.314 274.387 335.969 275.366 334.833 275.606H335.827C334.472 274.972 333.231 273.136 332.176 272.07C331.723 271.605 329.324 272.584 329.684 272.95L329.668 272.983Z" fill="#ABDFF5"></path><path d="M327.918 280.348C329.126 281.092 330.329 281.851 331.542 282.584C332.263 283.021 332.908 283.464 333.788 283.425C335.63 283.354 337.373 281.665 338.827 280.693C340.281 279.72 338.062 279.212 337.188 279.807L335.144 281.157L334.63 281.491C334.083 281.939 333.985 281.977 334.258 281.605C333.761 281.491 332.881 280.758 332.444 280.512L330.028 279.02C329.241 278.534 326.825 279.665 327.946 280.359L327.918 280.348Z" fill="#ABDFF5"></path><path d="M325.841 288L329.225 290.825C329.897 291.372 330.525 292.104 331.411 292.148C332.296 292.192 333.231 291.601 333.952 291.186C335.34 290.366 336.685 289.486 338.067 288.634C339.565 287.705 337.215 287.617 336.488 288.087C334.947 289.044 333.209 290.519 331.465 291.104L333.192 291.038C331.416 290.049 329.848 288.355 328.274 287.049C327.651 286.53 325.24 287.541 325.809 288.016L325.841 288Z" fill="#ABDFF5"></path><path d="M324.436 295.314C326.174 296.292 327.89 297.303 329.645 298.249C330.514 298.719 330.962 299.019 331.913 298.893C334.602 298.538 337.504 295.806 339.706 294.412C340.799 293.734 338.16 294.095 337.7 294.412C335.727 295.658 333.58 297.456 331.415 298.325L333.41 298.03C331.169 297.243 329.005 295.631 326.928 294.461C326.289 294.1 324.196 295.188 324.436 295.341V295.314Z" fill="#ABDFF5"></path><path d="M325.459 302.943L328.635 305.474C329.345 306.02 330.05 306.763 331.012 306.769C331.81 306.769 332.45 306.222 333.056 305.802C334.051 305.086 335.029 304.337 336.013 303.615C337.445 302.522 335.341 301.478 334.231 302.298L332.264 303.763L331.28 304.495C330.733 304.971 330.641 305.004 330.985 304.588C331.335 304.299 331.225 304.042 330.651 303.9L329.597 303.052L327.476 301.364C326.492 300.577 324.235 301.976 325.459 302.954V302.943Z" fill="#ABDFF5"></path><path d="M324.732 311.68C326.486 312.516 328.59 314.052 330.613 313.751C332.766 313.434 335.029 311.991 337.007 311.128C338.647 310.406 337.193 309.018 335.848 309.603C334.384 310.243 332.7 311.308 331.159 311.647C329.618 311.986 327.634 310.554 326.24 309.926C325.147 309.417 323.202 310.969 324.71 311.68H324.732Z" fill="#ABDFF5"></path><path d="M323.634 318.633C325.405 319.813 327.662 322.24 329.946 321.617C332.231 320.994 334.586 319.196 336.505 317.758C337.937 316.698 335.696 316.326 334.865 316.949C333.225 318.168 331.258 319.775 329.258 320.354H330.487C328.809 319.611 327.246 318.327 325.716 317.316C324.984 316.829 322.552 317.9 323.623 318.605L323.634 318.633Z" fill="#ABDFF5"></path><path d="M323.131 326.765C325.421 328.339 327.591 330.914 330.526 329.864C333.069 328.907 335.319 327.307 337.057 325.219C337.183 325.06 334.953 325.088 334.461 325.7C333.505 326.875 331.351 329.012 329.783 329.252H330.777C328.957 328.416 327.269 326.995 325.618 325.858C325.028 325.448 322.804 326.519 323.131 326.744V326.765Z" fill="#ABDFF5"></path><path d="M321.89 333.303C323.348 334.214 324.805 335.111 326.263 335.992C327.301 336.615 328.367 337.517 329.629 337.495C332.22 337.446 333.324 334.468 334.548 332.631C335.127 331.779 332.537 332.085 332.127 332.713C331.373 333.806 330.405 335.992 329.269 336.741L331.138 336.244C329.996 336.2 328.438 334.866 327.465 334.271C326.492 333.675 325.388 332.992 324.361 332.341C323.661 331.899 321.355 332.965 321.89 333.303Z" fill="#ABDFF5"></path><path d="M324.382 340.524C325.989 341.535 328.208 343.661 330.252 343.6C332.296 343.54 334.346 341.606 335.969 340.573C337.477 339.616 335.291 338.747 334.236 339.42C333.182 340.092 331.564 341.655 330.274 341.442C329.684 341.349 328.831 340.545 328.345 340.239L326.426 339.031C325.475 338.436 323.147 339.747 324.382 340.524Z" fill="#ABDFF5"></path><path d="M322.256 347.469L326.24 349.289C327.213 349.731 328.426 350.567 329.519 350.578C331.389 350.578 333.586 348.343 335.034 347.348C336.482 346.354 334.384 345.255 333.252 346.026C331.957 346.911 330.623 348.081 329.186 348.709L330.536 348.616C328.23 347.966 325.961 346.594 323.775 345.594C322.589 345.047 320.731 346.764 322.278 347.469H322.256Z" fill="#ABDFF5"></path><path d="M323.638 353.208C325.458 354.022 328.011 355.7 330.06 355.438C332.323 355.148 333.815 352.88 335.285 351.372C335.793 350.825 333.345 351.153 332.902 351.601C332.061 352.465 330.82 354.285 329.721 354.804L331.361 354.438C329.721 354.361 327.623 352.978 326.152 352.323C325.585 352.179 324.986 352.239 324.458 352.492C324.36 352.53 323.267 353.039 323.66 353.208H323.638Z" fill="#ABDFF5"></path><path d="M351.72 268.102C353.059 269.545 354.966 271.469 356.967 271.873C358.967 272.278 361.06 269.791 362.432 268.681C363.804 267.572 361.711 266.648 360.678 267.474L358.541 269.179L357.994 269.611C357.497 270.184 357.344 270.217 357.546 269.703C356.251 269.157 355.032 267.927 354.114 266.938C353.299 266.058 350.796 267.129 351.698 268.102H351.72Z" fill="#ABDFF5"></path><path d="M351.244 275.087C352.611 276.251 354.387 278.688 356.349 278.279C358.311 277.869 360.268 276.42 361.962 275.284C363.022 274.573 360.415 274.945 359.956 275.284C358.863 275.999 357.562 277.147 356.327 277.519L357.655 277.453C356.218 276.655 354.972 275.305 353.72 274.234C353.206 273.791 350.884 274.819 351.228 275.114L351.244 275.087Z" fill="#ABDFF5"></path><path d="M350.102 282.595C351.37 283.235 352.632 283.885 353.928 284.519C354.715 284.907 355.48 285.323 356.398 285.219C358.229 285.011 359.929 283.076 361.317 282.005C361.825 281.601 361.486 281.18 361.044 280.989C360.464 280.732 359.623 281.142 359.18 281.491L357.737 282.628C357.141 283.093 356.966 283.404 356.354 283.344C355.742 283.284 354.988 282.65 354.458 282.382L352.19 281.278C351.365 280.863 348.96 282.038 350.102 282.617V282.595Z" fill="#ABDFF5"></path><path d="M348.698 290.378L352.305 292.909C353.092 293.455 353.775 294.122 354.781 294.078C355.601 293.968 356.375 293.638 357.022 293.122C358.465 292.155 359.831 291.029 361.23 289.99C362.356 289.149 359.727 289.313 359.159 289.733C357.803 290.744 356.218 292.357 354.672 293.013L356.229 292.86C354.437 292.051 352.77 290.515 351.168 289.389C350.491 288.914 348.141 289.936 348.698 290.356V290.378Z" fill="#ABDFF5"></path><path d="M347.922 297.784C349.873 298.675 351.813 299.68 353.808 300.473C354.493 300.822 355.282 300.91 356.027 300.719C358.661 300.047 361.186 297.243 363.29 295.652C363.793 295.264 361.41 295.505 360.908 295.887C359.098 297.259 357.207 299.167 355.174 300.205L357.016 299.855C354.797 299.309 352.496 297.855 350.414 296.904C349.725 296.587 347.681 297.68 347.922 297.784Z" fill="#ABDFF5"></path><path d="M349.556 303.865L352.933 306.122C353.665 306.614 354.458 307.308 355.393 307.292C357.13 307.253 358.956 304.843 360.142 303.799C361.481 302.613 359.41 301.553 358.36 302.477L356.524 304.116L355.606 304.931C355.092 305.411 354.999 305.477 355.327 305.127C355.677 304.87 355.551 304.679 354.95 304.542L353.829 303.783L351.578 302.274C350.539 301.58 348.299 303.007 349.561 303.865H349.556Z" fill="#ABDFF5"></path><path d="M349.56 314.107C351.369 314.79 353.604 316.129 355.572 315.747C357.671 315.359 359.873 313.626 361.731 312.626C363.311 311.768 361.884 310.391 360.573 311.101C359.141 311.872 357.6 312.998 356.069 313.528C354.539 314.058 352.544 312.899 351.063 312.342C349.97 311.932 347.975 313.517 349.533 314.096L349.56 314.107Z" fill="#ABDFF5"></path><path d="M349.069 321.103C350.922 322.119 353.441 324.338 355.628 323.644C357.972 322.912 360.273 320.715 362.082 319.124C363.224 318.119 360.623 318.086 359.956 318.671C358.371 320.064 356.579 321.764 354.578 322.529L356.152 322.436C354.42 321.835 352.753 320.693 351.146 319.813C350.375 319.387 347.949 320.502 349.047 321.103H349.069Z" fill="#ABDFF5"></path><path d="M349.271 329.232C351.517 330.511 354.053 332.948 356.775 331.915C359.328 330.819 361.517 329.02 363.087 326.729C363.235 326.504 360.901 326.57 360.486 327.204C359.816 328.193 358.991 329.068 358.043 329.795C357.556 330.172 357.048 330.516 356.54 330.855C356.398 330.953 355.419 331.456 355.84 331.352L357.185 331.292C355.288 330.609 353.512 329.346 351.763 328.346C351.118 327.98 348.981 329.068 349.271 329.232Z" fill="#ABDFF5"></path><path d="M348.752 335.93C350.264 336.717 351.787 337.486 353.321 338.237C354.491 338.783 355.589 339.576 356.934 339.395C359.409 339.068 360.24 336.034 361.306 334.143C361.595 333.597 359.12 333.815 358.682 334.548C358.043 335.69 357.305 337.827 356.294 338.658L357.868 338.149C356.884 338.193 355.349 337.056 354.485 336.614C353.283 336.012 352.088 335.404 350.9 334.788C350.26 334.455 347.823 335.444 348.763 335.93H348.752Z" fill="#ABDFF5"></path><path d="M351.644 342.857C353.377 343.748 355.852 345.71 357.913 345.491C359.869 345.278 361.739 343.212 363.22 342.081C364.701 340.95 362.498 340.157 361.482 340.928L359.842 342.19C359.531 342.425 358.558 343.382 358.203 343.453C357.11 343.666 354.71 341.873 353.726 341.365C352.743 340.857 350.414 342.201 351.682 342.857H351.644Z" fill="#ABDFF5"></path><path d="M350.108 349.977L354.234 351.459C355.256 351.825 356.47 352.513 357.585 352.508C359.47 352.508 361.481 350.027 362.837 348.923C364.192 347.819 362.137 346.737 361.055 347.6C359.973 348.464 358.475 350.333 356.967 350.027C355.202 349.688 353.3 348.71 351.605 348.103C350.398 347.671 348.518 349.409 350.108 349.977Z" fill="#ABDFF5"></path><path d="M352.015 355.534C354.004 356.229 356.611 357.655 358.759 357.256C361.022 356.846 362.284 354.43 363.629 352.802C363.918 352.447 362.651 352.572 362.579 352.583C361.997 352.632 361.45 352.879 361.027 353.283C360.186 354.305 359.147 356.119 358.01 356.781L359.874 356.283C358.235 356.343 356.048 355.19 354.507 354.644C353.939 354.511 353.343 354.57 352.813 354.813C352.725 354.846 351.616 355.387 352.015 355.529V355.534Z" fill="#ABDFF5"></path><path d="M376.051 267.479C377.494 268.763 379.718 270.566 381.751 270.632C383.784 270.698 385.544 268.08 386.823 266.839C387.298 266.38 386.981 265.79 386.484 265.555C386.157 265.454 385.808 265.448 385.477 265.537C385.146 265.626 384.848 265.806 384.615 266.058C383.911 266.638 383.255 267.274 382.653 267.96C382.194 268.583 382.352 268.615 381.718 268.413C380.39 267.987 379.1 266.856 378.089 265.954C377.209 265.172 374.914 266.462 376.051 267.479Z" fill="#ABDFF5"></path><path d="M376.067 274.295C377.608 275.388 379.598 277.574 381.636 277.027C383.675 276.481 385.462 274.797 386.992 273.518C387.462 273.13 386.566 273.13 386.38 273.136C385.743 273.157 385.127 273.373 384.615 273.753C383.473 274.688 382.156 275.94 380.789 276.486L382.79 276.191C381.281 275.535 379.915 274.305 378.565 273.36C377.98 272.95 375.756 274.021 376.073 274.245L376.067 274.295Z" fill="#ABDFF5"></path><path d="M375.626 281.889L379.593 283.447C380.369 283.846 381.236 284.034 382.108 283.993C383.977 283.731 385.463 281.654 386.731 280.441C387.863 279.348 385.277 279.277 384.594 279.927L383.266 281.195L382.381 282.042C382.151 282.538 381.969 282.62 381.834 282.288C381.221 282.056 380.626 281.781 380.053 281.463L377.741 280.556C377.433 280.44 377.102 280.399 376.776 280.438C376.45 280.477 376.138 280.595 375.866 280.78C375.56 281.009 375.019 281.643 375.653 281.873L375.626 281.889Z" fill="#ABDFF5"></path><path d="M374.981 289.754L378.806 291.94C379.626 292.405 380.391 293.033 381.369 292.957C382.188 292.843 382.951 292.481 383.556 291.918C384.916 290.825 386.163 289.563 387.447 288.404C388.54 287.442 385.917 287.661 385.376 288.147C384.031 289.366 382.545 291.164 380.954 292.049L382.812 291.754C380.943 291.12 379.145 289.77 377.434 288.798C376.708 288.388 374.434 289.464 374.964 289.765L374.981 289.754Z" fill="#ABDFF5"></path><path d="M374.92 297.198C376.948 297.903 378.975 298.701 381.036 299.318C381.749 299.599 382.531 299.654 383.276 299.477C384.09 299.216 384.824 298.756 385.413 298.138C386.993 296.733 388.523 295.274 390.081 293.842C390.584 293.377 388.162 293.651 387.698 294.077C385.949 295.716 384.189 297.826 382.178 299.094L384.266 298.613C381.992 298.252 379.582 297.072 377.412 296.318C376.685 296.066 374.756 297.143 374.92 297.198Z" fill="#ABDFF5"></path><path d="M377.632 306.223L382.113 307.77C383.091 308.103 384.299 308.753 385.392 308.671C387.578 308.513 389.874 305.786 391.481 304.534C392.891 303.441 390.792 302.348 389.699 303.217L386.797 305.48L386.07 306.026C385.698 306.676 385.278 306.764 384.813 306.294C382.955 306.064 380.878 304.938 379.113 304.326C377.905 303.911 376.019 305.649 377.615 306.201L377.632 306.223Z" fill="#ABDFF5"></path><path d="M378.259 320.328C380.156 321.143 382.938 323.121 385.069 322.378C387.365 321.58 389.491 319.033 391.081 317.317C392.141 316.186 389.573 316.224 388.96 316.858C387.545 318.366 385.884 320.334 384.003 321.263L385.337 321.094C383.632 320.678 381.943 319.722 380.342 319.033C379.544 318.689 377.139 319.853 378.243 320.328H378.259Z" fill="#ABDFF5"></path><path d="M379.254 328.379C381.561 329.412 384.397 331.598 387.004 330.494C389.381 329.489 391.633 327.029 392.846 324.81C393.01 324.51 390.606 324.63 390.245 325.291C389.669 326.339 388.932 327.289 388.059 328.106C387.469 328.652 386.485 329.811 385.72 330.079L387.255 329.855C385.375 329.374 383.501 328.286 381.735 327.494C381.041 327.182 379.003 328.27 379.243 328.379H379.254Z" fill="#ABDFF5"></path><path d="M379.362 335.122C380.944 335.764 382.532 336.385 384.128 336.986C385.314 337.434 386.478 338.079 387.768 337.882C390.386 337.505 390.85 334.456 391.763 332.379C392.031 331.761 389.479 332.018 389.145 332.778C388.599 334.057 388.019 336.303 387.008 337.287L388.435 336.647C387.675 336.751 385.964 335.735 385.243 335.456C383.991 334.975 382.74 334.483 381.499 333.98C380.833 333.712 378.428 334.745 379.362 335.122Z" fill="#ABDFF5"></path><path d="M383.15 341.856C385.008 342.6 387.654 344.327 389.709 343.785C391.578 343.299 393.217 341.086 394.578 339.834C395.059 339.391 394.737 338.818 394.245 338.599C393.918 338.505 393.572 338.501 393.244 338.589C392.915 338.676 392.617 338.852 392.381 339.096C391.501 339.911 390.162 341.769 388.878 341.829C388.293 341.829 387.298 341.195 386.774 340.987L384.664 340.146C383.571 339.708 381.587 341.239 383.128 341.878L383.15 341.856Z" fill="#ABDFF5"></path><path d="M382.326 349.082L386.573 350.175C387.616 350.443 388.945 351.06 390.043 350.847C391.874 350.492 393.596 347.923 394.853 346.683C396.11 345.442 393.514 344.923 392.617 345.808C391.491 346.901 390.382 348.3 389.07 349.18L390.404 348.825C388.015 348.601 385.54 347.655 383.206 347.065C381.84 346.715 380.599 348.661 382.326 349.098V349.082Z" fill="#ABDFF5"></path><path d="M384.643 354.353C386.736 354.867 389.376 355.949 391.551 355.446C393.726 354.944 394.715 352.435 395.863 350.73C396.01 350.511 393.677 350.571 393.267 351.211C392.474 352.375 391.589 354.31 390.436 355.14L392.201 354.523C391.458 354.621 390.414 354.211 389.698 354.053C388.736 353.84 387.78 353.61 386.823 353.375C386.188 353.287 385.54 353.41 384.981 353.725C384.774 353.84 384.063 354.228 384.643 354.37V354.353Z" fill="#ABDFF5"></path><path d="M348.565 238.593C348.806 239.965 349.112 241.419 350.134 242.386C350.425 242.688 350.811 242.881 351.227 242.932C351.59 242.937 351.946 242.833 352.249 242.632C353.034 242.111 353.621 241.341 353.916 240.446C354.195 239.547 354.365 238.619 354.424 237.68C354.48 236.741 354.624 235.81 354.856 234.898C354.856 235.008 354.069 235.144 353.949 235.177C353.632 235.259 353.315 235.325 352.992 235.379C352.349 235.485 351.698 235.536 351.047 235.532C350.387 235.528 349.728 235.466 349.079 235.347C348.855 235.303 348.533 235.161 348.358 235.347C348.183 235.532 348.248 235.992 348.254 236.232C348.299 237.026 348.403 237.815 348.565 238.593Z" fill="#5D7183"></path><path d="M241.44 359.012L490.927 371.38C492.363 371.454 493.799 371.243 495.153 370.761C496.508 370.278 497.754 369.534 498.82 368.569C499.886 367.604 500.751 366.439 501.366 365.14C501.982 363.84 502.334 362.432 502.404 360.996L504.044 328.565C504.117 327.129 503.907 325.693 503.425 324.338C502.942 322.984 502.197 321.738 501.233 320.672C500.268 319.605 499.103 318.74 497.803 318.125C496.504 317.51 495.096 317.157 493.66 317.087L244.129 304.747C242.694 304.673 241.257 304.884 239.903 305.366C238.548 305.848 237.303 306.593 236.236 307.558C235.17 308.522 234.305 309.688 233.69 310.987C233.075 312.287 232.722 313.695 232.652 315.131L231.045 347.557C230.975 348.992 231.188 350.426 231.672 351.779C232.157 353.131 232.903 354.375 233.868 355.439C234.834 356.503 235.999 357.366 237.299 357.979C238.598 358.592 240.005 358.943 241.44 359.012Z" fill="#ABDFF5"></path><path d="M240.981 359.977L276.768 361.742L357.032 365.721L441.034 369.886L488.823 372.252C491.085 372.367 493.288 372.405 495.49 371.634C497.413 370.971 499.142 369.844 500.525 368.353C501.908 366.862 502.902 365.053 503.42 363.087C503.863 361.299 503.825 359.359 503.918 357.528L504.902 337.607C505.137 332.94 506.317 326.972 504.12 322.632C500.841 316.167 494.463 316.172 488.353 315.866L465.917 314.773L388.922 310.947L303.215 306.69L248.824 303.996C247.485 303.93 246.151 303.848 244.812 303.799C238.598 303.569 232.696 307.39 231.504 313.746C230.652 318.32 230.958 323.321 230.701 327.956C230.399 334.077 230.096 340.2 229.794 346.325C229.438 353.397 233.559 359.354 240.981 359.988C242.271 360.097 243.676 358.223 241.894 358.069C236.276 357.605 232.324 353.063 232.401 347.461C232.401 345.975 232.548 344.483 232.619 343.002L233.603 323.212C233.86 318.003 233.144 311.374 237.658 307.734C239.97 305.865 242.577 305.673 245.348 305.81L290.923 308.056L372.236 312.09L451.484 316.014C465.185 316.697 478.898 317.26 492.594 318.052C498.458 318.397 502.715 322.774 502.655 328.71C502.606 333.383 502.191 338.077 501.956 342.739C501.672 348.56 501.409 354.386 501.092 360.201C500.781 365.874 497.174 370.547 491.118 370.416C478.149 370.137 465.152 369.126 452.194 368.486L373.455 364.584L291.803 360.523L244.167 358.162L241.894 358.048C240.615 357.987 239.2 359.879 240.981 359.977Z" fill="#5D7183"></path><path d="M268.111 343.09C267.571 342.777 266.959 342.61 266.335 342.604C265.168 342.544 263.999 342.644 262.859 342.899C261.62 343.134 260.417 343.529 259.279 344.074C259.992 341.635 260.491 339.139 260.771 336.614L260.815 335.936C259.962 335.985 257.902 336.062 254.633 336.176C254.639 338.709 254.966 341.23 255.606 343.68C253.807 342.691 251.817 342.099 249.769 341.942C248.56 341.855 247.683 342 247.14 342.379L247.419 339.532C247.737 339.423 248.074 339.384 248.408 339.417C249.089 339.481 249.747 339.691 250.338 340.035C249.851 338.428 249.556 335.99 249.452 332.739C249.371 330.255 249.415 327.769 249.583 325.289C249.625 325.029 249.58 324.763 249.454 324.532C249.329 324.3 249.13 324.117 248.889 324.01C248.889 324.01 248.343 323.852 247.343 323.59C247.14 323.546 247.064 323.202 247.108 322.568C247.108 322.502 247.108 322.398 247.151 322.267C247.171 322.184 247.185 322.1 247.195 322.016C247.479 322.085 251.012 322.648 257.792 323.704C256.902 325.362 256.196 327.112 255.688 328.924C255.329 330.381 255.088 331.865 254.967 333.362C257.696 333.555 259.712 333.764 261.017 333.99C261.044 333.826 261.066 333.624 261.082 333.389C261.288 330.469 260.54 327.562 258.951 325.104C261.844 324.863 265.112 324.546 268.756 324.153C268.811 324.307 268.839 324.47 268.838 324.634C268.862 324.937 268.862 325.242 268.838 325.546C268.848 325.8 268.779 326.05 268.641 326.262C267.389 326.574 266.744 326.951 266.717 327.388C266.812 327.849 266.863 328.317 266.87 328.787C266.968 330.037 266.968 331.292 266.87 332.542C266.769 334.103 266.541 335.653 266.187 337.176C266.012 338.21 265.641 339.201 265.094 340.095C265.718 339.739 266.432 339.572 267.149 339.614C267.443 339.629 267.733 339.692 268.007 339.8L268.111 343.09Z" fill="white"></path><path d="M291.022 339.211C290.935 339.795 290.75 340.36 290.475 340.883C289.616 342.728 288.074 344.169 286.174 344.9C284.31 345.656 282.291 345.954 280.288 345.769C277.373 345.561 275.229 344.63 273.855 342.976C272.605 341.475 272.068 339.504 272.243 337.063C272.432 334.943 273.051 332.885 274.063 331.013C274.66 329.804 275.405 328.675 276.282 327.651C273.97 327.735 271.73 328.478 269.827 329.794C269.723 329.892 269.658 329.876 269.636 329.756C269.543 328.662 269.445 326.853 269.341 324.367C269.341 324.318 269.406 324.279 269.494 324.252C275.921 325.258 282.633 326.01 289.628 326.509C289.77 326.509 289.814 326.608 289.759 326.777C288.848 329.381 288.128 332.048 287.606 334.756C287.021 334.625 286.272 334.423 285.36 334.144C284.928 333.964 284.726 333.723 284.748 333.423C284.805 333.051 284.894 332.686 285.015 332.33C285.148 331.92 285.241 331.499 285.294 331.073C285.322 330.912 285.307 330.747 285.251 330.595C285.194 330.442 285.098 330.307 284.972 330.204C283.578 329.138 282.458 328.509 281.61 328.329C279.916 331.074 278.93 334.197 278.741 337.418C278.571 338.998 278.747 340.596 279.255 342.102C279.769 343.463 280.55 344.178 281.616 344.25C282.562 344.268 283.492 344.006 284.288 343.495C285.212 342.949 285.688 342.512 285.715 342.145C285.715 341.998 285.682 341.921 285.584 341.91C284.456 341.679 283.399 341.186 282.496 340.473C282.054 340.171 281.696 339.762 281.456 339.284C281.215 338.806 281.099 338.275 281.119 337.74C281.157 337.194 281.561 336.757 282.321 336.451C283.299 336.119 284.339 336.007 285.365 336.123C286.028 336.176 286.688 336.273 287.338 336.412C289.892 336.933 291.12 337.866 291.022 339.211Z" fill="white"></path><path d="M313.015 340.751C312.926 341.335 312.742 341.9 312.468 342.424C311.605 344.265 310.064 345.703 308.167 346.435C306.3 347.21 304.273 347.523 302.259 347.348C299.344 347.14 297.2 346.207 295.826 344.55C294.591 343.052 294.068 341.09 294.258 338.663C294.445 336.54 295.064 334.478 296.078 332.602C296.672 331.393 297.418 330.263 298.296 329.241C295.985 329.323 293.745 330.064 291.842 331.378C291.738 331.477 291.672 331.466 291.651 331.34C291.558 330.247 291.459 328.438 291.355 325.957C291.355 325.907 291.421 325.869 291.508 325.842C297.936 326.847 304.647 327.598 311.643 328.094C311.785 328.094 311.829 328.192 311.774 328.361C310.863 330.967 310.144 333.636 309.621 336.346C309.036 336.215 308.287 336.007 307.374 335.729C306.943 335.554 306.74 335.313 306.762 335.007C306.819 334.636 306.909 334.27 307.03 333.914C307.162 333.507 307.255 333.088 307.309 332.663C307.336 332.501 307.32 332.336 307.264 332.183C307.207 332.029 307.111 331.893 306.986 331.788C305.594 330.724 304.474 330.099 303.625 329.913C301.932 332.659 300.946 335.782 300.756 339.002C300.586 340.584 300.761 342.184 301.27 343.692C301.783 345.047 302.565 345.763 303.631 345.839C304.577 345.853 305.506 345.589 306.303 345.08C307.227 344.533 307.702 344.096 307.73 343.73C307.73 343.584 307.686 343.508 307.598 343.5C306.471 343.27 305.413 342.777 304.511 342.063C304.069 341.761 303.711 341.352 303.47 340.874C303.229 340.396 303.114 339.865 303.133 339.33C303.171 338.784 303.57 338.341 304.336 338.035C305.314 337.703 306.354 337.593 307.38 337.712C308.043 337.764 308.702 337.859 309.353 337.997C311.892 338.5 313.113 339.418 313.015 340.751Z" fill="white"></path><path d="M334.532 334.413C334.445 335.404 334.172 336.37 333.728 337.261C332.136 340.54 329.808 342.068 326.743 341.846C325.523 341.774 324.339 341.398 323.3 340.753C322.55 340.242 321.855 339.656 321.224 339.004C321.648 341.858 322.452 344.642 323.612 347.284C320.216 347.714 316.746 348.189 313.2 348.71C313.137 348.394 313.119 348.07 313.146 347.749C313.173 347.322 313.271 347.087 313.43 347.044C313.725 346.983 314.168 346.88 314.753 346.732C315.337 346.584 315.714 346.185 315.753 345.683C315.753 345.606 315.753 345.53 315.753 345.448C315.54 342.55 315.507 339.643 315.654 336.741C315.808 334.499 316.189 332.278 316.791 330.112C316.304 330.258 315.796 330.319 315.288 330.292C314.768 330.27 314.264 330.101 313.834 329.806L314.272 326.734C316.322 327.992 318.64 328.748 321.038 328.942C321.776 328.992 322.967 328.997 324.612 328.942C326.257 328.888 327.509 328.904 328.35 328.942C330.591 329.101 332.242 329.718 333.269 330.79C333.737 331.261 334.093 331.831 334.312 332.458C334.53 333.085 334.605 333.753 334.532 334.413ZM331.684 334.812C331.728 334.2 331.269 333.681 330.307 333.254C329.113 332.774 327.844 332.504 326.558 332.457C324.951 332.318 323.334 332.54 321.825 333.107C320.44 333.632 319.724 334.246 319.677 334.949C319.644 335.386 320.223 335.818 321.371 336.239C322.452 336.625 323.581 336.863 324.727 336.944C326.263 337.057 327.808 336.9 329.29 336.479C330.837 336.036 331.635 335.484 331.684 334.839V334.812Z" fill="white"></path><path d="M354.25 342.348C354.148 343.328 353.926 344.292 353.589 345.218C353.082 346.748 351.893 347.903 350.02 348.683C348.074 349.492 345.648 349.776 342.647 349.584C339.647 349.393 337.466 348.644 335.848 347.398C334.493 346.36 333.859 345.236 333.946 344.026C333.97 343.648 334.075 343.279 334.254 342.946C334.434 342.612 334.683 342.32 334.985 342.092C335.861 341.447 336.919 341.097 338.007 341.091C338.662 341.048 339.32 341.048 339.975 341.091C341.099 341.117 342.203 341.401 343.199 341.922C343.948 342.359 344.292 342.895 344.259 343.534C344.19 344.496 343.618 345.272 342.543 345.863C341.715 346.262 340.847 346.571 339.953 346.786C339.483 346.906 339.248 347.032 339.237 347.163C339.237 347.568 340.04 347.825 341.729 347.945C342.88 348.057 344.042 347.944 345.15 347.612C346.327 347.218 346.947 346.571 347.009 345.671C347.024 345.521 347.024 345.368 347.009 345.218C346.889 343.742 346.642 342.279 346.271 340.845C345.852 339.851 344.955 339.304 343.582 339.206C343.221 339.206 342.603 339.206 341.729 339.206C340.855 339.206 340.226 339.239 339.838 339.206C337.204 339.02 335.961 337.861 336.111 335.73C336.195 334.894 336.39 334.072 336.69 333.287C337.145 331.985 338.091 330.913 339.324 330.297C340.887 329.467 342.959 329.142 345.538 329.325C348.191 329.51 350.231 330.073 351.66 331.013C352.949 331.866 353.554 332.877 353.474 334.047C353.346 335.785 351.889 336.555 349.102 336.358C347.913 336.307 346.75 335.993 345.697 335.44C344.839 334.959 344.423 334.451 344.462 333.91C344.516 333.134 345.156 332.565 346.369 332.199L347.763 331.855C348.189 331.729 348.408 331.587 348.419 331.423C348.43 331.259 348.162 330.986 347.599 330.778C346.973 330.56 346.32 330.429 345.659 330.39C344.904 330.307 344.141 330.4 343.429 330.664C343.114 330.764 342.838 330.957 342.635 331.218C342.432 331.478 342.313 331.793 342.292 332.123C342.269 332.494 342.321 332.866 342.445 333.216L342.953 335.468C343.081 336.154 343.435 336.777 343.959 337.238C344.582 337.738 345.582 338.034 346.959 338.129L348.129 338.167C348.779 338.167 349.271 338.206 349.599 338.228C351.169 338.344 352.312 338.652 353.026 339.151C353.948 339.811 354.356 340.876 354.25 342.348Z" fill="white"></path><path d="M384.855 260.777C396.698 272.932 406.798 286.853 413.083 302.697C418.647 316.721 421.014 331.756 420.839 346.807C420.79 351.179 420.538 355.497 420.134 359.82C419.915 362.121 419.795 364.509 419.123 366.728C418.691 368.171 418.03 369.516 416.794 370.401C415.117 371.576 412.739 371.423 411.805 369.362C411.258 368.209 408.673 368.969 409.165 370.068C410.46 372.931 413.838 373.795 416.669 372.696C420.385 371.259 421.833 367.543 422.347 363.859C423.541 354.967 423.858 345.978 423.293 337.024C422.332 319.48 417.278 302.405 408.536 287.164C402.71 277.075 395.392 267.959 387.276 259.624C386.451 258.777 383.953 259.848 384.861 260.783L384.855 260.777Z" fill="#5D7183"></path><path d="M325.798 261.407C318.146 266.872 307.937 260.101 302.078 254.925C296.064 249.49 291.192 242.911 287.748 235.572C284.376 228.448 282.008 220.891 280.714 213.115C279.293 204.885 279.009 196.512 277.9 188.243C276.703 179.318 274.451 170.53 269.068 163.162C268.439 162.304 265.903 163.266 266.641 164.255C277.665 179.356 275.052 199.294 278.616 216.723C281.971 233.118 289.907 249.301 303.707 259.303C310.418 264.167 320.021 267.812 327.503 262.44C328.957 261.402 326.76 260.724 325.798 261.412V261.407Z" fill="#5D7183"></path></svg>