<svg xmlns="http://www.w3.org/2000/svg" width="549" height="513" viewBox="0 0 549 513" fill="none"><path d="M462.064 9.13413C514.362 27.6561 544.88 80.2325 547.602 146.183C550.717 221.697 537.639 299.321 502.448 365.49C467.754 430.729 411.794 486.885 343.254 505.194C309.915 514.097 131.746 527.602 66.0637 455.553C14.012 398.505 -10.9481 304.595 5.08711 228.867C21.9968 149.024 76.4096 114.292 138.337 97.3062C170.003 88.6218 202.363 93.3821 232.969 79.7133C262.072 66.7113 286.742 46.4841 314.331 30.4434C357.398 5.40132 409.811 -7.02137 457.337 7.57651C458.933 8.06474 460.509 8.58395 462.064 9.13413Z" fill="#F8F8F8"></path><path d="M332.514 476.757C332.625 477.518 333.462 478.343 335.22 479.243C347.55 485.542 362.137 483.588 374.827 483.623C398.67 483.69 422.514 482.336 446.333 482.336C461.191 481.004 478.497 477.667 463.777 473.068C447.022 467.839 428.865 468.606 411.93 467.994C396.574 467.44 381.198 467.845 365.893 469.209C363.3 469.44 331.894 472.513 332.514 476.757Z" fill="#EEEEEE"></path><path d="M300.416 302.699C300.293 305.801 298.889 340.729 297.935 340.656C344.692 344.145 391.732 349.555 438.575 348.829C454.48 348.582 470.404 347.12 485.997 343.875C495.563 342.048 504.965 340.808 514.115 337.532C514.557 282.275 506.869 226.031 485.485 174.805C480.369 162.556 474.695 150.444 467.651 139.179C460.316 127.445 452.305 115.732 448.211 102.37C445.05 92.1043 445.05 81.2514 445.489 70.6236C446.191 53.2469 441.477 35.5308 429.577 22.4673C422.306 14.4877 411.036 8.82976 399.97 11.8046C382.608 16.4795 373.019 33.704 368.463 49.9231C363.042 69.2123 367.948 90.953 360.086 109.348C359.981 109.595 359.871 109.839 359.769 110.084C352.609 125.624 340.364 138.659 332.094 153.689C322.031 171.973 313.808 191.776 309.351 212.219C303.575 238.724 301.965 265.919 300.815 292.957C300.673 296.204 300.541 299.452 300.416 302.699Z" fill="white"></path><path d="M321.225 302.095C321.225 299.215 327.45 289.044 326.76 286.237C377.847 287.336 428.933 286.736 480.018 284.436C486.379 319.741 474.191 356.882 463.262 390.485C455.232 415.223 446.927 441.889 433.905 464.571C431.594 468.593 428.17 474.232 423.125 475.015C416.827 475.992 414.563 468.866 413.552 463.994C411.709 455.133 410.937 445.866 409.85 436.884C407.953 421.27 406.513 405.609 405.531 389.901C405.035 382.144 404.067 361.938 402.847 360.267C402.012 385.873 400.201 411.407 397.109 436.884C396.021 445.866 395.25 455.133 393.407 463.994C392.395 468.866 390.132 475.992 383.834 475.015C378.776 474.232 375.124 468.723 373.053 464.571C351.072 420.452 321.338 331.282 321.225 302.095Z" fill="#CACEDE"></path><path d="M377.527 288.041C377.192 288.041 376.87 287.908 376.633 287.67C376.396 287.432 376.263 287.109 376.263 286.773C376.263 286.436 376.396 286.114 376.633 285.876C376.87 285.638 377.192 285.504 377.527 285.504C390.221 285.504 403.097 285.384 415.803 285.168H415.825C416.16 285.165 416.483 285.297 416.722 285.533C416.961 285.769 417.097 286.091 417.099 286.427C417.102 286.764 416.971 287.087 416.735 287.327C416.5 287.567 416.179 287.703 415.844 287.705C403.129 287.924 390.236 288.038 377.527 288.045V288.041Z" fill="#5D7183"></path><path d="M385.038 476.383C384.575 476.381 384.112 476.344 383.654 476.272C378.13 475.416 374.236 469.745 371.956 465.14C358.308 437.77 340.705 390.124 329.153 349.272C329.1 349.109 329.08 348.938 329.094 348.767C329.109 348.597 329.158 348.431 329.238 348.28C329.318 348.129 329.427 347.996 329.56 347.888C329.693 347.781 329.845 347.701 330.01 347.655C330.174 347.608 330.345 347.595 330.514 347.617C330.684 347.638 330.847 347.694 330.994 347.781C331.141 347.867 331.269 347.983 331.371 348.12C331.472 348.257 331.545 348.414 331.584 348.58C343.102 389.296 360.632 436.749 374.217 464.024C375.876 467.354 379.367 473.053 384.058 473.782C385.509 474.008 389.926 474.689 392.202 463.754C393.59 457.069 394.377 450.04 395.139 443.241C395.379 441.106 395.626 438.902 395.885 436.752C399.391 407.847 401.06 365.161 401.614 348.152C401.622 347.888 401.712 347.633 401.872 347.423C402.032 347.213 402.253 347.058 402.505 346.98C402.757 346.902 403.026 346.905 403.276 346.989C403.526 347.072 403.744 347.231 403.899 347.445C404.772 348.644 405.294 355.466 406.321 379.182C406.52 383.775 406.691 387.745 406.824 389.842C407.848 405.823 409.299 421.605 411.136 436.752C411.395 438.902 411.642 441.106 411.882 443.238C412.644 450.037 413.431 457.069 414.819 463.754C417.095 474.689 421.512 474.008 422.963 473.782C427.614 473.059 431.012 467.122 432.839 463.951C445.074 442.644 453.041 418.043 460.749 394.25L462.329 389.401C466.623 376.188 471.058 362.529 474.485 348.631C474.525 348.469 474.596 348.317 474.695 348.183C474.793 348.049 474.917 347.935 475.06 347.849C475.202 347.763 475.36 347.706 475.524 347.681C475.688 347.656 475.856 347.664 476.017 347.703C476.178 347.743 476.33 347.815 476.464 347.914C476.598 348.013 476.711 348.137 476.797 348.28C476.882 348.422 476.939 348.581 476.964 348.745C476.989 348.91 476.981 349.078 476.942 349.24C473.492 363.226 469.038 376.934 464.735 390.188L463.155 395.034C455.406 418.95 447.398 443.682 435.018 465.216C432.978 468.768 429.185 475.365 423.336 476.282C417.87 477.132 414.168 473.088 412.331 464.268C410.918 457.462 410.118 450.373 409.356 443.513C409.116 441.389 408.872 439.191 408.61 437.05C406.77 421.858 405.316 406.026 404.288 389.997C404.152 387.872 403.972 383.892 403.779 379.284C403.656 376.404 403.501 372.808 403.324 369.103C402.423 389.401 400.861 416.632 398.383 437.05C398.123 439.191 397.877 441.392 397.64 443.517C396.872 450.373 396.078 457.471 394.665 464.268C392.986 472.314 389.752 476.383 385.038 476.383Z" fill="#5D7183"></path><path d="M413.176 47.4765C404.118 47.4575 394.982 46.8898 386.025 46.5631C379.816 46.3348 370.218 45.9288 364.448 43.436C364.957 19.0438 384.915 1.49901 408.076 0.899589C425.215 0.455576 440.393 10.0145 446.861 25.8055C447.436 27.2073 453.184 48.0664 452.868 48.0601C444.517 47.8486 436.17 47.9829 427.826 48.4628C425.213 43.8472 421.827 39.7177 417.817 36.2557C418.072 39.2919 418.327 42.3281 418.582 45.3643C418.629 45.9447 418.651 46.6012 418.266 47.023C417.88 47.4448 417.292 47.448 416.751 47.4575C415.552 47.4723 414.36 47.4786 413.176 47.4765Z" fill="#96E296"></path><path d="M358.242 114.461C358.025 114.461 357.812 114.405 357.624 114.298C357.435 114.192 357.277 114.038 357.164 113.852C357.051 113.667 356.988 113.455 356.98 113.238C356.973 113.021 357.021 112.806 357.12 112.612C357.644 111.585 358.147 110.557 358.609 109.552C358.719 109.317 358.824 109.082 358.925 108.848C362.475 100.535 362.87 91.3504 363.256 82.467C363.344 80.4119 363.436 78.2869 363.572 76.2033C364.173 66.4889 365.469 57.9131 367.543 49.9843C370.04 40.4095 373.67 32.2999 378.333 25.8808C384.049 18.0059 391.219 12.8776 399.641 10.5973C405.054 9.13835 410.94 9.57919 416.666 11.8659C421.953 14.0341 426.685 17.3708 430.51 21.6278C441.764 33.9967 447.531 51.4083 446.753 70.6912C446.361 80.3611 446.212 91.5502 449.418 102.013C450.019 103.97 450.733 105.981 451.546 107.995C451.672 108.307 451.669 108.656 451.538 108.966C451.407 109.276 451.158 109.521 450.847 109.647C450.536 109.773 450.188 109.77 449.879 109.639C449.57 109.507 449.326 109.258 449.2 108.946C448.362 106.865 447.619 104.785 446.987 102.758C443.661 91.9118 443.826 80.4658 444.208 70.5897C444.961 51.9792 439.428 35.1987 428.628 23.3341C418.964 12.7222 407.646 11.0603 400.283 13.0425C390.223 15.751 376.8 24.46 369.971 50.625C367.944 58.392 366.674 66.7997 366.079 76.3587C365.953 78.417 365.861 80.5292 365.763 82.5717C365.371 91.6834 364.963 101.106 361.229 109.847C361.119 110.104 361.002 110.361 360.885 110.617C360.408 111.651 359.892 112.711 359.348 113.77C359.244 113.975 359.086 114.148 358.891 114.27C358.696 114.391 358.472 114.458 358.242 114.461Z" fill="#5D7183"></path><path d="M428.97 64.7218C428.97 69.035 427.017 73.4593 423.846 76.5515C419.954 80.3574 413.767 82.2603 408.092 81.3754C399.872 80.1068 394.096 73.0755 394.482 65.7303C394.912 57.5351 403.363 51.7756 412.091 51.2143C417.633 50.8496 423.156 52.7334 426.384 56.8881C428.104 59.1309 429.016 61.8923 428.97 64.7218Z" fill="white"></path><path d="M410.865 82.8545C409.872 82.856 408.88 82.7807 407.899 82.6294C399.237 81.291 392.791 73.8411 393.221 65.6649C393.439 61.4658 395.636 57.5395 399.401 54.6122C403.054 51.8461 407.44 50.2242 412.009 49.9501C418.31 49.5346 424.057 51.853 427.38 56.1091C429.271 58.5768 430.274 61.6139 430.225 64.7262C430.225 69.3471 428.155 74.1075 424.715 77.463C421.225 80.8755 416.018 82.8545 410.865 82.8545ZM413.46 52.4397C413.033 52.4397 412.607 52.4397 412.173 52.4809C404.415 52.9915 396.148 58.1135 395.734 65.8013C395.373 72.6898 400.881 78.9821 408.275 80.1239C413.564 80.9421 419.34 79.1724 422.954 75.6457C425.916 72.7596 427.696 68.6684 427.696 64.723C427.739 62.1779 426.922 59.6932 425.379 57.6727C422.802 54.349 418.408 52.4397 413.46 52.4397Z" fill="#5D7183"></path><path d="M376.73 50.8815C381.548 51.1701 386.366 53.1364 389.619 56.0827C393.612 59.6951 395.354 65.1755 394.02 70.0374C392.088 77.0719 383.881 81.6198 375.706 80.8206C366.578 79.9199 360.692 72.2353 360.597 64.6458C360.551 62.1645 361.205 59.7207 362.484 57.5962C363.762 55.4717 365.614 53.7531 367.824 52.6385C370.514 51.2145 373.622 50.6975 376.73 50.8815Z" fill="white"></path><path d="M377.6 82.1685C376.93 82.1685 376.256 82.1357 375.58 82.0701C371.042 81.6383 366.836 79.4922 363.816 76.0665C361.01 72.9202 359.42 68.8699 359.333 64.649C359.264 59.0418 362.22 54.1259 367.237 51.4999C369.984 50.0632 373.291 49.413 376.8 49.6224C381.859 49.9236 386.971 51.9883 390.461 55.1471C394.817 59.0893 396.692 65.0676 395.235 70.3704C393.35 77.2558 385.823 82.1685 377.6 82.1685ZM375.529 52.1152C373.06 52.0769 370.619 52.6349 368.41 53.7422C366.408 54.7502 364.731 56.3055 363.572 58.2286C362.414 60.1517 361.821 62.3643 361.862 64.6109C361.948 71.2711 367.193 78.6925 375.83 79.5456C383.613 80.31 391.074 75.9872 392.804 69.6949C394.008 65.3023 392.427 60.3294 388.776 57.0088C385.697 54.2242 381.166 52.4006 376.658 52.1342C376.279 52.1247 375.899 52.1152 375.529 52.1152Z" fill="#5D7183"></path><path d="M428.971 65.9918C428.758 65.9919 428.549 65.9373 428.364 65.8332C428.07 65.6712 427.852 65.3988 427.758 65.0759C427.665 64.753 427.703 64.4059 427.864 64.1111C429.913 60.356 438.581 54.438 442.913 53.2613C444.847 52.7348 446.482 52.6809 447.911 53.0932C449.972 53.6863 451.42 55.3514 451.429 57.1401C451.426 57.5067 451.297 57.861 451.063 58.1426C450.829 58.4242 450.505 58.6157 450.146 58.6846C449.829 58.7395 449.503 58.678 449.227 58.5115C448.951 58.3449 448.744 58.0844 448.644 57.7776C448.584 57.5983 448.565 57.4078 448.588 57.2202C448.611 57.0325 448.676 56.8523 448.777 56.6929C448.423 56.1116 447.855 55.6934 447.196 55.529C446.229 55.2499 445.037 55.3069 443.561 55.7097C439.289 56.8737 431.519 62.6871 430.068 65.3321C429.96 65.53 429.801 65.6954 429.608 65.8113C429.415 65.9273 429.195 65.9896 428.971 65.9918Z" fill="#5D7183"></path><path d="M405.832 136.006C393.435 136.006 380.941 131.813 369.582 123.821C369.389 123.684 369.08 123.478 368.681 123.212C366.898 122.016 363.579 119.79 361.204 117.69C360.959 117.466 360.811 117.154 360.793 116.822C360.775 116.489 360.888 116.163 361.107 115.913C361.327 115.663 361.635 115.51 361.966 115.487C362.297 115.463 362.624 115.571 362.877 115.787C365.125 117.776 368.352 119.939 370.088 121.103C370.505 121.382 370.831 121.601 371.037 121.737C382.487 129.793 395.102 133.84 407.523 133.434C410.33 133.395 413.122 133.008 415.834 132.282C418.515 131.524 421.123 130.288 423.643 129.089C427.399 127.306 430.772 125.682 434.041 123.872C436.144 122.704 437.999 121.572 439.732 120.405C441.879 118.944 443.865 117.258 445.656 115.375C445.771 115.252 445.908 115.153 446.061 115.083C446.214 115.014 446.379 114.976 446.546 114.971C446.714 114.966 446.881 114.995 447.038 115.056C447.194 115.116 447.337 115.208 447.458 115.324C447.579 115.441 447.676 115.58 447.742 115.735C447.809 115.889 447.844 116.055 447.847 116.223C447.849 116.392 447.817 116.559 447.754 116.715C447.692 116.871 447.599 117.013 447.48 117.132C445.561 119.15 443.433 120.958 441.132 122.524C439.349 123.732 437.43 124.902 435.261 126.107C431.929 127.953 428.515 129.596 424.721 131.398C422.107 132.641 419.404 133.935 416.501 134.74C413.591 135.516 410.597 135.935 407.586 135.987C407.014 135.99 406.423 136.006 405.832 136.006Z" fill="#5D7183"></path><path d="M414.535 153.264C414.361 153.265 414.188 153.25 414.017 153.22C412.294 152.903 410.808 150.813 409.61 149.126C409.312 148.704 409.031 148.307 408.829 148.06C408.048 147.108 407.295 146.157 406.571 145.206C405.92 144.362 405.25 143.49 404.57 142.668C404.355 142.405 404.153 142.142 403.96 141.888C402.73 140.28 402.667 140.328 401.889 140.937C399.743 142.57 397.757 144.765 395.835 146.886C394.428 148.444 392.971 150.058 391.438 151.463L391.412 151.488C390.985 151.878 390.274 152.529 389.275 152.646C388.529 152.688 387.787 152.517 387.135 152.151C379.253 148.402 374.173 145.554 366.269 140.417C365.987 140.234 365.789 139.947 365.718 139.617C365.647 139.288 365.71 138.944 365.891 138.661C366.073 138.378 366.36 138.179 366.688 138.108C367.016 138.037 367.359 138.1 367.641 138.282C375.46 143.357 380.464 146.147 388.235 149.842C388.473 149.977 388.733 150.067 389.003 150.109C389.275 149.989 389.519 149.815 389.721 149.598L389.743 149.579C391.191 148.247 392.61 146.68 393.979 145.167C395.977 142.947 398.042 140.673 400.375 138.897C403.22 136.734 404.883 138.897 405.98 140.344C406.16 140.575 406.344 140.819 406.543 141.06C407.245 141.92 407.928 142.808 408.588 143.667C409.3 144.593 410.04 145.551 410.801 146.458C411.067 146.775 411.361 147.194 411.699 147.673C412.332 148.555 413.786 150.616 414.488 150.743C414.757 150.739 415.025 150.69 415.278 150.597C423.002 148.352 430.712 144.771 438.844 139.649C438.984 139.56 439.141 139.5 439.305 139.472C439.469 139.444 439.637 139.449 439.799 139.486C439.961 139.523 440.114 139.592 440.249 139.689C440.385 139.785 440.5 139.907 440.589 140.049C440.677 140.19 440.737 140.347 440.765 140.512C440.793 140.676 440.788 140.844 440.751 141.007C440.714 141.169 440.645 141.323 440.549 141.459C440.453 141.595 440.331 141.711 440.19 141.799C431.854 147.048 423.934 150.721 415.983 153.033C415.514 153.181 415.027 153.259 414.535 153.264Z" fill="#5D7183"></path><path d="M451.963 111.887C455.978 119.705 463.009 131.782 467.644 139.19C474.688 150.456 480.363 162.568 485.478 174.816C506.862 226.042 514.563 282.286 514.108 337.543C504.959 340.804 495.557 342.044 485.99 343.886C470.404 347.131 454.48 348.593 438.568 348.84C435.392 348.891 432.214 348.913 429.033 348.907C424.364 348.907 423.725 349.541 423.2 344.784C422.42 337.683 421.936 330.512 421.553 323.395C420.767 309.113 420.599 294.816 421.048 280.504C421.941 251.894 425.308 223.415 431.11 195.39C431.633 192.867 432.175 190.351 432.735 187.841C437.794 165.232 451.963 111.887 451.963 111.887Z" fill="white"></path><path d="M426.998 350.183C423.454 350.183 422.455 349.492 421.939 344.9C421.111 337.371 420.64 329.826 420.289 323.441C419.502 309.198 419.34 294.729 419.78 280.439C420.682 251.757 424.057 223.207 429.868 195.109C430.39 192.591 430.94 190.035 431.499 187.539C436.501 165.189 450.591 112.098 450.731 111.565C450.793 111.314 450.931 111.088 451.126 110.918C451.32 110.748 451.562 110.642 451.818 110.613C452.073 110.585 452.33 110.634 452.556 110.755C452.781 110.877 452.965 111.064 453.083 111.292C457.079 119.075 464.167 131.238 468.713 138.507C474.827 148.288 480.524 159.667 486.641 174.316C506.195 221.157 515.863 276.075 515.37 337.542C515.368 337.802 515.286 338.056 515.136 338.268C514.985 338.48 514.773 338.641 514.529 338.728C507.232 341.329 499.641 342.683 492.304 343.996C490.312 344.351 488.254 344.716 486.224 345.106C471.429 348.185 455.843 349.816 438.594 350.082C435.543 350.13 432.416 350.152 429.034 350.149C428.515 350.149 428.015 350.149 427.582 350.149C427.383 350.183 427.187 350.183 426.998 350.183ZM452.356 115.374C449.245 127.153 438.262 168.972 433.978 188.109C433.418 190.602 432.875 193.136 432.353 195.642C426.572 223.596 423.213 251.999 422.315 280.534C421.87 294.752 422.04 309.147 422.824 323.318C423.172 329.661 423.643 337.168 424.462 344.637C424.541 345.328 424.74 347.174 425.12 347.491C425.373 347.703 426.428 347.687 427.544 347.668C427.99 347.668 428.493 347.668 429.04 347.668C432.404 347.668 435.521 347.649 438.556 347.602C455.628 347.339 471.078 345.724 485.734 342.673C487.799 342.28 489.866 341.909 491.861 341.554C499.132 340.253 506.024 339.017 512.85 336.686C513.239 275.922 503.637 221.648 484.311 175.354C478.251 160.834 472.614 149.572 466.573 139.912C462.529 133.404 456.484 123.081 452.356 115.374Z" fill="#5D7183"></path><path d="M357.013 115.512C349.786 128.312 336.22 142.536 327.807 151.984C313.944 167.572 315.13 192.104 309.338 212.208C297.935 251.792 292.854 339.871 291.899 339.801C318.851 344.153 342.995 348.165 366.658 346.195C386.218 205.323 357.013 115.512 357.013 115.512Z" fill="white"></path><path d="M462.09 316.218C459.978 316.218 457.844 315.819 455.767 314.157C451.625 310.852 451.973 305.511 452.248 300.802C452.366 299.355 452.406 297.904 452.368 296.453C451.995 288.689 451.42 280.824 450.655 273.073C450.638 272.906 450.655 272.738 450.703 272.578C450.751 272.418 450.831 272.269 450.937 272.139C451.042 272.01 451.173 271.903 451.32 271.824C451.467 271.745 451.628 271.696 451.794 271.679C451.96 271.663 452.128 271.679 452.288 271.728C452.447 271.776 452.596 271.856 452.725 271.962C452.854 272.068 452.961 272.199 453.04 272.346C453.118 272.494 453.167 272.656 453.184 272.822C453.949 280.615 454.531 288.525 454.907 296.33C454.948 297.873 454.907 299.418 454.783 300.957C454.518 305.251 454.243 309.691 457.351 312.168C459.624 313.982 462.039 313.754 464.84 313.516C465.494 313.459 466.174 313.399 466.866 313.364C469.197 313.285 471.53 313.325 473.856 313.484C475.5 313.57 477.214 313.659 478.845 313.653C484.248 313.63 489.578 312.876 492.003 307.544C493.628 303.97 493.435 299.825 493.249 295.81C493.176 294.252 493.103 292.638 493.135 291.081C493.258 285.267 492.8 279.286 492.357 273.504C492.288 272.619 492.221 271.731 492.155 270.85C492.142 270.683 492.163 270.516 492.215 270.357C492.267 270.198 492.35 270.051 492.458 269.925C492.678 269.669 492.989 269.511 493.325 269.486C493.66 269.461 493.992 269.57 494.247 269.79C494.502 270.01 494.659 270.323 494.684 270.659C494.747 271.541 494.817 272.426 494.883 273.308C495.332 279.153 495.797 285.195 495.67 291.135C495.639 292.61 495.708 294.106 495.781 295.692C495.983 299.999 496.189 304.455 494.308 308.588C491.286 315.248 484.805 316.155 478.864 316.18C477.16 316.18 475.412 316.098 473.73 316.009C471.491 315.855 469.246 315.815 467.002 315.888C466.37 315.92 465.7 315.977 465.068 316.034C464.069 316.133 463.082 316.218 462.09 316.218Z" fill="#5D7183"></path><path d="M332.723 318.451C331.741 318.451 330.697 318.403 329.59 318.308C325.795 317.986 322.018 317.467 318.276 316.754C315.114 316.148 311.88 315.289 309.74 313.107C306.977 310.3 306.964 306.409 307.173 302.983C307.805 292.33 308.889 281.572 310.369 271.011C310.388 270.843 310.44 270.68 310.523 270.533C310.606 270.385 310.717 270.256 310.851 270.152C310.984 270.049 311.137 269.973 311.3 269.929C311.463 269.886 311.634 269.876 311.801 269.899C311.968 269.923 312.129 269.979 312.273 270.066C312.418 270.153 312.545 270.268 312.644 270.404C312.744 270.541 312.816 270.696 312.855 270.861C312.894 271.025 312.9 271.196 312.873 271.363C311.403 281.858 310.343 292.549 309.695 303.136C309.515 306.149 309.509 309.26 311.538 311.324C313.205 313.012 315.993 313.735 318.756 314.261C322.416 314.958 326.109 315.465 329.821 315.78C335.512 316.266 339.249 315.413 340.924 313.243C341.575 312.4 341.92 311.34 342.243 310.211C343.893 304.518 344.836 298.642 345.05 292.717C345.061 292.388 345.2 292.077 345.436 291.849C345.671 291.62 345.987 291.493 346.314 291.493H346.362C346.528 291.499 346.691 291.538 346.842 291.607C346.993 291.677 347.129 291.776 347.242 291.898C347.355 292.02 347.443 292.164 347.501 292.32C347.559 292.476 347.585 292.642 347.579 292.809C347.358 298.943 346.382 305.025 344.674 310.919C344.297 312.225 343.849 313.602 342.925 314.797C341.013 317.246 337.668 318.451 332.723 318.451Z" fill="#5D7183"></path><path d="M423.529 245.408C423.386 245.408 423.244 245.384 423.109 245.335C422.793 245.223 422.534 244.989 422.389 244.686C422.245 244.383 422.226 244.034 422.337 243.717C426.795 231.031 432.571 219.931 438.682 208.196C441.885 202.04 445.192 195.675 448.261 189.116C453.5 177.927 462.421 156.091 463.345 135.553C463.352 135.386 463.392 135.223 463.463 135.072C463.533 134.92 463.633 134.785 463.755 134.672C463.878 134.56 464.022 134.473 464.178 134.416C464.334 134.359 464.5 134.334 464.666 134.341C464.832 134.349 464.995 134.389 465.146 134.46C465.296 134.53 465.431 134.63 465.544 134.753C465.656 134.876 465.743 135.02 465.799 135.177C465.856 135.334 465.881 135.5 465.874 135.667C465.381 146.666 462.32 165.054 450.553 190.195C447.465 196.801 444.142 203.198 440.927 209.37C434.857 221.044 429.125 232.075 424.727 244.574C424.638 244.82 424.475 245.032 424.26 245.181C424.046 245.331 423.79 245.41 423.529 245.408Z" fill="#5D7183"></path><path d="M372.402 241.328C372.139 241.327 371.882 241.245 371.668 241.091C371.454 240.938 371.293 240.721 371.207 240.471C368.678 233.123 365.409 225.565 362.238 218.271C357.986 208.496 353.591 198.388 350.816 188.325C346.39 172.258 343.892 161.929 339.975 139.538C339.946 139.373 339.949 139.205 339.984 139.042C340.02 138.878 340.088 138.724 340.183 138.587C340.278 138.45 340.4 138.333 340.54 138.244C340.681 138.154 340.837 138.093 341.002 138.064C341.166 138.035 341.334 138.039 341.496 138.076C341.659 138.112 341.812 138.18 341.948 138.277C342.085 138.373 342.2 138.495 342.289 138.637C342.378 138.778 342.438 138.935 342.466 139.1C346.364 161.386 348.84 171.665 353.25 187.65C355.981 197.539 360.341 207.564 364.555 217.256C367.748 224.598 371.049 232.19 373.597 239.634C373.706 239.952 373.684 240.3 373.537 240.602C373.39 240.904 373.13 241.136 372.813 241.245C372.682 241.296 372.543 241.324 372.402 241.328Z" fill="#5D7183"></path><path d="M353.844 347.98C334.42 347.98 314.642 344.78 293.938 341.428L291.7 341.066C291.377 341.015 291.087 340.84 290.89 340.578C290.694 340.317 290.605 339.99 290.644 339.664C290.665 339.497 290.717 339.336 290.799 339.189C290.972 338.279 291.232 334.47 291.532 330.096C292.797 311.495 295.765 267.934 305.385 226.035C305.461 225.707 305.662 225.423 305.947 225.244C306.231 225.065 306.574 225.007 306.901 225.082C307.228 225.158 307.512 225.36 307.69 225.645C307.869 225.93 307.926 226.275 307.851 226.603C298.275 268.305 295.329 311.727 294.064 330.267C293.748 334.91 293.574 337.394 293.416 338.773L294.365 338.922C319.16 342.937 342.605 346.734 365.567 345.021C369.886 313.816 372.087 282.353 372.152 250.849C372.208 226.623 370.805 202.415 367.951 178.358C364.223 147.505 358.985 126.951 356.822 119.272C356.035 120.516 354.903 122.098 353.345 124.166C352.905 124.753 352.526 125.257 352.358 125.511C350.212 128.682 347.977 131.692 345.719 134.42C341.258 139.786 336.276 143.963 331.003 148.374L329.953 149.256C320.763 156.972 310.055 163.411 301.446 168.583C297.362 171.038 293.318 173.724 289.404 176.319C287.223 177.765 284.978 179.262 282.727 180.705C273.559 186.604 267.024 192.208 262.744 197.831C256.683 205.792 255.381 213.689 258.874 221.3C262.115 228.36 270.537 232.226 277.182 232.401C285.475 232.613 293.28 227.849 299.157 223.676C302.708 221.138 306.625 220.472 309.634 221.858C309.785 221.928 309.921 222.027 310.034 222.149C310.147 222.271 310.235 222.414 310.292 222.571C310.35 222.727 310.377 222.893 310.37 223.059C310.364 223.226 310.325 223.39 310.256 223.541C310.186 223.692 310.088 223.829 309.966 223.942C309.844 224.055 309.702 224.143 309.546 224.201C309.39 224.259 309.224 224.285 309.058 224.279C308.893 224.273 308.729 224.234 308.579 224.164C306.4 223.162 303.422 223.752 300.618 225.75C294.564 230.05 286.524 234.947 277.726 234.947H277.119C268.314 234.719 259.87 229.556 256.569 222.375C252.656 213.841 254.04 205.068 260.727 196.306C265.191 190.445 271.937 184.647 281.355 178.586C283.568 177.15 285.829 175.659 287.994 174.219C291.93 171.609 295.999 168.907 300.131 166.423C308.667 161.295 319.277 154.914 328.312 147.325L329.365 146.443C334.55 142.095 339.444 137.991 343.759 132.805C346.068 130.014 348.237 127.109 350.256 124.1C350.461 123.782 350.838 123.291 351.318 122.65C352.384 121.229 355.592 116.941 355.773 115.768C355.716 115.485 355.756 115.192 355.888 114.935C356.02 114.679 356.235 114.475 356.497 114.358C356.76 114.241 357.054 114.216 357.332 114.289C357.61 114.362 357.855 114.528 358.027 114.759C358.11 114.869 358.174 114.993 358.216 115.124C358.466 115.895 365.659 138.543 370.426 177.885C373.308 202.06 374.729 226.388 374.681 250.735C374.618 282.735 372.361 314.693 367.925 346.382C367.886 346.668 367.75 346.932 367.541 347.13C367.332 347.329 367.061 347.449 366.775 347.473C362.469 347.822 358.166 347.98 353.844 347.98Z" fill="#5D7183"></path><path d="M395.338 94.998C395.133 94.998 394.927 94.998 394.706 94.9758C392.884 94.8167 391.146 94.1337 389.702 93.0085C388.257 91.8834 387.167 90.3641 386.562 88.6328C386.456 88.3136 386.481 87.9652 386.631 87.6642C386.781 87.3633 387.044 87.1344 387.362 87.028C387.68 86.9216 388.027 86.9464 388.327 87.0968C388.627 87.2473 388.855 87.5112 388.962 87.8304C389.381 89.1058 390.169 90.2274 391.225 91.053C392.281 91.8786 393.557 92.3711 394.893 92.4679C396.228 92.5647 397.562 92.2616 398.725 91.5969C399.889 90.9322 400.829 89.9358 401.427 88.7343C401.502 88.5854 401.605 88.4527 401.73 88.3437C401.856 88.2348 402.002 88.1517 402.159 88.0993C402.317 88.0469 402.483 88.0261 402.649 88.0382C402.815 88.0503 402.976 88.095 403.125 88.1697C403.273 88.2445 403.406 88.3479 403.514 88.4739C403.623 88.6 403.706 88.7462 403.758 88.9044C403.81 89.0625 403.831 89.2295 403.819 89.3956C403.807 89.5618 403.762 89.724 403.688 89.8729C402.888 91.4046 401.689 92.6902 400.219 93.5927C398.748 94.4952 397.062 94.9809 395.338 94.998Z" fill="#5D7183"></path><path d="M302.888 194.275H323.833V122.999H302.888V194.275Z" fill="white"></path><path d="M302.888 148.234H323.833V122.995H302.888V148.234Z" fill="#96E296"></path><path d="M323.833 195.541H318.063C317.728 195.541 317.406 195.407 317.169 195.17C316.932 194.932 316.799 194.609 316.799 194.273C316.799 193.936 316.932 193.613 317.169 193.375C317.406 193.138 317.728 193.004 318.063 193.004H323.833C324.168 193.004 324.49 193.138 324.727 193.375C324.964 193.613 325.098 193.936 325.098 194.273C325.098 194.609 324.964 194.932 324.727 195.17C324.49 195.407 324.168 195.541 323.833 195.541Z" fill="#5D7183"></path><path d="M323.833 195.54C323.498 195.54 323.176 195.407 322.939 195.169C322.702 194.931 322.569 194.608 322.569 194.272V124.254H304.153V193.003H309.066C309.401 193.003 309.723 193.137 309.96 193.375C310.197 193.612 310.331 193.935 310.331 194.272C310.331 194.608 310.197 194.931 309.96 195.169C309.723 195.407 309.401 195.54 309.066 195.54H302.889C302.553 195.54 302.232 195.407 301.994 195.169C301.757 194.931 301.624 194.608 301.624 194.272V122.985C301.624 122.649 301.757 122.326 301.994 122.088C302.232 121.85 302.553 121.717 302.889 121.717H323.833C324.169 121.717 324.49 121.85 324.727 122.088C324.965 122.326 325.098 122.649 325.098 122.985V194.272C325.098 194.608 324.965 194.931 324.727 195.169C324.49 195.407 324.169 195.54 323.833 195.54Z" fill="#5D7183"></path><path d="M320.637 149.504H306.078C305.743 149.504 305.421 149.37 305.184 149.132C304.947 148.895 304.813 148.572 304.813 148.235C304.813 147.899 304.947 147.576 305.184 147.338C305.421 147.1 305.743 146.967 306.078 146.967H320.621C320.956 146.967 321.278 147.1 321.515 147.338C321.752 147.576 321.885 147.899 321.885 148.235C321.885 148.572 321.752 148.895 321.515 149.132C321.278 149.37 320.956 149.504 320.621 149.504H320.637Z" fill="#5D7183"></path><path d="M313.35 124.255C313.014 124.255 312.693 124.121 312.455 123.883C312.218 123.645 312.085 123.323 312.085 122.986V102.47C312.085 102.133 312.218 101.811 312.455 101.573C312.693 101.335 313.014 101.201 313.35 101.201C313.685 101.201 314.007 101.335 314.244 101.573C314.481 101.811 314.614 102.133 314.614 102.47V122.986C314.614 123.323 314.481 123.645 314.244 123.883C314.007 124.121 313.685 124.255 313.35 124.255Z" fill="#5D7183"></path><path d="M313.35 220.781C313.014 220.781 312.693 220.647 312.455 220.409C312.218 220.171 312.085 219.849 312.085 219.512V148.235C312.085 147.899 312.218 147.576 312.455 147.338C312.693 147.1 313.014 146.967 313.35 146.967C313.685 146.967 314.007 147.1 314.244 147.338C314.481 147.576 314.614 147.899 314.614 148.235V219.512C314.614 219.849 314.481 220.171 314.244 220.409C314.007 220.647 313.685 220.781 313.35 220.781Z" fill="#5D7183"></path><path d="M323.833 220.779H302.889C302.553 220.779 302.232 220.646 301.994 220.408C301.757 220.17 301.624 219.847 301.624 219.511C301.624 219.174 301.757 218.852 301.994 218.614C302.232 218.376 302.553 218.242 302.889 218.242H323.833C324.169 218.242 324.49 218.376 324.727 218.614C324.965 218.852 325.098 219.174 325.098 219.511C325.098 219.847 324.965 220.17 324.727 220.408C324.49 220.646 324.169 220.779 323.833 220.779Z" fill="#5D7183"></path><path d="M312.717 97.1421H312.631C312.297 97.1194 311.985 96.9642 311.765 96.7109C311.544 96.4575 311.433 96.1267 311.455 95.7911C311.568 94.0455 311.182 92.3039 310.343 90.7706C310.258 90.6246 310.204 90.4632 310.183 90.2959C310.162 90.1287 310.174 89.9588 310.219 89.7964C310.264 89.6339 310.341 89.482 310.445 89.3497C310.549 89.2173 310.678 89.1071 310.826 89.0255C310.973 88.944 311.135 88.8926 311.302 88.8745C311.469 88.8564 311.638 88.8719 311.799 88.9201C311.96 88.9683 312.11 89.0482 312.24 89.1552C312.37 89.2622 312.477 89.3941 312.556 89.5432C313.628 91.5037 314.122 93.7305 313.978 95.9623C313.956 96.2826 313.813 96.5825 313.579 96.8014C313.345 97.0204 313.037 97.1421 312.717 97.1421Z" fill="#96E296"></path><path d="M305.532 84.4275C305.294 84.4276 305.062 84.3608 304.86 84.2346C304.659 84.1084 304.497 83.928 304.394 83.7139C302.062 78.9202 298.164 75.0729 293.347 72.8134C293.197 72.7428 293.062 72.6431 292.95 72.5201C292.838 72.3971 292.751 72.2532 292.694 72.0965C292.58 71.7801 292.595 71.431 292.737 71.1261C292.879 70.8212 293.136 70.5854 293.452 70.4706C293.767 70.3558 294.115 70.3714 294.419 70.514C299.76 73.021 304.084 77.2878 306.67 82.6038C306.764 82.7973 306.807 83.0116 306.795 83.2264C306.784 83.4413 306.718 83.6497 306.604 83.832C306.491 84.0144 306.332 84.1648 306.145 84.2689C305.957 84.3731 305.746 84.4276 305.532 84.4275Z" fill="#96E296"></path><path d="M313.065 86.3172C312.835 86.3174 312.609 86.2547 312.412 86.1356C312.214 86.0166 312.053 85.8458 311.946 85.6417L310.125 82.1784C310.039 82.0306 309.984 81.867 309.964 81.6974C309.943 81.5278 309.956 81.3557 310.003 81.1915C310.05 81.0273 310.13 80.8743 310.237 80.7418C310.345 80.6092 310.478 80.4997 310.629 80.42C310.779 80.3403 310.944 80.2919 311.114 80.2778C311.284 80.2637 311.455 80.2841 311.616 80.3378C311.778 80.3915 311.927 80.4775 312.055 80.5905C312.183 80.7035 312.286 80.8412 312.36 80.9954L314.181 84.4555C314.283 84.6487 314.333 84.865 314.327 85.0835C314.321 85.3019 314.259 85.5151 314.147 85.7024C314.034 85.8897 313.876 86.0447 313.686 86.1524C313.497 86.2601 313.283 86.3169 313.065 86.3172Z" fill="#96E296"></path><path d="M444.151 220.768C443.323 220.768 442.504 220.746 441.695 220.708C429.792 220.118 417.096 215.043 403.96 205.621C388.267 194.362 376.73 180.848 364.515 166.541L362.722 164.442C361.249 162.72 359.782 160.934 358.23 159.05C347.869 146.447 336.131 132.162 318.851 132.162C318.515 132.162 318.193 132.029 317.956 131.791C317.719 131.553 317.586 131.23 317.586 130.894C317.586 130.557 317.719 130.234 317.956 129.997C318.193 129.759 318.515 129.625 318.851 129.625C337.323 129.625 349.466 144.401 360.18 157.439C361.726 159.32 363.187 161.096 364.644 162.802L366.437 164.899C378.548 179.088 389.986 192.491 405.433 203.566C418.164 212.7 430.409 217.619 441.818 218.183C447.078 218.384 452.339 217.85 457.452 216.598C467.176 214.32 474.792 210.255 480.085 204.524C486.158 197.946 488.62 188.434 486.351 180.293C486.274 179.974 486.324 179.637 486.49 179.354C486.656 179.071 486.925 178.864 487.24 178.776C487.555 178.687 487.893 178.725 488.181 178.881C488.469 179.037 488.685 179.299 488.785 179.611C491.282 188.584 488.595 199.037 481.94 206.252C476.3 212.364 468.251 216.677 458.024 219.074C453.479 220.169 448.825 220.737 444.151 220.768Z" fill="#5D7183"></path><path d="M157.218 248.36C157.26 248.276 157.299 248.189 157.335 248.102C157.835 246.897 158.079 245.601 158.053 244.297C158.061 243.292 157.891 242.294 157.551 241.348C157.205 240.414 156.735 239.53 156.153 238.721C155.712 238.11 155.218 237.54 154.678 237.015C154.471 236.814 154.258 236.616 154.045 236.436C153.207 235.719 152.313 235.071 151.371 234.499C150.804 234.165 150.171 233.832 149.487 233.508C148.759 233.16 148.057 232.759 147.387 232.307C146.714 231.857 146.127 231.288 145.656 230.628C145.137 229.865 144.871 228.957 144.897 228.033C144.892 227.607 144.972 227.183 145.131 226.787C145.291 226.391 145.528 226.031 145.828 225.727C146.452 225.076 147.351 224.745 148.5 224.745C149.271 224.763 150.025 224.969 150.696 225.346C151.109 225.551 151.463 225.857 151.726 226.236C151.988 226.616 152.15 227.055 152.196 227.514C152.274 228.289 152.496 228.829 152.865 229.124C153.284 229.458 153.809 229.629 154.345 229.607C154.618 229.612 154.89 229.562 155.144 229.459C155.398 229.355 155.628 229.202 155.82 229.006L155.839 228.988L155.931 228.898C156.15 228.67 156.321 228.401 156.436 228.106C156.55 227.811 156.605 227.497 156.597 227.181V227.001C156.579 226.105 156.345 225.228 155.917 224.442C155.45 223.594 154.824 222.846 154.071 222.238C153.29 221.609 152.405 221.122 151.456 220.8C150.52 220.468 149.535 220.295 148.542 220.289C147.529 220.293 146.523 220.457 145.561 220.776C144.604 221.089 143.716 221.583 142.945 222.229C142.365 222.717 141.864 223.291 141.459 223.932C141.312 224.163 141.159 224.406 141.051 224.649C140.547 225.705 140.3 226.864 140.328 228.033C140.322 228.911 140.473 229.783 140.775 230.607C140.969 231.126 141.204 231.628 141.481 232.108C141.645 232.398 141.824 232.679 142.017 232.949C142.546 233.69 143.149 234.374 143.817 234.991C144.462 235.591 145.153 236.138 145.884 236.628C146.612 237.114 147.374 237.546 148.164 237.922C149.029 238.337 149.863 238.814 150.657 239.351C151.442 239.883 152.126 240.549 152.679 241.318C153.279 242.23 153.581 243.305 153.543 244.396C153.543 245.988 152.982 247.204 151.878 248C150.903 248.728 149.717 249.119 148.5 249.114C147.205 249.14 145.93 248.78 144.84 248.078C144.311 247.743 143.859 247.299 143.514 246.775C143.169 246.252 142.939 245.661 142.839 245.042C142.81 244.785 142.728 244.537 142.601 244.313C142.473 244.088 142.301 243.892 142.095 243.736C141.677 243.449 141.18 243.299 140.673 243.306C140.095 243.304 139.536 243.518 139.107 243.907C139.056 243.951 139.007 243.998 138.961 244.048C138.616 244.469 138.442 245.005 138.475 245.549C138.492 246.513 138.755 247.457 139.239 248.291C139.772 249.249 140.469 250.106 141.297 250.822L141.321 250.843L141.361 250.879L141.406 250.918C142.366 251.727 143.452 252.371 144.621 252.825C145.856 253.317 147.172 253.567 148.5 253.561C149.685 253.555 150.86 253.352 151.978 252.96C153.094 252.578 154.127 251.987 155.022 251.219C155.944 250.415 156.689 249.43 157.212 248.324L157.218 248.36Z" fill="#5D7183"></path><path d="M73.1586 256.411C74.023 256.997 75.0427 257.311 76.0866 257.312H135.421C135.829 257.307 136.227 257.183 136.566 256.955C136.904 256.728 137.17 256.406 137.329 256.03C137.488 255.653 137.534 255.239 137.462 254.837C137.389 254.435 137.201 254.062 136.921 253.766C136.067 252.876 135.333 251.879 134.737 250.799C134.282 249.98 133.93 249.109 133.687 248.204C133.456 247.348 133.339 246.466 133.339 245.58C133.339 245.022 133.117 244.488 132.723 244.093C132.33 243.699 131.796 243.478 131.239 243.478C130.682 243.478 130.147 243.699 129.754 244.093C129.36 244.488 129.139 245.022 129.139 245.58C129.149 246.831 129.321 248.075 129.652 249.282C129.985 250.514 130.465 251.7 131.083 252.817C131.137 252.916 131.197 253.015 131.254 253.117H76.0866C75.9474 253.119 75.8093 253.091 75.6816 253.036C75.4933 252.956 75.3319 252.824 75.2166 252.654C75.1056 252.482 75.0482 252.28 75.0516 252.075V244.493C75.0516 243.935 74.8303 243.4 74.4365 243.006C74.0427 242.612 73.5085 242.391 72.9516 242.391C72.3946 242.391 71.8605 242.612 71.4666 243.006C71.0728 243.4 70.8516 243.935 70.8516 244.493V252.075C70.8519 252.933 71.0623 253.778 71.4645 254.535C71.8667 255.293 72.4484 255.94 73.1586 256.42V256.411Z" fill="#5D7183"></path><path d="M72.9516 261.084C72.3946 261.084 71.8605 261.306 71.4666 261.7C71.0728 262.094 70.8516 262.629 70.8516 263.186V270.093C70.8512 270.781 70.9863 271.463 71.2493 272.099C71.5122 272.734 71.8978 273.312 72.384 273.799C72.8702 274.286 73.4474 274.672 74.0828 274.935C74.7181 275.198 75.399 275.333 76.0866 275.333H137.542C138.241 275.336 138.935 275.196 139.579 274.921C140.528 274.521 141.337 273.85 141.906 272.991C142.475 272.132 142.778 271.124 142.777 270.093V262.778C142.777 262.22 142.555 261.686 142.161 261.291C141.768 260.897 141.234 260.676 140.677 260.676C140.12 260.676 139.585 260.897 139.192 261.291C138.798 261.686 138.577 262.22 138.577 262.778V270.093C138.578 270.265 138.536 270.435 138.454 270.587C138.373 270.739 138.255 270.869 138.112 270.964C137.94 271.081 137.737 271.143 137.53 271.141H76.0866C75.8112 271.137 75.5484 271.025 75.3548 270.829C75.1612 270.633 75.0523 270.368 75.0516 270.093V263.165C75.0516 262.608 74.8303 262.073 74.4365 261.679C74.0427 261.285 73.5085 261.063 72.9516 261.063V261.084Z" fill="#5D7183"></path><path d="M70.8518 288.125C70.8514 288.814 70.9866 289.495 71.2495 290.131C71.5125 290.767 71.8981 291.345 72.3842 291.832C72.8704 292.318 73.4477 292.704 74.083 292.967C74.7183 293.231 75.3993 293.366 76.0868 293.366H137.542C138.229 293.366 138.91 293.231 139.546 292.967C140.181 292.704 140.758 292.318 141.244 291.832C141.731 291.345 142.116 290.767 142.379 290.131C142.642 289.495 142.777 288.814 142.777 288.125V280.672C142.777 280.115 142.556 279.58 142.162 279.186C141.768 278.792 141.234 278.57 140.677 278.57C140.12 278.57 139.586 278.792 139.192 279.186C138.798 279.58 138.577 280.115 138.577 280.672V288.125C138.577 288.266 138.549 288.404 138.496 288.534C138.414 288.721 138.281 288.882 138.112 288.996C137.94 289.112 137.737 289.174 137.53 289.173H76.0868C75.8094 289.173 75.5435 289.062 75.3474 288.866C75.1512 288.669 75.0406 288.403 75.0398 288.125V280.672C75.0398 280.115 74.8186 279.58 74.4248 279.186C74.0309 278.792 73.4968 278.57 72.9398 278.57C72.3829 278.57 71.8487 278.792 71.4549 279.186C71.0611 279.58 70.8398 280.115 70.8398 280.672V288.125H70.8518Z" fill="#5D7183"></path><path d="M73.1588 310.496C74.0233 311.082 75.0429 311.396 76.0868 311.397H137.542C138.242 311.398 138.935 311.257 139.579 310.983C140.528 310.583 141.338 309.911 141.907 309.052C142.476 308.193 142.778 307.185 142.777 306.154V298.563C142.777 298.005 142.556 297.471 142.162 297.077C141.768 296.682 141.234 296.461 140.677 296.461C140.12 296.461 139.586 296.682 139.192 297.077C138.798 297.471 138.577 298.005 138.577 298.563V306.151C138.576 306.429 138.466 306.696 138.269 306.892C138.073 307.089 137.808 307.201 137.53 307.202H76.0868C75.9476 307.202 75.8098 307.173 75.6818 307.118C75.4933 307.04 75.3324 306.907 75.2198 306.737C75.1024 306.564 75.0397 306.36 75.0398 306.151V299.149C75.0398 298.591 74.8186 298.056 74.4248 297.662C74.0309 297.268 73.4968 297.047 72.9398 297.047C72.3829 297.047 71.8487 297.268 71.4549 297.662C71.0611 298.056 70.8398 298.591 70.8398 299.149V306.151C70.8401 307.009 71.0506 307.854 71.4528 308.611C71.855 309.369 72.4367 310.016 73.1468 310.496H73.1588Z" fill="#5D7183"></path><path d="M89.8181 226.551C89.6056 227.052 89.2523 227.481 88.8012 227.785C88.4152 228.045 87.9707 228.204 87.5077 228.25C87.0448 228.295 86.5779 228.224 86.1492 228.043C85.648 227.831 85.2196 227.477 84.9162 227.025C84.6034 226.564 84.4371 226.019 84.4392 225.461C84.4381 225.086 84.5126 224.714 84.6582 224.368C84.872 223.86 85.231 223.427 85.6899 223.122C86.1489 222.818 86.6875 222.656 87.2382 222.656C87.6122 222.655 87.9827 222.729 88.3272 222.875C88.8267 223.09 89.2544 223.443 89.5602 223.893C89.8197 224.28 89.9791 224.726 90.0241 225.19C90.0692 225.653 89.9984 226.121 89.8181 226.551ZM91.1472 219.644C89.7574 218.707 88.077 218.302 86.4134 218.504C84.7498 218.705 83.2141 219.499 82.0874 220.741C80.9607 221.982 80.3182 223.588 80.2775 225.265C80.2367 226.942 80.8004 228.577 81.8654 229.872C82.9305 231.167 84.4257 232.035 86.0775 232.317C87.7294 232.599 89.4274 232.277 90.8612 231.408C92.2949 230.54 93.3683 229.184 93.8853 227.589C94.4022 225.993 94.3279 224.265 93.6762 222.719C93.1492 221.47 92.2704 220.402 91.1472 219.644Z" fill="#5D7183"></path><path d="M132.763 220.437C131.751 222.516 131.167 224.776 131.045 227.085C130.922 229.394 131.265 231.704 132.052 233.878C132.202 234.286 132.37 234.689 132.55 235.079H76.0866C75.9475 235.08 75.8098 235.052 75.6816 234.998C75.4933 234.918 75.3319 234.786 75.2166 234.617C75.1005 234.444 75.0389 234.24 75.0396 234.031V216.849C75.0391 216.677 75.0813 216.507 75.1625 216.356C75.2436 216.204 75.3612 216.075 75.5046 215.981C75.6761 215.864 75.8789 215.801 76.0866 215.801H136.192C134.793 217.14 133.634 218.708 132.763 220.437ZM136.498 222.335C137.27 220.788 138.35 219.416 139.672 218.302C140.199 217.859 140.759 217.457 141.349 217.101C141.817 216.82 142.157 216.369 142.298 215.841C142.439 215.314 142.37 214.752 142.105 214.275C141.649 213.464 140.987 212.789 140.185 212.319C139.383 211.848 138.471 211.6 137.542 211.6H76.0866C75.3985 211.6 74.7171 211.736 74.0816 212C73.4461 212.264 72.8687 212.651 72.3826 213.138C71.8964 213.626 71.511 214.204 71.2483 214.841C70.9856 215.478 70.8508 216.16 70.8516 216.849V234.04C70.8512 234.728 70.9863 235.41 71.2493 236.046C71.5122 236.682 71.8978 237.26 72.384 237.746C72.8702 238.233 73.4474 238.619 74.0828 238.882C74.7181 239.145 75.399 239.281 76.0866 239.28H136.168C136.549 239.279 136.922 239.174 137.248 238.976C137.574 238.778 137.84 238.495 138.018 238.157C138.196 237.82 138.278 237.44 138.256 237.059C138.235 236.678 138.11 236.31 137.896 235.995L137.872 235.962L137.851 235.935C137.077 234.848 136.45 233.663 135.985 232.413C135.401 230.783 135.146 229.053 135.233 227.324C135.321 225.595 135.75 223.9 136.495 222.338L136.498 222.335Z" fill="#5D7183"></path><path d="M128.658 218.825C127.642 218.478 126.561 218.371 125.496 218.511C124.432 218.651 123.415 219.034 122.522 219.631C121.63 220.228 120.888 221.023 120.352 221.954C119.816 222.885 119.502 223.926 119.433 224.998C119.365 226.071 119.544 227.144 119.957 228.136C120.37 229.127 121.005 230.01 121.814 230.716C122.623 231.422 123.584 231.932 124.621 232.207C125.659 232.481 126.746 232.512 127.797 232.299C128.084 232.261 128.359 232.165 128.606 232.017C128.854 231.868 129.068 231.67 129.235 231.435C129.403 231.2 129.52 230.932 129.58 230.65C129.64 230.367 129.641 230.076 129.583 229.793C129.525 229.51 129.41 229.242 129.244 229.005C129.078 228.769 128.865 228.57 128.619 228.419C128.372 228.269 128.098 228.171 127.812 228.132C127.526 228.092 127.235 228.112 126.957 228.191C126.772 228.228 126.583 228.247 126.393 228.248C126.018 228.249 125.647 228.174 125.301 228.028C124.801 227.815 124.373 227.461 124.068 227.01C123.756 226.549 123.589 226.004 123.591 225.446C123.59 225.071 123.665 224.699 123.81 224.353C124.025 223.853 124.378 223.425 124.827 223.119C125.187 222.877 125.596 222.722 126.025 222.666C126.454 222.609 126.89 222.652 127.299 222.791C127.565 222.904 127.851 222.961 128.139 222.958C128.427 222.955 128.712 222.893 128.975 222.776C129.238 222.658 129.474 222.487 129.669 222.275C129.863 222.062 130.012 221.811 130.105 221.538C130.199 221.265 130.235 220.976 130.212 220.688C130.189 220.4 130.107 220.121 129.972 219.866C129.836 219.612 129.649 219.388 129.423 219.209C129.197 219.029 128.937 218.899 128.658 218.825Z" fill="#5D7183"></path><path d="M109.396 226.55C109.182 227.051 108.829 227.479 108.379 227.784C107.993 228.044 107.549 228.204 107.086 228.249C106.623 228.294 106.156 228.223 105.727 228.042C105.042 227.753 104.499 227.204 104.218 226.515C103.937 225.826 103.94 225.054 104.227 224.367C104.442 223.867 104.794 223.439 105.244 223.133C105.631 222.873 106.076 222.713 106.539 222.668C107.002 222.623 107.47 222.694 107.899 222.874C108.398 223.089 108.826 223.442 109.132 223.892C109.391 224.279 109.551 224.725 109.596 225.189C109.641 225.653 109.57 226.12 109.39 226.55H109.396ZM110.722 219.643C109.333 218.709 107.654 218.306 105.992 218.508C104.33 218.711 102.797 219.505 101.672 220.746C100.547 221.988 99.9068 223.593 99.8672 225.268C99.8276 226.943 100.392 228.576 101.456 229.869C102.521 231.162 104.015 232.029 105.666 232.31C107.316 232.591 109.012 232.268 110.444 231.4C111.876 230.532 112.948 229.177 113.464 227.583C113.98 225.989 113.905 224.262 113.254 222.718C112.727 221.469 111.847 220.4 110.722 219.643Z" fill="#5D7183"></path><path d="M213.217 291.286L204.616 282.677C203.604 281.666 202.233 281.098 200.803 281.098H161.083C160.361 281.095 159.647 281.239 158.983 281.521C158.005 281.934 157.171 282.626 156.584 283.511C155.997 284.396 155.684 285.435 155.683 286.497V328.348C155.683 328.906 155.904 329.44 156.298 329.834C156.692 330.229 157.226 330.45 157.783 330.45C158.34 330.45 158.874 330.229 159.268 329.834C159.662 329.44 159.883 328.906 159.883 328.348V286.497C159.881 286.336 159.913 286.177 159.976 286.028C160.068 285.812 160.22 285.626 160.414 285.494C160.613 285.36 160.848 285.289 161.089 285.29H200.809C200.967 285.29 201.124 285.321 201.27 285.382C201.416 285.442 201.549 285.532 201.661 285.644L210.259 294.25L216.316 300.313C216.428 300.425 216.517 300.558 216.578 300.704C216.639 300.851 216.67 301.007 216.67 301.166V356.206C216.671 356.368 216.639 356.529 216.574 356.677C216.484 356.894 216.331 357.079 216.136 357.209C215.937 357.343 215.703 357.416 215.464 357.416H161.083C160.922 357.416 160.763 357.384 160.615 357.32C160.398 357.229 160.212 357.077 160.081 356.881C159.947 356.682 159.876 356.446 159.877 356.206V350.179C159.877 349.622 159.655 349.087 159.262 348.693C158.868 348.298 158.334 348.077 157.777 348.077C157.22 348.077 156.686 348.298 156.292 348.693C155.898 349.087 155.677 349.622 155.677 350.179V356.206C155.677 357.639 156.246 359.014 157.258 360.028C158.271 361.042 159.645 361.611 161.077 361.611H215.452C216.884 361.611 218.257 361.042 219.27 360.028C220.283 359.014 220.852 357.639 220.852 356.206V301.166C220.851 299.733 220.283 298.359 219.271 297.346L213.217 291.286Z" fill="#5D7183"></path><path d="M189.196 244.268L188.518 245.196L186.013 242.463C185.776 242.24 185.502 242.06 185.203 241.932C184.958 241.836 184.704 241.767 184.444 241.724C184.13 241.729 183.819 241.796 183.531 241.923C183.243 242.05 182.983 242.234 182.767 242.463C182.536 242.677 182.351 242.936 182.225 243.224C182.098 243.512 182.033 243.824 182.032 244.139C182.02 244.392 182.061 244.644 182.152 244.88C182.309 245.166 182.512 245.423 182.752 245.643L185.278 247.982L183.886 248.532C183.134 248.835 182.35 249.05 181.549 249.175C180.798 249.288 180.038 249.345 179.278 249.346C177.629 249.361 175.995 249.035 174.478 248.388C173.041 247.768 171.738 246.875 170.641 245.757C169.548 244.645 168.678 243.335 168.076 241.896C167.454 240.394 167.14 238.783 167.152 237.157C167.156 233.921 168.391 230.807 170.605 228.449C171.695 227.307 172.996 226.39 174.436 225.746C175.956 225.062 177.606 224.715 179.272 224.728C180.904 224.724 182.52 225.059 184.015 225.713C186.962 226.969 189.312 229.312 190.579 232.256C191.411 234.206 191.721 236.339 191.478 238.446C191.236 240.552 190.449 242.558 189.196 244.268ZM193.096 246.604C193.955 245.436 194.648 244.154 195.157 242.796C195.482 241.921 195.721 241.016 195.871 240.094C196.035 239.092 196.116 238.079 196.111 237.064C196.128 233.616 195.071 230.249 193.087 227.431C192.54 226.656 191.927 225.931 191.254 225.263C189.694 223.735 187.863 222.513 185.854 221.659C183.724 220.758 181.432 220.303 179.119 220.323C176.87 220.304 174.642 220.767 172.585 221.68C170.61 222.555 168.821 223.801 167.314 225.35C166.227 226.473 165.302 227.744 164.566 229.124C163.917 230.327 163.413 231.603 163.066 232.926C162.943 233.418 162.838 233.914 162.766 234.4C162.619 235.314 162.546 236.238 162.547 237.163C162.532 239.398 162.986 241.61 163.879 243.658C164.387 244.819 165.02 245.92 165.766 246.943C166.285 247.652 166.86 248.318 167.485 248.934C169.02 250.447 170.834 251.647 172.825 252.469C174.905 253.329 177.136 253.766 179.386 253.754C180.864 253.758 182.335 253.555 183.757 253.153C185.132 252.765 186.463 252.236 187.729 251.574L188.329 251.256L190.966 253.766C191.153 253.968 191.379 254.128 191.632 254.237C191.884 254.345 192.156 254.4 192.43 254.397C192.993 254.407 193.538 254.197 193.948 253.811L193.966 253.793L194.053 253.715C194.258 253.528 194.423 253.302 194.54 253.05C194.657 252.799 194.723 252.527 194.734 252.25C194.698 252.012 194.638 251.724 194.554 251.397C194.456 251.101 194.283 250.835 194.053 250.625L191.737 248.307L192.292 247.643C192.592 247.283 192.859 246.946 193.102 246.613L193.096 246.604Z" fill="#5D7183"></path><path d="M203.262 221.049C201.696 221.049 201.087 221.667 201.087 223.25V250.798C201.077 251.089 201.124 251.38 201.227 251.652C201.33 251.924 201.487 252.173 201.687 252.384C201.847 252.551 202.035 252.688 202.242 252.789C202.559 252.937 202.905 253.009 203.253 253H215.523C215.82 253.008 216.116 252.956 216.392 252.847C216.668 252.738 216.92 252.575 217.131 252.366C217.344 252.171 217.511 251.932 217.622 251.666C217.734 251.4 217.786 251.114 217.776 250.825C217.783 250.526 217.729 250.229 217.619 249.951C217.508 249.673 217.343 249.421 217.132 249.208C216.922 248.995 216.672 248.827 216.395 248.714C216.119 248.6 215.822 248.543 215.523 248.546H205.476V223.307C205.476 221.7 204.834 221.049 203.253 221.049H203.262Z" fill="#5D7183"></path><path d="M99.3276 327.964C99.3839 327.854 99.4006 327.728 99.3749 327.607C99.3492 327.486 99.2827 327.378 99.1866 327.3L87.7866 316.826C87.6657 316.719 87.5154 316.65 87.355 316.628C87.1946 316.607 87.0314 316.634 86.8866 316.706C86.7582 316.756 86.647 316.842 86.5666 316.954C86.4861 317.066 86.44 317.199 86.4336 317.337L86.4876 332.474C86.4894 332.604 86.5335 332.73 86.613 332.833C86.6925 332.936 86.8033 333.01 86.9286 333.045C87.0946 333.106 87.2754 333.114 87.4459 333.067C87.6164 333.02 87.768 332.921 87.8796 332.784L90.0996 330.015L90.6996 331.117C93.3217 335.837 96.9161 339.946 101.245 343.171C106.645 347.273 113.245 350.269 120.364 351.84L121.789 352.158L118.789 355.404C118.666 355.528 118.585 355.687 118.559 355.86C118.534 356.032 118.563 356.208 118.645 356.362C118.697 356.472 118.784 356.562 118.893 356.616C119.002 356.671 119.125 356.687 119.245 356.663L134.458 353.864C134.614 353.831 134.757 353.753 134.87 353.639C134.982 353.525 135.059 353.381 135.091 353.224C135.127 353.091 135.124 352.95 135.083 352.818C135.042 352.686 134.965 352.569 134.86 352.48L122.749 343.411C122.645 343.334 122.519 343.292 122.39 343.292C122.261 343.292 122.135 343.334 122.032 343.411C121.883 343.507 121.768 343.646 121.703 343.81C121.637 343.975 121.624 344.155 121.666 344.327L122.497 347.606L121.165 347.306C115.622 346.075 110.359 343.813 105.652 340.636C101.152 337.555 97.4796 333.673 95.0406 329.411L94.2306 327.997L98.4756 328.423C98.6476 328.448 98.823 328.417 98.9759 328.334C99.1288 328.251 99.251 328.122 99.3246 327.964H99.3276Z" fill="#5D7183"></path><path d="M180.796 311.56C180.444 311.131 179.937 310.858 179.385 310.802C178.833 310.746 178.281 310.91 177.85 311.26L167.512 319.731C167.26 319.939 167.06 320.202 166.928 320.5C166.796 320.798 166.734 321.123 166.749 321.449C166.764 321.776 166.855 322.094 167.014 322.379C167.173 322.664 167.396 322.908 167.665 323.091L178.003 330.079C178.23 330.259 178.491 330.39 178.771 330.464C179.051 330.538 179.343 330.553 179.628 330.509C179.914 330.465 180.188 330.362 180.432 330.207C180.676 330.051 180.886 329.848 181.048 329.608C181.21 329.368 181.32 329.097 181.373 328.812C181.425 328.527 181.418 328.235 181.352 327.953C181.286 327.671 181.163 327.405 180.99 327.174C180.817 326.942 180.598 326.748 180.346 326.605L172.342 321.199L180.502 314.518C180.932 314.166 181.205 313.657 181.261 313.104C181.318 312.551 181.152 311.998 180.802 311.566L180.796 311.56Z" fill="#5D7183"></path><path d="M196.453 329.513C196.765 329.974 197.246 330.291 197.791 330.397C198.337 330.503 198.902 330.388 199.363 330.078L209.698 323.09C209.967 322.907 210.191 322.663 210.35 322.378C210.509 322.093 210.6 321.775 210.615 321.449C210.63 321.123 210.569 320.798 210.437 320.5C210.305 320.201 210.105 319.938 209.854 319.73L199.516 311.265C199.082 310.959 198.548 310.828 198.022 310.9C197.496 310.972 197.016 311.241 196.68 311.652C196.344 312.064 196.176 312.587 196.21 313.118C196.244 313.648 196.478 314.146 196.864 314.511L205.024 321.192L197.017 326.598C196.558 326.91 196.241 327.391 196.135 327.936C196.029 328.481 196.144 329.046 196.453 329.507V329.513Z" fill="#5D7183"></path><path d="M157.783 340.837C158.198 340.837 158.604 340.714 158.949 340.483C159.295 340.252 159.564 339.923 159.723 339.539C159.882 339.155 159.923 338.733 159.842 338.325C159.761 337.917 159.561 337.542 159.268 337.248C158.974 336.955 158.6 336.754 158.192 336.673C157.785 336.592 157.363 336.634 156.979 336.793C156.595 336.952 156.267 337.221 156.037 337.567C155.806 337.913 155.683 338.319 155.683 338.735C155.683 339.292 155.904 339.827 156.298 340.221C156.692 340.615 157.226 340.837 157.783 340.837Z" fill="#5D7183"></path></svg>