<svg xmlns="http://www.w3.org/2000/svg" width="559" height="515" viewBox="0 0 559 515" fill="none"><path d="M400.389 254.888C387.266 254.833 316.174 253.572 284.512 259.47C278.33 260.624 280.129 272.586 280.129 295.931C280.129 375.669 279.83 491.572 285.806 502.566C290.447 511.112 295.713 511.441 315.291 511.441C391.309 511.441 465.538 513.966 540.961 510.043C555.151 509.303 557.442 492.792 556.988 478.389L556.929 284.863C556.485 270.811 548.625 258.501 534.782 257.565C499.004 255.151 444.785 255.073 400.389 254.888Z" fill="white"></path><path d="M442.054 514.091C420.953 514.091 400 513.891 379.317 513.695C358.39 513.499 336.75 513.296 315.291 513.296C295.295 513.296 289.301 512.874 284.18 503.452C278.696 493.361 278.267 408.442 278.267 306.85V295.915C278.267 291.167 278.189 286.863 278.127 283.065C277.993 275.669 277.894 269.808 278.463 265.744C278.895 262.638 279.941 258.419 284.157 257.638C313.1 252.247 375.064 252.801 395.407 252.983L400.381 253.023L408.071 253.053C451.677 253.227 501.099 253.423 534.89 255.708C541.981 256.189 548.012 259.458 552.339 265.164C556.241 270.315 558.525 277.285 558.762 284.792V284.851L558.821 478.347C559.102 487.352 558.215 494.618 556.179 499.984C553.318 507.501 548.226 511.502 541.028 511.876C508.072 513.607 474.91 514.091 442.054 514.091ZM374.68 256.588C347.43 256.588 306.581 257.239 284.848 261.288C284.176 261.414 282.779 261.658 282.136 266.273C281.608 270.048 281.707 275.769 281.833 283.017C281.9 286.829 281.977 291.152 281.977 295.93V306.846C281.977 347.053 281.977 392.637 282.668 430.356C283.673 483.916 285.809 498.708 287.428 501.685C291.408 509.006 295.288 509.594 315.291 509.594C336.769 509.594 358.416 509.798 379.351 509.994C432.195 510.493 486.798 511.011 540.865 508.197C546.53 507.904 550.418 504.791 552.738 498.686C554.604 493.786 555.41 486.978 555.14 478.451V478.392L555.1 284.895C554.712 272.87 548.245 260.33 534.675 259.413C500.999 257.135 451.64 256.939 408.09 256.766L400.4 256.736L395.407 256.695C390.529 256.651 383.264 256.588 374.68 256.588Z" fill="#1A1E22"></path><path d="M430.509 399.457C439.26 399.457 486.653 399.826 507.743 398.159C511.867 397.829 510.666 394.435 510.666 387.804C510.666 365.184 510.865 332.306 506.882 329.185C503.789 326.763 500.274 326.671 487.226 326.671C436.547 326.671 387.059 325.953 336.779 327.067C327.319 327.274 325.789 331.959 326.092 336.045L326.129 390.94C326.429 394.93 331.672 398.421 340.911 398.684C364.787 399.371 400.913 399.394 430.509 399.457Z" fill="#DFE2EA"></path><path d="M521.121 325.498C520.737 325.498 520.363 325.378 520.051 325.156C519.738 324.933 519.503 324.619 519.377 324.256C519.251 323.894 519.241 323.501 519.348 323.133C519.455 322.764 519.675 322.438 519.975 322.2L536.46 309.15C536.845 308.846 537.334 308.707 537.821 308.765C538.308 308.822 538.752 309.07 539.056 309.455C539.36 309.84 539.499 310.33 539.442 310.817C539.384 311.304 539.136 311.749 538.751 312.053L522.266 325.099C521.94 325.357 521.537 325.498 521.121 325.498Z" fill="#1A1E22"></path><path d="M502.673 314.473C502.507 314.472 502.342 314.45 502.181 314.406C501.71 314.276 501.309 313.963 501.068 313.538C500.826 313.112 500.763 312.608 500.892 312.136L507.599 287.729C507.729 287.256 508.041 286.854 508.467 286.611C508.894 286.369 509.399 286.305 509.872 286.435C510.344 286.565 510.746 286.878 510.989 287.304C511.232 287.731 511.295 288.236 511.165 288.709L504.454 313.116C504.347 313.506 504.114 313.85 503.792 314.095C503.471 314.34 503.077 314.473 502.673 314.473Z" fill="#1A1E22"></path><path d="M494.706 374.717H455.106C454.616 374.717 454.147 374.523 453.8 374.176C453.454 373.829 453.259 373.359 453.259 372.868C453.259 372.378 453.454 371.908 453.8 371.561C454.147 371.214 454.616 371.02 455.106 371.02H494.706C495.196 371.02 495.666 371.214 496.013 371.561C496.359 371.908 496.554 372.378 496.554 372.868C496.554 373.359 496.359 373.829 496.013 374.176C495.666 374.523 495.196 374.717 494.706 374.717Z" fill="#1A1E22"></path><path d="M438.263 374.717H398.663C398.173 374.717 397.703 374.523 397.357 374.176C397.01 373.829 396.815 373.359 396.815 372.868C396.815 372.378 397.01 371.908 397.357 371.561C397.703 371.214 398.173 371.02 398.663 371.02H438.263C438.753 371.02 439.223 371.214 439.569 371.561C439.916 371.908 440.111 372.378 440.111 372.868C440.111 373.359 439.916 373.829 439.569 374.176C439.223 374.523 438.753 374.717 438.263 374.717Z" fill="#1A1E22"></path><path d="M381.819 374.717H342.216C341.726 374.717 341.256 374.523 340.909 374.176C340.563 373.829 340.368 373.359 340.368 372.868C340.368 372.378 340.563 371.908 340.909 371.561C341.256 371.214 341.726 371.02 342.216 371.02H381.819C382.309 371.02 382.779 371.214 383.126 371.561C383.472 371.908 383.667 372.378 383.667 372.868C383.667 373.359 383.472 373.829 383.126 374.176C382.779 374.523 382.309 374.717 381.819 374.717Z" fill="#1A1E22"></path><path d="M379.24 441.295C376.602 451.305 378.793 462.495 388.597 472.331C405.256 489.046 439.201 483.817 449.5 462.347C460.827 438.721 438.078 411.615 413.304 413.205C397.614 414.2 383.264 426.082 379.24 441.295Z" fill="white"></path><path d="M414.306 484.08C403.759 484.08 394.022 480.382 387.285 473.637C377.858 464.182 374.351 452.526 377.448 440.826C381.668 424.803 396.697 412.408 413.182 411.346C426.364 410.496 440.011 417.555 447.948 429.322C455.165 440.02 456.337 452.341 451.163 463.135C446.149 473.593 435.303 481.174 422.151 483.411C419.559 483.855 416.935 484.079 414.306 484.08ZM381.021 441.769C378.287 452.149 381.442 462.536 389.89 471.027C397.425 478.585 409.25 481.854 421.523 479.765C433.492 477.727 443.325 470.912 447.819 461.534C452.412 451.957 451.337 440.97 444.863 431.393C437.642 420.691 425.296 414.268 413.393 415.037C398.449 415.998 384.824 427.24 380.995 441.769H381.021Z" fill="#1A1E22"></path><path d="M413.699 459.6C413.3 459.6 412.911 459.47 412.591 459.23L393.659 445.337C393.464 445.193 393.298 445.013 393.173 444.805C393.047 444.597 392.963 444.367 392.927 444.127C392.89 443.887 392.901 443.642 392.959 443.406C393.017 443.17 393.12 442.948 393.264 442.752C393.407 442.557 393.588 442.391 393.796 442.265C394.003 442.14 394.234 442.056 394.474 442.019C394.713 441.982 394.958 441.993 395.194 442.051C395.429 442.109 395.651 442.213 395.847 442.357L413.518 455.325C420.852 448.26 428.559 441.594 436.607 435.356C436.995 435.056 437.486 434.922 437.972 434.983C438.459 435.045 438.901 435.298 439.201 435.686C439.502 436.073 439.636 436.565 439.574 437.052C439.512 437.539 439.26 437.981 438.872 438.282C430.521 444.753 422.541 451.692 414.971 459.064C414.632 459.4 414.176 459.592 413.699 459.6Z" fill="#1A1E22"></path><path d="M159.383 419.735C172.505 419.791 243.593 421.048 275.259 415.15C281.441 414 279.642 402.033 279.642 378.689C279.642 298.951 279.941 183.048 273.966 172.054C269.324 163.512 264.055 163.179 244.48 163.179C168.462 163.179 94.2331 160.653 18.8102 164.577C4.61991 165.316 2.32503 181.827 2.78326 196.231L2.83875 389.753C3.28589 403.805 11.146 416.115 24.9889 417.051C60.7639 419.469 114.979 419.55 159.383 419.735Z" fill="white"></path><path d="M185.036 421.734C176.44 421.734 169.212 421.667 164.342 421.623C162.246 421.623 160.565 421.59 159.368 421.586L151.678 421.553C108.072 421.379 58.65 421.183 24.8556 418.898C17.7679 418.421 11.7332 415.152 7.40963 409.446C3.50361 404.291 1.2236 397.32 0.987093 389.814C0.985265 389.795 0.985265 389.777 0.987093 389.758L0.931608 196.262C0.647063 187.254 1.53771 179.991 3.57386 174.622C6.4341 167.104 11.5263 163.103 18.725 162.73C72.9031 159.912 127.584 160.43 180.465 160.929C201.392 161.125 223.032 161.332 244.491 161.332C264.487 161.332 270.481 161.75 275.599 171.172C281.086 181.267 281.511 266.182 281.511 367.778V378.69C281.511 383.442 281.585 387.743 281.652 391.541C281.781 398.936 281.885 404.801 281.316 408.862C280.88 411.968 279.837 416.187 275.621 416.971C253.556 421.072 212.415 421.73 185.036 421.734ZM4.70098 389.725C5.09269 401.754 11.5559 414.29 25.1291 415.207C58.8052 417.485 108.164 417.681 151.715 417.855L159.405 417.888C160.606 417.888 162.294 417.907 164.397 417.925C184.663 418.106 246.346 418.665 274.937 413.336C275.606 413.21 277.007 412.966 277.65 408.348C278.178 404.576 278.078 398.851 277.949 391.603C277.883 387.795 277.809 383.468 277.809 378.69V367.774C277.809 327.567 277.809 281.983 277.118 244.264C276.112 190.7 273.973 175.913 272.358 172.936C268.378 165.61 264.498 165.026 244.495 165.026C223.017 165.026 201.369 164.819 180.435 164.623C127.591 164.124 72.9844 163.61 18.9208 166.42C13.2521 166.716 9.3682 169.826 7.04749 175.935C5.1998 180.834 4.37573 187.642 4.64549 196.17V196.225L4.70098 389.725Z" fill="#1A1E22"></path><path d="M156.12 224.854C132.603 218.985 106.317 223.859 83.21 245.665C43.9502 282.718 56.2337 358.218 106.698 381.123C162.199 406.313 222.656 355.715 218.912 300.62C216.54 265.719 191.903 233.792 156.12 224.854Z" fill="#DFE2EA"></path><path d="M141.043 329.519C135.466 329.519 130.751 322.46 130.241 313.249C129.912 307.299 131.416 301.863 134.269 298.709C135.773 297.041 137.595 296.12 139.524 296.028C140.991 295.978 142.439 296.381 143.67 297.181C143.876 297.31 144.054 297.478 144.195 297.676C144.336 297.874 144.436 298.098 144.491 298.335C144.545 298.571 144.552 298.817 144.512 299.056C144.472 299.296 144.385 299.525 144.256 299.731C144.127 299.937 143.959 300.115 143.761 300.256C143.563 300.397 143.34 300.498 143.103 300.552C142.866 300.607 142.621 300.614 142.382 300.573C142.143 300.533 141.913 300.446 141.708 300.317C141.113 299.914 140.408 299.706 139.69 299.722C138.751 299.762 137.842 300.258 137.007 301.201C134.838 303.601 133.659 308.142 133.933 313.056C134.273 319.235 137.343 325.999 141.172 325.833C142.11 325.792 143.02 325.296 143.855 324.353C146.024 321.953 147.203 317.409 146.929 312.498C146.902 312.008 147.071 311.527 147.399 311.161C147.726 310.795 148.185 310.574 148.675 310.547C149.165 310.52 149.646 310.689 150.012 311.017C150.377 311.345 150.598 311.804 150.625 312.295C150.954 318.244 149.45 323.68 146.597 326.835C145.093 328.502 143.271 329.423 141.342 329.516L141.043 329.519Z" fill="#1A1E22"></path><path d="M110.647 313.858C110.157 313.858 109.687 313.663 109.341 313.316C108.994 312.969 108.8 312.499 108.8 312.009C108.8 303.185 111.058 294.873 115.33 287.972C115.453 287.758 115.619 287.572 115.816 287.423C116.014 287.274 116.239 287.166 116.479 287.106C116.718 287.046 116.968 287.035 117.212 287.073C117.456 287.111 117.69 287.197 117.9 287.328C118.11 287.458 118.292 287.629 118.435 287.83C118.578 288.032 118.679 288.26 118.732 288.502C118.786 288.743 118.79 288.993 118.745 289.236C118.7 289.479 118.607 289.711 118.471 289.917C114.616 296.141 112.495 303.969 112.495 312.005C112.496 312.248 112.448 312.489 112.356 312.714C112.263 312.938 112.127 313.143 111.955 313.315C111.784 313.487 111.58 313.623 111.355 313.716C111.131 313.81 110.89 313.858 110.647 313.858Z" fill="#1A1E22"></path><path d="M139.228 349.202C124.587 349.202 112.673 337.797 109.587 320.82C109.5 320.338 109.607 319.84 109.886 319.437C110.165 319.034 110.593 318.758 111.075 318.67C111.557 318.582 112.054 318.69 112.457 318.969C112.86 319.248 113.136 319.676 113.224 320.159C115.981 335.32 126.431 345.504 139.228 345.504C146.383 345.504 153.053 342.176 158.016 336.156C163.141 329.925 165.964 321.364 165.964 312.008C165.964 292.661 153.973 276.919 139.228 276.919C134.713 276.969 130.324 278.415 126.664 281.061C126.263 281.343 125.767 281.455 125.283 281.371C124.8 281.287 124.37 281.014 124.088 280.613C123.806 280.212 123.694 279.715 123.778 279.232C123.862 278.748 124.135 278.318 124.535 278.036C128.824 274.949 133.964 273.27 139.247 273.229C156.027 273.229 169.678 290.631 169.678 312.016C169.678 322.211 166.556 331.615 160.887 338.515C155.218 345.415 147.499 349.202 139.228 349.202Z" fill="#1A1E22"></path><path d="M181.074 353.056C180.706 353.056 180.346 352.946 180.041 352.739C179.735 352.533 179.499 352.24 179.361 351.899C179.223 351.557 179.19 351.182 179.267 350.821C179.344 350.461 179.527 350.131 179.792 349.876C187.434 342.506 190.919 328.583 190.919 318.769C190.919 318.278 191.113 317.808 191.46 317.461C191.806 317.115 192.276 316.92 192.766 316.92C193.257 316.92 193.727 317.115 194.073 317.461C194.42 317.808 194.614 318.278 194.614 318.769C194.543 324.644 193.607 330.477 191.835 336.079C189.648 342.975 186.373 348.652 182.357 352.538C182.012 352.87 181.553 353.056 181.074 353.056Z" fill="#1A1E22"></path><path d="M190.25 300.261C189.84 300.261 189.441 300.123 189.117 299.871C188.793 299.618 188.563 299.265 188.462 298.867C185.176 285.95 178.573 274.376 169.863 266.278C160.935 257.972 150.34 253.583 139.228 253.583C118.826 253.583 100.278 268.785 91.9749 292.314C91.8118 292.777 91.4717 293.155 91.0295 293.367C90.5874 293.578 90.0794 293.606 89.6173 293.442C89.1552 293.279 88.7768 292.939 88.5655 292.496C88.3541 292.054 88.327 291.545 88.4902 291.083C97.3222 266.056 117.24 249.885 139.228 249.885C151.29 249.885 162.756 254.618 172.379 263.567C181.736 272.272 188.535 284.161 192.042 297.957C192.162 298.432 192.089 298.935 191.839 299.356C191.589 299.777 191.182 300.081 190.708 300.202C190.559 300.242 190.405 300.262 190.25 300.261Z" fill="#1A1E22"></path><path d="M101.195 352.516C100.761 352.517 100.342 352.365 100.009 352.087C95.7737 348.544 91.3799 340.842 88.2499 331.482C85.0645 321.949 83.7933 312.734 84.7578 306.2C84.8298 305.714 85.0916 305.277 85.4856 304.985C85.8795 304.693 86.3735 304.569 86.8586 304.641C87.3437 304.713 87.7804 304.975 88.0725 305.37C88.3646 305.764 88.4883 306.258 88.4162 306.743C86.5944 319.05 94.2918 342.487 102.381 349.247C102.673 349.491 102.883 349.818 102.982 350.185C103.081 350.552 103.064 350.941 102.934 351.298C102.805 351.655 102.568 351.964 102.257 352.182C101.946 352.4 101.575 352.517 101.195 352.516Z" fill="#1A1E22"></path><path d="M87.4071 228.462C87.013 228.461 86.6293 228.335 86.3122 228.1C85.9951 227.866 85.7611 227.537 85.6445 227.16L77.2559 200.165C77.1831 199.933 77.1567 199.689 77.1781 199.447C77.1995 199.205 77.2684 198.97 77.3807 198.754C77.4931 198.539 77.6469 198.348 77.8331 198.192C78.0193 198.035 78.2345 197.918 78.4662 197.845C78.6979 197.772 78.9417 197.746 79.1836 197.767C79.4255 197.788 79.6609 197.857 79.8762 197.97C80.0915 198.082 80.2826 198.236 80.4386 198.422C80.5945 198.609 80.7122 198.824 80.785 199.056L89.1735 226.051C89.2456 226.282 89.2714 226.526 89.2493 226.768C89.2272 227.01 89.1578 227.245 89.0449 227.46C88.932 227.675 88.7778 227.866 88.5913 228.021C88.4048 228.176 88.1895 228.293 87.9577 228.365C87.7799 228.424 87.5943 228.457 87.4071 228.462Z" fill="#1A1E22"></path><path d="M70.5014 241.726C70.1017 241.726 69.7127 241.596 69.3928 241.356L49.0387 226.317C48.6917 226.01 48.4723 225.584 48.4241 225.124C48.3759 224.663 48.5023 224.201 48.7783 223.829C49.0543 223.457 49.4597 223.202 49.9144 223.115C50.3692 223.028 50.84 223.115 51.2337 223.359L71.588 238.402C71.8982 238.634 72.1273 238.959 72.243 239.329C72.3586 239.7 72.3548 240.097 72.2322 240.465C72.1096 240.834 71.8743 241.154 71.5597 241.381C71.2451 241.608 70.8671 241.73 70.4793 241.73L70.5014 241.726Z" fill="#1A1E22"></path><path d="M371.206 259.306C384.329 259.361 455.42 260.622 487.086 254.724C493.269 253.57 491.465 241.608 491.465 218.263C491.465 138.525 491.764 22.622 485.793 11.6282C481.148 3.08232 475.882 2.75321 456.304 2.75321C380.286 2.75321 306.056 0.227549 230.637 4.15102C216.447 4.89059 214.152 21.4017 214.61 35.805L214.666 229.331C215.109 243.383 222.969 255.693 236.812 256.628C272.591 259.025 326.813 259.102 371.206 259.306Z" fill="white"></path><path d="M396.859 261.285C388.267 261.285 381.036 261.222 376.165 261.178L371.191 261.137L363.501 261.107C319.895 260.934 270.477 260.738 236.683 258.452C229.591 257.972 223.56 254.703 219.237 248.997C215.331 243.846 213.047 236.875 212.81 229.368V229.309L212.755 35.8131C212.47 26.8087 213.357 19.5424 215.393 14.1767C218.254 6.6589 223.346 2.65778 230.545 2.2843C284.719 -0.5335 339.4 -0.0158044 392.281 0.483411C413.208 0.6794 434.848 0.882791 456.307 0.882791C476.306 0.882791 482.297 1.30435 487.418 10.7266C492.902 20.8181 493.331 105.729 493.331 207.318V218.26C493.331 223.012 493.409 227.312 493.475 231.11C493.605 238.506 493.704 244.371 493.139 248.431C492.703 251.537 491.639 255.757 487.441 256.537C465.394 260.627 424.238 261.285 396.859 261.285ZM216.524 229.28C216.916 241.305 223.379 253.845 236.949 254.762C270.625 257.04 319.988 257.236 363.534 257.409L371.224 257.439L376.217 257.48C396.486 257.661 458.166 258.219 486.757 252.887C487.43 252.761 488.826 252.517 489.469 247.902C489.998 244.13 489.898 238.406 489.772 231.162C489.706 227.349 489.628 223.026 489.628 218.245V207.318C489.628 167.111 489.628 121.527 488.934 83.8081C487.928 30.2478 485.792 15.4599 484.174 12.4831C480.194 5.16125 476.317 4.57329 456.311 4.57329C434.833 4.57329 413.185 4.3699 392.251 4.17391C339.407 3.6747 284.804 3.157 230.74 5.9711C225.072 6.26323 221.188 9.37686 218.863 15.4821C217.016 20.3818 216.192 27.1896 216.461 35.717C216.461 35.7391 216.461 35.7576 216.461 35.7761L216.524 229.28Z" fill="#1A1E22"></path><path d="M287.428 105.57C286.12 105.57 284.841 134.022 284.782 136.585C284.25 163.579 289.323 191.609 311.832 209.063C331.577 224.373 358.531 226.994 381.509 217.898C405.843 208.261 416.463 189.239 420 164.308C422.184 148.928 421.774 123.501 420.307 105.933L287.428 105.57Z" fill="#79D379"></path><path d="M389.299 108.182C388.822 108.182 388.364 107.998 388.019 107.668C387.675 107.338 387.471 106.888 387.451 106.411C387.333 103.556 387.274 100.594 387.218 97.4581C386.93 82.1451 386.601 64.7909 378.394 53.2978C369.285 40.5364 358.635 39.2458 351.303 40.4292C337.379 42.6479 323.687 55.7532 318.75 71.5581C315.273 82.6924 314.715 94.5738 314.63 105.76C314.63 106.25 314.435 106.721 314.089 107.067C313.742 107.414 313.272 107.609 312.782 107.609C312.292 107.609 311.822 107.414 311.476 107.067C311.129 106.721 310.935 106.25 310.935 105.76C311.02 94.2964 311.6 82.0934 315.225 70.4857C317.921 62.05 322.673 54.4186 329.053 48.2798C335.513 42.0858 343.206 38.0107 350.719 36.8163C362.544 34.923 373.435 40.0261 381.391 51.1827C390.26 63.6113 390.603 81.5757 390.899 97.4285C390.958 100.542 391.014 103.482 391.132 106.303C391.152 106.793 390.977 107.27 390.646 107.63C390.315 107.991 389.854 108.205 389.365 108.226L389.299 108.182Z" fill="#1A1E22"></path><path d="M364.98 180.431C355.294 181.282 347.486 181.045 337.785 180.368C340.254 173.268 343.727 163.517 347.271 155.593C342.763 151.603 340.956 143.574 345.527 139.651C350.098 135.727 357.722 136.264 360.985 141.333C361.748 142.534 362.247 143.884 362.446 145.294C362.646 146.703 362.542 148.139 362.141 149.504C361.741 150.87 361.054 152.134 360.125 153.212C359.196 154.291 358.048 155.158 356.757 155.755C359.529 162.423 364.98 180.431 364.98 180.431Z" fill="#1A1E22"></path></svg>