<svg xmlns="http://www.w3.org/2000/svg" width="838" height="668" viewBox="0 0 838 668" fill="none"><g clip-path="url(#clip0_587_8011)"><path d="M49.3244 467.354C59.2454 490.185 84.3648 547.999 144.047 583.815C182.76 607.05 228.526 609.621 318.473 613.799C400.934 617.631 450.719 619.948 518.317 608.034C610.654 591.757 660.488 582.973 701.816 542.984C785.92 461.604 769.214 314.459 740.105 230.965C730.525 203.494 704.128 130.664 635.881 76.0537C484.55 -45.033 194.491 -22.8256 77.8874 151.971C17.7129 242.208 6.54331 368.894 49.3244 467.354Z" fill="url(#paint0_linear_587_8011)"></path><path d="M457.333 429.897H177.824C169.972 429.897 163.606 436.252 163.606 444.091V562.577C163.606 570.416 169.972 576.77 177.824 576.77H457.333C465.185 576.77 471.551 570.416 471.551 562.577V444.091C471.551 436.252 465.185 429.897 457.333 429.897Z" fill="white"></path><path d="M276.409 543.901C299.038 521.311 299.038 484.687 276.409 462.098C253.78 439.508 217.091 439.508 194.461 462.097C171.832 484.687 171.832 521.311 194.461 543.901C217.091 566.49 253.78 566.49 276.409 543.901Z" fill="#F1F3FD"></path><path d="M209.835 520.114C209.835 520.114 188.798 523.523 183.911 529.229L174.38 550.39C176.785 552.795 179.258 555.19 181.746 557.469L200.768 557.956L209.835 520.114Z" fill="#F9E0D2"></path><path d="M260.391 524.58L229.926 514.53L197.388 523.577C194.52 535.9 191.871 549.382 189.72 563.989C198.797 570.46 208.889 574.161 220.898 570.562C224.487 569.54 228.077 564.929 232.179 563.395C235.769 561.857 239.871 563.395 243.466 562.908C251.158 561.881 258.338 558.298 265.518 555.741C268.29 554.624 271.245 554.028 274.234 553.984C273.382 548.202 272.434 542.592 271.39 537.152C270.849 534.266 269.543 531.579 267.609 529.368C265.675 527.157 263.182 525.504 260.391 524.58Z" fill="#F9E0D2"></path><path d="M288.35 554.466L282.467 538.398C281.068 534.545 278.234 531.38 274.556 529.561C266.849 525.763 255.694 523.109 255.694 523.109L261.318 557.299C262.723 556.749 264.123 556.214 265.518 555.717C272.98 552.557 280.746 554.524 288.35 554.466Z" fill="#F9E0D2"></path><path d="M221.712 493.375L220.195 517.486L223.892 519.735C225.784 520.888 227.964 521.484 230.18 521.454C232.396 521.424 234.559 520.769 236.418 519.565L239.345 517.666L236.74 492.508L221.712 493.375Z" fill="#FB9C98"></path><path d="M240.969 475.52C242.325 475.822 243.561 476.517 244.522 477.518C245.483 478.52 246.125 479.783 246.368 481.149C246.856 483.938 247.637 487.283 248.695 488.992C248.827 489.199 248.911 489.433 248.942 489.677C248.972 489.92 248.948 490.167 248.871 490.4C248.794 490.633 248.666 490.846 248.496 491.024C248.327 491.201 248.12 491.339 247.89 491.427L245.759 492.201C245.759 492.201 247.71 500.094 245.349 503.857C242.988 507.621 231.321 505.868 231.321 505.868C231.321 505.868 224.849 502.304 222.6 499.018C220.351 495.731 216.591 487.897 220.829 482.643C225.068 477.39 232.536 473.611 232.536 473.611L240.969 475.52Z" fill="#F6A19E"></path><path d="M238.271 507.202C238.271 507.202 228.697 507.299 226.043 503.02" stroke="#F26D6D" stroke-width="3.92" stroke-miterlimit="10"></path><path d="M220.083 493.52C215.128 491.5 213.23 485.189 214.952 481.231C217.108 476.289 224.351 476.328 226.073 479.191C227.609 481.752 225.58 487.989 220.083 493.52Z" fill="#2E3192"></path><path d="M242.925 468.099C238.735 466.575 235.233 465.577 231.272 466.069C225.297 466.809 219.517 473.066 220.576 476.975C221.366 479.897 225.78 480.992 228.38 481.635C234.721 483.213 243.925 482.414 248.378 476.206C249.332 474.866 250.027 473.36 250.427 471.766C248.061 470.286 245.546 469.057 242.925 468.099Z" fill="#2E3192"></path><path d="M457.333 87.5928H177.824C169.972 87.5928 163.606 93.9472 163.606 101.786V220.273C163.606 228.111 169.972 234.466 177.824 234.466H457.333C465.185 234.466 471.551 228.111 471.551 220.273V101.786C471.551 93.9472 465.185 87.5928 457.333 87.5928Z" fill="white"></path><path d="M342.173 148.28H428.848" stroke="#D3D5FC" stroke-width="12.67" stroke-linecap="round" stroke-linejoin="round"></path><path d="M312.06 163.131H428.848" stroke="#D3D5FC" stroke-width="12.67" stroke-linecap="round" stroke-linejoin="round"></path><path d="M299.958 189.394L304.484 198.781L314.83 200.178L307.284 207.38L309.147 217.629L299.958 212.692L290.769 217.629L292.632 207.38L285.086 200.178L295.432 198.781L299.958 189.394Z" fill="#404EED"></path><path d="M335.203 189.394L339.735 198.781L350.075 200.178L342.529 207.38L344.397 217.629L335.203 212.692L326.014 217.629L327.882 207.38L320.336 200.178L330.677 198.781L335.203 189.394Z" fill="#404EED"></path><path d="M370.454 189.394L374.98 198.781L385.325 200.178L377.78 207.38L379.643 217.629L370.454 212.692L361.264 217.629L363.128 207.38L355.582 200.178L365.927 198.781L370.454 189.394Z" fill="#404EED"></path><path d="M405.699 189.394L410.225 198.781L420.571 200.178L413.025 207.38L414.888 217.629L405.699 212.692L396.51 217.629L398.378 207.38L390.832 200.178L401.172 198.781L405.699 189.394Z" fill="#404EED"></path><path d="M440.949 189.394L445.475 198.781L455.816 200.178L448.27 207.38L450.138 217.629L440.949 212.692L431.755 217.629L433.623 207.38L426.077 200.178L436.422 198.781L440.949 189.394Z" fill="#404EED"></path><path d="M457.333 258.742H177.824C169.972 258.742 163.606 265.097 163.606 272.935V391.422C163.606 399.261 169.972 405.615 177.824 405.615H457.333C465.185 405.615 471.551 399.261 471.551 391.422V272.935C471.551 265.097 465.185 258.742 457.333 258.742Z" fill="white"></path><path d="M365.82 319.43H428.848" stroke="#D3D5FC" stroke-width="12.67" stroke-linecap="round" stroke-linejoin="round"></path><path d="M346.739 334.28H428.848" stroke="#D3D5FC" stroke-width="12.67" stroke-linecap="round" stroke-linejoin="round"></path><path d="M299.958 360.548L304.484 369.935L314.83 371.328L307.284 378.529L309.147 388.778L299.958 383.841L290.769 388.778L292.632 378.529L285.086 371.328L295.432 369.935L299.958 360.548Z" fill="#404EED"></path><path d="M335.203 360.548L339.735 369.935L350.075 371.328L342.529 378.529L344.397 388.778L335.203 383.841L326.014 388.778L327.882 378.529L320.336 371.328L330.677 369.935L335.203 360.548Z" fill="#404EED"></path><path d="M370.454 360.548L374.98 369.935L385.325 371.328L377.78 378.529L379.643 388.778L370.454 383.841L361.264 388.778L363.128 378.529L355.582 371.328L365.927 369.935L370.454 360.548Z" fill="#404EED"></path><path d="M405.699 360.548L410.225 369.935L420.571 371.328L413.025 378.529L414.888 388.778L405.699 383.841L396.51 388.778L398.378 378.529L390.832 371.328L401.172 369.935L405.699 360.548Z" fill="#404EED"></path><path d="M440.949 360.548L445.475 369.935L455.816 371.328L448.27 378.529L450.138 388.778L440.949 383.841L431.755 388.778L433.623 378.529L426.077 371.328L436.422 369.935L440.949 360.548Z" fill="#D3D5FC"></path><path d="M235.438 217.624C266.75 217.624 292.134 192.284 292.134 161.027C292.134 129.769 266.75 104.43 235.438 104.43C204.125 104.43 178.741 129.769 178.741 161.027C178.741 192.284 204.125 217.624 235.438 217.624Z" fill="#F1F3FD"></path><path d="M227.721 208.349C232.009 199.068 241.983 201.6 248.485 190.971C250.7 187.358 249.5 187.125 253.046 169.548C255.582 156.952 256.85 153.845 257.04 150.491C257.085 149.544 257.064 148.596 256.977 147.652C256.855 146.104 256.094 136.069 249.309 130.26C242.525 124.451 231.716 124.563 224.478 128.556C215.342 133.595 212.772 144.351 210.952 151.927C208.343 162.843 211.357 165.127 208.026 171.062C202.573 180.766 192.608 178.059 187.94 186.239C182.516 195.748 189.559 210.584 196.788 218.661C198.109 220.131 199.532 221.508 201.046 222.78C209.928 225.989 219.859 227.367 228.916 227.771C228.98 223.131 224.195 215.983 227.721 208.349Z" fill="#191245"></path><path d="M283.648 199.409L264.586 205.422C264.586 205.422 267.464 211.84 271.176 219.771C276.975 217.751 282.726 215.628 288.393 213.296C285.779 205.515 283.648 199.409 283.648 199.409Z" fill="#FFEBE1"></path><path d="M236.472 228.735C238.98 229.597 241.705 229.597 244.213 228.735C253.88 225.522 263.542 222.474 273.059 219.114C272.537 209.469 270.459 195.256 266.645 179.291L255.997 177.163L219.352 176.491C215.357 177.752 211.991 178.439 207.845 180.002C202.924 197.043 203.368 210.189 204.821 219.309C205.09 220.984 205.412 222.644 205.753 224.29C214.459 226.754 223.8 227.698 232.17 227.878C233.458 227.878 235.179 228.735 236.472 228.735Z" fill="#FFEBE1"></path><path d="M227.585 168.32L227.556 151.479L241.701 150.821L242.539 168.866C243.027 172.118 247.095 174.562 250.256 175.488L255.972 177.153C255.553 182.168 250.841 193.707 245.978 194.632C236.755 196.351 224.727 181.126 219.327 176.481C222.771 175.41 227.487 171.904 227.585 168.32Z" fill="#F6A19E"></path><path d="M227.98 156.718L227.141 153.558L242.442 155.754L242.481 167.984C240.471 168.009 238.477 167.614 236.628 166.826C230.453 164.157 228.36 157.92 227.98 156.718Z" fill="#F26D6D"></path><path d="M218.615 215.954C219.249 216.577 227.428 222.493 238.179 217.249" stroke="#FFC5AE" stroke-width="3.76" stroke-miterlimit="10"></path><path d="M242.959 132.373C245.013 133.852 246.787 135.684 248.198 137.783C252.587 144.326 251.812 151.24 251.612 152.876C251.224 155.645 250.313 158.315 248.929 160.745C248.357 161.757 247.493 162.573 246.448 163.087C245.404 163.6 244.229 163.787 243.076 163.622C240.969 163.319 238.879 162.91 236.813 162.395C233.846 161.66 230.938 160.707 228.112 159.542C227.368 157.347 226.855 155.08 226.58 152.779C226.336 150.719 225.805 145.923 227.039 142.345C229.604 134.851 241.042 132.709 242.959 132.373Z" fill="#F6A19E"></path><path d="M246.017 128.702C248.139 131.429 241.32 138.479 240.652 139.17C234.828 145.111 224.78 149.785 221.405 147.272C218.922 145.427 220.371 139.969 222.717 136.483C228.424 128.055 243.515 125.474 246.017 128.702Z" fill="#191245"></path><path d="M223.624 147.759C223.585 146.537 224.517 145.081 225.956 144.95C227.395 144.818 228.497 146.099 228.775 147.277C229.053 148.455 228.57 149.975 227.526 150.447C226.048 151.109 223.693 149.629 223.624 147.759Z" fill="#F6A19E"></path><path d="M247.934 156.533C247.758 156.845 246.714 158.69 244.915 158.968C243.115 159.245 241.559 157.731 241.349 157.478C242.168 157.614 243.009 157.535 243.788 157.249C244.539 156.976 244.827 156.655 245.529 156.441C246.32 156.212 247.163 156.244 247.934 156.533Z" fill="white"></path><path d="M283.648 199.409L275.809 184.286C274.62 182.362 272.897 180.824 270.85 179.857C268.802 178.891 266.518 178.539 264.274 178.842L266.84 206.07L283.648 199.409Z" fill="#FFEBE1"></path><path d="M189.013 208.665C189.013 208.665 188.486 211.464 187.701 215.7C192.886 219.674 199.168 222.434 205.821 224.309C209.723 209.804 213.138 196.205 213.138 196.205L189.013 208.665Z" fill="#FFEBE1"></path><path d="M213.962 192.402L207.846 180.006C204.786 180.711 201.94 182.141 199.551 184.175C197.161 186.209 195.297 188.787 194.115 191.691L189.013 208.665L212.104 211.391L213.962 192.402Z" fill="#FFEBE1"></path><path d="M257.23 220.234C263.464 220.891 267.054 219.036 269.122 216.708C270.259 215.401 271.041 213.824 271.393 212.128C271.746 210.433 271.658 208.676 271.136 207.024L268.873 199.657" stroke="#FFC5AE" stroke-width="3.76" stroke-miterlimit="10"></path><path d="M235.438 390.025C267.44 390.025 293.383 364.127 293.383 332.181C293.383 300.235 267.44 274.338 235.438 274.338C203.435 274.338 177.492 300.235 177.492 332.181C177.492 364.127 203.435 390.025 235.438 390.025Z" fill="#F1F3FD"></path><path d="M202.67 347.796C200.012 348.414 182.897 373.835 182.185 376.469C181.712 378.071 181.135 379.641 180.458 381.168C187.019 384.887 194.069 387.673 201.402 389.445L208.411 346.472L202.67 347.796Z" fill="#404EED"></path><path d="M215.381 344.52C215.381 344.52 197.256 347.441 193.047 352.373L182.189 376.47L207.553 377.122L215.381 344.52Z" fill="#9087F4"></path><path d="M268.42 359.185C267.947 356.706 266.819 354.398 265.153 352.5C263.487 350.602 261.343 349.183 258.943 348.39L232.692 339.709L204.656 347.499C201.797 359.789 199.193 373.432 197.208 388.297C203.084 390.044 209.137 391.133 215.255 391.544C216.015 391.544 217.542 392.304 217.923 392.304C232.409 393.068 246.13 394.208 260.996 391.924C265.191 391.164 267.859 386.977 271.673 385.073C271.898 384.986 272.122 384.898 272.351 384.82C272.205 383.544 272.054 382.269 271.893 380.978C270.917 373.388 269.747 366.113 268.42 359.185Z" fill="#9087F4"></path><path d="M268.215 353.342C267.332 351.827 265.926 350.686 264.26 350.133L244.93 343.755C240.613 347.041 239.077 351.545 242.598 357.675C246.847 365.11 248.417 378.266 248.515 393.136C252.693 392.964 256.858 392.565 260.992 391.938C265.186 391.179 267.854 386.991 271.669 385.088C271.893 385 272.117 384.912 272.347 384.835C272.2 383.559 272.049 382.283 271.888 380.993C270.644 371.245 272.727 360.981 268.215 353.342Z" fill="#9087F4"></path><path d="M276.6 356.531C272.756 351.331 254.895 347.08 254.895 347.08L260.338 380.165L279.902 381.08C281.443 379.99 282.906 378.865 284.34 377.701L276.6 356.531Z" fill="#9087F4"></path><path d="M221.981 319.118C217.269 316.941 215.908 311.547 217.918 308.46C220.43 304.599 227.556 305.368 229.019 307.905C230.326 310.173 227.834 315.111 221.981 319.118Z" fill="#191245"></path><path d="M225.614 321.479L224.307 342.255L227.497 344.203C229.127 345.195 231.004 345.708 232.913 345.682C234.821 345.656 236.684 345.093 238.286 344.057L240.818 342.421L238.574 320.744L225.614 321.479Z" fill="#FB9C98"></path><path d="M240.013 321.718L225.346 322.804V324.128C226.102 330.497 231.599 336.977 237.652 336.412C238.51 336.332 239.348 336.114 240.135 335.765L240.013 321.718Z" fill="#F26D6D"></path><path d="M238.052 305.392C242.832 307.228 244.451 311.897 244.973 313.406C247.115 319.6 245.885 329.474 239.52 331.826C233.545 334.041 225.863 328.593 223.6 321.99C221.971 317.219 222.649 310.305 227.556 306.809C229.057 305.737 230.799 305.048 232.628 304.801C234.457 304.554 236.319 304.757 238.052 305.392Z" fill="#F6A19E"></path><path d="M239.721 298.239C235.594 298.726 233.975 296.073 230.063 296.56C225.112 297.173 220.308 302.354 221.2 305.596C221.839 307.943 225.346 308.854 227.654 309.458C228.756 309.745 242.091 313.026 246.808 305.158C249.485 300.688 247.783 295.333 247.217 293.818C245.681 295.552 243.15 297.835 239.721 298.239Z" fill="#191245"></path><path d="M223.8 321.045C223.917 321.751 224.483 324.722 226.78 325.846C229.078 326.971 231.951 325.418 234.302 324.171C238.379 322.01 239.287 319.93 242.037 319.853C243.414 319.853 244.757 320.275 245.886 321.06C247.105 322.579 249.788 326.343 248.637 329.561C246.91 334.401 237.418 335.487 231.078 332.799C225.346 330.365 220.703 324.176 221.957 322.014C222.173 321.727 222.451 321.491 222.769 321.323C223.088 321.156 223.44 321.061 223.8 321.045Z" fill="#191245"></path><path d="M242.569 326.143C242.793 326.869 241.266 328.091 239.867 328.495C237.779 329.104 235.331 328.096 233.916 325.885C240.691 325.014 242.349 325.501 242.569 326.143Z" fill="white"></path><path d="M220.473 321.206C220.265 320.613 220.238 319.972 220.395 319.364C220.552 318.756 220.886 318.208 221.355 317.789C221.824 317.371 222.407 317.1 223.03 317.013C223.653 316.925 224.288 317.024 224.855 317.296C225.422 317.569 225.895 318.003 226.215 318.544C226.534 319.086 226.685 319.709 226.65 320.336C226.614 320.963 226.393 321.566 226.014 322.067C225.635 322.569 225.116 322.947 224.522 323.154C223.726 323.431 222.853 323.381 222.094 323.016C221.335 322.651 220.752 322 220.473 321.206Z" fill="#F6A19E"></path><path d="M314.83 490.584H428.848" stroke="#D3D5FC" stroke-width="12.67" stroke-linecap="round" stroke-linejoin="round"></path><path d="M327.336 505.435H428.848" stroke="#D3D5FC" stroke-width="12.67" stroke-linecap="round" stroke-linejoin="round"></path><path d="M299.958 531.697L304.484 541.085L314.83 542.482L307.284 549.678L309.147 559.932L299.958 554.995L290.769 559.932L292.632 549.678L285.086 542.482L295.432 541.085L299.958 531.697Z" fill="#404EED"></path><path d="M335.203 531.697L339.735 541.085L350.075 542.482L342.529 549.678L344.397 559.932L335.203 554.995L326.014 559.932L327.882 549.678L320.336 542.482L330.677 541.085L335.203 531.697Z" fill="#404EED"></path><path d="M370.454 531.697L374.98 541.085L385.325 542.482L377.78 549.678L379.643 559.932L370.454 554.995L361.264 559.932L363.128 549.678L355.582 542.482L365.927 541.085L370.454 531.697Z" fill="#404EED"></path><path d="M405.699 531.697L410.225 541.085L420.571 542.482L413.025 549.678L414.888 559.932L405.699 554.995L396.51 559.932L398.378 549.678L390.832 542.482L401.172 541.085L405.699 531.697Z" fill="#D3D5FC"></path><path d="M440.949 531.697L445.475 541.085L455.816 542.482L448.27 549.678L450.138 559.932L440.949 554.995L431.755 559.932L433.623 549.678L426.077 542.482L436.422 541.085L440.949 531.697Z" fill="#D3D5FC"></path><path d="M520.883 668C605.999 668 674.999 662.247 674.999 655.151C674.999 648.055 605.999 642.302 520.883 642.302C435.766 642.302 366.766 648.055 366.766 655.151C366.766 662.247 435.766 668 520.883 668Z" fill="#EFEEFE"></path><path d="M678.837 258.988L679.174 259.012L679.322 258.708L688.966 238.828L716.996 248.576L712.215 270.154L712.141 270.484L712.42 270.675C717.098 273.878 721.349 277.662 725.071 281.936L725.292 282.19L725.611 282.08L746.594 274.834L759.503 301.509L740.788 313.403L740.503 313.584L740.564 313.917C741.596 319.471 741.922 325.133 741.533 330.769L741.509 331.106L741.814 331.253L761.718 340.89L751.953 368.865L730.336 364.091L730.007 364.019L729.816 364.296C726.461 369.173 722.474 373.586 717.959 377.418L717.698 377.639L717.81 377.963L724.98 398.6L698.253 411.487L686.298 392.717L686.119 392.435L685.79 392.493C680.458 393.422 675.034 393.705 669.634 393.334L669.298 393.31L669.15 393.614L659.477 413.494L631.451 403.746L636.233 382.167L636.306 381.838L636.027 381.647C631.337 378.435 627.076 374.639 623.347 370.352L623.126 370.098L622.807 370.208L601.897 377.434L588.988 350.755L607.679 338.884L607.964 338.703L607.902 338.371C606.873 332.828 606.548 327.177 606.934 321.553L606.957 321.215L606.653 321.068L586.71 311.427L596.474 283.447L618.092 288.221L618.421 288.293L618.612 288.016C621.814 283.356 625.594 279.121 629.863 275.411L630.119 275.19L630.008 274.87L622.749 253.945L649.472 241.054L661.379 259.732L661.56 260.016L661.892 259.955C667.476 258.915 673.17 258.591 678.837 258.988ZM694.083 315.678C692.009 311.759 688.818 308.541 684.914 306.432C682.32 305.032 679.476 304.155 676.543 303.852C673.61 303.549 670.646 303.825 667.82 304.666C664.994 305.507 662.362 306.895 660.074 308.752C657.785 310.608 655.886 312.896 654.483 315.486C652.372 319.385 651.466 323.821 651.881 328.234C652.295 332.647 654.011 336.838 656.811 340.278C659.611 343.717 663.37 346.25 667.612 347.557C671.854 348.864 676.389 348.886 680.643 347.62C684.898 346.354 688.681 343.858 691.514 340.446C694.348 337.033 696.104 332.859 696.561 328.451C697.019 324.042 696.156 319.597 694.083 315.678Z" fill="#EFEEFE" stroke="#C5C2F9"></path><path d="M582.979 149.711L583.313 149.757L583.481 149.464L591.474 135.534L611.229 143.95L606.678 159.347L606.582 159.671L606.847 159.881C610.092 162.447 612.997 165.414 615.494 168.711L615.698 168.98L616.024 168.891L631.574 164.679L639.573 184.576L625.419 192.266L625.122 192.427L625.161 192.762C625.635 196.858 625.589 200.997 625.026 205.082L624.98 205.416L625.273 205.584L639.227 213.567L630.797 233.286L615.371 228.743L615.048 228.648L614.838 228.911C612.149 232.294 609.026 235.308 605.548 237.876L605.273 238.08L605.363 238.41L609.524 253.717L589.619 261.726L581.877 247.51L581.717 247.217L581.386 247.252C577.457 247.662 573.493 247.597 569.58 247.059L569.246 247.013L569.079 247.305L561.086 261.235L541.331 252.819L545.882 237.422L545.978 237.098L545.712 236.888C542.45 234.315 539.53 231.339 537.021 228.029L536.818 227.76L536.492 227.849L520.981 232.056L512.982 212.154L527.116 204.474L527.413 204.313L527.374 203.977C526.9 199.892 526.947 195.762 527.514 191.688L527.561 191.353L527.267 191.185L513.309 183.202L521.739 163.483L537.164 168.027L537.488 168.122L537.697 167.858C540.261 164.625 543.225 161.729 546.518 159.24L546.788 159.036L546.699 158.71L542.475 143.184L562.413 135.194L570.112 149.318L570.274 149.614L570.609 149.576C574.721 149.098 578.878 149.143 582.979 149.711ZM591.437 191.681C590.102 188.686 587.906 186.153 585.128 184.404C581.412 182.064 576.918 181.29 572.632 182.253C568.345 183.216 564.616 185.836 562.262 189.54C560.502 192.308 559.604 195.536 559.683 198.813C559.762 202.091 560.813 205.272 562.703 207.953C564.594 210.634 567.239 212.695 570.303 213.875C573.367 215.054 576.713 215.3 579.917 214.58C583.121 213.861 586.039 212.208 588.302 209.832C590.565 207.456 592.071 204.463 592.629 201.232C593.187 198.001 592.772 194.677 591.437 191.681Z" fill="#EFEEFE" stroke="#C5C2F9"></path><path d="M172.591 642.808C172.591 641.162 163.811 639.823 152.924 639.823C142.037 639.823 133.263 641.162 133.263 642.808C133.263 644.454 142.042 645.797 152.924 645.797C163.806 645.797 172.591 644.459 172.591 642.808Z" fill="#D3D5FC"></path><path d="M11.7143 536.835L11.7143 536.835C29.8168 570.222 67.5517 579.252 77.7645 581.321C79.4226 572.052 84.96 534.18 60.6319 505.794C53.1961 497.13 42.6285 488.95 32.4639 484.012C27.3818 481.542 22.423 479.895 18.0234 479.391C13.6213 478.886 9.83073 479.532 7.01853 481.581L11.7143 536.835ZM11.7143 536.835C6.79835 527.773 2.80614 515.955 1.47493 505.373M11.7143 536.835L1.47493 505.373M1.47493 505.373C0.809331 500.082 0.812254 495.125 1.68191 490.988M1.47493 505.373L1.68191 490.988M1.68191 490.988C2.55185 486.85 4.27782 483.579 7.01847 481.581L1.68191 490.988Z" stroke="#D3D5FC"></path><path d="M156.295 642.808C156.295 642.808 112.455 619.052 78.1657 581.912C43.8764 544.771 23.8687 507.202 23.8687 507.202" stroke="#BBB4F8" stroke-miterlimit="10"></path><path d="M55.4896 555.171L34.0283 549.475" stroke="#BBB4F8" stroke-miterlimit="10"></path><path d="M36.7354 527.949C37.4605 521.58 38.1889 515.213 38.9205 508.848" stroke="#BBB4F8" stroke-miterlimit="10"></path><path d="M70.8738 340.329L70.8738 340.329C75.7776 339.301 81.0561 340.645 86.4114 343.749C91.7653 346.853 97.1532 351.691 102.244 357.567C112.425 369.32 121.351 385.149 126.392 399.293C145.013 451.65 117.652 501.461 110.119 514.187C98.806 507.185 51.8346 476.229 44.7525 421.968C42.6005 405.481 44.0285 386.091 48.5801 370.293C50.8558 362.394 53.9055 355.418 57.6596 350.155C61.4151 344.891 65.8444 341.384 70.8738 340.329Z" stroke="#D3D5FC"></path><path d="M76.9951 380.564C76.9951 380.564 88.6184 449.801 110.289 514.88C131.96 579.959 154.641 642.774 154.641 642.774" stroke="#BBB4F8" stroke-miterlimit="10"></path><path d="M93.208 455.527C97.1101 442.319 101.012 429.108 104.914 415.894" stroke="#BBB4F8" stroke-miterlimit="10"></path><path d="M84.1208 417.087C82.4576 413.075 78.8872 410.217 75.4583 407.539L64.3618 398.877" stroke="#BBB4F8" stroke-miterlimit="10"></path><path d="M589.617 549.942H602.313L612.747 449.981H600.05L589.617 549.942Z" fill="#BBB4F8"></path><path d="M570.799 522.296H635.452C637.112 522.297 638.715 521.686 639.953 520.581C641.192 519.476 641.978 517.955 642.163 516.307L652.074 428.325C652.141 427.688 652.074 427.044 651.875 426.436C651.677 425.827 651.353 425.267 650.924 424.791C650.495 424.315 649.97 423.935 649.385 423.675C648.799 423.415 648.165 423.28 647.524 423.28H577.462C576.333 423.28 575.243 423.697 574.404 424.452C573.564 425.206 573.034 426.244 572.916 427.365L564.083 514.866C563.986 515.804 564.088 516.752 564.381 517.649C564.674 518.546 565.153 519.371 565.786 520.072C566.419 520.772 567.193 521.332 568.056 521.715C568.92 522.098 569.854 522.296 570.799 522.296Z" fill="#CDCDCD"></path><path d="M564.083 514.861L572.917 427.351C573.035 426.229 573.565 425.192 574.404 424.437C575.244 423.683 576.333 423.265 577.463 423.266H640.632C641.273 423.266 641.907 423.4 642.493 423.66C643.079 423.921 643.603 424.301 644.032 424.776C644.462 425.252 644.786 425.812 644.984 426.421C645.182 427.03 645.25 427.673 645.183 428.31L635.272 516.278C635.087 517.925 634.301 519.446 633.064 520.55C631.826 521.655 630.225 522.266 628.565 522.267H570.8C569.857 522.266 568.925 522.069 568.063 521.688C567.201 521.306 566.429 520.748 565.797 520.051C565.164 519.353 564.684 518.531 564.389 517.637C564.094 516.743 563.99 515.797 564.083 514.861Z" fill="white"></path><path d="M576.579 554.231H568.565V627.763H576.579V554.231Z" fill="#BBB4F8"></path><path d="M577.594 581.396H567.546V642.628H577.594V581.396Z" fill="white"></path><path d="M523.951 642.623V641.678C523.951 640.258 524.516 638.896 525.522 637.891C526.528 636.887 527.893 636.323 529.316 636.323H615.815C617.238 636.323 618.602 636.887 619.609 637.891C620.615 638.896 621.18 640.258 621.18 641.678V642.623H523.951Z" fill="white"></path><path d="M619.892 651.855C623.031 651.855 625.575 649.315 625.575 646.182C625.575 643.049 623.031 640.51 619.892 640.51C616.754 640.51 614.21 643.049 614.21 646.182C614.21 649.315 616.754 651.855 619.892 651.855Z" fill="#BBB4F8"></path><path d="M625.214 549.941H521.058V554.236H625.214V549.941Z" fill="#CDCDCD"></path><path d="M508.06 549.938H635.803C636.934 549.938 637.852 549.022 637.852 547.892V542.025C637.852 540.896 636.934 539.98 635.803 539.98H508.06C506.928 539.98 506.011 540.896 506.011 542.025V547.892C506.011 549.022 506.928 549.938 508.06 549.938Z" fill="white"></path><path d="M632.959 442.479H581.374" stroke="#CDCDCD" stroke-width="2.45" stroke-miterlimit="10" stroke-linecap="round"></path><path d="M631.262 457.383H579.682" stroke="#CDCDCD" stroke-width="2.45" stroke-miterlimit="10" stroke-linecap="round"></path><path d="M629.618 472.286H578.038" stroke="#CDCDCD" stroke-width="2.45" stroke-miterlimit="10" stroke-linecap="round"></path><path d="M627.882 487.19H576.302" stroke="#CDCDCD" stroke-width="2.45" stroke-miterlimit="10" stroke-linecap="round"></path><path d="M619.893 639.297C620.798 639.297 621.695 639.475 622.531 639.821C623.368 640.167 624.128 640.674 624.768 641.314C625.408 641.953 625.915 642.712 626.261 643.547C626.607 644.383 626.785 645.278 626.784 646.182H612.996C612.996 644.356 613.722 642.604 615.016 641.313C616.309 640.022 618.063 639.297 619.893 639.297Z" fill="#CDCDCD"></path><path d="M572.57 651.855C575.708 651.855 578.252 649.315 578.252 646.182C578.252 643.049 575.708 640.51 572.57 640.51C569.432 640.51 566.888 643.049 566.888 646.182C566.888 649.315 569.432 651.855 572.57 651.855Z" fill="#BBB4F8"></path><path d="M572.57 639.297C574.399 639.297 576.154 640.022 577.447 641.313C578.741 642.604 579.467 644.356 579.467 646.182H565.678C565.678 644.356 566.404 642.606 567.697 641.315C568.989 640.024 570.742 639.298 572.57 639.297Z" fill="#CDCDCD"></path><path d="M523.97 651.855C527.108 651.855 529.652 649.315 529.652 646.182C529.652 643.049 527.108 640.51 523.97 640.51C520.832 640.51 518.288 643.049 518.288 646.182C518.288 649.315 520.832 651.855 523.97 651.855Z" fill="#BBB4F8"></path><path d="M523.97 639.297C525.799 639.297 527.554 640.022 528.847 641.313C530.14 642.604 530.867 644.356 530.867 646.182H517.073C517.073 644.356 517.8 642.604 519.093 641.313C520.387 640.022 522.141 639.297 523.97 639.297Z" fill="#CDCDCD"></path><path d="M439.348 263.357L438.066 260.44L426.957 265.304L428.238 268.22L439.348 263.357Z" fill="#BBB4F8"></path><path d="M478.722 259.079C481.544 247.081 474.087 235.072 462.068 232.256C450.049 229.439 438.019 236.882 435.198 248.88C432.376 260.878 439.833 272.888 451.852 275.704C463.871 278.52 475.901 271.077 478.722 259.079Z" fill="white"></path><path d="M460.638 273.395C471.437 271.372 478.549 260.993 476.522 250.212C474.495 239.432 464.097 232.333 453.298 234.356C442.498 236.379 435.387 246.759 437.414 257.539C439.441 268.32 449.838 275.419 460.638 273.395Z" fill="#EFEEFE"></path><path d="M469.863 238.882C472.181 240.868 474.009 243.359 475.208 246.163C476.406 248.967 476.942 252.009 476.775 255.053C476.608 258.096 475.741 261.061 474.242 263.717C472.744 266.373 470.653 268.65 468.132 270.37L451.46 234.866C454.622 233.964 457.957 233.86 461.169 234.561C464.38 235.262 467.368 236.747 469.863 238.882Z" fill="#D3D5FC"></path><path d="M451.329 273.004L438.676 246.054C440.22 242.506 442.761 239.48 445.993 237.344L462.713 272.946C459.004 274.064 455.049 274.084 451.329 273.004Z" fill="#D3D5FC"></path><path d="M477.623 252.388C477.938 256.469 477.034 260.551 475.025 264.118C473.016 267.685 469.992 270.578 466.336 272.43C462.68 274.282 458.556 275.01 454.486 274.523C450.415 274.036 446.581 272.354 443.468 269.692C440.354 267.029 438.102 263.505 436.995 259.564C435.888 255.624 435.976 251.444 437.249 247.554C438.522 243.664 440.921 240.237 444.144 237.708C447.368 235.179 451.27 233.661 455.357 233.346C460.838 232.93 466.26 234.702 470.434 238.272C474.608 241.842 477.193 246.918 477.623 252.388ZM475.955 252.515C475.663 248.764 474.263 245.184 471.933 242.227C469.603 239.271 466.448 237.07 462.865 235.902C459.283 234.735 455.434 234.654 451.805 235.67C448.177 236.685 444.931 238.752 442.478 241.608C440.026 244.464 438.477 247.982 438.026 251.717C437.576 255.452 438.244 259.236 439.948 262.592C441.651 265.948 444.313 268.724 447.596 270.57C450.88 272.416 454.638 273.25 458.396 272.964C460.894 272.773 463.33 272.092 465.565 270.961C467.799 269.829 469.788 268.27 471.419 266.371C473.05 264.472 474.289 262.271 475.068 259.893C475.846 257.516 476.148 255.009 475.955 252.515Z" fill="white"></path><path d="M429.014 269.977L426.193 263.556L396.086 276.736L398.907 283.157L429.014 269.977Z" fill="white"></path><path d="M530.178 393.288L530.177 393.279L530.176 393.271L523 346.071C524.442 347.482 526.112 348.646 527.943 349.513C530.27 350.613 532.804 351.207 535.378 351.257C536.601 351.286 537.823 351.195 539.028 350.985C543.776 370.767 548.16 404.705 540.924 451.797L535.639 451.893C535.042 443.372 534.345 434.716 533.55 425.923C532.545 414.808 531.421 403.929 530.178 393.288Z" fill="white" stroke="#252362"></path><path d="M541.035 448.564L540.84 452.263L540.833 452.398L540.895 452.519C541.533 453.757 541.849 455.136 541.815 456.528L541.815 456.528V456.54C541.815 457.009 541.809 460.532 539.131 463.15L539.13 463.152C538.527 463.747 537.705 464.379 536.94 464.781C536.556 464.983 536.21 465.114 535.928 465.165C535.64 465.217 535.491 465.172 535.42 465.123L535.42 465.123C535.33 465.06 535.214 464.89 535.129 464.54C535.048 464.209 535.016 463.804 535.013 463.397C535.01 462.994 535.036 462.61 535.063 462.331C535.077 462.192 535.09 462.081 535.1 462.01C535.105 461.973 535.109 461.949 535.111 461.938C535.112 461.929 535.111 461.936 535.108 461.949C535.107 461.953 535.105 461.964 535.1 461.978C535.098 461.985 535.094 461.998 535.087 462.015L535.087 462.016C535.083 462.026 535.066 462.069 535.032 462.118C535.011 462.146 534.943 462.215 534.895 462.251C534.828 462.285 534.686 462.311 534.563 462.31C534.586 462.066 534.61 461.895 534.619 461.846L535.122 461.859L535.815 448.8L541.035 448.564Z" fill="white" stroke="#252362"></path><path d="M535.174 452.401C530.994 456.087 530.384 457.412 530.687 457.908C531.106 458.59 533.725 458.468 535.077 456.691C535.529 456.071 535.781 455.328 535.799 454.561C535.816 453.795 535.598 453.041 535.174 452.401Z" fill="#FB9C98"></path><path d="M515.371 610.121H528.325L523.461 648.964H517.782L515.371 610.121Z" fill="white" stroke="#252362"></path><path d="M527.419 655.647C527.242 653.927 526.655 652.274 525.707 650.827C525.707 650.827 521.156 653.49 516.547 650.827C515.408 652.253 514.728 653.989 514.596 655.808C514.522 657.057 514.717 658.307 515.166 659.474H527.072C527.417 658.23 527.535 656.934 527.419 655.647Z" fill="#F95F6A"></path><path d="M513.483 660.931H528.565V657.888H513.483V660.931Z" fill="white"></path><path d="M524.98 648.534H517.23L516.532 648.714C515.742 649.274 513.698 651.358 513.84 657.883H527.984C528.126 649.815 524.98 648.534 524.98 648.534Z" fill="#252362"></path><path d="M535.362 469.628V469.628C535.211 484.439 529.117 608.26 526.889 640.153L515.734 640.077L491.577 465.569L492.711 418.693L528.432 415.334C528.482 415.484 528.546 415.68 528.622 415.921C528.823 416.558 529.11 417.507 529.455 418.753C530.144 421.244 531.06 424.921 531.965 429.651C533.775 439.112 535.542 452.787 535.362 469.628Z" fill="white" stroke="#252362"></path><path d="M504.006 441.958H521.365C521.646 441.958 521.915 441.847 522.114 441.648C522.312 441.45 522.424 441.181 522.424 440.901C522.424 440.621 522.312 440.352 522.114 440.154C521.915 439.956 521.646 439.845 521.365 439.845H504.006C503.725 439.845 503.456 439.956 503.258 440.154C503.059 440.352 502.948 440.621 502.948 440.901C502.948 441.181 503.059 441.45 503.258 441.648C503.456 441.847 503.725 441.958 504.006 441.958Z" fill="#2E3192"></path><path d="M492.144 473.324L492.246 469.039L499.924 469.268C499.924 469.268 502.606 524.511 507.406 548.262L510.44 605.492L492.144 473.324Z" fill="#141451"></path><path d="M423.191 322.403C423.345 324.409 423.351 326.423 423.208 328.431L423.168 328.993L423.732 328.965C433.324 328.493 440.776 328.02 445.349 327.73L445.761 327.704L445.764 327.704C446.358 327.663 450.728 327.37 456.289 327.58C461.86 327.79 468.578 328.505 473.89 330.459L473.891 330.459C474.953 330.85 475.963 331.292 476.723 331.823C477.489 332.356 477.922 332.922 477.995 333.539C478.089 334.335 477.583 335.16 476.855 335.894C476.182 336.573 475.426 337.067 475.146 337.249L475.082 337.275C475.012 337.304 474.908 337.347 474.771 337.403C474.497 337.515 474.091 337.679 473.569 337.885C472.523 338.296 471.007 338.877 469.129 339.554C465.371 340.906 460.164 342.638 454.367 344.156C448.568 345.675 442.191 346.977 436.088 347.475C429.979 347.974 424.186 347.662 419.535 345.986L419.535 345.986C414.656 344.233 411.749 338.745 410.179 331.387C413.7 327.758 418.501 324.615 423.191 322.403Z" fill="white" stroke="#252362"></path><path d="M411.552 280.638L412.906 281.554L413.024 281.634L413.167 281.639L417.566 281.804L417.622 282.179L417.946 284.365C418.222 286.232 418.61 288.859 419.058 291.902C419.955 297.987 421.093 305.734 422.056 312.382C422.056 312.382 422.056 312.382 422.056 312.383L422.188 313.307L422.188 313.307C422.33 314.304 422.46 315.287 422.588 316.256C422.617 316.475 422.645 316.694 422.674 316.911C422.929 319.045 423.139 321.071 423.229 322.878C420.626 324.752 417.701 326.523 414.705 328.309L414.705 328.31C413.125 329.252 411.576 330.092 410.071 330.84C407.812 319.623 408.623 304.745 409.771 293.935L409.772 293.93C409.932 292.286 410.117 290.738 410.292 289.313C410.56 287.171 410.822 285.311 411.046 283.821C411.061 283.729 411.074 283.642 411.087 283.558C411.11 283.404 411.132 283.258 411.157 283.113L411.157 283.113L411.159 283.104C411.314 282.079 411.446 281.272 411.538 280.722C411.543 280.694 411.547 280.666 411.552 280.638Z" fill="white" stroke="#252362"></path><path d="M467.419 648.964H461.73L458.577 610.121H472.436L467.419 648.964Z" fill="white" stroke="#252362"></path><path d="M440.3 660.931H472.161V657.888H440.3V660.931Z" fill="white"></path><path d="M468.254 648.534C468.254 648.534 471.419 649.815 471.248 657.883H441.212V655.935C441.212 655.234 441.445 654.554 441.875 654C442.306 653.446 442.908 653.051 443.588 652.877L460.503 648.495L468.254 648.534Z" fill="#252362"></path><path d="M456.842 415.336C456.809 415.483 456.769 415.667 456.721 415.886C456.583 416.524 456.384 417.459 456.142 418.651C455.659 421.033 455.006 424.437 454.328 428.519C452.97 436.685 451.51 447.557 451.097 458.395L456.842 415.336ZM456.842 415.336C460.999 415.689 470.323 415.847 479.676 415.839C489.004 415.831 498.41 415.657 502.81 415.336C503.069 419.598 502.59 425.517 502 431.673C501.898 432.741 501.792 433.816 501.687 434.889C501.162 440.226 500.641 445.536 500.541 449.844L500.541 449.844C500.44 454.308 499.901 456.259 499.287 458.05C499.214 458.265 499.139 458.478 499.063 458.694C498.491 460.321 497.876 462.07 497.487 465.531L470.824 640.156H458.5C455.472 598.608 450.466 475.037 451.097 458.395L456.842 415.336Z" fill="white" stroke="#252362"></path><path d="M543.027 357.16L524.98 361.79L508.108 332.839L508.182 323.252C512.988 323.847 517.624 325.412 521.805 327.853C526.682 330.716 529.555 334.008 531.784 336.617C536.891 342.631 540.716 349.621 543.027 357.16Z" fill="#E0E6FF"></path><path d="M528.78 414.798C528.497 403.064 527.853 390.726 526.746 377.848C525.497 363.387 523.775 349.661 521.746 336.729C521.196 333.205 519.492 329.961 516.9 327.505C514.309 325.05 510.975 323.52 507.421 323.154C500.295 322.414 492.856 321.694 486.545 320.106L471.722 324.294C469.205 325.003 466.934 326.395 465.162 328.316C463.425 330.262 462.222 332.624 461.669 335.171C458.933 346.511 460.796 378.359 460.206 394.446C459.941 401.454 459.114 408.429 457.733 415.305C465.198 416.85 472.759 417.887 480.365 418.411C496.593 419.519 512.897 418.302 528.78 414.798Z" fill="#E0E6FF"></path><path d="M510.942 469.628C509.94 469.9 508.911 470.063 507.874 470.115C504.304 470.149 499.919 470.412 497.661 469.94L494.802 489.62" stroke="#2E3192" stroke-width="4.39" stroke-miterlimit="10" stroke-linecap="round"></path><path d="M449.865 427.394C460.835 431.031 484.301 436.738 505.689 434.863C515.341 434.016 524.858 432.024 534.037 428.928C531.218 401.282 525.746 361.736 522.912 334.109L460.108 340.113C459.178 354.817 457.983 369.885 456.523 385.316C455.474 396.096 451.08 417.018 449.865 427.394Z" fill="#E0E6FF"></path><path d="M449.865 427.394C451.094 417.019 455.489 396.097 456.518 385.317C457.819 371.684 458.903 358.315 459.772 345.211L463.059 345.372C463.059 345.372 460.313 403.21 460.698 430.481C456.401 429.425 452.704 428.324 449.865 427.394Z" fill="#BFC7EC"></path><path d="M484.628 321.854C471.362 321.717 458.106 322.641 444.988 324.615C443.512 324.832 442.048 325.064 440.598 325.311C440.554 332.522 440.51 343.998 440.471 351.209C447.885 352.417 455.299 349.364 462.713 350.571C470.016 340.992 477.321 331.42 484.628 321.854Z" fill="#E0E6FF"></path><path d="M485.028 322.881L494.217 322.75C495.495 322.75 496.934 322.881 496.929 321.99L495.914 309.131L483.325 308.946L482.74 320.418C482.718 320.732 482.761 321.047 482.866 321.344C482.97 321.641 483.135 321.913 483.349 322.144C483.564 322.375 483.823 322.559 484.112 322.686C484.401 322.813 484.712 322.879 485.028 322.881Z" fill="#F6A19E"></path><path d="M491.046 323.958C487.436 324.017 483.858 323.282 480.564 321.806L486.559 320.111C491.044 321.171 495.595 321.93 500.182 322.385C497.257 323.457 494.162 323.99 491.046 323.958Z" fill="#F6A19E"></path><path d="M482.989 290.488C482.472 290.746 478.501 292.786 476.853 297.188C476.711 297.563 474.307 303.737 477.916 309.2C478.653 310.31 480.248 312.72 483.042 313.484C488.276 314.911 495.207 309.876 496.778 303.498C498.099 298.142 495.768 291.228 490.924 289.471C487.539 288.229 484.067 289.953 482.989 290.488Z" fill="#F6A19E"></path><path d="M492.017 286.637C492.353 284.806 487.812 281.768 483.491 281.88C483.208 281.88 479.618 282.031 479.194 283.555C478.769 285.079 481.876 287.874 485.169 288.516C488.061 289.071 491.739 288.137 492.017 286.637Z" fill="#191245"></path><path d="M485.594 287.61C485.535 286.51 482.506 285.376 480.038 286.043C479.877 286.087 477.833 286.656 477.799 287.591C477.765 288.526 479.931 289.709 481.911 289.626C483.652 289.558 485.642 288.545 485.594 287.61Z" fill="#191245"></path><path d="M481.696 300.489H478.877C478.809 299.36 478.809 298.288 478.809 297.358C478.809 294.661 478.809 291.754 480.682 288.886C483.608 284.417 489.295 282.737 493.905 283.243C495.187 283.38 499.821 283.886 502.684 287.664C505.996 292.003 504.591 297.49 503.894 300.197C503.26 302.69 502.031 307.501 497.451 310.32C493.549 312.725 487.564 313.553 483.306 310.446C482.795 310.062 482.382 309.564 482.099 308.991C481.816 308.419 481.671 307.788 481.677 307.15L481.696 300.489Z" fill="#191245"></path><path d="M483.33 300.036C483.432 299.625 483.449 299.197 483.38 298.778C483.312 298.36 483.159 297.96 482.931 297.602C482.703 297.244 482.404 296.936 482.054 296.697C481.703 296.458 481.308 296.292 480.891 296.209C480.047 295.994 479.153 296.11 478.391 296.531C477.63 296.953 477.058 297.65 476.794 298.478C476.692 298.89 476.675 299.318 476.744 299.736C476.813 300.155 476.965 300.555 477.193 300.912C477.421 301.27 477.72 301.578 478.07 301.817C478.421 302.057 478.816 302.223 479.233 302.305C480.077 302.52 480.971 302.405 481.733 301.983C482.495 301.561 483.066 300.865 483.33 300.036Z" fill="#F6A19E"></path><path d="M422.862 273.155C422.862 273.155 422.863 273.156 422.863 273.16C422.862 273.157 422.862 273.155 422.862 273.155ZM422.862 273.171C422.86 273.192 422.851 273.238 422.815 273.317C422.737 273.49 422.559 273.754 422.201 274.132C421.543 274.827 420.358 275.825 418.343 277.252C418.206 276.791 418.17 276.305 418.24 275.825C418.337 275.151 418.639 274.522 419.106 274.024C419.782 273.312 420.712 272.984 421.524 272.925C421.929 272.895 422.282 272.934 422.537 273.01C422.759 273.076 422.84 273.149 422.862 273.171Z" fill="white" stroke="#252362"></path><path d="M412.792 268.911L413.349 266.303L414.714 266.255L414.912 268.286L415.072 269.922L415.85 268.474L416.811 266.687L418.344 266.734C418.224 268.567 418.304 270.373 418.382 272.149L418.383 272.165C418.47 274.125 418.554 276.049 418.385 277.995C418.306 278.896 417.983 279.838 417.632 280.856L417.622 280.885C417.348 281.68 417.057 282.523 416.908 283.366L411.223 281.773L410.079 276.313L409.787 267.466L410.953 267.175L411.853 269.025L412.488 270.331L412.792 268.911Z" fill="white" stroke="#252362"></path></g><defs><linearGradient id="paint0_linear_587_8011" x1="393.688" y1="0" x2="393.688" y2="616.894" gradientUnits="userSpaceOnUse"><stop stop-color="#EFEEFE"></stop><stop offset="1" stop-color="#EFEEFE" stop-opacity="0"></stop></linearGradient><clipPath id="clip0_587_8011"><rect width="837" height="668" fill="white" transform="translate(0.5)"></rect></clipPath></defs></svg>